<?xml version="1.0" encoding="UTF-8"?>
<svg width="93px" height="116px" viewBox="0 0 93 116" version="1.1" xmlns="http://www.w3.org/2000/svg" xmlns:xlink="http://www.w3.org/1999/xlink">
    <!-- Generator: Sketch 51.1 (57501) - http://www.bohemiancoding.com/sketch -->
    <title>Group</title>
    <desc>Created with Sketch.</desc>
    <defs></defs>
    <g id="Page-1" stroke="none" stroke-width="1" fill="none" fill-rule="evenodd">
        <g id="293959-P70SA5-767" transform="translate(-27.000000, -41.000000)">
            <g id="Group" transform="translate(26.000000, 41.000000)">
                <path d="M37.22,64.275 C36.708,56.977 38.812,48.897 43.414,42.981 C44.459,41.857 45.638,40.872 46.961,40.091 C51.31,37.514 56.887,36.932 61.106,40.071 C65.434,43.295 67.165,48.788 67.464,53.977 C68.026,63.579 65.638,76.41 55.629,80.504 C44.703,84.972 37.892,73.773 37.22,64.275 M82.081,16.131 C73.22,5.295 59.653,2.648 46.305,4.424 C34.131,6.051 22.359,11.548 14.946,21.603 C7.469,31.738 5.543,44.618 6.066,56.972 C6.011,60.857 6.17,64.738 6.459,68.529 C7.469,81.683 10.986,95.4 21.061,104.634 C30.354,113.146 44.504,115.743 56.763,114.962 C62.563,114.594 68.444,113.236 73.415,110.121 C78.813,106.733 82.404,101.439 85.106,95.773 C91.201,83.007 94.096,68.693 93.803,54.564 C93.519,41.151 90.778,26.758 82.081,16.131" id="Fill-4" fill="#E5E5E0"></path>
                <path d="M67.395,54.424 C67.534,47.817 66.176,41.195 61.907,35.992 C57.877,31.081 51.723,29.006 45.534,30.245 C29.494,33.464 26.907,53.673 29.155,66.902 L29.155,66.912 C29.738,70.589 30.927,74.151 33.086,77.196 C36.564,82.121 42.359,84.713 48.354,83.793 C62.345,81.644 67.141,66.733 67.395,54.424 M83.882,42.613 C85.574,55.444 84.39,68.624 80.539,80.972 C78.723,86.803 76.549,92.907 73.046,97.967 C69.733,102.758 64.817,105.833 59.245,107.335 C53.936,108.768 48.34,108.877 42.887,108.375 C36.832,107.823 30.583,106.589 25.125,103.818 C13.921,98.131 8.912,86.504 6.683,74.753 C5.3,67.454 4.907,59.897 4.867,52.479 C4.827,45.19 5.563,37.892 7.832,30.932 C8.608,28.563 9.593,26.235 10.767,24.006 C15.847,15.862 23.872,10.255 33.295,7.459 C44.359,4.175 58.3,3.658 68.026,10.727 C78.131,18.071 82.315,30.718 83.882,42.613" id="Fill-5" fill="#F8C453"></path>
                <path d="M80.539,80.972 C84.39,68.624 85.574,55.444 83.882,42.613 C82.315,30.718 78.131,18.071 68.026,10.727 C58.3,3.658 44.359,4.175 33.295,7.459 C23.872,10.255 15.847,15.862 10.767,24.006 C9.593,26.235 8.608,28.563 7.832,30.932 C5.563,37.892 4.827,45.19 4.867,52.479 C4.907,59.897 5.3,67.454 6.683,74.753 C8.912,86.504 13.921,98.131 25.125,103.818 C30.583,106.589 36.832,107.823 42.887,108.375 C48.34,108.877 53.936,108.768 59.245,107.335 C64.817,105.833 69.733,102.758 73.046,97.967 C76.549,92.907 78.723,86.803 80.539,80.972 M88.803,51.563 C89.096,65.693 86.201,80.007 80.106,92.773 C77.404,98.439 73.812,103.733 68.415,107.121 C63.444,110.236 57.564,111.594 51.763,111.962 C39.504,112.743 25.354,110.146 16.061,101.634 C5.986,92.4 2.469,78.683 1.459,65.529 C1.17,61.738 1.011,57.857 1.066,53.972 C0.543,41.618 2.469,28.738 9.946,18.603 C17.359,8.548 29.131,3.051 41.305,1.424 C54.653,-0.352 68.22,2.295 77.081,13.131 C85.778,23.757 88.519,38.151 88.803,51.563" id="Fill-6" fill="#DD7B2F"></path>
                <path d="M50.628,77.504 C60.638,73.41 63.026,60.579 62.464,50.977 C62.165,45.788 60.434,40.295 56.106,37.071 C51.887,33.932 46.31,34.514 41.961,37.091 C40.638,37.872 39.459,38.857 38.414,39.981 C33.812,45.897 31.707,53.977 32.22,61.275 C32.892,70.773 39.703,81.972 50.628,77.504 Z M61.907,35.992 C66.176,41.195 67.534,47.817 67.395,54.424 C67.141,66.733 62.345,81.644 48.354,83.793 C42.359,84.713 36.564,82.121 33.086,77.196 C30.927,74.151 29.738,70.589 29.155,66.912 L29.155,66.902 C26.907,53.673 29.494,33.464 45.534,30.245 C51.723,29.006 57.877,31.081 61.907,35.992 Z" id="Fill-7" fill="#DD7B2F"></path>
                <path d="M75.563,55.755 C74.748,55.755 73.948,55.373 73.504,54.549 C72.267,52.252 72.621,49.639 72.546,47.101 C72.466,44.407 72.31,41.649 71.854,38.988 C71.192,35.124 69.79,31.498 67.695,28.186 C65.593,24.864 62.802,21.908 59.584,19.645 C57.918,18.474 56.161,17.42 54.306,16.575 C52.532,15.766 51.021,15.368 49.647,13.93 C48.746,12.987 49.175,11.495 50.394,11.104 C51.029,10.901 51.697,10.81 52.384,10.81 C56.039,10.81 60.245,13.377 62.994,15.235 C66.716,17.751 69.906,20.884 72.529,24.527 C75.245,28.297 77.214,32.698 78.18,37.244 C78.805,40.186 79.026,43.145 79.002,46.148 C78.981,48.874 79.275,52.163 77.783,54.549 C77.295,55.33 76.421,55.755 75.563,55.755" id="Fill-8" fill="#FAD679"></path>
                <path d="M76.596,64.769 C75.969,64.769 75.351,64.495 74.868,64.121 C74.54,63.909 74.282,63.628 74.093,63.277 C73.992,63.038 73.891,62.798 73.79,62.559 C73.746,62.265 73.706,61.971 73.67,61.677 C73.69,61.379 73.732,61.085 73.794,60.795 C73.887,60.405 74.066,60.064 74.332,59.774 C74.543,59.447 74.824,59.19 75.174,59.001 C75.646,58.752 76.157,58.615 76.69,58.591 C76.721,58.589 76.753,58.589 76.784,58.589 C77.41,58.589 78.027,58.863 78.509,59.236 C78.836,59.447 79.094,59.728 79.282,60.078 C79.383,60.317 79.484,60.556 79.585,60.795 C79.647,61.085 79.689,61.379 79.709,61.677 C79.673,61.971 79.633,62.265 79.59,62.559 C79.497,62.95 79.317,63.291 79.051,63.582 C78.839,63.909 78.558,64.168 78.207,64.356 C77.735,64.606 77.224,64.743 76.69,64.767 C76.658,64.768 76.627,64.769 76.596,64.769" id="Fill-9" fill="#FAD679"></path>
                <path d="M61.664,99.02 C60.161,99.02 58.632,97.327 59.368,95.845 C61.07,92.415 63.745,89.345 66.729,84.968 C69.234,81.292 71.473,77.44 73.598,73.534 C74.018,72.761 74.651,72.442 75.302,72.442 C76.756,72.442 78.305,74.027 77.81,75.702 C76.462,80.264 72.468,84.567 69.952,88.611 C67.484,92.575 66.674,96.375 62.609,98.766 C62.31,98.942 61.988,99.02 61.664,99.02" id="Fill-10" fill="#FAD679"></path>
            </g>
        </g>
    </g>
</svg>