<?xml version="1.0" encoding="UTF-8"?>
<svg width="197px" height="396px" viewBox="0 0 197 396" version="1.1" xmlns="http://www.w3.org/2000/svg" xmlns:xlink="http://www.w3.org/1999/xlink">
    <!-- Generator: Sketch 51.2 (57519) - http://www.bohemiancoding.com/sketch -->
    <title>0</title>
    <desc>Created with Sketch.</desc>
    <defs>
        <filter x="-0.5%" y="-0.3%" width="101.0%" height="101.0%" filterUnits="objectBoundingBox" id="filter-1">
            <feOffset dx="0" dy="2" in="SourceAlpha" result="shadowOffsetOuter1"></feOffset>
            <feColorMatrix values="0 0 0 0 0   0 0 0 0 0   0 0 0 0 0  0 0 0 0.5 0" type="matrix" in="shadowOffsetOuter1" result="shadowMatrixOuter1"></feColorMatrix>
            <feMerge>
                <feMergeNode in="shadowMatrixOuter1"></feMergeNode>
                <feMergeNode in="SourceGraphic"></feMergeNode>
            </feMerge>
        </filter>
    </defs>
    <g id="Symbols" stroke="none" stroke-width="1" fill="none" fill-rule="evenodd">
        <g id="number/0" transform="translate(-28.000000, -9.000000)">
            <g id="0" filter="url(#filter-1)" transform="translate(28.000000, 9.000000)">
                <g id="leg" transform="translate(110.000000, 314.000000)">
                    <path d="M21,0 C21,36 20.3333333,59.6666667 19,71" id="Path-3" stroke="#3A3A3A" stroke-width="4"></path>
                    <ellipse id="Oval-3" fill="#3A3A3A" cx="17.5" cy="72.5" rx="17.5" ry="7.5"></ellipse>
                </g>
                <g id="leg" transform="translate(46.000000, 308.000000)">
                    <path d="M20,0 C20,36 24.3333333,60 33,72" id="Path-3" stroke="#3A3A3A" stroke-width="4"></path>
                    <ellipse id="Oval-3" fill="#3A3A3A" cx="17.5" cy="72.5" rx="17.5" ry="7.5"></ellipse>
                </g>
                <ellipse id="Oval-15" fill="#D8D8D8" cx="99" cy="173.5" rx="73" ry="116.5"></ellipse>
                <path d="M147,103 C115.666667,68.3333333 85.6666667,62 57,84 C28.3333333,106 43.3333333,92 102,42 L147,103 Z" id="Path-47" fill="#318C31"></path>
                <path d="M163,224 C131,260.266986 91,265.511591 43,239.733813 C-5,213.956035 3.66666667,231.044764 69,291 L170,257.5 L163,224 Z" id="Path-48" fill="#318C31"></path>
                <path d="M194,140.118409 C199.489687,156.126907 194,228.308489 194,249.664576 C194,271.020662 156.323111,323.971778 119,317.600183 C65,321.846158 0,321.846158 0,235.228259 C2.25767914e-15,177.482993 7.33333333,120.586923 22,64.5400468 C56,-1.13103986 97,-11.887511 145,32.2706335 C184,78.8501537 194,108.698191 194,140.118409 Z M159.045127,148.220715 C159.045127,128.267284 152.694621,109.312268 127.927645,79.7319129 C97.4452128,51.6892539 71.4081355,58.520158 49.816413,100.224625 C40.5023365,135.817231 35.8452983,171.949118 35.8452983,208.620288 C35.8452983,263.627042 77.1235915,264.627042 111.416327,261.930633 C136,261.930633 159.045127,231.350277 159.045127,217.78808 C159.045127,204.225883 162.531357,158.386921 159.045127,148.220715 Z" id="Combined-Shape" fill="#5CC05C"></path>
                <path d="M97,104 C97,104 79.5,186 97,241 C131.6875,177.452172 97,104 97,104 Z" id="Path-46" fill="#000000"></path>
                <path d="M90,18 C76,28.6666667 76,38.6666667 90,48 C111,62 155,26 139,0 C127,17.0432485 110.666667,23.0432485 90,18 Z" id="Path-2" fill="#A89C76"></path>
            </g>
        </g>
    </g>
</svg>