<?xml version="1.0" encoding="UTF-8"?>
<svg width="197px" height="396px" viewBox="0 0 197 396" version="1.1" xmlns="http://www.w3.org/2000/svg" xmlns:xlink="http://www.w3.org/1999/xlink">
    <!-- Generator: Sketch 51.2 (57519) - http://www.bohemiancoding.com/sketch -->
    <title>0</title>
    <desc>Created with Sketch.</desc>
    <defs>
        <filter x="-0.5%" y="-0.3%" width="101.0%" height="101.0%" filterUnits="objectBoundingBox" id="filter-1">
            <feOffset dx="0" dy="2" in="SourceAlpha" result="shadowOffsetOuter1"></feOffset>
            <feColorMatrix values="0 0 0 0 0   0 0 0 0 0   0 0 0 0 0  0 0 0 0.5 0" type="matrix" in="shadowOffsetOuter1" result="shadowMatrixOuter1"></feColorMatrix>
            <feMerge>
                <feMergeNode in="shadowMatrixOuter1"></feMergeNode>
                <feMergeNode in="SourceGraphic"></feMergeNode>
            </feMerge>
        </filter>
    </defs>
    <g id="Symbols" stroke="none" stroke-width="1" fill="none" fill-rule="evenodd">
        <g id="number/0" transform="translate(-28.000000, -9.000000)">
            <g id="0" filter="url(#filter-1)" transform="translate(28.000000, 9.000000)">
                <g id="leg" transform="translate(110.000000, 314.000000)">
                    <path d="M21,0 C21,36 20.3333333,59.6666667 19,71" id="Path-3" stroke="#3A3A3A" stroke-width="4"></path>
                    <ellipse id="Oval-3" fill="#3A3A3A" cx="17.5" cy="72.5" rx="17.5" ry="7.5"></ellipse>
                </g>
                <g id="leg" transform="translate(46.000000, 308.000000)">
                    <path d="M20,0 C20,36 24.3333333,60 33,72" id="Path-3" stroke="#3A3A3A" stroke-width="4"></path>
                    <ellipse id="Oval-3" fill="#3A3A3A" cx="17.5" cy="72.5" rx="17.5" ry="7.5"></ellipse>
                </g>
                <ellipse id="Oval-15" fill="#FFFFFF" cx="99" cy="173.5" rx="73" ry="116.5"></ellipse>
                <path d="M152,103 C112.753379,77 77.4200455,75 46,97 C14.5799545,119 31.5799545,99.3333333 97,38 L152,103 Z" id="Path-47" fill="#318C31"></path>
                <path d="M163,224 C131,260.266986 91,265.511591 43,239.733813 C-5,213.956035 3.66666667,231.044764 69,291 L170,257.5 L163,224 Z" id="Path-48" fill="#318C31"></path>
                <path d="M194,140.118409 C199.489687,156.126907 194,228.308489 194,249.664576 C194,271.020662 156.323111,323.971778 119,317.600183 C65,321.846158 0,321.846158 0,235.228259 C2.25767914e-15,177.482993 7.33333333,120.586923 22,64.5400468 C56,-1.13103986 97,-11.887511 145,32.2706335 C184,78.8501537 194,108.698191 194,140.118409 Z M161.14476,147.71818 C161.14476,127.075974 154.575039,107.466648 128.953129,76.8652043 C97.4184702,47.8545372 70.4826158,54.9212381 48.1455658,98.0653072 C38.5099756,134.886539 33.6921805,172.265667 33.6921805,210.202694 C33.6921805,267.108233 76.3953643,268.142752 111.871856,265.353265 C137.304135,265.353265 161.14476,233.717302 161.14476,219.68695 C161.14476,205.656598 164.751331,158.235315 161.14476,147.71818 Z" id="Combined-Shape" fill="#5CC05C"></path>
                <path d="M94.3022926,103.70321 L94.9137485,101.735805 L96.0811905,103.433345 C96.1285632,103.502228 96.2170281,103.633442 96.3438448,103.825485 C96.5530798,104.142337 96.7951789,104.517006 97.0674018,104.947993 C97.8427267,106.175498 98.7056096,107.610203 99.6341209,109.240119 C102.283639,113.891105 104.931949,119.178406 107.403423,125.006362 C113.001116,138.206227 116.861798,152.178555 118.20089,166.499574 C119.882608,184.484821 117.463096,201.956701 110.153304,218.472975 C106.60035,226.500779 101.916708,234.22942 96.0400432,241.622264 L95.0313895,242.89115 L94.3499075,241.420423 C88.3738906,228.523404 84.8714854,213.543544 83.5422932,196.894666 C81.7578544,174.54357 83.9192224,150.615127 88.6132436,127.100537 C89.8561226,120.874363 91.1879321,115.157283 92.5201234,110.075139 C92.9867532,108.295004 93.4202574,106.720911 93.8095723,105.368602 C93.9460801,104.894434 94.0673895,104.481625 94.1721176,104.132143 C94.2353185,103.92124 94.2791711,103.777606 94.3022926,103.70321 Z" id="Path-46" stroke="#5D5D5D" stroke-width="2" fill="#000000"></path>
                <circle id="Oval" fill="#FFFFFF" cx="108" cy="195" r="8"></circle>
                <path d="M90,18 C76,28.6666667 76,38.6666667 90,48 C111,62 155,26 139,0 C127,17.0432485 110.666667,23.0432485 90,18 Z" id="Path-2" fill="#A89C76"></path>
            </g>
        </g>
    </g>
</svg>