<?xml version="1.0" encoding="UTF-8"?>
<svg width="194px" height="403px" viewBox="0 0 194 403" version="1.1" xmlns="http://www.w3.org/2000/svg" xmlns:xlink="http://www.w3.org/1999/xlink">
    <!-- Generator: Sketch 51.2 (57519) - http://www.bohemiancoding.com/sketch -->
    <title>1</title>
    <desc>Created with Sketch.</desc>
    <defs>
        <filter x="-0.5%" y="-0.8%" width="101.0%" height="101.5%" filterUnits="objectBoundingBox" id="filter-1">
            <feOffset dx="0" dy="2" in="SourceAlpha" result="shadowOffsetOuter1"></feOffset>
            <feColorMatrix values="0 0 0 0 0   0 0 0 0 0   0 0 0 0 0  0 0 0 0.5 0" type="matrix" in="shadowOffsetOuter1" result="shadowMatrixOuter1"></feColorMatrix>
            <feMerge>
                <feMergeNode in="shadowMatrixOuter1"></feMergeNode>
                <feMergeNode in="SourceGraphic"></feMergeNode>
            </feMerge>
        </filter>
        <path d="M2,76 C7.33333333,93.3333333 28.3333333,93.3333333 65,76 C63.2083426,178.022061 62.2590751,240.27648 62.1521974,262.763256 C62.1079106,272.081084 25,262.763256 12.1999561,274.186517 C-1,284 1.31189629,312 12.1999561,312 C22.3118963,320.327638 54.3777436,315.672362 65,318 C75.6222564,320.327638 117,323 130,326 C135,326 144,329 150,329 C166,329 193,318 193,297 C193,269 165,269 135,269 C135,240 148,26 135,9 C122,-8 82.2445128,5 75.6222564,7 C69,9 45,21 31,26 C17,31 -6,50 2,76 Z" id="path-2"></path>
    </defs>
    <g id="Symbols" stroke="none" stroke-width="1" fill="none" fill-rule="evenodd">
        <g id="number/1" transform="translate(-26.000000, -2.000000)">
            <g id="1" filter="url(#filter-1)" transform="translate(25.000000, 4.000000)">
                <g id="leg" transform="translate(91.000000, 319.000000)">
                    <path d="M16,0 C16,36 20.3333333,60 29,72" id="Path-3" stroke="#3A3A3A" stroke-width="4"></path>
                    <ellipse id="Oval-3" fill="#3A3A3A" cx="17.5" cy="72.5" rx="17.5" ry="7.5"></ellipse>
                </g>
                <g id="leg" transform="translate(57.000000, 305.000000)">
                    <path d="M20,0 C20,36 24.3333333,60 33,72" id="Path-3" stroke="#3A3A3A" stroke-width="4"></path>
                    <ellipse id="Oval-3" fill="#3A3A3A" cx="17.5" cy="72.5" rx="17.5" ry="7.5"></ellipse>
                </g>
                <path d="M136,23 L150.096607,35.0828062 C153.87054,38.3176055 154.307594,43.9993054 151.072794,47.7732379 C151.052873,47.7964797 151.032833,47.8196197 151.012675,47.8426571 L146.5,53 L151.395357,57.6622443 C154.617915,60.731348 155.11357,65.6949006 152.561547,69.3406468 L146.5,78 L152.294877,84.6227166 C155.050245,87.7717085 155.271922,92.4042825 152.829825,95.8019825 L145.5,106 L151.508723,111.747474 C154.67998,114.780851 155.201144,119.659179 152.74227,123.294035 L145.5,134 L151.700369,141.009113 C154.722882,144.425866 154.711053,149.563621 151.672839,152.96642 L144.5,161 L151.629542,169.555451 C154.654667,173.185601 154.357178,178.537109 150.948337,181.809596 L144.5,188 L149.280701,191.824561 C153.162058,194.929646 153.79135,200.593278 150.686265,204.474635 C150.510612,204.6942 150.324767,204.905413 150.129341,205.107579 L142.5,213 L150.815448,222.749146 C154.041078,226.530919 153.590235,232.211542 149.808462,235.437171 C149.677886,235.548545 149.544151,235.656161 149.407421,235.759887 L142.5,241 L147.8327,245.413269 C151.661993,248.582339 152.19721,254.255634 149.028139,258.084927 C148.499951,258.723155 147.886172,259.285399 147.204187,259.755733 L142.5,263 L130,263 L136,23 Z" id="fins" fill="#D75050"></path>
                <polygon id="tooth" fill="#FFFFFF" points="54 82 43 115 33 82"></polygon>
                <polygon id="tooth-copy" fill="#FFFFFF" points="34 82 23 115 13 82"></polygon>
                <ellipse id="Oval-Copy" fill="#D75050" cx="17" cy="294" rx="16" ry="19"></ellipse>
                <g id="body" transform="translate(2.000000, 1.000000)">
                    <mask id="mask-3" fill="white">
                        <use xlink:href="#path-2"></use>
                    </mask>
                    <g id="Mask">
                        <use fill="#74CAE0" xlink:href="#path-2"></use>
                        <use fill="#91A12A" xlink:href="#path-2"></use>
                    </g>
                    <path d="M65,88 L86,88 C97.045695,88 106,96.954305 106,108 L106,239.454348 C106,250.500043 97.045695,259.454348 86,259.454348 C84.916143,259.454348 83.8340795,259.366243 82.7644995,259.190902 L61.7644995,255.748279 C52.0966458,254.163385 45,245.808627 45,236.011725 L45,108 C45,96.954305 53.954305,88 65,88 Z" id="Rectangle" fill="#D8D8D8" mask="url(#mask-3)"></path>
                    <path d="M34.5,98.5 C49.5,111.166667 73.1666667,117.5 105.5,117.5" id="Line-2" stroke="#979797" stroke-width="3" opacity="0.5" stroke-linecap="square" mask="url(#mask-3)"></path>
                    <path d="M34.5,128.5 C49.5,141.166667 73.1666667,147.5 105.5,147.5" id="Line-2-Copy" stroke="#979797" stroke-width="3" opacity="0.5" stroke-linecap="square" mask="url(#mask-3)"></path>
                    <path d="M34.5,158.5 C49.5,171.166667 73.1666667,177.5 105.5,177.5" id="Line-2-Copy-2" stroke="#979797" stroke-width="3" opacity="0.5" stroke-linecap="square" mask="url(#mask-3)"></path>
                    <path d="M34.5,188.5 C49.5,201.166667 73.1666667,207.5 105.5,207.5" id="Line-2-Copy-3" stroke="#979797" stroke-width="3" opacity="0.5" stroke-linecap="square" mask="url(#mask-3)"></path>
                    <path d="M34.5,218.5 C49.5,231.166667 73.1666667,237.5 105.5,237.5" id="Line-2-Copy-4" stroke="#979797" stroke-width="3" opacity="0.5" stroke-linecap="square" mask="url(#mask-3)"></path>
                    <path d="M58.5,118.5 L60,120" id="Line" stroke="#979797" stroke-linecap="square" mask="url(#mask-3)"></path>
                </g>
                <ellipse id="Oval" fill="#D75050" cx="171" cy="297.5" rx="20" ry="23.5"></ellipse>
                <g id="eye" transform="translate(17.000000, 0.000000)">
                    <ellipse id="Oval-2" stroke="#56610E" stroke-width="2" fill="#FFFFFF" cx="21" cy="24" rx="22" ry="25"></ellipse>
                    <ellipse id="Oval-2-Copy-3" fill="#000000" cx="20" cy="25.0769231" rx="7" ry="8.07692308"></ellipse>
                </g>
                <g id="eye" transform="translate(77.000000, 10.000000)">
                    <ellipse id="Oval-2-Copy-4" stroke="#56610E" stroke-width="2" fill="#FFFFFF" cx="21" cy="24" rx="22" ry="25"></ellipse>
                    <ellipse id="Oval-2-Copy-5" fill="#000000" cx="23" cy="25.0769231" rx="7" ry="8.07692308"></ellipse>
                </g>
            </g>
        </g>
    </g>
</svg>