<?xml version="1.0" encoding="UTF-8"?>
<svg width="83px" height="121px" viewBox="0 0 83 121" version="1.1" xmlns="http://www.w3.org/2000/svg" xmlns:xlink="http://www.w3.org/1999/xlink">
    <!-- Generator: Sketch 51.1 (57501) - http://www.bohemiancoding.com/sketch -->
    <title>Group 2</title>
    <desc>Created with Sketch.</desc>
    <defs></defs>
    <g id="Page-1" stroke="none" stroke-width="1" fill="none" fill-rule="evenodd">
        <g id="293959-P70SA5-767" transform="translate(-122.000000, -35.000000)">
            <g id="Group-2" transform="translate(122.000000, 35.000000)">
                <path d="M15.387,52.3 C22.511,54.39 27.994,49.554 34.307,47.39 C34.745,50.146 34.362,52.827 34.019,55.698 C33.581,59.415 33.173,63.131 32.65,66.837 C31.78,73.001 30.71,79.136 29.456,85.235 C24.566,84.678 19.596,84.892 14.79,86.046 C12.74,86.539 10.665,87.27 9.272,88.937 C7.406,91.161 7.262,94.619 6.894,97.365 C6.531,100.066 6.257,102.798 6.123,105.519 C5.998,107.962 5.894,110.594 6.964,112.868 C9.183,117.584 14.999,117.947 19.531,118.509 C25.874,119.291 32.262,119.554 38.641,119.818 C45.043,120.077 51.446,120.275 57.845,119.753 C62.77,119.35 68.083,118.723 72.277,115.862 C76.695,112.848 79.252,108.136 80.865,103.151 C82.467,98.201 84.79,90.051 79.099,86.783 C76.89,85.514 74.252,85.395 71.77,85.489 C69.059,85.594 66.347,85.768 63.641,85.977 C64.063,78.041 64.009,70.206 63.581,62.23 C63.098,53.186 63.452,44.399 64.854,35.449 C65.989,28.19 69.795,18.613 63.223,12.927 C60.287,10.389 56.725,8.424 53.352,6.539 C50.173,4.762 46.392,2.31 42.586,3.35 C40.521,3.917 38.795,5.782 37.068,6.961 C36.128,7.603 35.168,8.22 34.198,8.817 C31.108,10.583 28.083,12.449 25.133,14.434 C17.655,19.474 7.446,25.29 5.401,35.006 C3.839,42.434 7.994,50.131 15.387,52.3" id="Fill-11" fill="#E5E5E0"></path>
                <path d="M69.009,88.758 C70.72,88.972 71.407,89.435 71.382,91.186 C71.357,93.355 70.76,95.609 70.188,97.693 C69.193,101.32 67.944,106.116 64.879,108.569 C61.7,111.106 57.223,111.828 53.307,112.295 C43.775,113.445 33.859,112.708 24.302,112.201 C19.536,111.947 14.621,111.708 9.944,110.684 C8.048,110.266 6.167,109.624 5.486,107.619 C4.814,105.659 5.173,103.196 5.312,101.176 C5.496,98.519 5.889,95.907 6.431,93.3 C6.969,90.723 7.173,88.658 9.983,87.957 C15.227,86.644 20.805,87.021 25.994,88.35 C27.396,88.713 29.362,87.897 29.605,86.3 C31.859,71.628 33.869,56.509 33.113,41.648 C33.059,40.514 32.153,39.365 30.914,39.444 C24.914,39.822 19.456,44.733 13.392,43.872 C6.904,42.956 3.899,35.743 6.337,30.086 C8.964,23.982 15.486,19.484 20.616,15.618 C23.332,13.568 26.088,11.603 28.904,9.723 C30.904,8.633 32.929,7.623 34.994,6.732 C36.437,6.116 38.223,5.289 39.814,5.499 C41.541,5.723 43.287,7.061 44.75,7.921 C47.814,9.713 51.059,11.559 53.77,13.867 C56.621,16.295 56.263,19.305 55.78,22.718 C55.227,26.638 54.631,30.549 54.163,34.479 C53.238,42.27 53.128,49.981 53.591,57.808 C54.133,66.957 54.571,76.161 53.034,85.246 C52.735,87.012 53.76,88.713 55.7,88.743 C57.305,88.769 58.951,88.704 60.606,88.639 C63.435,88.527 66.29,88.416 69.009,88.758" id="Fill-12" fill="#24AAD3"></path>
                <path d="M71.382,91.186 C71.407,89.435 70.72,88.972 69.009,88.758 C66.29,88.416 63.435,88.527 60.606,88.639 C58.951,88.704 57.305,88.769 55.7,88.743 C53.76,88.713 52.735,87.012 53.034,85.246 C54.571,76.161 54.133,66.957 53.591,57.808 C53.128,49.981 53.238,42.27 54.163,34.479 C54.631,30.549 55.227,26.638 55.78,22.718 C56.263,19.305 56.621,16.295 53.77,13.867 C51.059,11.559 47.814,9.713 44.75,7.921 C43.287,7.061 41.541,5.723 39.814,5.499 C38.223,5.289 36.437,6.116 34.994,6.732 C32.929,7.623 30.904,8.633 28.904,9.723 C26.088,11.603 23.332,13.568 20.616,15.618 C15.486,19.484 8.964,23.982 6.337,30.086 C3.899,35.743 6.904,42.956 13.392,43.872 C19.456,44.733 24.914,39.822 30.914,39.444 C32.153,39.365 33.059,40.514 33.113,41.648 C33.869,56.509 31.859,71.628 29.605,86.3 C29.362,87.897 27.396,88.713 25.994,88.35 C20.805,87.021 15.227,86.644 9.983,87.957 C7.173,88.658 6.969,90.723 6.431,93.3 C5.889,95.907 5.496,98.519 5.312,101.176 C5.173,103.196 4.814,105.659 5.486,107.619 C6.167,109.624 8.048,110.266 9.944,110.684 C14.621,111.708 19.536,111.947 24.302,112.201 C33.859,112.708 43.775,113.445 53.307,112.295 C57.223,111.828 61.7,111.106 64.879,108.569 C67.944,106.116 69.193,101.32 70.188,97.693 C70.76,95.609 71.357,93.355 71.382,91.186 M74.099,83.783 C79.79,87.051 77.467,95.201 75.865,100.151 C74.252,105.136 71.695,109.848 67.277,112.862 C63.084,115.723 57.77,116.35 52.845,116.753 C46.446,117.275 40.043,117.077 33.641,116.818 C27.262,116.554 20.874,116.291 14.531,115.509 C9.999,114.947 4.183,114.584 1.964,109.868 C0.894,107.594 0.999,104.962 1.123,102.519 C1.257,99.798 1.531,97.066 1.894,94.365 C2.262,91.619 2.406,88.161 4.272,85.937 C5.665,84.271 7.74,83.539 9.789,83.046 C14.596,81.892 19.566,81.678 24.457,82.235 C25.71,76.136 26.78,70.001 27.65,63.837 C28.173,60.131 28.581,56.415 29.019,52.698 C29.362,49.827 29.745,47.146 29.307,44.39 C22.994,46.554 17.511,51.39 10.387,49.3 C2.994,47.131 -1.161,39.434 0.401,32.006 C2.446,22.29 12.655,16.474 20.133,11.434 C23.083,9.449 26.108,7.583 29.198,5.817 C30.168,5.22 31.128,4.603 32.068,3.961 C33.795,2.782 35.521,0.917 37.586,0.35 C41.392,-0.69 45.173,1.762 48.352,3.539 C51.725,5.424 55.287,7.389 58.223,9.927 C64.795,15.613 60.989,25.19 59.855,32.449 C58.452,41.399 58.098,50.185 58.581,59.23 C59.009,67.206 59.063,75.041 58.641,82.977 C61.347,82.768 64.059,82.594 66.77,82.489 C69.252,82.394 71.89,82.514 74.099,83.783" id="Fill-13" fill="#267FB6"></path>
                <path d="M14.635,30.665 C13.403,30.665 12.237,29.485 13.093,28.169 C16.197,23.396 19.637,18.975 24.418,15.767 C26.863,14.125 31.752,11.472 35.68,11.472 C37.393,11.472 38.923,11.976 39.989,13.289 C40.782,14.265 40.951,15.633 39.989,16.587 C38.156,18.406 35.739,18.091 33.388,18.64 C31.163,19.159 29.097,20.097 27.158,21.295 C23.059,23.827 19.5,27.199 15.794,30.253 C15.446,30.54 15.037,30.665 14.635,30.665" id="Fill-14" fill="#3FBCD7"></path>
                <path d="M46.569,18.858 C43.977,18.858 43.98,14.836 46.569,14.836 C49.162,14.836 49.158,18.858 46.569,18.858" id="Fill-15" fill="#3FBCD7"></path>
                <path d="M46.958,86.548 C46.202,86.547 45.396,86.03 45.122,85.293 C43.608,81.228 44.556,76.318 44.779,72.066 C45.012,67.644 45.299,63.226 45.561,58.806 C45.822,54.387 46.012,49.957 46.368,45.545 C46.717,41.236 46.766,36.644 48.326,32.567 C48.463,32.207 48.803,32.007 49.131,32.007 C49.437,32.007 49.734,32.183 49.844,32.567 C51.036,36.738 50.696,41.251 50.67,45.545 C50.643,50.128 50.425,54.716 50.29,59.297 C50.155,63.88 50.05,68.466 49.871,73.048 C49.707,77.263 50.117,81.823 48.266,85.704 C47.981,86.299 47.481,86.548 46.958,86.548" id="Fill-16" fill="#3FBCD7"></path>
                <path d="M47.232,96.048 C43.475,96.048 43.481,90.218 47.232,90.218 C50.99,90.218 50.984,96.048 47.232,96.048" id="Fill-17" fill="#3FBCD7"></path>
            </g>
        </g>
    </g>
</svg>