<?xml version="1.0" encoding="UTF-8"?>
<svg width="87px" height="123px" viewBox="0 0 87 123" version="1.1" xmlns="http://www.w3.org/2000/svg" xmlns:xlink="http://www.w3.org/1999/xlink">
    <!-- Generator: Sketch 51.1 (57501) - http://www.bohemiancoding.com/sketch -->
    <title>Group 3</title>
    <desc>Created with Sketch.</desc>
    <defs></defs>
    <g id="Page-1" stroke="none" stroke-width="1" fill="none" fill-rule="evenodd">
        <g id="293959-P70SA5-767" transform="translate(-210.000000, -36.000000)">
            <g id="Group-3" transform="translate(210.000000, 36.000000)">
                <path d="M13.35,121.196 C19.435,122.38 25.758,122.286 31.932,122.35 C44.967,122.484 58.057,122.36 71.077,121.629 C73.838,121.475 76.604,121.141 78.893,119.459 C81.116,117.828 82.36,115.365 83.41,112.882 C85.629,107.624 87.5,100.758 85.818,95.086 C84.127,89.38 78.693,87.817 73.346,87.683 C68.291,87.554 63.236,87.534 58.176,87.494 C63.918,82.136 68.828,75.892 72.978,69.235 C75.629,64.992 77.982,60.563 80.018,55.992 C82.216,51.061 84.27,46.021 84.55,40.563 C85.066,30.384 79.281,20.011 71.674,13.568 C64.315,7.339 55.002,4.026 45.405,3.623 C34.405,3.16 24.445,6.648 15.082,12.105 C8.718,15.817 7.524,22.797 9.166,29.777 C9.793,32.444 10.862,35.006 12.046,37.469 C13.28,40.036 14.634,43.076 16.564,45.2 C20.793,49.862 25.813,43.131 29.504,41.126 C34.266,38.543 39.648,40.608 42.082,45.34 C44.773,50.588 43.131,56.932 40.275,61.728 C34.664,71.151 25.042,77.778 15.355,82.444 C10.887,84.594 7.644,87.31 6.549,92.36 C5.3,98.126 5.201,104.589 5.39,110.47 C5.559,115.838 7.728,120.102 13.35,121.196" id="Fill-18" fill="#E5E5E0"></path>
                <path d="M75.992,93.419 C76.928,97.907 75.047,103.653 73.177,107.678 C72.33,109.499 71.391,111.524 69.351,112.181 C66.897,112.972 63.853,112.688 61.306,112.798 C50.012,113.275 38.708,113.47 27.41,113.39 C21.738,113.345 15.898,113.514 10.291,112.544 C8.052,112.156 6.479,111.604 5.853,109.271 C5.186,106.778 5.206,104.012 5.101,101.45 C4.992,98.619 5.037,95.798 5.266,92.972 C5.459,90.519 5.778,87.952 7.644,86.161 C9.196,84.678 11.34,83.882 13.27,83.037 C15.464,82.071 17.594,81.007 19.654,79.783 C27.624,75.041 35.355,68.251 39.733,59.952 C43.808,52.235 44.33,41.544 37.156,35.404 C33.888,32.613 29.808,31.001 25.484,31.772 C23.37,32.15 21.365,33.076 19.529,34.161 C18.534,34.753 17.574,35.409 16.614,36.056 C16.36,36.225 15.967,36.399 15.664,36.608 C12.574,32.041 9.171,27.32 8.335,21.732 C7.927,19.011 8.236,16.22 10.131,14.096 C11.932,12.081 14.584,10.698 16.982,9.523 C17.439,9.305 17.902,9.096 18.36,8.887 C32.35,3.966 47.828,3.982 60.435,13.111 C67.564,18.27 73.042,26.932 73.375,35.872 C73.56,40.817 71.778,45.499 69.863,49.977 C68.102,54.096 66.166,58.156 63.987,62.071 C59.092,70.867 52.907,78.753 45.082,85.121 C43.4,86.489 44.838,89.235 46.783,89.235 C52.47,89.241 58.156,89.3 63.843,89.34 C64.441,89.344 65.116,89.322 65.833,89.301 C69.805,89.18 75.086,89.058 75.992,93.419" id="Fill-19" fill="#E77D66"></path>
                <path d="M73.177,107.678 C75.047,103.653 76.928,97.907 75.992,93.419 C75.086,89.058 69.805,89.18 65.833,89.301 C65.116,89.322 64.441,89.344 63.843,89.34 C58.156,89.3 52.47,89.241 46.783,89.235 C44.838,89.235 43.4,86.489 45.082,85.121 C52.907,78.753 59.092,70.867 63.987,62.071 C66.166,58.156 68.102,54.096 69.863,49.977 C71.778,45.499 73.56,40.817 73.375,35.872 C73.042,26.932 67.564,18.27 60.435,13.111 C47.828,3.982 32.35,3.966 18.36,8.887 C17.902,9.096 17.439,9.305 16.982,9.523 C14.584,10.698 11.932,12.081 10.131,14.096 C8.236,16.22 7.927,19.011 8.335,21.732 C9.171,27.32 12.574,32.041 15.664,36.608 C15.967,36.399 16.36,36.225 16.614,36.056 C17.574,35.409 18.534,34.753 19.529,34.161 C21.365,33.076 23.37,32.15 25.484,31.772 C29.808,31.001 33.888,32.613 37.156,35.404 C44.33,41.544 43.808,52.235 39.733,59.952 C35.355,68.251 27.624,75.041 19.654,79.783 C17.594,81.007 15.464,82.071 13.27,83.037 C11.34,83.882 9.196,84.678 7.644,86.161 C5.778,87.952 5.459,90.519 5.266,92.972 C5.037,95.798 4.992,98.619 5.101,101.45 C5.206,104.012 5.186,106.778 5.853,109.271 C6.479,111.604 8.052,112.156 10.291,112.544 C15.898,113.514 21.738,113.345 27.41,113.39 C38.708,113.47 50.012,113.275 61.306,112.798 C63.853,112.688 66.897,112.972 69.351,112.181 C71.391,111.524 72.33,109.499 73.177,107.678 M80.818,92.086 C82.5,97.758 80.629,104.623 78.41,109.882 C77.36,112.365 76.116,114.828 73.893,116.46 C71.604,118.141 68.838,118.475 66.077,118.629 C53.057,119.36 39.967,119.484 26.932,119.35 C20.758,119.286 14.435,119.38 8.35,118.196 C2.728,117.102 0.559,112.838 0.39,107.469 C0.201,101.589 0.3,95.126 1.549,89.36 C2.644,84.31 5.887,81.594 10.355,79.444 C20.042,74.778 29.664,68.151 35.275,58.728 C38.131,53.932 39.773,47.588 37.081,42.34 C34.649,37.608 29.266,35.543 24.504,38.126 C20.813,40.131 15.793,46.862 11.564,42.2 C9.634,40.076 8.28,37.036 7.046,34.469 C5.862,32.006 4.793,29.444 4.166,26.777 C2.524,19.797 3.718,12.817 10.081,9.105 C19.445,3.648 29.405,0.16 40.405,0.623 C50.002,1.026 59.315,4.339 66.674,10.568 C74.281,17.011 80.066,27.384 79.55,37.563 C79.27,43.021 77.216,48.061 75.018,52.992 C72.982,57.563 70.629,61.992 67.978,66.235 C63.828,72.892 58.918,79.136 53.176,84.494 C58.236,84.534 63.291,84.554 68.346,84.683 C73.693,84.817 79.127,86.38 80.818,92.086" id="Fill-20" fill="#C54C3B"></path>
                <path d="M61.07,47.648 C59.794,47.648 58.909,46.524 59.155,45.192 C59.559,43.01 60.869,41.012 61.411,38.843 C61.954,36.666 62.061,34.347 61.632,32.141 C60.713,27.421 57.624,23.576 53.649,20.983 C47.841,17.195 41.306,15.629 34.671,15.629 C30.273,15.629 25.831,16.317 21.529,17.502 C21.412,17.535 21.295,17.55 21.179,17.55 C19.956,17.55 18.92,15.86 20.054,14.969 C24.591,11.405 30.514,9.851 36.607,9.851 C44.588,9.851 52.857,12.519 58.663,16.832 C63.869,20.7 67.49,26.132 68.303,32.63 C68.931,37.657 67.635,46.299 61.558,47.595 C61.39,47.631 61.227,47.648 61.07,47.648" id="Fill-21" fill="#EEA28C"></path>
                <path d="M57.36,61.52 C56.578,61.52 55.884,61.192 55.319,60.674 C54.753,60.154 54.508,59.38 54.475,58.633 C54.442,57.914 54.819,57.093 55.319,56.593 C55.843,56.069 56.62,55.748 57.36,55.748 C58.143,55.748 58.836,56.074 59.401,56.593 C59.968,57.113 60.213,57.887 60.246,58.633 C60.278,59.352 59.901,60.173 59.401,60.674 C58.878,61.197 58.101,61.52 57.36,61.52" id="Fill-22" fill="#EEA28C"></path>
                <path d="M49.978,96.985 C48.968,96.985 47.95,96.946 46.925,96.903 C44.172,96.788 41.055,96.736 38.707,95.144 C38.194,94.797 38.167,94.076 38.707,93.734 C41.093,92.221 44.18,92.192 46.925,91.984 C48.664,91.852 50.36,91.704 52.054,91.704 C53.449,91.704 54.843,91.804 56.26,92.097 C58.404,92.54 58.104,95.548 56.26,96.144 C54.192,96.813 52.1,96.985 49.978,96.985" id="Fill-23" fill="#EEA28C"></path>
                <path d="M64.668,98.218 C63.94,98.218 63.223,97.931 62.699,97.408 C62.001,96.709 61.725,95.666 61.986,94.713 C62.252,93.75 62.99,93.081 63.921,92.779 C64.024,92.746 64.128,92.712 64.231,92.678 C64.464,92.603 64.698,92.568 64.928,92.568 C66.529,92.568 67.952,94.26 67.429,95.875 C67.394,95.979 67.361,96.082 67.327,96.186 C67.025,97.117 66.356,97.855 65.393,98.12 C65.155,98.186 64.911,98.218 64.668,98.218" id="Fill-24" fill="#EEA28C"></path>
            </g>
        </g>
    </g>
</svg>