<?xml version="1.0" encoding="UTF-8"?>
<svg width="233px" height="434px" viewBox="0 0 233 434" version="1.1" xmlns="http://www.w3.org/2000/svg" xmlns:xlink="http://www.w3.org/1999/xlink">
    <!-- Generator: Sketch 51.2 (57519) - http://www.bohemiancoding.com/sketch -->
    <title>2</title>
    <desc>Created with Sketch.</desc>
    <defs>
        <filter x="-0.4%" y="-0.2%" width="100.9%" height="100.9%" filterUnits="objectBoundingBox" id="filter-1">
            <feOffset dx="0" dy="2" in="SourceAlpha" result="shadowOffsetOuter1"></feOffset>
            <feColorMatrix values="0 0 0 0 0   0 0 0 0 0   0 0 0 0 0  0 0 0 0.5 0" type="matrix" in="shadowOffsetOuter1" result="shadowMatrixOuter1"></feColorMatrix>
            <feMerge>
                <feMergeNode in="shadowMatrixOuter1"></feMergeNode>
                <feMergeNode in="SourceGraphic"></feMergeNode>
            </feMerge>
        </filter>
        <path d="M1.95305164,88.7530864 C7.16118936,105.658436 27.6682316,99.1563786 63.4741784,69.2469136 C88.2128326,54.9423868 105.033933,48.7654321 113.937478,50.7160494 C125.272068,53.1992674 131.638101,53.6697328 144.567085,64.3703704 C157.496069,75.071008 127.924883,112.160494 127.924883,116.061728 C127.924883,119.962963 93.3776025,168.728395 80.2237421,192.880212 C63.4741784,217.493827 31.4440886,256 27,280 C27,289 27,294 31.4440886,299.419753 C35.8881772,307.839506 63.8141744,314.447965 83,318 C102.185826,321.552035 121.664237,326 135,326 C148.335763,326 178,324 186.00939,316 C194.018779,308 246,272 229,256 C200.187793,289 176.432915,289 170,291 C142.432915,298 98.9257074,269.551281 102,256 C105.074293,242.448719 123.12478,208.847083 144.567085,188.787739 C166.00939,168.728395 198.079366,117.41894 200.187793,88.7530864 C202.296221,60.0872333 205.680706,36.0864198 182.610329,16.5802469 C169.915493,1.18793864e-14 120.112676,-0.975308642 93.3776025,1.95061728 C66.642529,4.87654321 46.8732394,29.2592593 30.2723005,39.9876543 C13.6713615,50.7160494 -5.85915493,63.3950617 1.95305164,88.7530864 Z" id="path-2"></path>
        <path d="M40.8605946,0.69962621 L40.8605946,0.69962621 C54.9362248,0.0356642306 66.8850252,10.9079696 67.5489872,24.9835998 C67.5678772,25.384058 67.5773262,25.7849058 67.5773262,26.1858093 L67.5773262,252.846085 C67.5773262,264.323584 58.272975,273.627935 46.7954762,273.627935 C42.0224564,273.627935 37.3949055,271.984954 33.6905133,268.975104 L11.9515491,251.312013 C4.32575709,245.115993 0.151970631,235.625641 0.739277922,225.81756 L12.5451513,28.6584983 C13.4544322,13.4734318 25.6652248,1.41640745 40.8605946,0.69962621 Z" id="path-4"></path>
    </defs>
    <g id="Symbols" stroke="none" stroke-width="1" fill="none" fill-rule="evenodd">
        <g id="number/2" transform="translate(-12.000000, -4.000000)">
            <g id="2" filter="url(#filter-1)" transform="translate(12.000000, 4.000000)">
                <g id="leg" transform="translate(116.000000, 352.000000)">
                    <path d="M21,0 C21,36 20.3333333,59.6666667 19,71" id="Path-3" stroke="#3A3A3A" stroke-width="4"></path>
                    <ellipse id="Oval-3" fill="#3A3A3A" cx="17.5" cy="72.5" rx="17.5" ry="7.5"></ellipse>
                </g>
                <g id="leg" transform="translate(52.000000, 346.000000)">
                    <path d="M20,0 C20,36 24.3333333,60 33,72" id="Path-3" stroke="#3A3A3A" stroke-width="4"></path>
                    <ellipse id="Oval-3" fill="#3A3A3A" cx="17.5" cy="72.5" rx="17.5" ry="7.5"></ellipse>
                </g>
                <path d="M14,138 L16.2042572,140.93901 C18.5238532,144.031804 22.9114626,144.658606 26.0042572,142.33901 C26.8736298,141.68698 27.5792536,140.841493 28.0652476,139.869505 L29,138 L36.9546855,138 C39.9676983,138 42.6426702,136.071989 43.5954685,133.213594 L46,126 L53.6737621,126 C56.3251665,126 58.7490083,124.501983 59.9347524,122.130495 C60.9565016,120.086997 61.9782508,118.043498 63,116 L67.4186816,116.368223 C71.2713208,116.689277 74.654767,113.826361 74.9758203,109.973722 C74.9919331,109.780368 75,109.586427 75,109.392403 L75,109 L82.9546855,109 C85.9676983,109 88.6426702,107.071989 89.5954685,104.213594 C90.0636457,102.809063 90.5318228,101.404531 91,100 L95.8631859,101.768431 C99.3192459,103.02518 103.158507,101.393359 104.652068,98.0328465 L106,95 L84,85 L14,138 Z" id="Path-2" fill="#FFFFFF"></path>
                <path d="M143,45 C163.666667,27 168.333333,15.6666667 157,11 C140,4 133.287097,6.01704979 130,14 C130,-4 174,-2 178,8 C182,16 187,32 165,56 C150.333333,72 143,68.3333333 143,45 Z" id="Path-4" fill="#B95151"></path>
                <path d="M177,70.5159248 C182.969302,64.5466232 188.441161,57.582438 193.415579,49.6233691 C200.877206,37.6847659 187.446278,20.9693016 188.938603,15 C194.907905,26.9386032 207,31 207,43 C209.984651,48.9693016 202.369532,59.3234843 193.415579,78.7237145 C187.446278,91.6572013 181.974418,88.9212714 177,70.5159248 Z" id="Path-4-Copy" fill="#B95151"></path>
                <path d="M194.637214,103.324398 C200.606515,97.3550961 206.078375,90.3909109 211.052793,82.431842 C218.51442,70.4932388 206.878604,63.6660288 208.370929,57.6967272 C214.340231,69.6353304 219.010268,65.6162036 224.637214,75.8084729 C227.621865,81.7777745 220.006746,92.1319572 211.052793,111.532187 C205.083492,124.465674 199.611632,121.729744 194.637214,103.324398 Z" id="Path-4-Copy-2" fill="#B95151" transform="translate(209.966653, 88.617679) rotate(16.000000) translate(-209.966653, -88.617679) "></path>
                <path d="M192.900438,142.913601 C197.907053,137.906985 202.49645,132.065935 206.66863,125.390448 C212.926898,115.377218 203.167623,109.651052 204.419277,104.644437 C209.425892,114.657667 213.342779,111.286716 218.062251,119.835249 C220.565559,124.841864 214.178552,133.526197 206.66863,149.797696 C201.662015,160.645362 197.072617,158.350663 192.900438,142.913601 Z" id="Path-4-Copy-3" fill="#B95151" transform="translate(205.757654, 130.578677) rotate(43.000000) translate(-205.757654, -130.578677) "></path>
                <path d="M182.900438,172.913601 C187.907053,167.906985 192.49645,162.065935 196.66863,155.390448 C202.926898,145.377218 193.167623,139.651052 194.419277,134.644437 C199.425892,144.657667 203.342779,141.286716 208.062251,149.835249 C210.565559,154.841864 204.178552,163.526197 196.66863,179.797696 C191.662015,190.645362 187.072617,188.350663 182.900438,172.913601 Z" id="Path-4-Copy-4" fill="#B95151" transform="translate(195.757654, 160.578677) rotate(58.000000) translate(-195.757654, -160.578677) "></path>
                <path d="M169.982395,198.297898 C174.391234,193.889058 178.43267,188.745413 182.106703,182.86696 C187.617752,174.049282 179.023707,169.006804 180.125917,164.597964 C184.534756,173.415643 187.983978,170.447174 192.139958,177.975036 C194.344378,182.383875 188.719962,190.031324 182.106703,204.360052 C177.697864,213.912537 173.656428,211.891819 169.982395,198.297898 Z" id="Path-4-Copy-5" fill="#B95151" transform="translate(181.304496, 187.435730) rotate(66.000000) translate(-181.304496, -187.435730) "></path>
                <g id="fin-+-fin-copy-+-fin-copy-2-+-fin-copy-3-Mask-Copy" transform="translate(0.000000, 41.000000)">
                    <mask id="mask-3" fill="white">
                        <use xlink:href="#path-2"></use>
                    </mask>
                    <use id="Base" fill="#E6A3D7" xlink:href="#path-2"></use>
                    <g id="Group" mask="url(#mask-3)">
                        <g transform="translate(78.131186, 180.741885) rotate(32.000000) translate(-78.131186, -180.741885) translate(44.131186, 43.741885)" id="Line-2-+-Line-2-Copy-+-Line-2-Copy-2-+-Line-2-Copy-3-+-Line-2-Copy-4-+-Line-Mask">
                            <g transform="translate(-0.000000, 0.000000)">
                                <mask id="mask-5" fill="white">
                                    <use xlink:href="#path-4"></use>
                                </mask>
                                <use id="Mask" fill="#B95151" opacity="0.600948661" xlink:href="#path-4"></use>
                                <path d="M5.81689582,15.9938048 C18.6650673,37.4959458 38.9366266,48.2470164 66.631574,48.2470164" id="Line-2" stroke="#FFFFFF" stroke-width="3" opacity="0.5" stroke-linecap="square" mask="url(#mask-5)"></path>
                                <path d="M5.81689582,66.9199283 C18.6650673,88.4220693 38.9366266,99.1731398 66.631574,99.1731398" id="Line-2-Copy" stroke="#FFFFFF" stroke-width="3" opacity="0.5" stroke-linecap="square" mask="url(#mask-5)"></path>
                                <path d="M5.81689582,117.846052 C18.6650673,139.348193 38.9366266,150.099263 66.631574,150.099263" id="Line-2-Copy-2" stroke="#FFFFFF" stroke-width="3" opacity="0.5" stroke-linecap="square" mask="url(#mask-5)"></path>
                                <path d="M5.81689582,168.772175 C18.6650673,190.274316 38.9366266,201.025387 66.631574,201.025387" id="Line-2-Copy-3" stroke="#FFFFFF" stroke-width="3" opacity="0.5" stroke-linecap="square" mask="url(#mask-5)"></path>
                                <path d="M5.81689582,219.698299 C18.6650673,241.20044 38.9366266,251.95151 66.631574,251.95151" id="Line-2-Copy-4" stroke="#FFFFFF" stroke-width="3" opacity="0.5" stroke-linecap="square" mask="url(#mask-5)"></path>
                                <path d="M26.3739701,49.9445538 L27.6587873,52.49086" id="Line" stroke="#FFFFFF" stroke-linecap="square" mask="url(#mask-5)"></path>
                            </g>
                        </g>
                    </g>
                </g>
                <g id="Group-2" transform="translate(93.000000, 49.000000)">
                    <ellipse id="Oval-2-Copy-4" stroke="#0F0E0E" stroke-width="2" fill="#FFFFFF" cx="20.5" cy="23.5" rx="21.5" ry="24.5"></ellipse>
                    <ellipse id="Oval-2-Copy-5" fill="#8A2C2C" cx="22.452381" cy="24.5544872" rx="6.83333333" ry="7.90865385"></ellipse>
                </g>
                <path d="M83,54 C117,37.3333333 134,34.8958333 134,46.6875" id="Path-34" stroke="#070707" stroke-width="4" stroke-linejoin="round"></path>
                <path d="M23,119 C24.6410256,117 25.974359,116 27,116" id="Path-40" stroke="#3A3A3A" stroke-width="2" stroke-linecap="round"></path>
                <path d="M4,119 C5.64102564,117 6.97435897,116 8,116" id="Path-40-Copy" stroke="#3A3A3A" stroke-width="2" stroke-linecap="round" transform="translate(6.000000, 117.500000) scale(-1, 1) translate(-6.000000, -117.500000) "></path>
            </g>
        </g>
    </g>
</svg>