<?xml version="1.0" encoding="UTF-8"?>
<svg width="231px" height="402px" viewBox="0 0 231 402" version="1.1" xmlns="http://www.w3.org/2000/svg" xmlns:xlink="http://www.w3.org/1999/xlink">
    <!-- Generator: Sketch 51.2 (57519) - http://www.bohemiancoding.com/sketch -->
    <title>3</title>
    <desc>Created with Sketch.</desc>
    <defs>
        <filter x="-0.4%" y="-0.2%" width="100.9%" height="101.0%" filterUnits="objectBoundingBox" id="filter-1">
            <feOffset dx="0" dy="2" in="SourceAlpha" result="shadowOffsetOuter1"></feOffset>
            <feColorMatrix values="0 0 0 0 0   0 0 0 0 0   0 0 0 0 0  0 0 0 0.5 0" type="matrix" in="shadowOffsetOuter1" result="shadowMatrixOuter1"></feColorMatrix>
            <feMerge>
                <feMergeNode in="shadowMatrixOuter1"></feMergeNode>
                <feMergeNode in="SourceGraphic"></feMergeNode>
            </feMerge>
        </filter>
        <radialGradient cx="50%" cy="50%" fx="50%" fy="50%" r="59.1067622%" gradientTransform="translate(0.500000,0.500000),scale(1.000000,0.776997),rotate(90.000000),translate(-0.500000,-0.500000)" id="radialGradient-2">
            <stop stop-color="#CFCDCD" offset="0%"></stop>
            <stop stop-color="#A5A5A5" offset="100%"></stop>
        </radialGradient>
        <path d="M22,46 C4.66666667,42 0.333333333,33.3333333 9,20 C22,2.01089145e-14 77,3.83026943e-15 153,0 C229,0 230,36 225,51 C221.666667,61 203,83.6666667 169,119 C217.666667,138.333333 237.666667,169.666667 229,213 C220.333333,256.333333 188,283.666667 132,295 C74.6666667,301 35,287.333333 13,254 C-20,204 22,191 38,200 C66,230 80,259 127,254 C153,254 183,241 174,200 C165,159 150.098289,181.165146 122,149 C105,126 115,114 144,90 C173,66 175.744431,50.5963521 163,46 C117.666667,59.3333333 70.6666667,59.3333333 22,46 Z" id="path-3"></path>
    </defs>
    <g id="Symbols" stroke="none" stroke-width="1" fill="none" fill-rule="evenodd">
        <g id="number/3" transform="translate(-8.000000, -3.000000)">
            <g id="3" filter="url(#filter-1)" transform="translate(8.000000, 3.000000)">
                <g id="tounge" transform="translate(20.000000, 87.000000)">
                    <path d="M20,3 C2.33333333,10.3333333 -3.33333333,27.3333333 3,54 C12,68 21.2068196,63.3795413 26,49 C29.7068196,37.8795413 24,8 48,3 C64,-0.333333333 54.6666667,-0.333333333 20,3 Z" id="Path-42" fill="#CA5555"></path>
                    <path d="M22,12 C13.3333333,21.3333333 10,32.3333333 12,45" id="Path-43" stroke="#000000" stroke-width="2" opacity="0.2" stroke-linecap="round"></path>
                </g>
                <g id="leg" transform="translate(120.000000, 320.000000)">
                    <path d="M16,0 C16,36 20.3333333,60 29,72" id="Path-3" stroke="#3A3A3A" stroke-width="4"></path>
                    <ellipse id="Oval-3" fill="#3A3A3A" cx="17.5" cy="72.5" rx="17.5" ry="7.5"></ellipse>
                </g>
                <g id="leg" transform="translate(86.000000, 304.000000)">
                    <path d="M20,0 C20,36 24.3333333,60 33,72" id="Path-3" stroke="#3A3A3A" stroke-width="4"></path>
                    <ellipse id="Oval-3" fill="#3A3A3A" cx="17.5" cy="72.5" rx="17.5" ry="7.5"></ellipse>
                </g>
                <g id="Oval-2-+-Oval-2-Copy-+-Oval-2-Copy-2-+-Oval-2-Copy-3-+-Oval-2-Copy-4-+-Oval-2-Copy-5-+-Oval-2-Copy-6-+-Oval-2-Copy-7-+-Oval-2-Copy-8-+-Oval-2-Copy-9-Mask" transform="translate(0.000000, 38.000000)">
                    <mask id="mask-4" fill="white">
                        <use xlink:href="#path-3"></use>
                    </mask>
                    <use id="Mask" fill="url(#radialGradient-2)" xlink:href="#path-3"></use>
                    <circle id="Oval-2" fill="#000000" opacity="0.2" mask="url(#mask-4)" cx="134.5" cy="108.5" r="10.5"></circle>
                    <circle id="Oval-2-Copy-10" fill="#000000" opacity="0.2" mask="url(#mask-4)" cx="4.5" cy="218.5" r="10.5"></circle>
                    <circle id="Oval-2-Copy-11" fill="#000000" opacity="0.2" mask="url(#mask-4)" cx="44.5" cy="248.5" r="10.5"></circle>
                    <circle id="Oval-2-Copy-12" fill="#000000" opacity="0.2" mask="url(#mask-4)" cx="34.5" cy="208.5" r="10.5"></circle>
                    <circle id="Oval-2-Copy-13" fill="#000000" opacity="0.2" mask="url(#mask-4)" cx="64.5" cy="288.5" r="10.5"></circle>
                    <circle id="Oval-2-Copy-14" fill="#000000" opacity="0.2" mask="url(#mask-4)" cx="84.5" cy="258.5" r="10.5"></circle>
                    <circle id="Oval-2-Copy-15" fill="#000000" opacity="0.2" mask="url(#mask-4)" cx="184.5" cy="268.5" r="10.5"></circle>
                    <circle id="Oval-2-Copy-16" fill="#000000" opacity="0.2" mask="url(#mask-4)" cx="124.5" cy="278.5" r="10.5"></circle>
                    <circle id="Oval-2-Copy-17" fill="#000000" opacity="0.2" mask="url(#mask-4)" cx="204.5" cy="8.5" r="10.5"></circle>
                    <circle id="Oval-2-Copy" fill="#000000" opacity="0.2" mask="url(#mask-4)" cx="134.5" cy="78.5" r="10.5"></circle>
                    <circle id="Oval-2-Copy-2" fill="#000000" opacity="0.2" mask="url(#mask-4)" cx="184.5" cy="78.5" r="10.5"></circle>
                    <circle id="Oval-2-Copy-3" fill="#000000" opacity="0.2" mask="url(#mask-4)" cx="204.5" cy="48.5" r="10.5"></circle>
                    <circle id="Oval-2-Copy-4" fill="#000000" opacity="0.2" mask="url(#mask-4)" cx="204.5" cy="148.5" r="10.5"></circle>
                    <circle id="Oval-2-Copy-5" fill="#000000" opacity="0.2" mask="url(#mask-4)" cx="134.5" cy="148.5" r="10.5"></circle>
                    <circle id="Oval-2-Copy-6" fill="#000000" opacity="0.2" mask="url(#mask-4)" cx="164.5" cy="118.5" r="10.5"></circle>
                    <circle id="Oval-2-Copy-7" fill="#000000" opacity="0.2" mask="url(#mask-4)" cx="164.5" cy="178.5" r="10.5"></circle>
                    <circle id="Oval-2-Copy-8" fill="#000000" opacity="0.2" mask="url(#mask-4)" cx="204.5" cy="188.5" r="10.5"></circle>
                    <circle id="Oval-2-Copy-9" fill="#000000" opacity="0.2" mask="url(#mask-4)" cx="174.5" cy="208.5" r="10.5"></circle>
                </g>
                <g id="eye" transform="translate(55.000000, 2.000000)">
                    <ellipse id="Oval" fill="#FFFFFF" transform="translate(29.000000, 35.500000) rotate(17.000000) translate(-29.000000, -35.500000) " cx="29" cy="35.5" rx="22" ry="25.5"></ellipse>
                    <rect id="Rectangle" fill="#000000" x="21" y="30" width="17" height="17" rx="8.5"></rect>
                    <rect id="Rectangle-Copy" fill="#FFFFFF" x="22" y="30" width="7" height="7" rx="3.5"></rect>
                    <path d="M53,27 L14,11 C18.3333333,-1 23.6666667,-3 30,5 C36.5,-4.85722573e-15 42,3.42857143 42,12.4285714 C51.3333333,13.2095238 55,18.0666667 53,27 Z" id="eyebrow" fill="#6B6B6B"></path>
                </g>
                <g id="eye-copy" transform="translate(134.000000, 34.500000) scale(-1, 1) translate(-134.000000, -34.500000) translate(105.000000, 0.000000)">
                    <ellipse id="Oval" fill="#FFFFFF" transform="translate(29.000000, 37.500000) rotate(17.000000) translate(-29.000000, -37.500000) " cx="29" cy="37.5" rx="22" ry="25.5"></ellipse>
                    <rect id="Rectangle" fill="#000000" x="21" y="32" width="17" height="17" rx="8.5"></rect>
                    <rect id="Rectangle-Copy" fill="#FFFFFF" x="22" y="32" width="7" height="7" rx="3.5"></rect>
                    <path d="M52,28 L13,12 C15.3333333,-0.666666667 19.6666667,-3 26,5 C30.3333333,1.66666667 34,4 37,12 C41,10.6666667 44.6666667,13.3333333 48,20 C53.3333333,16.1182796 54.6666667,18.7849462 52,28 Z" id="eyebrow" fill="#6B6B6B"></path>
                </g>
            </g>
        </g>
    </g>
</svg>