<?xml version="1.0" encoding="UTF-8"?>
<svg width="86px" height="124px" viewBox="0 0 86 124" version="1.1" xmlns="http://www.w3.org/2000/svg" xmlns:xlink="http://www.w3.org/1999/xlink">
    <!-- Generator: Sketch 51.1 (57501) - http://www.bohemiancoding.com/sketch -->
    <title>Group 4</title>
    <desc>Created with Sketch.</desc>
    <defs></defs>
    <g id="Page-1" stroke="none" stroke-width="1" fill="none" fill-rule="evenodd">
        <g id="293959-P70SA5-767" transform="translate(-300.000000, -37.000000)">
            <g id="Group-4" transform="translate(300.000000, 37.000000)">
                <path d="M10.778,106.689 C17.002,115.673 26.465,121.52 37.231,123.36 C58.545,127.007 83.027,114.843 85.733,91.763 C86.445,85.733 85.355,79.494 82.386,74.176 C79.868,69.678 76.191,66.046 72.196,62.842 C81.431,55.31 85.749,42.141 83.018,30.583 C79.823,17.071 68.117,6.464 54.475,4.265 C43.479,2.494 34.693,6.046 25.176,10.991 C21.897,12.693 18.808,14.732 16.017,17.161 C10.609,21.862 8.982,28.041 11.007,34.877 C11.997,38.215 13.51,41.449 15.022,44.579 C16.47,47.563 18.942,49.962 22.43,48.27 C25.211,46.922 27.176,44.146 29.888,42.563 C32.624,40.967 35.688,40.036 38.868,40.071 C41.693,40.106 46.047,40.972 47.042,44.081 C48.002,47.091 45.833,50.071 43.301,51.444 C41.938,52.19 40.37,52.624 38.838,52.852 C37.351,53.071 35.733,52.857 34.315,53.385 C30.957,54.633 31.868,58.678 31.873,61.494 C31.878,63.38 31.857,65.265 31.838,67.156 C31.813,68.813 31.55,70.713 32.002,72.34 C33.022,76.002 36.55,75.534 39.475,74.912 C42.693,74.23 46.907,73.449 48.42,77.265 C49.674,80.419 47.664,83.713 45.111,85.504 C41.963,87.713 37.52,88.405 34.022,86.633 C30.783,84.992 28.336,81.564 26.494,78.549 C25.758,77.34 24.057,77.091 23.037,78.106 C18.166,82.942 13.28,87.763 8.43,92.619 C6.539,94.509 5.137,96.305 6.181,99.062 C7.196,101.743 9.146,104.34 10.778,106.689" id="Fill-25" fill="#E5E5E0"></path>
                <path d="M75.535,85.042 C75.634,94.39 70.823,103.052 63.32,108.499 C48.853,119.017 26.45,118.753 13.505,105.778 C11.534,103.808 9.902,101.569 8.39,99.236 C7.634,98.062 6.828,96.877 6.176,95.644 C5.987,95.291 5.415,94.494 5.534,93.992 C5.669,93.415 6.857,92.639 7.315,92.181 C11.266,88.191 15.216,84.206 19.166,80.221 C20.341,82.181 21.574,84.116 23.266,85.648 C25.803,87.952 28.838,89.305 32.256,89.579 C38.43,90.066 45.206,86.628 47.738,80.842 C50.047,75.569 47.992,68.678 42.391,66.514 C40.878,65.932 39.211,65.738 37.594,65.788 C36.106,65.832 33.938,65.837 32.545,66.399 L32.505,66.415 C32.484,66.251 32.47,66.111 32.465,66.042 C32.391,65.096 32.315,64.156 32.246,63.21 C32.077,61.012 31.918,58.812 31.793,56.608 C31.769,56.146 31.783,55.658 31.724,55.195 C31.719,55.036 31.714,54.882 31.709,54.723 L31.709,54.713 C32.171,54.772 33.146,54.772 33.336,54.753 C35.077,54.563 36.798,54.245 38.44,53.623 C41.286,52.544 43.883,50.753 45.436,48.076 C48.743,42.39 46.49,35.957 40.515,33.424 C34.51,30.877 27.823,32.046 22.106,34.802 C20.629,35.514 19.226,36.374 17.902,37.35 C17.296,37.797 16.714,38.28 16.121,38.748 C16.062,38.792 15.818,38.972 15.614,39.146 C15.489,38.936 15.37,38.728 15.251,38.519 C13.41,35.33 11.484,32.016 10.494,28.449 C9.221,23.887 10.729,20.35 14.032,17.175 C16.852,14.469 20.142,12.205 23.569,10.339 C26.106,8.952 28.753,7.827 31.465,6.946 C37.857,5.419 44.42,4.877 50.902,6.593 C58.266,8.543 64.743,13.121 68.933,19.494 C77.286,32.211 74.156,49.226 61.062,57.325 C59.166,58.499 59.355,60.956 61.062,62.171 C68.913,67.723 75.431,74.917 75.535,85.042" id="Fill-26" fill="#BF75A4"></path>
                <path d="M63.32,108.499 C70.823,103.052 75.634,94.39 75.535,85.042 C75.431,74.917 68.913,67.723 61.062,62.171 C59.355,60.956 59.166,58.499 61.062,57.325 C74.156,49.226 77.286,32.211 68.933,19.494 C64.743,13.121 58.266,8.543 50.902,6.593 C44.42,4.877 37.857,5.419 31.465,6.946 C28.753,7.827 26.106,8.952 23.569,10.339 C20.142,12.205 16.852,14.469 14.032,17.175 C10.729,20.35 9.221,23.887 10.494,28.449 C11.484,32.016 13.41,35.33 15.251,38.519 C15.37,38.728 15.489,38.936 15.614,39.146 C15.818,38.972 16.062,38.792 16.121,38.748 C16.714,38.28 17.296,37.797 17.902,37.35 C19.226,36.374 20.629,35.514 22.106,34.802 C27.823,32.046 34.51,30.877 40.515,33.424 C46.49,35.957 48.743,42.39 45.436,48.076 C43.883,50.753 41.286,52.544 38.44,53.623 C36.798,54.245 35.077,54.563 33.336,54.753 C33.146,54.772 32.171,54.772 31.709,54.713 L31.709,54.723 C31.714,54.882 31.719,55.036 31.724,55.195 C31.783,55.658 31.769,56.146 31.793,56.608 C31.918,58.812 32.077,61.012 32.246,63.21 C32.315,64.156 32.391,65.096 32.465,66.042 C32.47,66.111 32.484,66.251 32.505,66.415 L32.545,66.399 C33.938,65.837 36.106,65.832 37.594,65.788 C39.211,65.738 40.878,65.932 42.391,66.514 C47.992,68.678 50.047,75.569 47.738,80.842 C45.206,86.628 38.43,90.066 32.256,89.579 C28.838,89.305 25.803,87.952 23.266,85.648 C21.574,84.116 20.341,82.181 19.166,80.221 C15.216,84.206 11.266,88.191 7.315,92.181 C6.857,92.639 5.669,93.415 5.534,93.992 C5.415,94.494 5.987,95.291 6.176,95.644 C6.828,96.877 7.634,98.062 8.39,99.236 C9.902,101.569 11.534,103.808 13.505,105.778 C26.45,118.753 48.853,119.017 63.32,108.499 M77.386,71.176 C80.355,76.494 81.445,82.733 80.733,88.763 C78.027,111.843 53.545,124.007 32.231,120.36 C21.465,118.52 12.002,112.673 5.778,103.688 C4.147,101.34 2.196,98.743 1.181,96.061 C0.137,93.305 1.539,91.509 3.43,89.619 C8.28,84.763 13.166,79.942 18.037,75.106 C19.057,74.091 20.759,74.34 21.494,75.549 C23.335,78.564 25.783,81.992 29.022,83.633 C32.52,85.405 36.962,84.713 40.111,82.504 C42.664,80.713 44.674,77.419 43.42,74.265 C41.907,70.449 37.693,71.23 34.475,71.912 C31.55,72.534 28.022,73.001 27.002,69.34 C26.55,67.713 26.814,65.812 26.838,64.156 C26.857,62.265 26.878,60.38 26.873,58.494 C26.868,55.678 25.957,51.633 29.315,50.385 C30.733,49.857 32.35,50.071 33.838,49.852 C35.37,49.623 36.937,49.19 38.301,48.444 C40.833,47.071 43.002,44.091 42.042,41.081 C41.047,37.972 36.693,37.106 33.868,37.071 C30.689,37.036 27.624,37.967 24.888,39.563 C22.176,41.145 20.211,43.922 17.43,45.27 C13.942,46.961 11.47,44.563 10.021,41.579 C8.51,38.449 6.997,35.215 6.007,31.877 C3.982,25.041 5.609,18.862 11.017,14.161 C13.808,11.732 16.897,9.693 20.176,7.991 C29.693,3.046 38.479,-0.506 49.475,1.265 C63.117,3.464 74.823,14.071 78.018,27.583 C80.749,39.141 76.431,52.31 67.196,59.842 C71.191,63.046 74.868,66.678 77.386,71.176" id="Fill-27" fill="#993E86"></path>
                <path d="M59.176,38.547 C57.593,38.547 55.907,37.022 56.573,35.333 C58.075,31.525 58.785,27.842 56.791,24.05 C55.109,20.851 52.064,18.463 48.727,17.173 C46.148,16.176 43.314,15.712 40.433,15.712 C34.747,15.712 28.882,17.521 24.461,20.604 C24.156,20.817 23.855,20.909 23.574,20.909 C22.312,20.909 21.447,19.057 22.412,17.948 C26.703,13.017 33.879,10.727 40.87,10.727 C45.014,10.727 49.094,11.532 52.47,13.068 C61.266,17.072 67.946,29.301 60.811,37.801 C60.373,38.324 59.782,38.547 59.176,38.547" id="Fill-28" fill="#D29BBA"></path>
            </g>
        </g>
    </g>
</svg>