<?xml version="1.0" encoding="UTF-8"?>
<svg width="239px" height="408px" viewBox="0 0 239 408" version="1.1" xmlns="http://www.w3.org/2000/svg" xmlns:xlink="http://www.w3.org/1999/xlink">
    <!-- Generator: Sketch 51.2 (57519) - http://www.bohemiancoding.com/sketch -->
    <title>3</title>
    <desc>Created with Sketch.</desc>
    <defs>
        <filter x="-3.0%" y="-1.2%" width="106.1%" height="103.5%" filterUnits="objectBoundingBox" id="filter-1">
            <feOffset dx="0" dy="2" in="SourceAlpha" result="shadowOffsetOuter1"></feOffset>
            <feGaussianBlur stdDeviation="2" in="shadowOffsetOuter1" result="shadowBlurOuter1"></feGaussianBlur>
            <feColorMatrix values="0 0 0 0 0   0 0 0 0 0   0 0 0 0 0  0 0 0 0.5 0" type="matrix" in="shadowBlurOuter1" result="shadowMatrixOuter1"></feColorMatrix>
            <feMerge>
                <feMergeNode in="shadowMatrixOuter1"></feMergeNode>
                <feMergeNode in="SourceGraphic"></feMergeNode>
            </feMerge>
        </filter>
        <radialGradient cx="50%" cy="50%" fx="50%" fy="50%" r="59.1067622%" gradientTransform="translate(0.500000,0.500000),scale(1.000000,0.776997),rotate(90.000000),translate(-0.500000,-0.500000)" id="radialGradient-2">
            <stop stop-color="#CFCDCD" offset="0%"></stop>
            <stop stop-color="#A5A5A5" offset="100%"></stop>
        </radialGradient>
    </defs>
    <g id="Symbols" stroke="none" stroke-width="1" fill="none" fill-rule="evenodd">
        <g id="number/3" transform="translate(-4.000000, -1.000000)">
            <g id="3" filter="url(#filter-1)" transform="translate(8.000000, 3.000000)">
                <g id="tounge" transform="translate(20.000000, 87.000000)">
                    <path d="M20,3 C2.33333333,10.3333333 -3.33333333,27.3333333 3,54 C12,68 21.2068196,63.3795413 26,49 C29.7068196,37.8795413 24,8 48,3 C64,-0.333333333 54.6666667,-0.333333333 20,3 Z" id="Path-42" fill="#CA5555"></path>
                    <path d="M22,12 C13.3333333,21.3333333 10,32.3333333 12,45" id="Path-43" stroke="#000000" stroke-width="2" opacity="0.2" stroke-linecap="round"></path>
                </g>
                <g id="leg" transform="translate(120.000000, 320.000000)">
                    <path d="M16,0 C16,36 20.3333333,60 29,72" id="Path-3" stroke="#3A3A3A" stroke-width="4"></path>
                    <ellipse id="Oval-3" fill="#3A3A3A" cx="17.5" cy="72.5" rx="17.5" ry="7.5"></ellipse>
                </g>
                <g id="leg" transform="translate(86.000000, 304.000000)">
                    <path d="M20,0 C20,36 24.3333333,60 33,72" id="Path-3" stroke="#3A3A3A" stroke-width="4"></path>
                    <ellipse id="Oval-3" fill="#3A3A3A" cx="17.5" cy="72.5" rx="17.5" ry="7.5"></ellipse>
                </g>
                <path d="M22,84 C4.66666667,80 0.333333333,71.3333333 9,58 C22,38 77,38 153,38 C229,38 230,74 225,89 C221.666667,99 203,121.666667 169,157 C217.666667,176.333333 237.666667,207.666667 229,251 C220.333333,294.333333 188,321.666667 132,333 C74.6666667,339 35,325.333333 13,292 C-20,242 22,229 38,238 C66,268 80,297 127,292 C153,292 183,279 174,238 C165,197 150.098289,219.165146 122,187 C105,164 115,152 144,128 C173,104 175.744431,88.5963521 163,84 C117.666667,97.3333333 70.6666667,97.3333333 22,84 Z" id="Path-41" fill="url(#radialGradient-2)"></path>
                <g id="eye" transform="translate(55.000000, 2.000000)">
                    <ellipse id="Oval" fill="#FFFFFF" transform="translate(29.000000, 35.500000) rotate(17.000000) translate(-29.000000, -35.500000) " cx="29" cy="35.5" rx="22" ry="25.5"></ellipse>
                    <rect id="Rectangle" fill="#000000" x="21" y="30" width="17" height="17" rx="8.5"></rect>
                    <rect id="Rectangle-Copy" fill="#FFFFFF" x="22" y="30" width="7" height="7" rx="3.5"></rect>
                    <path d="M53,27 L14,11 C18.3333333,-1 23.6666667,-3 30,5 C36.5,-4.85722573e-15 42,3.42857143 42,12.4285714 C51.3333333,13.2095238 55,18.0666667 53,27 Z" id="eyebrow" fill="#6B6B6B"></path>
                </g>
                <g id="eye-copy" transform="translate(134.000000, 34.500000) scale(-1, 1) translate(-134.000000, -34.500000) translate(105.000000, 0.000000)">
                    <ellipse id="Oval" fill="#FFFFFF" transform="translate(29.000000, 37.500000) rotate(17.000000) translate(-29.000000, -37.500000) " cx="29" cy="37.5" rx="22" ry="25.5"></ellipse>
                    <rect id="Rectangle" fill="#000000" x="21" y="32" width="17" height="17" rx="8.5"></rect>
                    <rect id="Rectangle-Copy" fill="#FFFFFF" x="22" y="32" width="7" height="7" rx="3.5"></rect>
                    <path d="M52,28 L13,12 C15.3333333,-0.666666667 19.6666667,-3 26,5 C30.3333333,1.66666667 34,4 37,12 C41,10.6666667 44.6666667,13.3333333 48,20 C53.3333333,16.1182796 54.6666667,18.7849462 52,28 Z" id="eyebrow" fill="#6B6B6B"></path>
                </g>
            </g>
        </g>
    </g>
</svg>