<?xml version="1.0" encoding="UTF-8"?>
<svg width="95px" height="124px" viewBox="0 0 95 124" version="1.1" xmlns="http://www.w3.org/2000/svg" xmlns:xlink="http://www.w3.org/1999/xlink">
    <!-- Generator: Sketch 51.1 (57501) - http://www.bohemiancoding.com/sketch -->
    <title>Group 5</title>
    <desc>Created with Sketch.</desc>
    <defs></defs>
    <g id="Page-1" stroke="none" stroke-width="1" fill="none" fill-rule="evenodd">
        <g id="293959-P70SA5-767" transform="translate(-386.000000, -34.000000)">
            <g id="Group-5" transform="translate(386.000000, 34.000000)">
                <path d="M92.189,48.295 C89.587,46.568 86.453,47.215 83.577,47.648 C82.811,47.763 82.05,47.862 81.283,47.952 C81.015,47.981 80.632,47.981 80.213,47.981 C79.585,47.98 78.874,47.98 78.344,48.081 C78.696,47.32 78.553,45.24 78.622,44.514 C79.015,40.504 79.313,36.484 79.696,32.474 C79.98,29.509 80.741,25.787 77.124,24.568 C73.91,23.484 69.547,24.096 66.233,24.25 C63.02,24.395 58.199,23.956 55.717,26.454 C53.487,28.688 53.224,32.583 52.542,35.479 C52.035,37.628 51.557,39.788 51.019,41.932 C50.666,43.354 50.418,45.384 49.786,46.922 C49.114,46.788 48.363,46.434 47.841,46.295 C46.771,46.006 45.706,45.708 44.637,45.429 C43.716,45.19 42.791,44.977 41.87,44.758 C41.746,44.733 41.228,44.604 40.776,44.494 L40.831,44.32 C41.711,42.638 42.09,40.444 42.711,38.633 C43.463,36.454 44.204,34.27 45.035,32.126 C46.642,27.996 48.353,23.912 50.204,19.887 C51.468,17.131 54.606,12.996 52.691,9.966 C50.91,7.155 46.159,6.693 43.229,6.036 C39.079,5.096 34.895,4.205 30.691,3.543 C27.209,2.996 23.711,3.354 21.682,6.603 C19.731,9.728 19.318,13.927 18.313,17.414 C15.696,26.499 12.86,35.509 10.73,44.723 C10.144,46.554 9.561,48.395 8.994,50.24 C7.9,53.792 6.796,57.354 5.846,60.952 C5.143,63.604 4.627,66.633 5.965,69.181 C7.313,71.748 9.939,73.002 12.682,73.514 C16.179,74.161 19.801,74.355 23.343,74.554 C27.139,74.772 30.94,74.853 34.741,74.792 C36.642,74.763 38.537,74.663 40.438,74.599 C41.074,74.574 42.92,74.31 43.428,74.862 C44.104,75.604 43.537,79.051 43.518,80.022 C43.478,81.912 43.393,83.808 43.293,85.698 C43.193,87.589 43.069,89.479 42.92,91.37 C42.87,91.977 42.537,93.141 42.716,93.728 L42.711,93.738 C42.224,93.768 41.741,93.798 41.254,93.828 C38.318,94.012 34.512,93.703 31.825,95.101 C28.92,96.614 29.089,99.514 29.06,102.34 C29.02,105.698 28.264,109.315 28.791,112.644 C29.243,115.494 31.124,117.047 33.646,118.166 C39.936,120.957 47.513,121.136 54.278,121.862 C61.651,122.648 69.204,123.589 76.632,123.439 C79.527,123.385 83.169,123.375 85.741,121.853 C88.482,120.23 89.428,116.693 89.971,113.778 C90.9,108.778 92.114,99.186 85.846,97.051 C82.94,96.062 79.393,96.673 76.388,96.758 C76.064,96.768 73.786,97.046 73.607,96.833 C73.532,96.748 73.503,96.126 73.478,95.927 C73.209,93.773 73.104,91.594 72.905,89.435 C72.741,87.678 72.458,85.957 72.199,84.21 C72.05,83.166 71.931,82.136 71.846,81.086 C71.801,80.584 71.423,78.967 71.677,78.519 C72.129,77.718 73.403,78.056 74.349,78.176 C76.273,78.419 78.174,78.648 80.119,78.644 C83.179,78.633 86.358,78.449 88.478,75.972 C90.508,73.608 91.174,70.026 92.005,67.121 C93,63.613 93.771,60.061 94.333,56.459 C94.796,53.484 95.064,50.19 92.189,48.295" id="Fill-31" fill="#E5E5E0"></path>
                <path d="M83.035,49.996 C83.94,50.3 83.423,49.912 83.563,50.563 C83.731,51.354 83.185,52.772 83.015,53.599 C82.771,54.783 82.508,55.967 82.234,57.146 C81.746,59.21 81.259,61.275 80.696,63.325 C80.204,65.106 79.871,67.27 79,68.907 C78.269,70.275 75.816,70.405 74.442,70.628 C72.344,70.962 70.278,70.937 68.169,70.927 C65.349,70.917 62.841,72.046 62.617,75.171 C62.473,77.201 62.915,79.29 62.886,81.33 C62.851,83.504 62.891,85.653 63.02,87.823 C63.204,90.962 62.437,96.37 65.497,98.39 C66.66,99.16 68.115,99.151 69.476,99.143 C69.652,99.142 69.827,99.14 70,99.141 C72.318,99.141 74.637,99.116 76.955,99.151 C79.01,99.181 79.259,99.45 79.418,101.5 C79.577,103.479 79.602,105.469 79.388,107.445 C79.194,109.196 78.955,111.659 78.154,113.236 C77.333,114.857 74.567,114.862 72.95,115.012 C68.746,115.405 64.482,115.171 60.269,115.012 C55.806,114.843 51.343,114.599 46.891,114.28 C42.413,113.957 37.831,113.768 33.468,112.623 C31.825,112.191 29.572,111.708 28.383,110.41 C27.074,108.972 27.945,105.857 28.114,104.106 C28.323,101.962 28.318,99.549 28.93,97.469 C29.085,96.941 28.952,96.945 29.076,96.949 C29.132,96.951 29.239,96.953 29.447,96.907 C30.071,96.771 30.796,96.795 31.504,96.819 C31.93,96.834 32.349,96.848 32.736,96.828 C36.095,96.648 41.328,97.305 42.955,93.574 C43.642,92.007 43.552,90.051 43.677,88.37 C43.841,86.007 43.97,83.644 44.06,81.28 C44.139,79.071 44.174,76.862 44.224,74.653 C44.264,72.803 44.383,70.837 43.482,69.151 C41.875,66.151 38.557,65.603 35.437,65.738 C26.741,66.106 17.775,66.37 9.129,65.106 C7.627,64.887 5.82,64.544 5.507,62.813 C5.184,61.042 6.01,58.772 6.383,57.066 C7.303,52.817 8.288,48.583 9.333,44.37 C11.129,37.111 13.209,29.952 15.268,22.772 C15.766,21.28 16.264,19.788 16.756,18.295 C17.402,16.354 18.06,14.419 18.766,12.504 C19.428,10.688 19.91,8.494 21.02,6.887 C22.224,5.15 24.174,5.822 25.984,6.155 C28.238,6.573 30.482,7.021 32.727,7.494 C34.666,7.912 36.602,8.369 38.542,8.792 C39.587,9.016 40.637,9.23 41.682,9.474 C42.069,9.563 42.473,9.628 42.851,9.753 C43.846,10.076 43.169,9.817 43.159,10.036 C43.114,10.907 42.264,12.235 41.945,13.016 C41.547,14.016 41.149,15.011 40.756,16.011 C39.965,18.011 39.179,20.011 38.368,22.001 C36.746,26.001 35.149,30.006 33.522,34.001 C32.711,36.006 31.9,38.006 31.095,40.011 C30.468,41.579 29.99,43.181 31.05,44.693 C31.886,45.882 33.219,46.245 34.542,46.628 C36.82,47.29 39.114,47.877 41.418,48.459 C43.109,48.882 45.04,49.559 46.761,48.977 C48.656,48.335 49.224,46.618 49.577,44.822 C50.423,40.474 51.288,36.141 52.228,31.807 C52.522,30.434 52.612,27.514 53.751,26.489 C54.687,25.643 57.037,25.712 58.8,25.781 C59.38,25.804 59.896,25.827 60.278,25.817 C62.513,25.752 64.741,25.772 66.97,25.822 C67.174,25.827 67.517,25.804 67.903,25.78 C68.74,25.73 69.785,25.68 70.095,25.912 C70.632,26.315 70.278,27.265 70.184,28.086 C69.682,32.414 69.005,36.723 68.463,41.051 C68.095,43.996 66.806,48.399 70.124,50.165 C71.607,50.957 73.368,50.683 74.976,50.574 C77.06,50.434 79.135,50.17 81.214,50.021 C81.731,49.981 82.537,49.827 83.035,49.996" id="Fill-32" fill="#DE4274"></path>
                <path d="M83.015,53.599 C83.185,52.772 83.731,51.354 83.563,50.563 C83.423,49.912 83.94,50.3 83.035,49.996 C82.537,49.827 81.731,49.981 81.214,50.021 C79.135,50.17 77.06,50.434 74.976,50.574 C73.368,50.683 71.607,50.957 70.124,50.165 C66.806,48.399 68.095,43.996 68.463,41.051 C69.005,36.723 69.682,32.414 70.184,28.086 C70.278,27.265 70.632,26.315 70.095,25.912 C69.785,25.68 68.74,25.73 67.903,25.78 C67.517,25.804 67.174,25.827 66.97,25.822 C64.741,25.772 62.513,25.752 60.278,25.817 C59.896,25.827 59.38,25.804 58.8,25.781 C57.037,25.712 54.687,25.643 53.751,26.489 C52.612,27.514 52.522,30.434 52.228,31.807 C51.288,36.141 50.423,40.474 49.577,44.822 C49.224,46.618 48.656,48.335 46.761,48.977 C45.04,49.559 43.109,48.882 41.418,48.459 C39.114,47.877 36.82,47.29 34.542,46.628 C33.219,46.245 31.886,45.882 31.05,44.693 C29.99,43.181 30.468,41.579 31.095,40.011 C31.9,38.006 32.711,36.006 33.522,34.001 C35.149,30.006 36.746,26.001 38.368,22.001 C39.179,20.011 39.965,18.011 40.756,16.011 C41.149,15.011 41.547,14.016 41.945,13.016 C42.264,12.235 43.114,10.907 43.159,10.036 C43.169,9.817 43.846,10.076 42.851,9.753 C42.473,9.628 42.069,9.563 41.682,9.474 C40.637,9.23 39.587,9.016 38.542,8.792 C36.602,8.369 34.666,7.912 32.727,7.494 C30.482,7.021 28.238,6.573 25.984,6.155 C24.174,5.822 22.224,5.15 21.02,6.887 C19.91,8.494 19.428,10.688 18.766,12.504 C18.06,14.419 17.402,16.354 16.756,18.295 C16.264,19.788 15.766,21.28 15.268,22.772 C13.209,29.952 11.129,37.111 9.333,44.37 C8.288,48.583 7.303,52.817 6.383,57.066 C6.01,58.772 5.184,61.042 5.507,62.813 C5.82,64.544 7.627,64.887 9.129,65.106 C17.775,66.37 26.741,66.106 35.437,65.738 C38.557,65.603 41.875,66.151 43.482,69.151 C44.383,70.837 44.264,72.803 44.224,74.653 C44.174,76.862 44.139,79.071 44.06,81.28 C43.97,83.644 43.841,86.007 43.677,88.37 C43.552,90.051 43.642,92.007 42.955,93.574 C41.328,97.305 36.095,96.648 32.736,96.828 C32.349,96.848 31.93,96.834 31.504,96.819 C30.796,96.795 30.071,96.771 29.447,96.907 C29.239,96.953 29.132,96.951 29.076,96.949 C28.952,96.945 29.085,96.941 28.93,97.469 C28.318,99.549 28.323,101.962 28.114,104.106 C27.945,105.857 27.074,108.972 28.383,110.41 C29.572,111.708 31.825,112.191 33.468,112.623 C37.831,113.768 42.413,113.957 46.891,114.28 C51.343,114.599 55.806,114.843 60.269,115.012 C64.482,115.171 68.746,115.405 72.95,115.012 C74.567,114.862 77.333,114.857 78.154,113.236 C78.955,111.659 79.194,109.196 79.388,107.445 C79.602,105.469 79.577,103.479 79.418,101.5 C79.259,99.45 79.01,99.181 76.955,99.151 C74.637,99.116 72.318,99.141 70,99.141 C69.827,99.14 69.653,99.142 69.476,99.143 C68.115,99.151 66.66,99.16 65.497,98.39 C62.437,96.37 63.204,90.962 63.02,87.823 C62.891,85.653 62.851,83.504 62.886,81.33 C62.915,79.29 62.473,77.201 62.617,75.171 C62.841,72.046 65.349,70.917 68.169,70.927 C70.278,70.937 72.344,70.962 74.442,70.628 C75.816,70.405 78.269,70.275 79,68.907 C79.871,67.27 80.204,65.106 80.696,63.325 C81.259,61.275 81.746,59.21 82.234,57.146 C82.508,55.967 82.771,54.783 83.015,53.599 M87.189,45.295 C90.064,47.19 89.796,50.484 89.333,53.459 C88.771,57.061 88,60.613 87.005,64.121 C86.174,67.026 85.508,70.608 83.478,72.972 C81.358,75.449 78.179,75.633 75.119,75.644 C73.174,75.648 71.273,75.419 69.349,75.176 C68.403,75.056 67.129,74.718 66.677,75.519 C66.423,75.967 66.801,77.583 66.846,78.086 C66.931,79.136 67.05,80.166 67.199,81.21 C67.458,82.957 67.741,84.678 67.905,86.435 C68.105,88.594 68.209,90.773 68.478,92.927 C68.503,93.126 68.532,93.748 68.607,93.833 C68.786,94.046 71.064,93.768 71.388,93.758 C74.393,93.673 77.94,93.061 80.846,94.051 C87.114,96.186 85.9,105.778 84.971,110.778 C84.428,113.693 83.482,117.231 80.741,118.853 C78.169,120.375 74.527,120.385 71.632,120.439 C64.204,120.589 56.651,119.648 49.278,118.863 C42.513,118.136 34.936,117.957 28.647,115.166 C26.124,114.046 24.243,112.494 23.791,109.644 C23.264,106.315 24.019,102.698 24.06,99.34 C24.089,96.514 23.92,93.614 26.825,92.101 C29.512,90.703 33.318,91.012 36.254,90.828 C36.741,90.798 37.224,90.768 37.711,90.738 L37.716,90.728 C37.537,90.141 37.87,88.977 37.92,88.37 C38.069,86.48 38.193,84.589 38.293,82.698 C38.393,80.808 38.477,78.912 38.518,77.021 C38.537,76.051 39.104,72.603 38.428,71.862 C37.92,71.31 36.074,71.574 35.437,71.599 C33.537,71.663 31.642,71.763 29.741,71.792 C25.94,71.853 22.139,71.773 18.343,71.554 C14.801,71.355 11.179,71.161 7.682,70.514 C4.939,70.001 2.313,68.748 0.965,66.181 C-0.374,63.633 0.144,60.604 0.846,57.952 C1.796,54.354 2.9,50.793 3.995,47.24 C4.561,45.395 5.143,43.554 5.731,41.723 C7.86,32.509 10.696,23.499 13.313,14.414 C14.318,10.927 14.731,6.727 16.682,3.603 C18.711,0.354 22.209,-0.004 25.691,0.544 C29.895,1.205 34.079,2.096 38.229,3.036 C41.159,3.693 45.91,4.155 47.691,6.966 C49.606,9.996 46.468,14.13 45.204,16.887 C43.353,20.912 41.642,24.997 40.034,29.125 C39.204,31.27 38.463,33.454 37.711,35.633 C37.09,37.444 36.711,39.638 35.831,41.32 L35.776,41.494 C36.229,41.604 36.746,41.733 36.87,41.758 C37.791,41.977 38.716,42.19 39.637,42.429 C40.706,42.708 41.771,43.006 42.841,43.295 C43.363,43.434 44.114,43.788 44.786,43.922 C45.418,42.384 45.667,40.354 46.02,38.932 C46.557,36.788 47.035,34.628 47.542,32.479 C48.224,29.583 48.487,25.688 50.716,23.454 C53.199,20.956 58.019,21.395 61.233,21.25 C64.547,21.096 68.91,20.484 72.124,21.568 C75.741,22.788 74.98,26.509 74.696,29.474 C74.313,33.484 74.015,37.504 73.622,41.514 C73.553,42.24 73.696,44.32 73.344,45.081 C73.874,44.98 74.585,44.98 75.213,44.981 C75.632,44.981 76.015,44.982 76.283,44.952 C77.05,44.862 77.811,44.763 78.577,44.648 C81.453,44.215 84.587,43.568 87.189,45.295" id="Fill-33" fill="#AD2555"></path>
                <path d="M29.989,31.849 C28.617,31.849 27.352,30.69 27.7,28.907 C28.114,26.788 28.861,24.957 29.716,22.988 C30.393,21.427 32,19.002 32.028,17.326 C32.073,14.706 25.318,14.146 23.575,12.602 C23.075,12.158 23.034,11.143 23.575,10.705 C24.613,9.866 26.038,9.501 27.584,9.501 C31.193,9.501 35.458,11.487 36.982,14.049 C38.598,16.763 37.287,19.592 36.229,22.222 C35.035,25.189 33.986,28.17 32.069,30.75 C31.503,31.511 30.731,31.849 29.989,31.849" id="Fill-34" fill="#E46D98"></path>
                <path d="M25.497,42.565 C21.853,42.565 21.858,36.91 25.497,36.91 C29.143,36.91 29.136,42.565 25.497,42.565" id="Fill-35" fill="#E46D98"></path>
                <path d="M74.098,60.374 C72.828,60.373 71.83,59.839 70.494,59.315 C68.911,58.694 67.353,58.42 65.689,58.122 C62.881,57.62 59.925,56.233 58.855,53.387 C57.669,50.23 59.272,46.388 60.203,43.35 C61.309,39.744 62.524,36.185 63.381,32.511 C63.473,32.113 63.757,31.942 64.055,31.942 C64.509,31.942 64.997,32.338 64.898,32.929 C64.343,36.235 64.125,39.568 63.867,42.909 C63.747,44.459 63.605,46 63.432,47.546 C63.303,48.697 62.827,50.379 63.56,51.352 C64.835,53.044 69.027,52.531 70.963,53.01 C73.355,53.602 76.238,54.743 76.834,57.375 C77.102,58.559 76.475,59.957 75.205,60.244 C74.808,60.334 74.443,60.374 74.098,60.374" id="Fill-36" fill="#E46D98"></path>
                <path d="M65.8,108.2 C60.572,108.199 55.387,104.272 55.103,98.759 C54.918,95.18 55.642,91.393 56.073,87.846 C56.509,84.265 57.043,80.729 57.796,77.2 C57.934,76.553 58.452,76.262 58.988,76.262 C59.671,76.262 60.384,76.735 60.372,77.548 C60.293,83.172 60.054,88.792 60.102,94.417 C60.122,96.956 59.83,99.7 62.344,101.138 C64.469,102.354 66.94,102.404 69.08,103.718 C70.725,104.726 70.423,107.282 68.544,107.82 C67.645,108.078 66.722,108.2 65.8,108.2" id="Fill-37" fill="#E46D98"></path>
            </g>
        </g>
    </g>
</svg>