<?xml version="1.0" encoding="UTF-8"?>
<svg width="86px" height="118px" viewBox="0 0 86 118" version="1.1" xmlns="http://www.w3.org/2000/svg" xmlns:xlink="http://www.w3.org/1999/xlink">
    <!-- Generator: Sketch 51.1 (57501) - http://www.bohemiancoding.com/sketch -->
    <title>Group 6</title>
    <desc>Created with Sketch.</desc>
    <defs></defs>
    <g id="Page-1" stroke="none" stroke-width="1" fill="none" fill-rule="evenodd">
        <g id="293959-P70SA5-767" transform="translate(-27.000000, -184.000000)">
            <g id="Group-6" transform="translate(27.000000, 184.000000)">
                <path d="M70.135,45.785 C66.727,43.905 62.971,42.766 59.09,42.437 C57.219,42.283 55.354,42.392 53.498,42.681 C52.742,42.795 51.055,43.482 50.358,43.313 C49.612,43.128 49.657,42.935 49.493,41.949 C49.274,40.651 49.284,39.208 49.478,37.91 C49.911,35.029 51.542,34.944 54.125,35.317 C58.667,35.979 63.214,36.651 67.776,37.168 C71.468,37.586 76.453,38.78 78.956,35.158 C81.16,31.964 81.055,27.039 81.558,23.337 C82.11,19.248 83.508,14.442 81.697,10.501 C80.254,7.362 77.12,5.477 73.916,4.521 C69.991,3.357 65.627,3.268 61.567,3.253 C57.021,3.233 52.493,3.596 48,4.248 C45.378,4.631 42.806,5.138 40.269,5.79 C40.015,5.83 39.756,5.865 39.503,5.904 C35.154,6.546 30.771,7.173 26.558,8.457 C23.08,9.521 18.806,10.944 16.642,14.084 C14.343,17.412 14.299,22.273 13.801,26.153 C13.169,31.054 12.741,35.974 12.518,40.905 C12.318,45.293 11.881,49.999 12.473,54.362 C13.035,58.512 16.08,60.368 20.104,60.044 C24.408,59.696 28.468,58.014 32.796,57.865 C36.448,57.741 40.214,58.343 43.528,59.915 C50.14,63.049 54.393,70.233 52.428,77.571 C51.498,81.055 48.324,85.681 44.149,84.383 C40.329,83.193 36.742,79.915 34.14,76.984 C32.816,75.492 31.697,73.87 30.682,72.153 C29.762,70.602 28.702,68.89 26.956,68.174 C23.174,66.621 20.592,71.229 18.597,73.666 C15.527,77.412 12.547,81.243 9.522,85.029 C8.214,86.666 6.288,88.412 5.527,90.383 C4.747,92.412 5.925,93.97 7.12,95.507 C12.284,102.159 17.209,109.06 24.965,112.875 C31.971,116.318 39.906,117.433 47.652,116.989 C55.398,116.542 63.98,114.935 70.398,110.318 C77.065,105.517 81.03,97.93 83.493,90.258 C86.16,81.97 86.901,72.835 84.403,64.407 C82.13,56.735 77.225,49.701 70.135,45.785" id="Fill-38" fill="#E5E5E0"></path>
                <path d="M71.279,8.994 C72.598,10.591 72.205,12.78 71.98,14.69 C71.473,19.089 71.09,23.556 70.428,27.93 C70.07,30.328 68.578,30.352 66.414,30.268 C64.14,30.178 61.866,30.024 59.598,29.82 C55.344,29.437 51.135,27.915 46.896,27.721 C43.528,27.566 41.07,29.611 39.886,32.641 C37.632,38.407 38.652,47.557 46.901,45.964 C50.647,45.243 53.971,44.885 57.722,45.93 C61.239,46.915 64.468,48.785 67.09,51.333 C78.886,62.795 76.802,82.343 69.07,95.452 C64.777,102.736 58.15,106.273 50.055,107.995 C43.045,109.487 35.607,109.701 28.627,107.92 C20.915,105.96 15.279,101.507 10.349,95.388 C9.065,93.796 7.806,92.179 6.538,90.576 C5.761,89.592 5.145,89.144 5.766,87.885 C6.274,86.855 7.383,85.825 8.09,84.935 C10.891,81.367 13.702,77.801 16.503,74.233 C17.104,73.467 17.687,72.691 18.264,71.905 C18.751,71.243 19.547,69.532 20.264,69.248 C21.045,68.939 22.667,72.526 23.154,73.293 C25.105,76.352 27.533,79.144 30.353,81.428 C33.12,83.661 36.528,86.103 40.194,86.303 C43.682,86.497 46.836,84.452 48.971,81.84 C53.035,76.86 53.667,69.671 51.463,63.751 C49.08,57.352 43.687,52.89 37.284,50.8 C33.926,49.701 30.249,49.298 26.731,49.532 C22.627,49.8 18.736,51.288 14.657,51.631 C13.901,51.691 13.254,51.875 12.801,51.273 C12.433,50.785 12.547,49.546 12.522,49.004 C12.428,46.696 12.393,44.382 12.408,42.069 C12.433,37.596 12.632,33.128 12.99,28.676 C13.338,24.387 13.498,19.73 14.617,15.571 C15.687,11.606 20.408,10.347 23.936,9.317 C25.751,8.785 27.592,8.367 29.448,8.004 C29.756,8.113 30.12,8.148 30.533,8.059 C39.12,6.198 47.767,5.044 56.567,5.437 C60.299,5.601 64.184,5.75 67.762,6.929 C69.035,7.347 70.398,7.935 71.279,8.994" id="Fill-39" fill="#DE4274"></path>
                <path d="M71.98,14.69 C72.205,12.78 72.598,10.591 71.279,8.994 C70.398,7.935 69.035,7.347 67.762,6.929 C64.184,5.75 60.299,5.601 56.567,5.437 C47.767,5.044 39.12,6.198 30.533,8.059 C30.12,8.148 29.756,8.113 29.448,8.004 C27.592,8.367 25.751,8.785 23.936,9.317 C20.408,10.347 15.687,11.606 14.617,15.571 C13.498,19.73 13.338,24.387 12.99,28.676 C12.632,33.128 12.433,37.596 12.408,42.069 C12.393,44.382 12.428,46.696 12.522,49.004 C12.547,49.546 12.433,50.785 12.801,51.273 C13.254,51.875 13.901,51.691 14.657,51.631 C18.736,51.288 22.627,49.8 26.731,49.532 C30.249,49.298 33.926,49.701 37.284,50.8 C43.687,52.89 49.08,57.352 51.463,63.751 C53.667,69.671 53.035,76.86 48.971,81.84 C46.836,84.452 43.682,86.497 40.194,86.303 C36.528,86.103 33.12,83.661 30.353,81.428 C27.533,79.144 25.105,76.352 23.154,73.293 C22.667,72.526 21.045,68.939 20.264,69.248 C19.547,69.532 18.751,71.243 18.264,71.905 C17.687,72.691 17.104,73.467 16.503,74.233 C13.702,77.801 10.891,81.367 8.09,84.935 C7.383,85.825 6.274,86.855 5.766,87.885 C5.145,89.144 5.761,89.592 6.538,90.576 C7.806,92.179 9.065,93.796 10.349,95.388 C15.279,101.507 20.915,105.96 28.627,107.92 C35.607,109.701 43.045,109.487 50.055,107.995 C58.15,106.273 64.777,102.736 69.07,95.452 C76.802,82.343 78.886,62.795 67.09,51.333 C64.468,48.785 61.239,46.915 57.722,45.93 C53.971,44.885 50.647,45.243 46.901,45.964 C38.652,47.557 37.632,38.407 39.886,32.641 C41.07,29.611 43.528,27.566 46.896,27.721 C51.135,27.915 55.344,29.437 59.598,29.82 C61.866,30.024 64.14,30.178 66.414,30.268 C68.578,30.352 70.07,30.328 70.428,27.93 C71.09,23.556 71.473,19.089 71.98,14.69 M79.404,61.407 C81.901,69.835 81.16,78.97 78.493,87.258 C76.03,94.93 72.065,102.517 65.398,107.318 C58.98,111.934 50.398,113.542 42.652,113.989 C34.906,114.433 26.97,113.318 19.965,109.875 C12.209,106.06 7.284,99.159 2.12,92.507 C0.925,90.97 -0.254,89.412 0.527,87.383 C1.289,85.412 3.214,83.666 4.522,82.029 C7.547,78.243 10.527,74.412 13.597,70.666 C15.592,68.228 18.174,63.621 21.956,65.173 C23.702,65.89 24.761,67.602 25.682,69.153 C26.697,70.87 27.816,72.492 29.14,73.984 C31.742,76.915 35.329,80.193 39.15,81.383 C43.324,82.681 46.498,78.054 47.428,74.571 C49.394,67.233 45.14,60.049 38.528,56.915 C35.214,55.343 31.448,54.741 27.796,54.865 C23.468,55.014 19.408,56.696 15.104,57.044 C11.08,57.368 8.035,55.512 7.473,51.362 C6.881,47 7.318,42.293 7.518,37.905 C7.742,32.974 8.169,28.054 8.801,23.153 C9.299,19.273 9.343,14.412 11.642,11.083 C13.806,7.944 18.08,6.522 21.558,5.457 C25.771,4.173 30.154,3.546 34.503,2.904 C34.756,2.865 35.015,2.83 35.269,2.79 C37.806,2.138 40.378,1.631 43,1.247 C47.493,0.596 52.02,0.233 56.567,0.253 C60.628,0.268 64.991,0.357 68.916,1.521 C72.12,2.477 75.254,4.362 76.697,7.501 C78.508,11.442 77.11,16.248 76.558,20.337 C76.055,24.039 76.16,28.964 73.956,32.158 C71.453,35.78 66.468,34.586 62.777,34.168 C58.214,33.651 53.667,32.98 49.125,32.317 C46.543,31.944 44.911,32.029 44.478,34.91 C44.284,36.208 44.274,37.651 44.493,38.95 C44.657,39.935 44.612,40.128 45.358,40.312 C46.055,40.482 47.742,39.795 48.498,39.681 C50.354,39.392 52.219,39.283 54.09,39.437 C57.971,39.766 61.727,40.905 65.135,42.785 C72.225,46.701 77.13,53.736 79.404,61.407" id="Fill-40" fill="#AD2555"></path>
                <path d="M19.169,33.007 C18.094,33.007 16.949,32.219 16.878,30.941 C16.436,23.049 17.93,15.09 25.919,11.658 C30.229,9.807 34.788,8.778 39.438,8.27 C41.322,8.064 43.453,7.844 45.585,7.844 C48.469,7.844 51.356,8.247 53.633,9.634 C55.723,10.907 55.385,14.263 52.944,14.909 C51.54,15.28 50.074,15.384 48.587,15.384 C47.649,15.384 46.703,15.343 45.758,15.301 C44.814,15.26 43.872,15.219 42.942,15.219 C42.375,15.219 41.812,15.234 41.256,15.274 C37.489,15.545 33.736,16.35 30.146,17.515 C27.171,18.48 24.957,19.973 23.543,22.821 C22.229,25.467 21.636,28.629 21,31.499 C20.768,32.549 19.989,33.007 19.169,33.007" id="Fill-41" fill="#E46D98"></path>
                <path d="M61.164,14.973 C60.157,14.973 59.154,14.475 58.602,13.535 L58.465,13.3 C58.104,12.685 57.952,11.775 58.175,11.086 C58.329,10.612 58.577,10.185 58.914,9.818 C59.338,9.356 59.961,9.109 60.564,9.028 C60.723,8.992 60.882,8.974 61.041,8.974 C61.264,8.974 61.487,9.009 61.709,9.079 C61.938,9.176 62.167,9.272 62.396,9.369 L62.631,9.506 C64.268,10.467 64.561,12.797 63.226,14.131 C62.658,14.7 61.91,14.973 61.164,14.973" id="Fill-42" fill="#E46D98"></path>
                <path d="M57.066,101.315 C55.204,101.315 53.475,99.361 54.706,97.476 C56.994,93.97 60.058,91.105 62.232,87.505 C64.312,84.06 65.815,80.221 66.321,76.21 C67.322,68.263 64.062,60.499 59.204,54.343 C58.583,53.556 59.118,52.634 59.945,52.634 C60.102,52.634 60.269,52.667 60.441,52.74 C69.179,56.467 72.835,66.876 72.213,75.843 C71.869,80.807 70.372,85.605 68.03,89.983 C65.739,94.267 62.637,98.737 58.255,101.024 C57.871,101.225 57.466,101.315 57.066,101.315" id="Fill-43" fill="#E46D98"></path>
                <path d="M44.144,104.617 C43.586,104.617 43.035,104.372 42.604,104.039 C42.226,103.747 41.964,103.407 41.778,102.967 C41.355,101.963 41.582,100.826 42.333,100.037 L42.413,99.952 C42.883,99.458 43.556,99.211 44.229,99.211 C44.902,99.211 45.576,99.458 46.045,99.952 L46.125,100.037 C46.948,100.901 47.159,102.238 46.545,103.287 C46.062,104.111 45.165,104.573 44.229,104.615 C44.201,104.616 44.173,104.617 44.144,104.617" id="Fill-44" fill="#E46D98"></path>
            </g>
        </g>
    </g>
</svg>