<?xml version="1.0" encoding="UTF-8"?>
<svg width="192px" height="382px" viewBox="0 0 192 382" version="1.1" xmlns="http://www.w3.org/2000/svg" xmlns:xlink="http://www.w3.org/1999/xlink">
    <!-- Generator: Sketch 51.2 (57519) - http://www.bohemiancoding.com/sketch -->
    <title>5</title>
    <desc>Created with Sketch.</desc>
    <defs>
        <filter x="-0.5%" y="-0.3%" width="101.0%" height="101.1%" filterUnits="objectBoundingBox" id="filter-1">
            <feOffset dx="0" dy="2" in="SourceAlpha" result="shadowOffsetOuter1"></feOffset>
            <feColorMatrix values="0 0 0 0 0   0 0 0 0 0   0 0 0 0 0  0 0 0 0.5 0" type="matrix" in="shadowOffsetOuter1" result="shadowMatrixOuter1"></feColorMatrix>
            <feMerge>
                <feMergeNode in="shadowMatrixOuter1"></feMergeNode>
                <feMergeNode in="SourceGraphic"></feMergeNode>
            </feMerge>
        </filter>
        <path d="M178,11 C105.265526,-4.86933968 42,-1 13,11 C3,25.6666667 1,70.3333333 7,145 C103.666667,121.666667 150,135.333333 146,186 C146,248 157,278 72,263 C49.4914993,256.861318 31.7562314,253.234864 18.7941963,252.120637 L18.7941961,252.120639 C9.43985341,251.316532 1.20480327,258.247868 0.400696832,267.602211 C0.348958917,268.204089 0.329339534,268.808298 0.341922176,269.412264 L0.782834664,290.576104 C0.919279296,297.125446 4.80666588,303.013701 10.7757146,305.712397 C63.3662845,329.489377 114.77438,327.251911 165,299 C185,265 205,166 178,133 C145.333333,93.6666667 100,83 42,101 C48.75863,54.9551908 54.75863,31.6218575 60,31 C94.0919634,26.9551908 133.425297,32.2885241 178,47 C184.510351,24.4204402 184.510351,12.4204402 178,11 Z" id="path-2"></path>
        <ellipse id="path-4" cx="41.5" cy="107" rx="41.5" ry="107"></ellipse>
    </defs>
    <g id="Symbols" stroke="none" stroke-width="1" fill="none" fill-rule="evenodd">
        <g id="number/5" transform="translate(-33.000000, -14.000000)">
            <g id="5" filter="url(#filter-1)" transform="translate(33.000000, 14.000000)">
                <path d="M56,50 C122,66 158.333333,74 165,74 C171.666667,74 176,70 178,62 C178.666667,52 161.333333,42 126,32 C90.6666667,22 67.3333333,28 56,50 Z" id="Path-49" fill="#FF9F08"></path>
                <polygon id="Path-50" fill="#FFFFFF" points="174 57 165 70 165 57"></polygon>
                <polygon id="Path-50-Copy" fill="#FFFFFF" points="163 54 154 67 154 54"></polygon>
                <polygon id="Path-50-Copy-2" fill="#FFFFFF" points="152 52 143 65 143 52"></polygon>
                <polygon id="Path-50-Copy-3" fill="#FFFFFF" points="140 48 131 61 131 48"></polygon>
                <polygon id="Path-50-Copy-4" fill="#FFFFFF" points="130 45 121 58 121 45"></polygon>
                <polygon id="Path-50-Copy-5" fill="#FFFFFF" points="119 43 110 56 110 43"></polygon>
                <polygon id="Path-50-Copy-6" fill="#FFFFFF" points="109 41 100 54 100 41"></polygon>
                <g id="leg-copy" transform="translate(138.500000, 350.500000) scale(-1, 1) translate(-138.500000, -350.500000) translate(119.000000, 321.000000)">
                    <path d="M39,0 C20,14 13.6666667,29 20,45" id="Path-51" stroke="#3A3A3A" stroke-width="4"></path>
                    <ellipse id="Oval" fill="#3A3A3A" cx="13" cy="50.5" rx="13" ry="8.5"></ellipse>
                </g>
                <g id="Oval-3" transform="translate(0.000000, 14.000000)">
                    <mask id="mask-3" fill="white">
                        <use xlink:href="#path-2"></use>
                    </mask>
                    <use id="Mask" fill="#FF9F08" xlink:href="#path-2"></use>
                    <g id="Path-2" mask="url(#mask-3)">
                        <g transform="translate(152.000000, 106.000000)">
                            <mask id="mask-5" fill="white">
                                <use xlink:href="#path-4"></use>
                            </mask>
                            <use id="Mask" stroke="none" fill="#000000" fill-rule="evenodd" opacity="0.250167411" xlink:href="#path-4"></use>
                            <path d="M38,52 C36,60 21,60 -7,52" id="Path-2" stroke="#121212" stroke-width="3" fill="none" opacity="0.231361607" mask="url(#mask-5)"></path>
                            <path d="M41,72 C39,80 24,80 -4,72" id="Path-2-Copy" stroke="#121212" stroke-width="3" fill="none" opacity="0.231361607" mask="url(#mask-5)"></path>
                            <path d="M41,89 C39,97 24,97 -4,89" id="Path-2-Copy-3" stroke="#121212" stroke-width="3" fill="none" opacity="0.231361607" mask="url(#mask-5)"></path>
                            <path d="M41,106 C39,114 24,114 -4,106" id="Path-2-Copy-4" stroke="#121212" stroke-width="3" fill="none" opacity="0.231361607" mask="url(#mask-5)"></path>
                            <path d="M41,126 C39,134 24,134 -4,126" id="Path-2-Copy-5" stroke="#121212" stroke-width="3" fill="none" opacity="0.231361607" mask="url(#mask-5)"></path>
                            <path d="M41,146 C39,154 24,154 -4,146" id="Path-2-Copy-6" stroke="#121212" stroke-width="3" fill="none" opacity="0.231361607" mask="url(#mask-5)"></path>
                            <path d="M41,166 C39,174 24,174 -4,166" id="Path-2-Copy-7" stroke="#121212" stroke-width="3" fill="none" opacity="0.231361607" mask="url(#mask-5)"></path>
                            <path d="M38,32 C36,40 21,40 -7,32" id="Path-2-Copy-2" stroke="#121212" stroke-width="3" fill="none" opacity="0.231361607" mask="url(#mask-5)"></path>
                        </g>
                    </g>
                </g>
                <path d="M81,143 C62.3333333,152.333333 53,167.666667 53,189 C69,209.666667 82,226 92,238" id="Path-3" stroke="#FF9F08" stroke-width="9"></path>
                <ellipse id="Oval-4" fill="#FF9F08" cx="92.5" cy="237.5" rx="9.5" ry="8.5"></ellipse>
                <ellipse id="Oval-2" fill="#000000" opacity="0.17890625" cx="21" cy="138" rx="11" ry="13"></ellipse>
                <circle id="Oval-2-Copy" fill="#000000" opacity="0.17890625" cx="15.5" cy="117.5" r="5.5"></circle>
                <circle id="Oval-2-Copy-2" fill="#000000" opacity="0.17890625" cx="33" cy="125" r="3"></circle>
                <path d="M79,39 C125.666667,46.3333333 159,53 179,59" id="Path-49-Copy" stroke="#9F6100" stroke-width="3"></path>
                <g id="eye" transform="translate(70.000000, 0.000000)">
                    <ellipse id="Oval-2-Copy-4" fill="#FFFFFF" cx="17.5" cy="24" rx="17.5" ry="24"></ellipse>
                    <ellipse id="Oval-2-Copy-5" fill="#000000" cx="19.1666667" cy="25.0769231" rx="5.83333333" ry="8.07692308"></ellipse>
                </g>
                <g id="eye" transform="translate(17.000000, 0.000000)">
                    <ellipse id="Oval-2-Copy-4" fill="#FFFFFF" cx="17.5" cy="24" rx="17.5" ry="24"></ellipse>
                    <ellipse id="Oval-2-Copy-5" fill="#000000" cx="19.1666667" cy="25.0769231" rx="5.83333333" ry="8.07692308"></ellipse>
                </g>
                <g id="eye" transform="translate(123.000000, 0.000000)">
                    <ellipse id="Oval-2-Copy-4" fill="#FFFFFF" cx="17.5" cy="24" rx="17.5" ry="24"></ellipse>
                    <ellipse id="Oval-2-Copy-5" fill="#000000" cx="19.1666667" cy="25.0769231" rx="5.83333333" ry="8.07692308"></ellipse>
                </g>
                <g id="leg" transform="translate(19.000000, 321.000000)">
                    <path d="M39,0 C20,14 13.6666667,29 20,45" id="Path-51" stroke="#3A3A3A" stroke-width="4" stroke-linecap="round"></path>
                    <ellipse id="Oval" fill="#3A3A3A" cx="13" cy="50.5" rx="13" ry="8.5"></ellipse>
                </g>
            </g>
        </g>
    </g>
</svg>