<?xml version="1.0" encoding="UTF-8"?>
<svg width="85px" height="117px" viewBox="0 0 85 117" version="1.1" xmlns="http://www.w3.org/2000/svg" xmlns:xlink="http://www.w3.org/1999/xlink">
    <!-- Generator: Sketch 51.1 (57501) - http://www.bohemiancoding.com/sketch -->
    <title>Group 7</title>
    <desc>Created with Sketch.</desc>
    <defs></defs>
    <g id="Page-1" stroke="none" stroke-width="1" fill="none" fill-rule="evenodd">
        <g id="293959-P70SA5-767" transform="translate(-119.000000, -184.000000)">
            <g id="Group-7" transform="translate(119.000000, 184.000000)">
                <path d="M39.755,87.939 C35.063,83.224 35.561,76.885 37.646,71.184 L37.686,71.114 C39.721,67.815 43.536,67.283 46.989,68.557 C53.114,70.811 58.427,78.761 55.85,85.253 C53.163,92.015 44.571,92.775 39.755,87.939 M58.442,115.696 C67.367,113.846 76.795,109.02 81.144,100.632 C85.258,92.701 85.785,82.487 83.462,73.939 C82.193,69.283 79.91,64.88 76.586,61.362 C72.81,57.372 67.84,54.95 62.82,52.91 C61.557,52.393 60.213,51.989 58.974,51.412 C58.915,51.382 58.362,51.153 58.099,50.979 C58.412,50.979 59.029,49.969 59.188,49.785 C61.059,47.582 62.979,45.417 64.984,43.337 C69.193,38.984 73.746,34.91 78.532,31.203 C79.218,30.671 79.532,29.362 79.228,28.566 C76.795,22.153 72.959,16.412 67.93,11.735 C65.348,9.337 62.482,7.198 59.417,5.457 C56.258,3.656 53.452,2.253 49.899,3.81 C37.571,9.223 26.81,18.481 19.238,29.562 C15.218,35.442 12.019,42.039 10.243,48.955 C4.546,63.835 3.123,80.855 11.407,94.965 C20.969,111.253 39.974,119.518 58.442,115.696" id="Fill-45" fill="#E5E5E0"></path>
                <path d="M47.387,92.273 C55.049,89.467 58.497,80.875 55.71,73.397 C53.124,66.452 46.551,60.308 38.825,60.233 C34.74,60.193 30.944,62.343 29.024,65.975 C26.506,70.726 27.452,79.353 29.497,84.139 C32.437,91.02 40.169,94.92 47.387,92.273 M74.512,80.571 C74.552,84.856 73.935,89.312 72.293,93.293 C70.492,97.661 67.164,100.925 63.134,103.293 C47.641,112.393 27.203,108.721 15.367,95.457 C2.675,81.243 3.7,61.487 10.387,44.73 C14.78,33.716 21.646,23.88 30.198,15.795 C31.8,14.512 33.472,13.292 35.203,12.144 C38.422,10.019 41.81,8.148 45.323,6.556 C47.328,5.651 48.054,5.387 50.004,6.387 C51.74,7.283 53.412,8.297 55.004,9.422 C60.815,13.526 65.238,19.193 68.318,25.546 C61.422,31.397 54.397,37.676 48.875,44.815 C46.144,48.348 48.337,51.81 51.989,53.348 C56.153,55.104 60.392,56.497 64.188,59.034 C71.298,63.795 74.437,72.273 74.512,80.571" id="Fill-46" fill="#BF75A4"></path>
                <path d="M72.293,93.293 C73.935,89.312 74.552,84.856 74.512,80.571 C74.437,72.273 71.298,63.795 64.188,59.034 C60.392,56.497 56.153,55.104 51.989,53.348 C48.337,51.81 46.144,48.348 48.875,44.815 C54.397,37.676 61.422,31.397 68.318,25.546 C65.238,19.193 60.815,13.526 55.004,9.422 C53.412,8.297 51.74,7.283 50.004,6.387 C48.054,5.387 47.328,5.651 45.323,6.556 C41.81,8.148 38.422,10.019 35.203,12.144 C33.472,13.292 31.8,14.512 30.198,15.795 C21.646,23.88 14.78,33.716 10.387,44.73 C3.7,61.487 2.675,81.243 15.367,95.457 C27.203,108.721 47.641,112.393 63.134,103.293 C67.164,100.925 70.492,97.661 72.293,93.293 M78.462,70.939 C80.786,79.487 80.258,89.701 76.144,97.632 C71.795,106.019 62.367,110.846 53.442,112.696 C34.974,116.518 15.969,108.253 6.407,91.965 C-1.877,77.855 -0.454,60.835 5.243,45.955 C7.019,39.039 10.218,32.442 14.238,26.561 C21.81,15.481 32.571,6.223 44.899,0.81 C48.452,-0.747 51.258,0.656 54.417,2.457 C57.482,4.198 60.348,6.337 62.93,8.735 C67.959,13.412 71.795,19.153 74.228,25.566 C74.532,26.362 74.218,27.671 73.532,28.203 C68.746,31.91 64.193,35.984 59.984,40.337 C57.98,42.417 56.059,44.582 54.189,46.785 C54.029,46.969 53.412,47.98 53.099,47.98 C53.362,48.153 53.915,48.382 53.974,48.412 C55.213,48.989 56.557,49.392 57.82,49.91 C62.84,51.95 67.81,54.373 71.586,58.362 C74.91,61.88 77.193,66.283 78.462,70.939" id="Fill-47" fill="#993E86"></path>
                <path d="M50.85,82.253 C53.427,75.761 48.114,67.811 41.989,65.557 C38.537,64.283 34.721,64.815 32.686,68.114 L32.646,68.184 C30.561,73.885 30.063,80.224 34.755,84.939 C39.571,89.775 48.163,89.015 50.85,82.253 Z M55.71,73.397 C58.497,80.875 55.049,89.467 47.387,92.273 C40.168,94.92 32.437,91.02 29.497,84.139 C27.452,79.353 26.506,70.726 29.024,65.975 C30.944,62.343 34.74,60.193 38.825,60.233 C46.551,60.308 53.124,66.452 55.71,73.397 Z" id="Fill-48" fill="#993E86"></path>
                <path d="M14.796,52.826 C13.61,52.826 12.529,51.786 12.771,50.23 C14.124,41.553 19.812,34.027 25.498,27.582 C31.335,20.964 38.306,15.7 46.214,11.811 C46.544,11.648 46.861,11.577 47.155,11.577 C48.809,11.577 49.736,13.843 48.098,15.032 C41.515,19.807 35.453,25.527 30.218,31.747 C24.963,37.99 21.478,45.353 16.608,51.848 C16.099,52.527 15.432,52.826 14.796,52.826" id="Fill-49" fill="#D29BBA"></path>
                <path d="M11.987,65.664 C10.49,65.664 9.044,64.35 9.114,62.795 C9.148,62.038 9.404,61.322 9.951,60.775 C10.469,60.257 11.238,59.938 11.971,59.938 C12.745,59.938 13.432,60.262 13.991,60.775 C14.345,61.132 14.59,61.552 14.726,62.036 C14.845,62.415 14.862,62.795 14.776,63.175 C14.707,63.695 14.544,64.118 14.215,64.542 C13.818,65.056 13.354,65.353 12.73,65.55 C12.485,65.628 12.236,65.664 11.987,65.664" id="Fill-50" fill="#D29BBA"></path>
            </g>
        </g>
    </g>
</svg>