<?xml version="1.0" encoding="UTF-8"?>
<svg width="238px" height="401px" viewBox="0 0 238 401" version="1.1" xmlns="http://www.w3.org/2000/svg" xmlns:xlink="http://www.w3.org/1999/xlink">
    <!-- Generator: Sketch 51.2 (57519) - http://www.bohemiancoding.com/sketch -->
    <title>6</title>
    <desc>Created with Sketch.</desc>
    <defs>
        <filter x="-0.4%" y="-0.2%" width="100.8%" height="101.0%" filterUnits="objectBoundingBox" id="filter-1">
            <feOffset dx="0" dy="2" in="SourceAlpha" result="shadowOffsetOuter1"></feOffset>
            <feColorMatrix values="0 0 0 0 0   0 0 0 0 0   0 0 0 0 0  0 0 0 0.5 0" type="matrix" in="shadowOffsetOuter1" result="shadowMatrixOuter1"></feColorMatrix>
            <feMerge>
                <feMergeNode in="shadowMatrixOuter1"></feMergeNode>
                <feMergeNode in="SourceGraphic"></feMergeNode>
            </feMerge>
        </filter>
        <path d="M170,2 C206,4.66666667 227.333333,14.6666667 234,32 C244,58 228,75 199,65 C170,55 172.23557,55 102.23557,55 C32.2355697,55 53,202 65,183 C77,164 87,145.069791 151,145.323203 C234,164 243,229 235,278 C211,337 100,354 37,301 C-26,248 9,107 17,49 C22.3333333,10.3333333 73.3333333,-5.33333333 170,2 Z M139.5,283 C166.838095,283 189,263.748244 189,240 C189,216.251756 166.838095,197 139.5,197 C112.161905,197 90,216.251756 90,240 C90,263.748244 112.161905,283 139.5,283 Z" id="path-2"></path>
    </defs>
    <g id="Symbols" stroke="none" stroke-width="1" fill="none" fill-rule="evenodd">
        <g id="number/6" transform="translate(-6.000000, -4.000000)">
            <g id="6" filter="url(#filter-1)" transform="translate(6.000000, -5.000000)">
                <g id="leg" transform="translate(132.000000, 328.000000)">
                    <path d="M21,0 C21,36 20.3333333,59.6666667 19,71" id="Path-3" stroke="#3A3A3A" stroke-width="4"></path>
                    <ellipse id="Oval-3" fill="#3A3A3A" cx="17.5" cy="72.5" rx="17.5" ry="7.5"></ellipse>
                </g>
                <g id="leg" transform="translate(68.000000, 322.000000)">
                    <path d="M20,0 C20,36 24.3333333,60 33,72" id="Path-3" stroke="#3A3A3A" stroke-width="4"></path>
                    <ellipse id="Oval-3" fill="#3A3A3A" cx="17.5" cy="72.5" rx="17.5" ry="7.5"></ellipse>
                </g>
                <path d="M94,286 L105,266 C145,262 167.333333,262 172,266 C176.666667,270 183,279 191,293 C145,325.666667 115.333333,332.666667 102,314 C88.6666667,295.333333 86,286 94,286 Z" id="Path-54" fill="#FFFFFF"></path>
                <path d="M96,235 L103,255 C139,247.666667 162.666667,247.666667 174,255 C180,240 174,247 189,225 C140.333333,211 109.333333,214.333333 96,235 Z" id="Path-53" fill="#FFFFFF"></path>
                <g id="Path-52" transform="translate(0.000000, 20.000000)">
                    <mask id="mask-3" fill="white">
                        <use xlink:href="#path-2"></use>
                    </mask>
                    <use id="Mask" fill="#4D1414" xlink:href="#path-2"></use>
                    <g id="Group" mask="url(#mask-3)" stroke="#979797" stroke-width="2">
                        <g transform="translate(190.000000, -11.000000)">
                            <path d="M51,27 C42.3333333,31.6666667 36,39.3333333 32,50 C25,38.5 34,30 21,20" id="Path-52" fill="#979797" fill-rule="evenodd"></path>
                            <path d="M81.75,16.1333333 C58.2055556,26.5555556 41,43.6777778 30.1333333,67.5 C11.1166667,41.8166667 35.5666667,22.8333333 0.25,0.5" id="Path-52-Copy" fill="none" stroke-dasharray="4"></path>
                        </g>
                    </g>
                    <g id="Group-Copy" mask="url(#mask-3)" stroke="#979797" stroke-width="2">
                        <g transform="translate(181.000000, 3.000000) rotate(-7.000000) translate(-181.000000, -3.000000) translate(140.000000, -31.000000)">
                            <path d="M51,27 C42.3333333,31.6666667 36,39.3333333 32,50 C25,38.5 34,30 21,20" id="Path-52" fill="#979797" fill-rule="evenodd"></path>
                            <path d="M81.75,16.1333333 C58.2055556,26.5555556 41,43.6777778 30.1333333,67.5 C11.1166667,41.8166667 35.5666667,22.8333333 0.25,0.5" id="Path-52-Copy" fill="none" stroke-dasharray="4"></path>
                        </g>
                    </g>
                    <g id="Group-Copy-2" mask="url(#mask-3)" stroke="#979797" stroke-width="2">
                        <g transform="translate(129.000000, 3.000000) rotate(-7.000000) translate(-129.000000, -3.000000) translate(88.000000, -31.000000)">
                            <path d="M51,27 C42.3333333,31.6666667 36,39.3333333 32,50 C25,38.5 34,30 21,20" id="Path-52" fill="#979797" fill-rule="evenodd"></path>
                            <path d="M81.75,16.1333333 C58.2055556,26.5555556 41,43.6777778 30.1333333,67.5 C11.1166667,41.8166667 35.5666667,22.8333333 0.25,0.5" id="Path-52-Copy" fill="none" stroke-dasharray="4"></path>
                        </g>
                    </g>
                    <g id="Group-Copy-3" mask="url(#mask-3)" stroke="#979797" stroke-width="2">
                        <g transform="translate(49.000000, 8.000000) rotate(-61.000000) translate(-49.000000, -8.000000) translate(8.000000, -26.000000)">
                            <path d="M51,27 C42.3333333,31.6666667 36,39.3333333 32,50 C25,38.5 34,30 21,20" id="Path-52" fill="#979797" fill-rule="evenodd"></path>
                            <path d="M81.75,16.1333333 C58.2055556,26.5555556 41,43.6777778 30.1333333,67.5 C11.1166667,41.8166667 35.5666667,22.8333333 0.25,0.5" id="Path-52-Copy" fill="none" stroke-dasharray="4"></path>
                        </g>
                    </g>
                    <g id="Group-Copy-4" mask="url(#mask-3)" stroke="#979797" stroke-width="2">
                        <g transform="translate(19.000000, 59.000000) rotate(-91.000000) translate(-19.000000, -59.000000) translate(-22.000000, 25.000000)">
                            <path d="M51,27 C42.3333333,31.6666667 36,39.3333333 32,50 C25,38.5 34,30 21,20" id="Path-52" fill="#979797" fill-rule="evenodd"></path>
                            <path d="M81.75,16.1333333 C58.2055556,26.5555556 41,43.6777778 30.1333333,67.5 C11.1166667,41.8166667 35.5666667,22.8333333 0.25,0.5" id="Path-52-Copy" fill="none" stroke-dasharray="4"></path>
                        </g>
                    </g>
                    <g id="Group-Copy-5" mask="url(#mask-3)" stroke="#979797" stroke-width="2">
                        <g transform="translate(10.000000, 130.000000) rotate(-93.000000) translate(-10.000000, -130.000000) translate(-31.000000, 96.000000)">
                            <path d="M51,27 C42.3333333,31.6666667 36,39.3333333 32,50 C25,38.5 34,30 21,20" id="Path-52" fill="#979797" fill-rule="evenodd"></path>
                            <path d="M81.75,16.1333333 C58.2055556,26.5555556 41,43.6777778 30.1333333,67.5 C11.1166667,41.8166667 35.5666667,22.8333333 0.25,0.5" id="Path-52-Copy" fill="none" stroke-dasharray="4"></path>
                        </g>
                    </g>
                    <g id="Group-Copy-6" mask="url(#mask-3)" stroke="#979797" stroke-width="2">
                        <g transform="translate(8.000000, 192.000000) rotate(-102.000000) translate(-8.000000, -192.000000) translate(-33.000000, 158.000000)">
                            <path d="M51,27 C42.3333333,31.6666667 36,39.3333333 32,50 C25,38.5 34,30 21,20" id="Path-52" fill="#979797" fill-rule="evenodd"></path>
                            <path d="M81.75,16.1333333 C58.2055556,26.5555556 41,43.6777778 30.1333333,67.5 C11.1166667,41.8166667 35.5666667,22.8333333 0.25,0.5" id="Path-52-Copy" fill="none" stroke-dasharray="4"></path>
                        </g>
                    </g>
                    <g id="Group-Copy-7" mask="url(#mask-3)" stroke="#979797" stroke-width="2">
                        <g transform="translate(22.500000, 258.366025) rotate(-120.000000) translate(-22.500000, -258.366025) translate(-22.500000, 220.866025)">
                            <path d="M57,29.7 C47.4666667,34.8333333 40.5,43.2666667 36.1,55 C28.4,42.35 38.3,33 24,22" id="Path-52" fill="#979797" fill-rule="evenodd"></path>
                            <path d="M89.1339746,17.7666667 C63.4228635,29.2777778 44.6339746,48.1888889 32.7673079,74.5 C12.0006413,46.1333333 38.7006413,25.1666667 0.133974596,0.5" id="Path-52-Copy" fill="none" stroke-dasharray="4"></path>
                        </g>
                    </g>
                    <g id="Group-Copy-8" mask="url(#mask-3)" stroke="#979797" stroke-width="2">
                        <g transform="translate(64.500000, 310.366025) rotate(-158.000000) translate(-64.500000, -310.366025) translate(19.500000, 272.866025)">
                            <path d="M57,29.7 C47.4666667,34.8333333 40.5,43.2666667 36.1,55 C28.4,42.35 38.3,33 24,22" id="Path-52" fill="#979797" fill-rule="evenodd"></path>
                            <path d="M89.1339746,17.7666667 C63.4228635,29.2777778 44.6339746,48.1888889 32.7673079,74.5 C12.0006413,46.1333333 38.7006413,25.1666667 0.133974596,0.5" id="Path-52-Copy" fill="none" stroke-dasharray="4"></path>
                        </g>
                    </g>
                    <g id="Group-Copy-9" mask="url(#mask-3)" stroke="#979797" stroke-width="2">
                        <g transform="translate(134.500000, 326.366025) rotate(-194.000000) translate(-134.500000, -326.366025) translate(89.500000, 288.866025)">
                            <path d="M57,29.7 C47.4666667,34.8333333 40.5,43.2666667 36.1,55 C28.4,42.35 38.3,33 24,22" id="Path-52" fill="#979797" fill-rule="evenodd"></path>
                            <path d="M89.1339746,17.7666667 C63.4228635,29.2777778 44.6339746,48.1888889 32.7673079,74.5 C12.0006413,46.1333333 38.7006413,25.1666667 0.133974596,0.5" id="Path-52-Copy" fill="none" stroke-dasharray="4"></path>
                        </g>
                    </g>
                    <g id="Group-Copy-10" mask="url(#mask-3)" stroke="#979797" stroke-width="2">
                        <g transform="translate(194.500000, 309.366025) rotate(-225.000000) translate(-194.500000, -309.366025) translate(149.500000, 271.866025)">
                            <path d="M57,29.7 C47.4666667,34.8333333 40.5,43.2666667 36.1,55 C28.4,42.35 38.3,33 24,22" id="Path-52" fill="#979797" fill-rule="evenodd"></path>
                            <path d="M89.1339746,17.7666667 C63.4228635,29.2777778 44.6339746,48.1888889 32.7673079,74.5 C12.0006413,46.1333333 38.7006413,25.1666667 0.133974596,0.5" id="Path-52-Copy" fill="none" stroke-dasharray="4"></path>
                        </g>
                    </g>
                    <g id="Group-Copy-11" mask="url(#mask-3)" stroke="#979797" stroke-width="2">
                        <g transform="translate(231.500000, 255.366025) rotate(-276.000000) translate(-231.500000, -255.366025) translate(186.500000, 217.866025)">
                            <path d="M57,29.7 C47.4666667,34.8333333 40.5,43.2666667 36.1,55 C28.4,42.35 38.3,33 24,22" id="Path-52" fill="#979797" fill-rule="evenodd"></path>
                            <path d="M89.1339746,17.7666667 C63.4228635,29.2777778 44.6339746,48.1888889 32.7673079,74.5 C12.0006413,46.1333333 38.7006413,25.1666667 0.133974596,0.5" id="Path-52-Copy" fill="none" stroke-dasharray="4"></path>
                        </g>
                    </g>
                    <g id="Group-Copy-12" mask="url(#mask-3)" stroke="#979797" stroke-width="2">
                        <g transform="translate(213.500000, 193.366025) rotate(-303.000000) translate(-213.500000, -193.366025) translate(168.500000, 155.866025)">
                            <path d="M57,29.7 C47.4666667,34.8333333 40.5,43.2666667 36.1,55 C28.4,42.35 38.3,33 24,22" id="Path-52" fill="#979797" fill-rule="evenodd"></path>
                            <path d="M89.1339746,17.7666667 C63.4228635,29.2777778 44.6339746,48.1888889 32.7673079,74.5 C12.0006413,46.1333333 38.7006413,25.1666667 0.133974596,0.5" id="Path-52-Copy" fill="none" stroke-dasharray="4"></path>
                        </g>
                    </g>
                    <g id="Group-Copy-13" mask="url(#mask-3)" stroke="#979797" stroke-width="2">
                        <g transform="translate(158.500000, 154.366025) rotate(-351.000000) translate(-158.500000, -154.366025) translate(113.500000, 116.866025)">
                            <path d="M57,29.7 C47.4666667,34.8333333 40.5,43.2666667 36.1,55 C28.4,42.35 38.3,33 24,22" id="Path-52" fill="#979797" fill-rule="evenodd"></path>
                            <path d="M89.1339746,17.7666667 C63.4228635,29.2777778 44.6339746,48.1888889 32.7673079,74.5 C12.0006413,46.1333333 38.7006413,25.1666667 0.133974596,0.5" id="Path-52-Copy" fill="none" stroke-dasharray="4"></path>
                        </g>
                    </g>
                    <g id="Group-Copy-14" mask="url(#mask-3)" stroke="#979797" stroke-width="2">
                        <g transform="translate(107.668172, 164.228650) rotate(-394.000000) translate(-107.668172, -164.228650) translate(68.668172, 134.228650)">
                            <path d="M45,14.7 C35.4666667,19.8333333 28.5,28.2666667 24.1,40 C16.4,27.35 26.3,18 12,7" id="Path-52" fill="#979797" fill-rule="evenodd"></path>
                            <path d="M77.1339746,2.76666667 C51.4228635,14.2777778 32.6339746,33.1888889 20.7673079,59.5 C0.000641262813,31.1333333 26.6390381,31.036368 0.138560947,0.581566735" id="Path-52-Copy" fill="none" stroke-dasharray="4"></path>
                        </g>
                    </g>
                </g>
                <g id="Group-2" transform="translate(76.000000, 36.500000) rotate(15.000000) translate(-76.000000, -36.500000) translate(39.000000, 9.000000)">
                    <path d="M37,55 C50.6230238,55 62.9563572,45.8333333 74,27.5 C62.9563572,9.16666667 50.6230238,0 37,0 C23.3769762,0 11.0436428,9.16666667 0,27.5 C11.0436428,45.8333333 23.3769762,55 37,55 Z" id="Oval-2" fill="#FFFFFF"></path>
                    <path d="M37,15 C50.6230238,15 62.9563572,19.1666667 74,27.5 C62.9563572,9.16666667 50.6230238,0 37,0 C23.3769762,0 11.0436428,9.16666667 0,27.5 C11.0436428,19.1666667 23.3769762,15 37,15 Z" id="Oval-2-Copy" fill="#4D1414"></path>
                    <circle id="Oval-3" fill="#000000" cx="35" cy="28" r="5"></circle>
                </g>
                <g id="Group-2-Copy" transform="translate(176.000000, 36.500000) rotate(-15.000000) translate(-176.000000, -36.500000) translate(139.000000, 9.000000)">
                    <path d="M37,55 C50.6230238,55 62.9563572,45.8333333 74,27.5 C62.9563572,9.16666667 50.6230238,0 37,0 C23.3769762,0 11.0436428,9.16666667 0,27.5 C11.0436428,45.8333333 23.3769762,55 37,55 Z" id="Oval-2" fill="#FFFFFF"></path>
                    <path d="M37,15 C50.6230238,15 62.9563572,19.1666667 74,27.5 C62.9563572,9.16666667 50.6230238,0 37,0 C23.3769762,0 11.0436428,9.16666667 0,27.5 C11.0436428,19.1666667 23.3769762,15 37,15 Z" id="Oval-2-Copy" fill="#4D1414"></path>
                    <circle id="Oval-3" fill="#000000" cx="35" cy="28" r="5"></circle>
                </g>
            </g>
        </g>
    </g>
</svg>