<?xml version="1.0" encoding="UTF-8"?>
<svg width="242px" height="392px" viewBox="0 0 242 392" version="1.1" xmlns="http://www.w3.org/2000/svg" xmlns:xlink="http://www.w3.org/1999/xlink">
    <!-- Generator: Sketch 51.2 (57519) - http://www.bohemiancoding.com/sketch -->
    <title>7</title>
    <desc>Created with Sketch.</desc>
    <defs>
        <filter x="-0.4%" y="-0.3%" width="100.8%" height="101.0%" filterUnits="objectBoundingBox" id="filter-1">
            <feOffset dx="0" dy="2" in="SourceAlpha" result="shadowOffsetOuter1"></feOffset>
            <feColorMatrix values="0 0 0 0 0   0 0 0 0 0   0 0 0 0 0  0 0 0 0.5 0" type="matrix" in="shadowOffsetOuter1" result="shadowMatrixOuter1"></feColorMatrix>
            <feMerge>
                <feMergeNode in="shadowMatrixOuter1"></feMergeNode>
                <feMergeNode in="SourceGraphic"></feMergeNode>
            </feMerge>
        </filter>
        <path d="M227,62 C219.666667,96 209.333333,121 196,137 C182.666667,153 174.333333,159.333333 171,156 C159.666667,207.333333 146,238.333333 130,249 C114,259.666667 98,276 82,298 L227,62 Z" id="path-2"></path>
        <path d="M217.151572,1.42145797 C220.521069,2.01057838 223.846327,3.19033322 226.980762,5 C241.329541,13.2842712 246.245795,31.6319834 237.961524,45.9807621 L93.1785485,296.752232 C84.8942773,311.101011 66.5465651,316.017265 52.1977864,307.732994 C37.8490077,299.448723 32.9327531,281.101011 41.2170243,266.752232 L160.585481,60 L30,60 C13.4314575,60 2.02906125e-15,46.5685425 0,30 C-2.02906125e-15,13.4314575 13.4314575,3.04359188e-15 30,0 L208,0 C211.191442,-5.86258361e-16 214.266489,0.498343052 217.151572,1.42145797 Z" id="path-3"></path>
        <linearGradient x1="36.4160575%" y1="60.827081%" x2="100%" y2="24.1924366%" id="linearGradient-5">
            <stop stop-color="#F09595" offset="0%"></stop>
            <stop stop-color="#E54545" offset="100%"></stop>
        </linearGradient>
        <path d="M36,2 C44,1.33333333 48,5.33333333 48,14 C48,27 52,46 32,46 C12,46 9,48 2,41 C-5,34 12,16 15,7 C17,1 24,-0.666666667 36,2 Z" id="path-6"></path>
        <linearGradient x1="49.8907065%" y1="10.7177876%" x2="28.9755749%" y2="71.0726767%" id="linearGradient-8">
            <stop stop-color="#F09595" offset="0%"></stop>
            <stop stop-color="#E54545" offset="100%"></stop>
        </linearGradient>
    </defs>
    <g id="Symbols" stroke="none" stroke-width="1" fill="none" fill-rule="evenodd">
        <g id="number/7" transform="translate(-5.000000, -6.000000)">
            <g id="7" filter="url(#filter-1)" transform="translate(5.000000, 6.000000)">
                <g id="leg" transform="translate(39.000000, 304.000000)">
                    <path d="M20,0 C20,36 24.3333333,60 33,72" id="Path-3" stroke="#3A3A3A" stroke-width="4"></path>
                    <ellipse id="Oval-3" fill="#3A3A3A" cx="17.5" cy="72.5" rx="17.5" ry="7.5"></ellipse>
                </g>
                <g id="Path-2">
                    <use fill="#F07777" xlink:href="#path-2"></use>
                    <use fill="#60955B" xlink:href="#path-2"></use>
                </g>
                <g id="body">
                    <mask id="mask-4" fill="white">
                        <use xlink:href="#path-3"></use>
                    </mask>
                    <g id="Mask">
                        <use fill="#D8D8D8" xlink:href="#path-3"></use>
                        <use fill="#F09595" xlink:href="#path-3"></use>
                    </g>
                    <ellipse id="Oval-4" fill="url(#linearGradient-5)" mask="url(#mask-4)" cx="213" cy="27.5" rx="38" ry="37.5"></ellipse>
                </g>
                <g id="leg" transform="translate(88.000000, 253.000000)">
                    <path d="M21,0 C29.6666667,45.3333333 28.6666667,88 18,128" id="Path-3" stroke="#3A3A3A" stroke-width="4" stroke-linecap="round"></path>
                    <ellipse id="Oval-3" fill="#3A3A3A" cx="17.5" cy="129.5" rx="17.5" ry="7.5"></ellipse>
                </g>
                <g id="Group" transform="translate(36.000000, 24.000000)">
                    <ellipse id="Oval" fill="#FFFFFF" cx="29" cy="28.5" rx="29" ry="23.5"></ellipse>
                    <circle id="Oval-2" fill="#000000" cx="25" cy="32" r="12"></circle>
                    <circle id="Oval-5" fill="#FFFFFF" cx="34" cy="32" r="4"></circle>
                    <path d="M14,7.10542736e-15 C26.6666667,8 42,12 60,12" id="Path-41" stroke="#000000" stroke-width="8" stroke-linecap="round"></path>
                </g>
                <g id="Group-Copy" transform="translate(147.000000, 50.000000) scale(-1, 1) translate(-147.000000, -50.000000) translate(118.000000, 24.000000)">
                    <ellipse id="Oval" fill="#FFFFFF" cx="29" cy="28.5" rx="29" ry="23.5"></ellipse>
                    <circle id="Oval-2" fill="#000000" cx="25" cy="32" r="12"></circle>
                    <circle id="Oval-5" fill="#FFFFFF" cx="16" cy="32" r="4"></circle>
                    <path d="M17.8333333,7.10542736e-15 C28.3888889,6.66666667 41.1666667,10 56.1666667,10" id="Path-41" stroke="#000000" stroke-width="8" stroke-linecap="round"></path>
                </g>
                <g id="Path-57" transform="translate(88.000000, 157.000000)">
                    <mask id="mask-7" fill="white">
                        <use xlink:href="#path-6"></use>
                    </mask>
                    <use id="Mask" fill="#090909" xlink:href="#path-6"></use>
                    <polygon fill="#FFFFFF" mask="url(#mask-7)" points="1 47 5 33 11 46 15 33 21 46 25 33 32 46 39 33 43 46"></polygon>
                    <polygon id="Path-57-Copy" fill="#FFFFFF" mask="url(#mask-7)" transform="translate(42.000000, 7.000000) scale(1, -1) translate(-42.000000, -7.000000) " points="21 14 25 0 31 13 35 0 41 13 45 0 52 13 59 0 63 13"></polygon>
                </g>
                <path d="M110,151 C81,149 69.6666667,157.333333 76,176 C82.3333333,194.666667 95.6666667,188 116,156" id="noze" fill="url(#linearGradient-8)"></path>
            </g>
        </g>
    </g>
</svg>