<?xml version="1.0" encoding="UTF-8"?>
<svg width="90px" height="116px" viewBox="0 0 90 116" version="1.1" xmlns="http://www.w3.org/2000/svg" xmlns:xlink="http://www.w3.org/1999/xlink">
    <!-- Generator: Sketch 51.1 (57501) - http://www.bohemiancoding.com/sketch -->
    <title>Group 8</title>
    <desc>Created with Sketch.</desc>
    <defs></defs>
    <g id="Page-1" stroke="none" stroke-width="1" fill="none" fill-rule="evenodd">
        <g id="293959-P70SA5-767" transform="translate(-208.000000, -188.000000)">
            <g id="Group-8" transform="translate(208.000000, 188.000000)">
                <path d="M88.777,22.083 C87.195,18.706 85.284,15.452 83.314,12.293 C81.538,9.447 79.608,5.536 76.245,4.317 C74.886,3.828 73.479,3.834 72.065,3.839 C71.868,3.84 71.671,3.84 71.474,3.84 C69.404,3.83 67.334,3.735 65.265,3.706 C60.807,3.641 56.344,3.641 51.887,3.706 C43.434,3.83 34.986,4.148 26.603,5.278 C26.443,5.303 26.304,5.347 26.175,5.407 C23.981,5.506 21.782,5.616 19.593,5.765 C16.807,5.954 13.98,6.283 11.727,8.069 C9.23,10.049 8.458,13.223 7.667,16.168 C6.737,19.621 6.14,23.163 5.732,26.71 C5.409,29.551 5.662,32.382 8.488,33.8 C9.737,34.427 11.095,34.487 12.448,34.686 C14.225,34.944 15.996,35.278 17.762,35.586 C24.722,36.8 31.816,36.989 38.856,37.248 C40.668,37.317 42.474,37.382 44.279,37.477 C45.14,37.517 46.135,37.711 46.986,37.631 C48.25,37.512 48.18,37.193 47.668,38.173 C46.025,41.323 44.125,44.353 42.399,47.452 C38.931,53.681 35.245,59.791 31.553,65.885 C27.856,71.989 24.105,78.06 20.468,84.198 C18.652,87.264 16.802,90.323 15.125,93.462 C13.861,95.825 11.294,99.532 11.513,102.338 C11.782,105.741 15.11,106.268 17.752,107.169 C21.245,108.353 24.657,109.77 28.12,111.05 C31.538,112.313 34.966,113.597 38.438,114.711 C41.27,115.621 44.349,116.357 47.329,115.791 C53.847,114.557 55.757,107.487 58.001,102.184 C60.747,95.682 63.16,89.034 65.732,82.457 C70.932,69.143 76.339,55.89 82.901,43.173 C84.718,39.661 86.822,36.283 88.573,32.74 C90.374,29.099 90.509,25.775 88.777,22.083" id="Fill-51" fill="#E5E5E0"></path>
                <path d="M75.573,16.919 C76.732,19.094 78.932,22.099 78.762,24.626 C78.663,26.099 77.633,27.546 76.946,28.805 C76.096,30.367 75.255,31.939 74.438,33.521 C68.538,44.95 63.598,56.855 58.986,68.851 C56.747,74.676 54.583,80.527 52.424,86.383 C51.344,89.308 50.244,92.228 49.17,95.159 C48.041,98.238 47.215,101.552 45.767,104.502 C42.558,111.045 35.667,107.905 30.349,106.084 C27.289,105.034 24.259,103.91 21.239,102.746 C19.548,102.094 17.852,101.452 16.205,100.696 C15.652,100.437 15.09,100.184 14.543,99.915 C13.981,99.671 13.438,99.393 12.911,99.084 C12.697,98.925 12.528,98.806 12.398,98.726 C12.692,97.632 14.115,95.97 14.598,95.144 C15.354,93.865 16.075,92.571 16.802,91.273 C18.394,88.417 20.025,85.582 21.677,82.761 C24.986,77.119 28.379,71.526 31.722,65.905 C34.916,60.541 38.036,55.144 40.981,49.641 C42.528,46.746 44.006,43.85 45.319,40.84 C46.294,38.616 48.175,35.795 47.728,33.273 C47.294,30.83 45.006,30.387 42.886,30.303 C39.429,30.164 35.961,30.228 32.498,30.253 C25.956,30.293 19.229,30.442 12.767,29.228 C11.05,28.905 9.075,28.497 7.523,27.661 C5.941,26.805 5.866,26.124 6.085,24.437 C6.558,20.855 7.463,17.288 8.443,13.82 C8.827,12.447 9.105,10.517 10.264,9.531 C11.2,8.745 12.737,8.576 13.911,8.412 C17.593,7.89 21.344,7.671 25.045,7.357 C33.105,6.676 41.205,6.099 49.314,5.696 C54.075,5.715 58.842,5.785 63.607,5.984 C66.742,6.119 68.927,5.919 70.757,8.69 C72.504,11.342 74.086,14.114 75.573,16.919" id="Fill-52" fill="#73BB64"></path>
                <path d="M78.762,24.626 C78.932,22.099 76.732,19.094 75.573,16.919 C74.086,14.114 72.504,11.342 70.757,8.69 C68.927,5.919 66.742,6.119 63.607,5.984 C58.842,5.785 54.075,5.715 49.314,5.696 C41.205,6.099 33.105,6.676 25.045,7.357 C21.344,7.671 17.593,7.89 13.911,8.412 C12.737,8.576 11.2,8.745 10.264,9.531 C9.105,10.517 8.827,12.447 8.443,13.82 C7.463,17.288 6.558,20.855 6.085,24.437 C5.866,26.124 5.941,26.805 7.523,27.661 C9.075,28.497 11.05,28.905 12.767,29.228 C19.229,30.442 25.956,30.293 32.498,30.253 C35.961,30.228 39.429,30.164 42.886,30.303 C45.006,30.387 47.294,30.83 47.728,33.273 C48.175,35.795 46.294,38.616 45.319,40.84 C44.006,43.85 42.528,46.746 40.981,49.641 C38.036,55.144 34.916,60.541 31.722,65.905 C28.379,71.526 24.986,77.119 21.677,82.761 C20.025,85.582 18.394,88.417 16.802,91.273 C16.075,92.571 15.354,93.865 14.598,95.144 C14.115,95.97 12.692,97.632 12.398,98.726 C12.528,98.806 12.697,98.925 12.911,99.084 C13.438,99.393 13.981,99.671 14.543,99.915 C15.09,100.184 15.652,100.437 16.205,100.696 C17.852,101.452 19.548,102.094 21.239,102.746 C24.259,103.91 27.289,105.034 30.349,106.084 C35.667,107.905 42.558,111.045 45.767,104.502 C47.215,101.552 48.041,98.238 49.17,95.159 C50.244,92.228 51.344,89.308 52.424,86.383 C54.583,80.527 56.747,74.676 58.986,68.851 C63.598,56.855 68.538,44.95 74.438,33.521 C75.255,31.939 76.096,30.367 76.946,28.805 C77.633,27.546 78.663,26.099 78.762,24.626 M83.777,19.083 C85.509,22.775 85.374,26.099 83.573,29.741 C81.822,33.283 79.718,36.661 77.901,40.173 C71.339,52.89 65.932,66.144 60.732,79.457 C58.16,86.034 55.747,92.682 53.001,99.184 C50.757,104.487 48.847,111.557 42.329,112.791 C39.349,113.357 36.27,112.622 33.438,111.711 C29.966,110.597 26.538,109.313 23.12,108.05 C19.657,106.771 16.245,105.352 12.752,104.169 C10.11,103.269 6.782,102.741 6.513,99.338 C6.294,96.532 8.861,92.825 10.125,90.462 C11.802,87.323 13.652,84.264 15.468,81.198 C19.105,75.06 22.856,68.989 26.553,62.885 C30.245,56.791 33.931,50.681 37.399,44.452 C39.125,41.353 41.026,38.323 42.667,35.173 C43.18,34.193 43.25,34.512 41.986,34.631 C41.135,34.71 40.14,34.517 39.279,34.477 C37.474,34.382 35.667,34.318 33.856,34.248 C26.816,33.989 19.722,33.8 12.762,32.586 C10.996,32.278 9.225,31.944 7.448,31.686 C6.095,31.487 4.737,31.427 3.488,30.8 C0.662,29.382 0.409,26.551 0.732,23.71 C1.14,20.163 1.737,16.621 2.667,13.168 C3.459,10.223 4.229,7.049 6.727,5.069 C8.98,3.283 11.807,2.954 14.593,2.765 C16.782,2.616 18.981,2.506 21.175,2.407 C21.304,2.347 21.443,2.303 21.603,2.278 C29.986,1.148 38.434,0.83 46.887,0.706 C51.344,0.641 55.807,0.641 60.265,0.706 C62.334,0.735 64.404,0.83 66.474,0.84 C66.671,0.84 66.868,0.84 67.065,0.839 C68.479,0.834 69.886,0.828 71.245,1.317 C74.608,2.536 76.538,6.447 78.314,9.292 C80.284,12.452 82.195,15.706 83.777,19.083" id="Fill-53" fill="#257256"></path>
                <path d="M70.678,29.817 C69.669,29.817 68.684,29.364 68.22,28.375 C66.643,25.016 66.789,20.826 64.568,17.777 C62.104,14.396 56.435,14.896 52.726,14.672 C49.584,14.483 46.433,14.404 43.275,14.404 C35.816,14.404 28.33,14.847 20.92,15.333 C20.881,15.335 20.842,15.336 20.804,15.336 C19.103,15.336 18.949,12.784 20.51,12.298 C30.026,9.333 39.87,8.16 49.78,8.16 C52.371,8.16 54.966,8.24 57.561,8.39 C62.893,8.696 67.697,9.787 70.815,14.496 C73.274,18.209 74.567,23.293 73.654,27.665 C73.368,29.037 72.002,29.817 70.678,29.817" id="Fill-54" fill="#9CCB86"></path>
                <path d="M50.808,75.267 C49.218,75.267 47.695,73.488 48.03,71.747 C48.688,68.325 50.343,65.341 51.857,62.23 C53.237,59.392 54.577,56.535 55.978,53.707 C58.91,47.787 61.779,41.832 64.578,35.846 C64.91,35.136 65.527,34.838 66.17,34.838 C67.434,34.838 68.799,35.988 68.308,37.419 C66.11,43.82 63.794,50.172 61.326,56.474 C58.98,62.465 56.752,69.442 52.562,74.385 C52.034,75.007 51.416,75.267 50.808,75.267" id="Fill-55" fill="#9CCB86"></path>
                <path d="M47.152,82.998 C46.754,82.998 46.363,82.903 46.012,82.697 C45.854,82.576 45.697,82.454 45.54,82.333 C45.418,82.176 45.297,82.019 45.175,81.861 C44.677,80.886 44.579,79.811 45.129,78.819 C45.541,78.076 46.36,77.501 47.176,77.293 C47.388,77.239 47.6,77.213 47.81,77.213 C48.794,77.213 49.702,77.789 50.099,78.728 C50.32,79.254 50.35,79.787 50.224,80.341 C50.119,80.8 49.71,81.427 49.268,81.721 C48.92,82.397 48.263,82.872 47.499,82.975 C47.383,82.99 47.267,82.998 47.152,82.998" id="Fill-56" fill="#9CCB86"></path>
                <path d="M41.242,96.607 C40.264,96.607 39.446,95.992 39.012,94.927 C37.99,92.42 39.811,89.692 40.821,87.429 C41.253,86.461 42.31,86.009 43.329,86.009 C43.74,86.009 44.144,86.082 44.498,86.225 C45.783,86.741 46.664,88.323 46.202,89.697 C45.413,92.047 44.884,95.176 42.438,96.321 C42.024,96.515 41.621,96.607 41.242,96.607" id="Fill-57" fill="#9CCB86"></path>
            </g>
        </g>
    </g>
</svg>