<?xml version="1.0" encoding="UTF-8"?>
<svg width="98px" height="129px" viewBox="0 0 98 129" version="1.1" xmlns="http://www.w3.org/2000/svg" xmlns:xlink="http://www.w3.org/1999/xlink">
    <!-- Generator: Sketch 51.1 (57501) - http://www.bohemiancoding.com/sketch -->
    <title>Group 9</title>
    <desc>Created with Sketch.</desc>
    <defs></defs>
    <g id="Page-1" stroke="none" stroke-width="1" fill="none" fill-rule="evenodd">
        <g id="293959-P70SA5-767" transform="translate(-296.000000, -185.000000)">
            <g id="Group-9" transform="translate(296.000000, 185.000000)">
                <path d="M40.875,92 C41.004,87.83 43.895,82.517 47.88,79.78 C48.377,79.566 48.89,79.383 49.432,79.233 C52.8,78.318 56.795,78.801 59.656,80.811 C62.099,82.527 64.984,84.815 66.139,87.651 C67.272,90.457 67.129,93.801 65.74,96.487 C63.068,101.661 56.546,104.368 50.935,103.269 C45.382,102.184 40.69,97.965 40.875,92 M47.396,29.178 C47.895,28.964 48.412,28.775 48.949,28.631 C52.317,27.71 56.312,28.198 59.173,30.208 C61.616,31.925 64.507,34.213 65.656,37.049 C66.79,39.85 66.645,43.193 65.258,45.88 C62.586,51.059 56.064,53.761 50.452,52.666 C44.899,51.581 40.208,47.357 40.392,41.397 C40.521,37.223 43.412,31.915 47.396,29.178 M95.78,101.353 C98.124,94.473 98.402,86.666 96.049,79.746 C93.949,73.581 90.02,68.322 85.566,63.636 C96.97,54.089 95.631,34.651 88.502,22.89 C79.676,8.317 62.029,1.392 45.531,4.561 C41.014,5.432 36.626,7.088 32.561,9.233 C31.914,9.571 31.292,9.935 30.681,10.308 C25.372,13.059 20.571,16.795 17.188,21.79 C12.949,28.044 11.631,36.034 13.337,43.367 C14.929,50.178 19.347,55.671 23.999,60.721 C19.605,65.144 15.695,70.243 12.303,75.402 C8.536,81.124 5.213,87.637 5.153,94.637 C5.033,108.352 16.014,118.547 27.78,123.587 C40.681,129.109 55.79,131.01 69.277,126.482 C81.343,122.433 91.616,113.572 95.78,101.353" id="Fill-58" fill="#E5E5E0"></path>
                <path d="M62.676,48.109 C65.412,44.825 66.78,40.571 66.293,36.308 C65.761,31.691 63.049,28.497 59.517,25.73 C55.7,22.74 51.322,20.323 46.293,21.507 C45.845,21.611 45.392,21.74 44.939,21.89 C43.193,22.323 41.526,23.158 39.999,24.263 C36.735,26.626 33.755,30.586 32.472,34.537 C29.999,42.153 33.875,49.82 41.099,52.964 C48.447,56.168 57.472,54.348 62.676,48.109 M63.153,98.716 C65.894,95.433 67.263,91.179 66.775,86.91 C66.243,82.298 63.531,79.103 59.999,76.333 C56.184,73.348 51.805,70.925 46.775,72.109 C46.327,72.213 45.875,72.348 45.422,72.492 C43.676,72.925 42.009,73.761 40.481,74.865 C37.218,77.229 34.232,81.189 32.949,85.144 C30.481,92.756 34.357,100.428 41.581,103.571 C48.93,106.77 57.954,104.95 63.153,98.716 M84.8,75.965 C87.283,81.153 87.87,87.188 86.79,92.811 C84.626,104.104 76.502,112.87 66.179,117.492 C54.517,122.711 41.044,122.055 29.108,118.134 C18.232,114.566 6.949,107.393 4.89,95.219 C3.71,88.214 7.118,81.637 10.904,75.989 C14.979,69.92 20.108,65.054 25.253,59.925 C26.382,58.805 26.397,56.855 25.253,55.73 C20.645,51.203 15.735,46.457 13.78,40.109 C11.83,33.765 12.79,26.82 16.407,21.253 C19.69,16.208 24.79,12.526 30.104,9.87 C30.441,9.701 30.78,9.537 31.118,9.377 C39.925,5.84 49.65,4.949 58.999,7.731 C72.681,11.81 83.184,24.054 83.571,38.581 C83.766,46.034 81.099,53.641 74.512,57.676 C72.939,58.636 72.477,61.004 73.909,62.328 C78.213,66.312 82.243,70.621 84.8,75.965" id="Fill-59" fill="#24AAD3"></path>
                <path d="M86.79,92.811 C87.87,87.188 87.283,81.153 84.8,75.965 C82.243,70.621 78.213,66.312 73.909,62.328 C72.477,61.004 72.939,58.636 74.512,57.676 C81.099,53.641 83.766,46.034 83.571,38.581 C83.184,24.054 72.681,11.81 58.999,7.731 C49.65,4.949 39.925,5.84 31.118,9.377 C30.78,9.537 30.441,9.701 30.104,9.87 C24.79,12.526 19.69,16.208 16.407,21.253 C12.79,26.82 11.83,33.765 13.78,40.109 C15.735,46.457 20.645,51.203 25.253,55.73 C26.397,56.855 26.382,58.805 25.253,59.925 C20.108,65.054 14.979,69.92 10.904,75.989 C7.118,81.637 3.71,88.214 4.89,95.219 C6.949,107.393 18.232,114.566 29.108,118.134 C41.044,122.055 54.517,122.711 66.179,117.492 C76.502,112.87 84.626,104.104 86.79,92.811 M91.049,76.746 C93.402,83.666 93.124,91.473 90.78,98.353 C86.616,110.572 76.343,119.433 64.277,123.482 C50.79,128.01 35.681,126.109 22.78,120.587 C11.014,115.547 0.033,105.353 0.153,91.637 C0.213,84.637 3.536,78.124 7.303,72.402 C10.695,67.243 14.605,62.144 18.999,57.721 C14.347,52.671 9.929,47.178 8.337,40.367 C6.631,33.034 7.949,25.044 12.188,18.79 C15.571,13.795 20.372,10.059 25.681,7.308 C26.292,6.935 26.914,6.571 27.561,6.233 C31.626,4.088 36.014,2.432 40.531,1.561 C57.029,-1.608 74.676,5.317 83.502,19.89 C90.631,31.651 91.97,51.089 80.566,60.636 C85.02,65.323 88.949,70.581 91.049,76.746" id="Fill-60" fill="#267FB6"></path>
                <path d="M60.74,93.487 C62.129,90.801 62.272,87.457 61.139,84.651 C59.984,81.815 57.099,79.526 54.656,77.811 C51.795,75.801 47.8,75.317 44.432,76.233 C43.89,76.383 43.377,76.566 42.88,76.78 C38.895,79.517 36.004,84.83 35.875,89 C35.69,94.965 40.382,99.184 45.935,100.269 C51.546,101.368 58.068,98.661 60.74,93.487 Z M66.775,86.91 C67.263,91.179 65.895,95.433 63.153,98.716 C57.954,104.95 48.93,106.771 41.581,103.571 C34.357,100.428 30.481,92.756 32.949,85.144 C34.232,81.188 37.218,77.229 40.481,74.865 C42.009,73.761 43.676,72.925 45.422,72.492 C45.875,72.348 46.327,72.213 46.775,72.109 C51.805,70.925 56.184,73.348 59.999,76.333 C63.531,79.104 66.243,82.298 66.775,86.91 Z" id="Fill-61" fill="#267FB6"></path>
                <path d="M60.258,42.88 C61.646,40.193 61.79,36.85 60.656,34.049 C59.507,31.213 56.616,28.924 54.173,27.208 C51.313,25.198 47.317,24.71 43.949,25.631 C43.412,25.775 42.895,25.964 42.397,26.178 C38.412,28.915 35.521,34.223 35.392,38.397 C35.208,44.357 39.899,48.582 45.452,49.666 C51.063,50.761 57.586,48.059 60.258,42.88 Z M66.293,36.308 C66.78,40.571 65.412,44.825 62.676,48.109 C57.472,54.348 48.447,56.168 41.099,52.964 C33.875,49.82 29.999,42.153 32.472,34.537 C33.755,30.586 36.735,26.626 39.999,24.263 C41.526,23.158 43.193,22.323 44.939,21.89 C45.392,21.74 45.845,21.611 46.293,21.507 C51.322,20.323 55.7,22.74 59.517,25.73 C63.049,28.497 65.761,31.691 66.293,36.308 Z" id="Fill-62" fill="#267FB6"></path>
                <path d="M73.839,41.997 C72.938,41.996 72.003,41.355 71.742,40.477 C71.001,37.976 71.4,35.569 70.893,33.022 C70.375,30.424 69.315,28.033 67.876,25.818 C64.983,21.366 60.505,17.883 55.513,16.081 C52.443,14.974 49.213,14.42 45.977,14.42 C43.648,14.42 41.316,14.707 39.04,15.282 C36.321,15.968 33.705,17.068 31.226,18.369 C28.852,19.614 26.23,20.943 24.268,22.78 C24.139,22.9 23.984,22.951 23.829,22.951 C23.34,22.951 22.852,22.441 23.214,21.967 C25.15,19.431 26.772,17.118 29.371,15.198 C32.03,13.233 35.083,11.883 38.257,10.98 C40.917,10.223 43.663,9.862 46.413,9.862 C50.321,9.862 54.234,10.591 57.903,11.944 C64.054,14.213 69.503,18.096 73.105,23.636 C74.846,26.313 76.155,29.411 76.703,32.562 C77.288,35.929 77.362,38.671 75.153,41.377 C74.799,41.811 74.324,41.997 73.839,41.997" id="Fill-63" fill="#3FBCD7"></path>
                <path d="M65.196,112.479 C63.439,112.479 61.917,110.075 63.036,108.563 C65.629,105.066 69.167,102.557 71.956,99.228 C74.603,96.07 76.345,92.373 76.867,88.266 C77.928,79.926 74.383,71.145 68.271,65.412 C67.874,65.041 68.237,64.474 68.681,64.474 C68.766,64.474 68.855,64.495 68.941,64.542 C73.353,66.958 76.867,69.772 79.478,74.17 C81.921,78.286 83.275,83.478 82.974,88.266 C82.334,98.387 75.361,108.455 65.934,112.332 C65.687,112.433 65.439,112.479 65.196,112.479" id="Fill-65" fill="#3FBCD7"></path>
            </g>
        </g>
    </g>
</svg>