<?xml version="1.0" encoding="UTF-8"?>
<svg width="201px" height="394px" viewBox="0 0 201 394" version="1.1" xmlns="http://www.w3.org/2000/svg" xmlns:xlink="http://www.w3.org/1999/xlink">
    <!-- Generator: Sketch 51.2 (57519) - http://www.bohemiancoding.com/sketch -->
    <title>8</title>
    <desc>Created with Sketch.</desc>
    <defs>
        <filter x="-0.5%" y="-0.3%" width="101.0%" height="101.0%" filterUnits="objectBoundingBox" id="filter-1">
            <feOffset dx="0" dy="2" in="SourceAlpha" result="shadowOffsetOuter1"></feOffset>
            <feColorMatrix values="0 0 0 0 0   0 0 0 0 0   0 0 0 0 0  0 0 0 0.5 0" type="matrix" in="shadowOffsetOuter1" result="shadowMatrixOuter1"></feColorMatrix>
            <feMerge>
                <feMergeNode in="shadowMatrixOuter1"></feMergeNode>
                <feMergeNode in="SourceGraphic"></feMergeNode>
            </feMerge>
        </filter>
        <path d="M44.6815441,136.250265 C30.65846,121.798961 22,101.929948 22,80 C22,35.81722 57.1456471,0 100.5,0 C143.854353,0 179,35.81722 179,80 C179,101.929948 170.34154,121.798961 156.318456,136.250265 C183.260485,154.636509 201,185.955385 201,221.5 C201,278.109187 156.004617,324 100.5,324 C44.9953826,324 0,278.109187 0,221.5 C0,185.955385 17.7395154,154.636509 44.6815441,136.250265 Z M100,114 C119.329966,114 135,98.1061086 135,78.5 C135,58.8938914 119.329966,43 100,43 C80.6700338,43 65,58.8938914 65,78.5 C65,98.1061086 80.6700338,114 100,114 Z M101,267 C125.852814,267 146,246.405098 146,221 C146,195.594902 125.852814,175 101,175 C76.1471863,175 56,195.594902 56,221 C56,246.405098 76.1471863,267 101,267 Z" id="path-2"></path>
        <radialGradient cx="50%" cy="0%" fx="50%" fy="0%" r="100%" id="radialGradient-4">
            <stop stop-color="#FFC363" offset="0%"></stop>
            <stop stop-color="#FF9D3E" offset="100%"></stop>
        </radialGradient>
    </defs>
    <g id="Symbols" stroke="none" stroke-width="1" fill="none" fill-rule="evenodd">
        <g id="number/8" transform="translate(-19.000000, -2.000000)">
            <g id="8" filter="url(#filter-1)" transform="translate(19.000000, 1.000000)">
                <g id="leg-copy" transform="translate(152.500000, 363.500000) scale(-1, 1) translate(-152.500000, -363.500000) translate(133.000000, 334.000000)">
                    <path d="M39,0 C20,14 13.6666667,29 20,45" id="Path-51" stroke="#3A3A3A" stroke-width="4"></path>
                    <ellipse id="Oval" fill="#3A3A3A" cx="13" cy="50.5" rx="13" ry="8.5"></ellipse>
                </g>
                <g id="Oval-5" transform="translate(0.000000, 20.000000)">
                    <mask id="mask-3" fill="white">
                        <use xlink:href="#path-2"></use>
                    </mask>
                    <use id="Mask" fill="#4C8FD6" xlink:href="#path-2"></use>
                    <ellipse fill="#000000" opacity="0.2" mask="url(#mask-3)" cx="23.5" cy="166.5" rx="11.5" ry="9.5"></ellipse>
                    <ellipse id="Oval-5-Copy" fill="#000000" opacity="0.2" mask="url(#mask-3)" cx="3.5" cy="246.5" rx="11.5" ry="9.5"></ellipse>
                    <ellipse id="Oval-5-Copy-2" fill="#000000" opacity="0.2" mask="url(#mask-3)" cx="23.5" cy="214.5" rx="11.5" ry="9.5"></ellipse>
                    <ellipse id="Oval-5-Copy-3" fill="#000000" opacity="0.2" mask="url(#mask-3)" cx="23.5" cy="284.5" rx="11.5" ry="9.5"></ellipse>
                    <ellipse id="Oval-5-Copy-4" fill="#000000" opacity="0.2" mask="url(#mask-3)" cx="73.5" cy="294.5" rx="11.5" ry="9.5"></ellipse>
                    <ellipse id="Oval-5-Copy-5" fill="#000000" opacity="0.2" mask="url(#mask-3)" cx="143.5" cy="294.5" rx="11.5" ry="9.5"></ellipse>
                    <ellipse id="Oval-5-Copy-6" fill="#000000" opacity="0.2" mask="url(#mask-3)" cx="183.5" cy="264.5" rx="11.5" ry="9.5"></ellipse>
                    <ellipse id="Oval-5-Copy-7" fill="#000000" opacity="0.2" mask="url(#mask-3)" cx="183.5" cy="204.5" rx="11.5" ry="9.5"></ellipse>
                    <ellipse id="Oval-5-Copy-8" fill="#000000" opacity="0.2" mask="url(#mask-3)" cx="203.5" cy="234.5" rx="11.5" ry="9.5"></ellipse>
                    <ellipse id="Oval-5-Copy-9" fill="#000000" opacity="0.2" mask="url(#mask-3)" cx="183.5" cy="164.5" rx="11.5" ry="9.5"></ellipse>
                    <ellipse id="Oval-5-Copy-10" fill="#000000" opacity="0.2" mask="url(#mask-3)" cx="163.5" cy="142.5" rx="11.5" ry="9.5"></ellipse>
                </g>
                <g id="leg" transform="translate(33.000000, 334.000000)">
                    <path d="M39,0 C20,14 13.6666667,29 20,45" id="Path-51" stroke="#3A3A3A" stroke-width="4" stroke-linecap="round"></path>
                    <ellipse id="Oval" fill="#3A3A3A" cx="13" cy="50.5" rx="13" ry="8.5"></ellipse>
                </g>
                <path d="M88.9432624,26 C75.1371158,14.3421829 72.3758865,6.71976401 80.6595745,3.13274336 C88.9432624,-0.454277286 92.0496454,4.47787611 89.9787234,17.9292035 L88.9432624,26 Z" id="Path-55" fill="#4C8FD6" transform="translate(83.300000, 14.000000) rotate(-14.000000) translate(-83.300000, -14.000000) "></path>
                <path d="M94,24 C89.8333333,18 89.4166667,13.3333333 92.75,10 C97.75,5 104.25,10 101,17 C98.8333333,21.6666667 96.5,24 94,24 Z" id="Path-56" fill="#4C8FD6" transform="translate(96.200876, 15.988156) rotate(22.000000) translate(-96.200876, -15.988156) "></path>
                <circle id="Oval-4" fill="#3B77B6" cx="101" cy="243" r="55"></circle>
                <g id="Group" transform="translate(17.000000, 37.000000)">
                    <ellipse id="Oval-17" fill="#FFFFFF" cx="27.5" cy="19" rx="27.5" ry="19"></ellipse>
                    <circle id="Oval-2" fill="#000000" cx="42.5" cy="20.5" r="7.5"></circle>
                </g>
                <g id="Group-Copy-2" transform="translate(74.000000, 37.000000)">
                    <ellipse id="Oval-17" fill="#FFFFFF" cx="25" cy="17.5" rx="25" ry="17.5"></ellipse>
                    <circle id="Oval-2" fill="#000000" cx="25" cy="19" r="7"></circle>
                </g>
                <g id="Group-Copy-3" transform="translate(74.000000, 227.000000)">
                    <ellipse id="Oval-17" fill="#FFFFFF" cx="25" cy="17.5" rx="25" ry="17.5"></ellipse>
                    <circle id="Oval-2" fill="#000000" cx="25" cy="19" r="7"></circle>
                </g>
                <g id="Group-Copy" transform="translate(154.500000, 56.000000) scale(-1, 1) translate(-154.500000, -56.000000) translate(127.000000, 37.000000)">
                    <ellipse id="Oval-17" fill="#FFFFFF" cx="27.5" cy="19" rx="27.5" ry="19"></ellipse>
                    <circle id="Oval-2" fill="#000000" cx="42.5" cy="20.5" r="7.5"></circle>
                </g>
                <circle id="Oval-18" fill="#C27D10" cx="99" cy="99" r="37"></circle>
                <path d="M99,136 C115.666667,123.333333 128,111 136,99 C136,78.5654643 119.434536,62 99,62 C78.5654643,62 62,78.5654643 62,99 C73.0436428,112.333333 85.3769762,124.666667 99,136 Z" id="Oval-18-Copy" fill="url(#radialGradient-4)"></path>
                <path d="M123,191 C125.666667,201 127,208 127,212 C127,216 131,209 139,191 L139,212 L152,208 C147.333333,220 145,227.666667 145,231 C145,234.333333 149.333333,229.666667 158,217 L152,240 L158,231 L152,254 L162,254 L162,261 L166,191 L123,191 Z" id="Path-58" fill="#4C8FD6"></path>
                <path d="M83,185 C79,191.666667 77,197.333333 77,202 C77,206.666667 74.3333333,203.833333 69,193.5 C65.6666667,193.166667 64,196 64,202 C64,208 60.3333333,208 53,202 L64,219 L53,211 L53,225 L47,219 L53,239 L39,229 L53,252 L39,239 L34,229 L58.5,177 L83,185 Z" id="Path-59" fill="#4C8FD6"></path>
            </g>
        </g>
    </g>
</svg>