<?xml version="1.0" encoding="UTF-8"?>
<svg width="216px" height="395px" viewBox="0 0 216 395" version="1.1" xmlns="http://www.w3.org/2000/svg" xmlns:xlink="http://www.w3.org/1999/xlink">
    <!-- Generator: Sketch 51.2 (57519) - http://www.bohemiancoding.com/sketch -->
    <title>9</title>
    <desc>Created with Sketch.</desc>
    <defs>
        <filter x="-0.5%" y="-0.3%" width="100.9%" height="101.0%" filterUnits="objectBoundingBox" id="filter-1">
            <feOffset dx="0" dy="2" in="SourceAlpha" result="shadowOffsetOuter1"></feOffset>
            <feColorMatrix values="0 0 0 0 0   0 0 0 0 0   0 0 0 0 0  0 0 0 0.5 0" type="matrix" in="shadowOffsetOuter1" result="shadowMatrixOuter1"></feColorMatrix>
            <feMerge>
                <feMergeNode in="shadowMatrixOuter1"></feMergeNode>
                <feMergeNode in="SourceGraphic"></feMergeNode>
            </feMerge>
        </filter>
        <path d="M53.2254296,21.5579813 C61.3798246,18.9948784 70.6083533,18.0103194 81,19 C110.920766,21.8495967 136.654552,26.0948531 157.387869,32.8656177 C165.474647,17.6759119 175.6787,6.72070915 188,0 L193,4 L167.500634,36.5336742 C198.6422,49.0791817 216,68.9133086 216,101 C216,137.666667 185,210 123,318 C99.2957641,336.777778 77.2957641,339.5 57,326.166667 C36.7042359,312.833333 53.3709026,267.111111 107,189 C56.3333333,205.666667 24,200.333333 10,173 C-6.76712099,140.264192 -5.04681785,56.528594 39.0838999,28.1741628 C29.0610933,15.0217282 26.6997933,7.96367395 32,7 C39.1582926,5.69849226 46.6045496,12.5493669 53.2254259,21.5579798 Z" id="path-2"></path>
        <path d="M136.084905,46 C162.954617,50.2312646 159.671657,60 178.722495,82 C197.773334,104 176.000947,175 140.620819,175 C105.240691,175 72.5821109,166 50.8097244,175 C29.0373378,184 -0.89969373,76 45.3666277,61 C91.6329492,46 96.2766835,39.7312646 136.084905,46 Z" id="path-4"></path>
        <path d="M38.5,65 C59.7629629,65 77,51.1208272 77,34 C77,16.8791728 72,-6 38.5,2 C5,10 0,16.8791728 0,34 C0,51.1208272 17.2370371,65 38.5,65 Z" id="path-5"></path>
    </defs>
    <g id="Symbols" stroke="none" stroke-width="1" fill="none" fill-rule="evenodd">
        <g id="number/9" transform="translate(-15.000000, -10.000000)">
            <g id="9" filter="url(#filter-1)" transform="translate(15.000000, 10.000000)">
                <g id="leg" transform="translate(49.000000, 307.000000)">
                    <path d="M20,0 C20,36 24.3333333,60 33,72" id="Path-3" stroke="#3A3A3A" stroke-width="4"></path>
                    <ellipse id="Oval-3" fill="#3A3A3A" cx="17.5" cy="72.5" rx="17.5" ry="7.5"></ellipse>
                </g>
                <g id="Path-63-Copy-+-Path-63-Mask" transform="translate(0.000000, 23.000000)">
                    <mask id="mask-3" fill="white">
                        <use xlink:href="#path-2"></use>
                    </mask>
                    <use id="Combined-Shape" fill="#A450D7" xlink:href="#path-2"></use>
                    <path d="M174.574753,29.2655482 C242.655885,38.857278 234.337685,61.0017383 282.607745,110.872894 C330.877806,160.74405 275.712022,321.691871 186.067625,321.691871 C96.4232273,321.691871 13.6745526,301.290034 -41.4912306,321.691871 C-96.6570137,342.093707 -172.509966,97.2716698 -55.2826764,63.268609 C61.9446128,29.2655482 73.7106743,15.0551354 174.574753,29.2655482 Z" id="Path-63-Copy-3" fill="#000000" opacity="0.1" mask="url(#mask-3)"></path>
                    <path d="M148.981378,13.7813611 C196.027752,20.4095722 190.279593,35.7121463 223.635844,70.1748087 C256.992095,104.637471 218.870666,215.857882 156.923342,215.857882 C94.9760192,215.857882 37.7938746,201.75952 -0.327555079,215.857882 C-38.4489848,229.956243 -90.8659506,60.7759008 -9.8579125,37.278631 C71.1501256,13.7813611 79.2808737,3.96148328 148.981378,13.7813611 Z" id="Path-63-Copy" fill="#000000" opacity="0.1" mask="url(#mask-3)"></path>
                    <path d="M140.565957,29.1287612 C178.046906,34.4831824 173.467458,46.8449536 200.041746,74.6846846 C226.616035,102.524416 196.245419,192.37082 146.893169,192.37082 C97.5409185,192.37082 51.9849951,180.981839 21.6143795,192.37082 C-8.75623617,203.759801 -50.5158327,67.0920307 14.0217255,48.1103959 C78.5592838,29.1287612 85.0368956,21.1960381 140.565957,29.1287612 Z" id="Path-63-Copy-2" fill="#000000" opacity="0.1" mask="url(#mask-3)"></path>
                    <g id="Path-63" opacity="0.1" mask="url(#mask-3)">
                        <use fill="#000000" xlink:href="#path-4"></use>
                        <use fill="#D8D8D8" xlink:href="#path-4"></use>
                    </g>
                </g>
                <g id="leg" transform="translate(123.418303, 351.933011) rotate(-4.000000) translate(-123.418303, -351.933011) translate(105.918303, 310.933011)">
                    <path d="M16.8756098,0.925814661 C25.5422765,46.259148 25.9170732,70.2838764 18,73" id="Path-3" stroke="#3A3A3A" stroke-width="4" stroke-linecap="round"></path>
                    <ellipse id="Oval-3" fill="#3A3A3A" cx="17.5" cy="74.5" rx="17.5" ry="7.5"></ellipse>
                </g>
                <g id="mouth" transform="translate(63.000000, 97.000000)">
                    <mask id="mask-6" fill="white">
                        <use xlink:href="#path-5"></use>
                    </mask>
                    <use id="Mask" fill="#000000" xlink:href="#path-5"></use>
                    <path d="M75,7 C68.3333333,14.3333333 65,20.6666667 65,26 C65,31.3333333 65,20 65,-8 L75,7 Z" id="Path-62" fill="#FFFFFF" mask="url(#mask-6)"></path>
                    <path d="M62,1.77635684e-15 C55.3333333,7.33333333 52,13.6666667 52,19 C52,24.3333333 52,16.6666667 52,-4 L62,1.77635684e-15 Z" id="Path-62-Copy" fill="#FFFFFF" mask="url(#mask-6)" transform="translate(57.000000, 8.320513) rotate(-8.000000) translate(-57.000000, -8.320513) "></path>
                    <path d="M50,1.77635684e-15 C43.3333333,7.33333333 40,13.6666667 40,19 C40,24.3333333 40,16.6666667 40,-4 L50,1.77635684e-15 Z" id="Path-62-Copy-2" fill="#FFFFFF" mask="url(#mask-6)" transform="translate(45.000000, 8.320513) rotate(-19.000000) translate(-45.000000, -8.320513) "></path>
                    <path d="M40,1.77635684e-15 C33.3333333,7.33333333 30,13.6666667 30,19 C30,24.3333333 30,16.6666667 30,-4 L40,1.77635684e-15 Z" id="Path-62-Copy-3" fill="#FFFFFF" mask="url(#mask-6)" transform="translate(35.000000, 8.320513) rotate(-19.000000) translate(-35.000000, -8.320513) "></path>
                    <path d="M30,2 C23.3333333,9.33333333 20,15.6666667 20,21 C20,26.3333333 20,18.6666667 20,-2 L30,2 Z" id="Path-62-Copy-4" fill="#FFFFFF" mask="url(#mask-6)" transform="translate(25.000000, 10.320513) rotate(-25.000000) translate(-25.000000, -10.320513) "></path>
                    <path d="M20,8 C13.3333333,15.3333333 10,21.6666667 10,27 C10,32.3333333 10,24.6666667 10,4 L20,8 Z" id="Path-62-Copy-5" fill="#FFFFFF" mask="url(#mask-6)" transform="translate(15.000000, 16.320513) rotate(-41.000000) translate(-15.000000, -16.320513) "></path>
                    <path d="M12,17 C5.33333333,24.3333333 2,30.6666667 2,36 C2,41.3333333 2,33.6666667 2,13 L12,17 Z" id="Path-62-Copy-6" fill="#FFFFFF" mask="url(#mask-6)" transform="translate(7.000000, 25.320513) rotate(-44.000000) translate(-7.000000, -25.320513) "></path>
                    <path d="M75,47 C68.3333333,54.3333333 65,60.6666667 65,66 C65,71.3333333 65,60 65,32 L75,47 Z" id="Path-62-Copy-13" fill="#FFFFFF" mask="url(#mask-6)" transform="translate(70.000000, 49.640000) scale(1, -1) translate(-70.000000, -49.640000) "></path>
                    <path d="M65,46 C58.3333333,53.3333333 55,59.6666667 55,65 C55,70.3333333 55,62.6666667 55,42 L65,46 Z" id="Path-62-Copy-12" fill="#FFFFFF" mask="url(#mask-6)" transform="translate(60.000000, 54.320513) scale(1, -1) rotate(-8.000000) translate(-60.000000, -54.320513) "></path>
                    <path d="M54,50 C47.3333333,57.3333333 44,63.6666667 44,69 C44,74.3333333 44,66.6666667 44,46 L54,50 Z" id="Path-62-Copy-11" fill="#FFFFFF" mask="url(#mask-6)" transform="translate(49.000000, 58.320513) scale(1, -1) rotate(-19.000000) translate(-49.000000, -58.320513) "></path>
                    <path d="M44,50 C37.3333333,57.3333333 34,63.6666667 34,69 C34,74.3333333 34,66.6666667 34,46 L44,50 Z" id="Path-62-Copy-10" fill="#FFFFFF" mask="url(#mask-6)" transform="translate(39.000000, 58.320513) scale(1, -1) rotate(-19.000000) translate(-39.000000, -58.320513) "></path>
                    <path d="M34,49 C27.3333333,56.3333333 24,62.6666667 24,68 C24,73.3333333 24,65.6666667 24,45 L34,49 Z" id="Path-62-Copy-9" fill="#FFFFFF" mask="url(#mask-6)" transform="translate(29.000000, 57.320513) scale(1, -1) rotate(-25.000000) translate(-29.000000, -57.320513) "></path>
                    <path d="M24,48 C17.3333333,55.3333333 14,61.6666667 14,67 C14,72.3333333 14,64.6666667 14,44 L24,48 Z" id="Path-62-Copy-8" fill="#FFFFFF" mask="url(#mask-6)" transform="translate(19.000000, 56.320513) scale(1, -1) rotate(-41.000000) translate(-19.000000, -56.320513) "></path>
                    <path d="M17,41 C10.3333333,48.3333333 7,54.6666667 7,60 C7,65.3333333 7,57.6666667 7,37 L17,41 Z" id="Path-62-Copy-14" fill="#FFFFFF" mask="url(#mask-6)" transform="translate(12.000000, 49.320513) scale(1, -1) rotate(-48.000000) translate(-12.000000, -49.320513) "></path>
                    <path d="M12,57 C5.33333333,64.3333333 2,70.6666667 2,76 C2,81.3333333 2,73.6666667 2,53 L12,57 Z" id="Path-62-Copy-7" fill="#FFFFFF" mask="url(#mask-6)" transform="translate(7.000000, 65.320513) scale(1, -1) rotate(-44.000000) translate(-7.000000, -65.320513) "></path>
                </g>
                <g id="Group" transform="translate(153.000000, 0.000000)">
                    <circle id="Oval-2" fill="#A450D7" cx="40" cy="22" r="22"></circle>
                    <circle id="Oval-2-Copy" fill="#FFFFFF" cx="41" cy="21" r="15"></circle>
                    <circle id="Oval-2-Copy-2" fill="#000000" cx="37.5" cy="18.5" r="7.5"></circle>
                    <circle id="Oval-2-Copy-3" fill="#FFFFFF" cx="42.5" cy="14.5" r="2.5"></circle>
                </g>
                <g id="Group-Copy" transform="translate(34.000000, 32.500000) scale(-1, 1) translate(-34.000000, -32.500000) translate(3.000000, 0.000000)">
                    <circle id="Oval-2" fill="#A450D7" cx="40" cy="22" r="22"></circle>
                    <circle id="Oval-2-Copy" fill="#FFFFFF" cx="41" cy="21" r="15"></circle>
                    <circle id="Oval-2-Copy-2" fill="#000000" cx="37.5" cy="18.5" r="7.5"></circle>
                    <circle id="Oval-2-Copy-3" fill="#FFFFFF" cx="42.5" cy="14.5" r="2.5"></circle>
                </g>
            </g>
        </g>
    </g>
</svg>