<?xml version="1.0" encoding="UTF-8"?>
<svg width="87px" height="130px" viewBox="0 0 87 130" version="1.1" xmlns="http://www.w3.org/2000/svg" xmlns:xlink="http://www.w3.org/1999/xlink">
    <!-- Generator: Sketch 51.1 (57501) - http://www.bohemiancoding.com/sketch -->
    <title>Group 10</title>
    <desc>Created with Sketch.</desc>
    <defs></defs>
    <g id="Page-1" stroke="none" stroke-width="1" fill="none" fill-rule="evenodd">
        <g id="293959-P70SA5-767" transform="translate(-393.000000, -184.000000)">
            <g id="Group-10" transform="translate(393.000000, 184.000000)">
                <path d="M36.132,46.975 C34.5,39.601 39.963,32.298 47.272,31.218 C47.664,31.213 48.067,31.218 48.471,31.243 C54.863,31.611 60.167,36.671 60.625,43.084 C61.098,49.651 56.55,56.049 49.838,56.88 C43.241,57.701 37.55,53.367 36.132,46.975 M65.948,8.422 C59.569,4.795 52.058,3.213 44.759,3.909 C38.858,4.472 32.555,6.193 27.684,9.74 C21.764,12.78 16.719,17.263 12.848,22.74 C7.804,29.88 4.942,39.014 6.072,47.766 C7.106,55.77 11.649,63.184 17.754,68.378 C25.027,74.562 34.156,78.069 43.436,80.049 C37.719,94.148 26.769,104.88 16.649,116 C15.619,117.129 15.649,119.184 17.161,119.955 C23.689,123.283 30.386,126.193 37.495,128.034 C40.868,128.91 44.445,129.796 47.938,129.224 C51.341,128.666 54.047,126.542 56.416,124.159 C66.614,113.9 73.823,100.143 79.162,86.835 C84.719,72.98 87.55,57.95 85.6,43.049 C83.818,29.437 78.411,15.506 65.948,8.422" id="Fill-66" fill="#E5E5E0"></path>
                <path d="M59.585,43.944 C60.828,35.432 55.724,27.288 47.386,24.959 C42.973,23.726 38.635,24.512 34.764,26.905 C30.64,29.452 28.838,32.9 27.997,37.477 C27.635,38.582 27.391,39.746 27.296,40.964 C26.619,49.576 33.112,57.009 41.59,57.955 C50.346,58.925 58.316,52.626 59.585,43.944 M74.555,37.397 C77.008,50.502 75.196,64.168 71.103,76.751 C67.167,88.86 61.182,100.891 53.56,111.114 C51.4,114.005 48.992,117.005 46.207,119.328 C42.888,122.095 39.405,121.682 35.44,120.761 C29.267,119.323 23.201,117.209 17.59,114.233 C28.854,103.089 39.465,90.561 45.142,75.642 C45.669,74.248 44.55,72.343 43.112,72.064 C28.524,69.233 11.54,63.019 6.759,47.268 C2.266,32.482 12.256,16.357 25.36,9.845 C29.46,7.805 33.982,6.641 38.535,6.263 C43.206,5.879 48.291,5.994 52.799,7.278 C52.894,7.303 52.978,7.317 53.063,7.322 C53.744,7.586 54.416,7.874 55.077,8.188 C66.719,13.701 72.271,25.228 74.555,37.397" id="Fill-67" fill="#F8C453"></path>
                <path d="M71.103,76.751 C75.196,64.168 77.008,50.502 74.555,37.397 C72.271,25.228 66.719,13.701 55.077,8.188 C54.416,7.874 53.744,7.586 53.063,7.322 C52.978,7.317 52.894,7.303 52.799,7.278 C48.291,5.994 43.206,5.879 38.535,6.263 C33.982,6.641 29.46,7.805 25.36,9.845 C12.256,16.357 2.266,32.482 6.759,47.268 C11.54,63.019 28.524,69.233 43.112,72.064 C44.55,72.343 45.669,74.248 45.142,75.642 C39.465,90.561 28.854,103.089 17.59,114.233 C23.201,117.209 29.267,119.323 35.44,120.761 C39.405,121.682 42.888,122.095 46.207,119.328 C48.992,117.005 51.4,114.005 53.56,111.114 C61.182,100.891 67.167,88.86 71.103,76.751 M80.6,40.049 C82.55,54.95 79.719,69.979 74.162,83.835 C68.823,97.144 61.614,110.9 51.416,121.159 C49.047,123.542 46.341,125.666 42.938,126.224 C39.445,126.796 35.868,125.91 32.495,125.034 C25.386,123.193 18.689,120.283 12.161,116.955 C10.649,116.184 10.619,114.129 11.649,113 C21.769,101.88 32.719,91.148 38.436,77.049 C29.156,75.069 20.027,71.561 12.754,65.377 C6.649,60.184 2.106,52.771 1.072,44.766 C-0.058,36.014 2.804,26.88 7.848,19.74 C11.719,14.263 16.764,9.78 22.684,6.74 C27.555,3.193 33.858,1.472 39.759,0.91 C47.058,0.213 54.569,1.795 60.948,5.422 C73.411,12.506 78.818,26.437 80.6,40.049" id="Fill-68" fill="#DD7B2F"></path>
                <path d="M44.839,53.88 C51.55,53.049 56.097,46.651 55.625,40.084 C55.167,33.671 49.863,28.611 43.47,28.243 C43.067,28.218 42.664,28.213 42.271,28.218 C34.963,29.298 29.5,36.601 31.132,43.975 C32.55,50.368 38.241,54.701 44.839,53.88 Z M47.386,24.959 C55.724,27.288 60.828,35.432 59.585,43.944 C58.316,52.626 50.346,58.925 41.59,57.955 C33.112,57.009 26.619,49.576 27.296,40.964 C27.391,39.746 27.635,38.582 27.997,37.477 C28.838,32.9 30.64,29.452 34.764,26.905 C38.635,24.512 42.973,23.726 47.386,24.959 Z" id="Fill-69" fill="#DD7B2F"></path>
                <path d="M12.375,32.347 C11.572,32.347 10.807,31.696 11.024,30.602 C11.986,25.763 14.009,21.753 17.583,18.313 C20.962,15.06 25.04,12.112 29.354,10.25 C32.263,8.996 35.309,8.42 38.388,8.42 C40.255,8.42 42.136,8.632 44.004,9.033 C48.149,9.923 54.703,11.842 56.78,15.896 C57.384,17.074 56.693,18.75 55.245,18.75 C55.212,18.75 55.178,18.749 55.145,18.748 C52.976,18.633 51.31,17.613 49.407,16.679 C47.602,15.793 45.714,15.089 43.766,14.588 C42.008,14.136 40.223,13.889 38.45,13.889 C36.04,13.889 33.65,14.346 31.377,15.365 C27.754,16.989 24.201,19.332 21.265,21.995 C18.382,24.609 15.292,27.735 13.779,31.361 C13.496,32.041 12.926,32.347 12.375,32.347" id="Fill-70" fill="#FAD679"></path>
                <path d="M60.321,24.164 C59.811,24.162 59.335,24.033 58.894,23.777 C58.034,23.274 57.493,22.332 57.493,21.336 C57.493,20.339 58.034,19.397 58.894,18.894 C59.335,18.638 59.811,18.51 60.321,18.508 C60.831,18.51 61.308,18.638 61.748,18.894 C61.989,19.071 62.267,19.218 62.453,19.452 C62.784,19.785 63.012,20.176 63.139,20.627 C63.17,20.864 63.202,21.1 63.233,21.336 C63.248,21.703 63.171,22.045 63.004,22.362 C62.896,22.692 62.713,22.978 62.453,23.22 C62.267,23.454 61.989,23.601 61.748,23.777 C61.308,24.033 60.831,24.162 60.321,24.164" id="Fill-71" fill="#FAD679"></path>
                <path d="M55.068,96.13 C53.885,96.13 52.679,95.184 53.216,93.851 C55.268,88.756 58.363,84.175 60.749,79.22 C63.143,74.246 64.992,69.011 66.208,63.625 C67.49,57.942 67.976,52.079 67.66,46.259 C67.351,40.548 66.009,34.994 64.725,29.444 C64.534,28.619 65.195,28.022 65.864,28.022 C66.215,28.022 66.569,28.186 66.803,28.568 C73.035,38.736 73.252,52.231 71.163,63.653 C70.087,69.536 68.218,75.223 65.828,80.697 C63.495,86.045 60.675,91.687 56.335,95.666 C55.986,95.986 55.529,96.13 55.068,96.13" id="Fill-72" fill="#FAD679"></path>
            </g>
        </g>
    </g>
</svg>