<?xml version="1.0" encoding="UTF-8"?>
<svg width="20px" height="22px" viewBox="0 0 20 22" version="1.1" xmlns="http://www.w3.org/2000/svg" xmlns:xlink="http://www.w3.org/1999/xlink">
    <!-- Generator: Sketch 51.2 (57519) - http://www.bohemiancoding.com/sketch -->
    <title>reference</title>
    <desc>Created with Sketch.</desc>
    <defs>
        <filter x="-25.0%" y="-11.1%" width="150.0%" height="144.4%" filterUnits="objectBoundingBox" id="filter-1">
            <feOffset dx="0" dy="2" in="SourceAlpha" result="shadowOffsetOuter1"></feOffset>
            <feGaussianBlur stdDeviation="1" in="shadowOffsetOuter1" result="shadowBlurOuter1"></feGaussianBlur>
            <feColorMatrix values="0 0 0 0 0   0 0 0 0 0   0 0 0 0 0  0 0 0 0.5 0" type="matrix" in="shadowBlurOuter1" result="shadowMatrixOuter1"></feColorMatrix>
            <feMerge>
                <feMergeNode in="shadowMatrixOuter1"></feMergeNode>
                <feMergeNode in="SourceGraphic"></feMergeNode>
            </feMerge>
        </filter>
    </defs>
    <g id="Gameplay-Portrait-v2" stroke="none" stroke-width="1" fill="none" fill-rule="evenodd">
        <g id="Homepage---Portrait" transform="translate(-45.000000, -446.000000)">
            <g id="reference" filter="url(#filter-1)" transform="translate(47.000000, 446.000000)">
                <rect id="Path" fill="#FFFFFF" x="2" y="1" width="12" height="15"></rect>
                <path d="M2.80438166,1.38101581 C2.81414828,1.37992594 11.6060185,1.37992594 15.7999652,1.37992594 L15.8,0 L2.84782748,0 C1.71667207,0 0.8,0.926150036 0.8,2.06981859 C0.8,2.25660958 0.8,11.6608136 0.8,15.9312713 C0.8,15.9322909 0.8,15.9322909 0.8,15.9334862 C0.8,17.0760297 1.71396105,18 2.84459511,18 C2.85269341,18 12.1762362,18 15.8,18 L15.8,2.75869168 L2.80438166,2.75869168 L2.80438166,2.7576018 C2.44756981,2.73453858 2.16468538,2.43570112 2.16468538,2.06985375 C2.16468538,1.70288134 2.44756981,1.40298916 2.80438166,1.38101581 Z" id="Combined-Shape" fill="#3DBBEC"></path>
                <path d="M9.91967873,8.74221396 L9.91967873,14.1979482 C9.91967873,14.5759561 9.83081243,14.8617628 9.65307717,15.0553766 C9.4753419,15.2489904 9.24975822,15.3457959 8.97631936,15.3457959 C8.70288049,15.3457959 8.48071474,15.2466856 8.30981545,15.0484619 C8.13891616,14.8502382 8.05346779,14.5667364 8.05346779,14.1979482 L8.05346779,8.79753192 C8.05346779,8.4241338 8.13891616,8.14293696 8.30981545,7.95393297 C8.48071474,7.76492898 8.70288049,7.67042841 8.97631936,7.67042841 C9.24975822,7.67042841 9.4753419,7.76492898 9.65307717,7.95393297 C9.83081243,8.14293696 9.91967873,8.40569466 9.91967873,8.74221396 Z" id="i" fill="#FFFFFF"></path>
                <path d="M8.99682717,6.79225573 C8.73706024,6.79225573 8.5148945,6.7115845 8.33032326,6.55023963 C8.14575203,6.38889477 8.05346779,6.16071045 8.05346779,5.86567983 C8.05346779,5.59830833 8.14803065,5.37819114 8.3371592,5.20532163 C8.52628775,5.03245213 8.74617487,4.94601868 8.99682717,4.94601868 C9.23836483,4.94601868 9.4525554,5.02438501 9.63940529,5.18112002 C9.82625519,5.33785504 9.91967873,5.56603936 9.91967873,5.86567983 C9.91967873,6.15610059 9.82853381,6.38313247 9.64624123,6.54678226 C9.46394865,6.71043206 9.24747946,6.79225573 8.99682717,6.79225573 Z" id="i" fill="#FFFFFF"></path>
            </g>
        </g>
    </g>
</svg>