<?xml version="1.0" encoding="UTF-8"?>
<svg width="20px" height="20px" viewBox="0 0 20 20" version="1.1" xmlns="http://www.w3.org/2000/svg" xmlns:xlink="http://www.w3.org/1999/xlink">
    <!-- Generator: Sketch 51.2 (57519) - http://www.bohemiancoding.com/sketch -->
    <title>Shape</title>
    <desc>Created with Sketch.</desc>
    <defs></defs>
    <g id="Gameplay-Portrait-v2" stroke="none" stroke-width="1" fill="none" fill-rule="evenodd">
        <g id="No-Cards-Selected-fancy-Copy" transform="translate(-11.000000, -544.000000)" fill="#FFFFFF" fill-rule="nonzero">
            <g id="Action-Bar" transform="translate(-5.000000, 396.000000)">
                <path d="M33.9310688,156.454718 C33.5910802,156.405553 33.227759,156.09723 33.1219292,155.770574 L32.6144461,154.537282 C32.4536181,154.233126 32.4927835,153.757308 32.6977766,153.483151 L33.5227491,152.384854 C33.7277423,152.109863 33.7119095,151.674044 33.4835838,151.416553 L32.5802805,150.511583 C32.3211225,150.284924 31.8869703,150.268258 31.6103129,150.474084 L30.5136828,151.298223 C30.2386919,151.50405 29.7653744,151.542382 29.4603846,151.382387 L28.2270923,150.874071 C27.8979367,150.769908 27.5904469,150.405753 27.5437818,150.065764 L27.3487883,148.70831 C27.3012899,148.367488 26.9813006,148.059998 26.6404786,148.023333 C26.638812,148.022499 26.4263191,148 25.998,148 C25.5688476,148 25.3563547,148.022499 25.3563547,148.022499 C25.0146994,148.058331 24.6947101,148.366654 24.6472117,148.707476 L24.4522182,150.064931 C24.4038865,150.40492 24.09723,150.769074 23.7689077,150.873238 L22.5356154,151.381554 C22.2314589,151.542382 21.7573081,151.50405 21.4831505,151.298223 L20.3848538,150.474084 C20.109863,150.267424 19.6740442,150.284091 19.4165528,150.511583 L18.5124162,151.416553 C18.2857571,151.674877 18.2682577,152.109863 18.4740842,152.384854 L19.2973901,153.483151 C19.5040498,153.757308 19.5415486,154.232292 19.3823872,154.537282 L18.8732375,155.770574 C18.7690743,156.098063 18.4049198,156.405553 18.0640978,156.454718 L16.7066431,156.648045 C16.3666544,156.69721 16.0591647,157.016366 16.0224992,157.358855 C16.0224992,157.358855 16,157.570514 16,157.999667 C16,158.427986 16.0224992,158.641312 16.0224992,158.641312 C16.0583314,158.982967 16.3666544,159.302956 16.7066431,159.351288 L18.0640978,159.544615 C18.4049198,159.592947 18.7690743,159.90127 18.8732375,160.227926 L19.3832205,161.461218 C19.5423819,161.765374 19.5048831,162.241192 19.2982234,162.514516 L18.4749175,163.612813 C18.2682577,163.887804 18.2190927,164.261125 18.3649212,164.441119 C18.5107496,164.621113 18.9282357,165.067764 18.9299023,165.069431 C18.9307356,165.071098 19.0715643,165.199427 19.2423919,165.356088 C19.4132195,165.512749 20.1106963,165.730242 20.3856871,165.524416 L21.4839838,164.700277 C21.7589747,164.49445 22.2322922,164.456951 22.537282,164.616946 L23.7705743,165.124429 C24.0988966,165.229426 24.4063864,165.592747 24.4538848,165.933569 L24.6488783,167.291024 C24.6963767,167.631845 25.0163661,167.940169 25.3580213,167.976001 C25.3580213,167.976001 25.5705143,167.997667 25.9996666,167.997667 C26.4279857,167.997667 26.6404786,167.976001 26.6404786,167.976001 C26.9813006,167.940169 27.3012899,167.631845 27.3487883,167.291024 L27.5437818,165.933569 C27.5912802,165.592747 27.89877,165.229426 28.2270923,165.124429 L29.4603846,164.616113 C29.7645411,164.456118 30.2386919,164.49445 30.5136828,164.699443 L31.6119795,165.524416 C31.8886369,165.730242 32.3236224,165.713576 32.5819472,165.486084 L33.4835838,164.58278 C33.7110762,164.323622 33.7277423,163.887804 33.5227491,163.612813 L32.6977766,162.514516 C32.4927835,162.241192 32.4536181,161.766208 32.6144461,161.461218 L33.1219292,160.227926 C33.227759,159.900437 33.5902469,159.592114 33.9310688,159.544615 L35.2885236,159.351288 C35.6301789,159.302956 35.936002,158.9838 35.9735008,158.641312 C35.9735008,158.641312 35.996,158.427986 35.996,157.999667 C35.996,157.570514 35.9735008,157.358855 35.9735008,157.358855 C35.936002,157.016366 35.6301789,156.69721 35.2885236,156.648045 L33.9310688,156.454718 Z M25.998,160.49875 C24.6172127,160.49875 23.4980833,159.380454 23.4980833,157.998833 C23.4980833,156.618046 24.6172127,155.498917 25.998,155.498917 C27.377954,155.498917 28.49625,156.618879 28.49625,157.998833 C28.49625,159.380454 27.377954,160.49875 25.998,160.49875 Z" id="Shape" transform="translate(25.998000, 157.998833) rotate(27.000000) translate(-25.998000, -157.998833) "></path>
            </g>
        </g>
    </g>
</svg>