<?xml version="1.0" encoding="UTF-8"?>
<svg width="138px" height="171px" viewBox="0 0 138 171" version="1.1" xmlns="http://www.w3.org/2000/svg" xmlns:xlink="http://www.w3.org/1999/xlink">
    <!-- Generator: Sketch 51.1 (57501) - http://www.bohemiancoding.com/sketch -->
    <title>Shape</title>
    <desc>Created with Sketch.</desc>
    <defs></defs>
    <g id="Page-1" stroke="none" stroke-width="1" fill="none" fill-rule="evenodd">
        <g id="DD-Colorful-Paint-Stroke-Alphabet-55029" fill="#4A72B2" fill-rule="nonzero">
            <path d="M84.5,0.2 C85.3,3.6 90.4,5.3 99.8,5.3 L115.1,64.8 L128.5,64.8 L128.5,66.5 L117,68.2 L117,69.9 C120.8,69.9 122.7,71 122.7,73.3 L138,73.3 L138,75 C138,77.5 131.6,79.8 118.9,81.8 L122.7,92 L120.8,97.1 L122.7,107.3 L120.8,109 L122.7,109 L120.8,110.7 L122.7,131.1 L122.7,141.3 L120.8,139.6 L119,139.6 L124.7,165.1 L120.9,165.1 C120.9,161.7 119.6,160 117.1,160 L117.1,161.7 L119,166.8 L117.1,166.8 L115.2,165.1 L113.3,165.1 C113.3,168.5 112,170.2 109.5,170.2 L99.9,141.3 L98,141.3 L98,148.1 L96,148.1 L92.2,127.7 L97.9,131.1 L97.9,129.4 C96.8,119.2 94.9,114.1 92.2,114.1 L94.1,112.4 L94.1,107.3 L90.3,107.3 L90.3,112.4 L88.4,112.4 L88.4,105.6 L90.3,103.9 L88.4,103.9 L86.5,105.6 L86.5,98.8 L88.4,98.8 L90.3,100.5 L92.2,100.5 L90.3,98.8 L90.3,88.6 L48.2,97.1 L48.2,100.5 L61.6,97.1 L69.3,98.8 L78.9,97.1 L78.9,100.5 C52.1,104.8 38.7,110.4 38.7,117.5 C35.3,130 31.5,137.9 27.2,141.3 L27.2,144.7 L21.5,144.7 L19.6,143 L17.7,143 L17.7,144.7 L12,141.3 L15.8,131.1 L13.9,131.1 C10.1,131.1 8.2,135.6 8.2,144.7 L4.4,141.3 L6.3,131.1 L0.6,126 L33.1,56.3 L35,56.3 C35,59.7 36.3,61.4 38.8,61.4 L40.7,52.9 L38.8,54.6 L36.9,54.6 L36.9,47.8 L38.8,39.3 L40.7,41 L42.6,41 L40.7,39.3 L40.7,37.6 L44.5,30.8 L46.4,30.8 L48.3,32.5 L50.2,32.5 L50.2,30.8 C50.2,28.5 48.3,27.4 44.5,27.4 L54.1,3.6 L61.8,3.6 L59.9,5.3 L59.9,7 C68.5,2.5 76.8,0.2 84.5,0.2 Z M29,73.4 L27.1,80.2 L29,80.2 L32.8,73.4 L29,73.4 Z M34.7,64.9 L32.8,66.6 L32.8,70 L34.7,70 L36.6,64.9 L34.7,64.9 Z M46.2,71.7 L44.3,78.5 L46.2,78.5 L48.1,76.8 L48.1,71.7 L46.2,71.7 Z M55.8,49.6 L52,61.5 L50.1,59.8 L48.2,59.8 L50.1,66.6 L52,66.6 L57.7,51.3 L57.7,49.6 L55.8,49.6 Z M73,39.3 L57.7,75 L61.5,75 C74.3,75 81.3,71.6 82.6,64.8 L74.9,39.3 L73,39.3 Z M61.5,78.5 L61.5,80.2 L65.3,80.2 C76.8,79.1 82.5,77.4 82.5,75.1 L80.6,75.1 L61.5,78.5 Z M88.3,115.9 L92.1,115.9 L92.1,126.1 L90.2,126.1 L88.3,115.9 Z M96,132.9 L96,136.3 L101.7,134.6 L101.7,131.2 L96,132.9 Z M115.1,127.8 L115.1,131.2 L117,138 L118.9,138 L118.9,134.6 L117,127.8 L115.1,127.8 Z" id="Shape"></path>
        </g>
    </g>
</svg>