<?xml version="1.0" encoding="UTF-8"?>
<svg width="135px" height="152px" viewBox="0 0 135 152" version="1.1" xmlns="http://www.w3.org/2000/svg" xmlns:xlink="http://www.w3.org/1999/xlink">
    <!-- Generator: Sketch 51.1 (57501) - http://www.bohemiancoding.com/sketch -->
    <title>Shape</title>
    <desc>Created with Sketch.</desc>
    <defs></defs>
    <g id="Page-1" stroke="none" stroke-width="1" fill="none" fill-rule="evenodd">
        <g id="DD-Colorful-Paint-Stroke-Alphabet-55029" transform="translate(-208.000000, -2.000000)" fill="#336535" fill-rule="nonzero">
            <path d="M248.8,2.7 L254.1,6.7 L271.7,5 L273.4,6.9 L275.3,7.1 L281.2,6 C302.7,8 318.2,17.5 327.7,34.4 C330.3,34.7 331.2,37.6 330.5,43.2 L329,55.1 L325.2,54.7 L325.4,53 L328,48.1 L326.3,46.2 L328.3,44.7 L326.6,42.8 L322.9,42.5 C322.1,49 314.8,55.7 301.1,62.6 L300.9,64.3 L302.8,64.4 C307.6,64.9 314.3,62.8 323,57.9 L322.7,61.3 L311.8,70.5 C318.9,71.2 329.2,81.3 342.8,100.8 C341.3,113.2 320.5,126 280.3,139.2 C263.1,146.6 249.9,149.9 240.5,149 L237.1,145.1 L235.2,145 C234.8,148.4 232.1,149.8 227,149.3 C226.5,152.4 225.3,154 223.2,154 L222.5,154 C219.9,153.7 219.2,149.7 220.2,141.8 L218.3,141.7 L215.4,149.9 L213.5,149.7 C214.9,138.5 213.6,132.7 209.8,132.4 L208.8,125.4 L210.9,123.9 L209.1,122 L227.7,50.1 L226,48.3 L227.9,48.5 L226.2,46.7 L231.3,21.5 L231.4,19.8 L229,7.6 L230.9,7.7 C238,4.2 243.6,2.5 247.7,2.5 C248,2.6 248.4,2.7 248.8,2.7 Z M250.3,85.1 L244.6,115.3 L246.3,117.2 L248.2,117.4 C257.4,118.3 278.1,111.2 310.5,96.1 L314.8,93.1 C314.6,88.5 309.8,85.8 300.4,84.9 L285.2,83.3 L250.3,85.1 Z M257.5,41.2 L258.1,53.2 L275.6,51.5 L275.3,54.9 L303.6,44 L303.4,45.7 L288.9,54.5 C304.7,50.6 313.3,44.1 314.5,34.8 L310.7,34.4 C309.9,40 307.7,42.6 303.9,42.3 L304.2,38.9 L302.3,38.8 L304.9,33.8 L306.6,35.7 L308.5,36 L308.7,34.3 C304,30.4 296.6,27.9 286.4,27 C268.5,25.2 258.9,30 257.5,41.2 Z M285.4,2.9 L294.6,5.5 L294.4,7.2 L284.9,6.3 L285.4,2.9 Z M293.3,79.1 L293.2,80.7 L311.9,84.3 L313.8,84.4 L314,82.7 L306.6,80.3 L293.3,79.1 Z M331.2,99.8 C330.7,103.3 318.1,111.8 293.4,125.2 C321.6,115.2 336,107.5 336.6,102.1 L334.7,101.9 L333.1,100 L331.2,99.8 Z M294.3,24.3 L294.1,26 L309.2,29.2 C309.4,26.9 307.7,25.6 303.9,25.3 L294.3,24.3 Z M302.1,38.8 L302,40.5 L297.7,43.4 L295.8,43.3 L302.1,38.8 Z M318.7,91.7 L314.1,98.2 L322.3,93.9 L320.6,92 L318.7,91.7 Z" id="Shape"></path>
        </g>
    </g>
</svg>