<?xml version="1.0" encoding="UTF-8"?>
<svg width="112px" height="135px" viewBox="0 0 112 135" version="1.1" xmlns="http://www.w3.org/2000/svg" xmlns:xlink="http://www.w3.org/1999/xlink">
    <!-- Generator: Sketch 51.1 (57501) - http://www.bohemiancoding.com/sketch -->
    <title>Shape</title>
    <desc>Created with Sketch.</desc>
    <defs></defs>
    <g id="Page-1" stroke="none" stroke-width="1" fill="none" fill-rule="evenodd">
        <g id="DD-Colorful-Paint-Stroke-Alphabet-55029" transform="translate(-408.000000, -10.000000)" fill="#001A5A" fill-rule="nonzero">
            <path d="M475.5,10.3 L477.4,10.3 C495.9,10.3 510,17.1 519.5,30.7 L519.5,32.4 L515.7,32.4 L517.6,34.1 L517.6,35.8 C509.9,35 506.1,33.9 506.1,32.4 C476.3,32.4 454,46 439.1,73.2 L435.3,85.1 L441,117.4 L446.7,117.4 C462.6,117.4 480.5,107.2 500.3,86.8 L502.2,86.8 L502.2,88.5 C488.6,105.9 473.3,116.1 456.3,119.1 L456.3,120.8 L458.2,120.8 C471.6,120.8 488.2,110.6 508,90.2 L513.7,97 L513.7,102.1 C513.7,105.8 504.1,114.3 485,127.6 L483.1,129.3 L481.2,129.3 L481.2,132.7 C502.9,123.3 513.7,116.5 513.7,112.3 L517.5,112.3 L517.5,114 C501.4,131 482.9,139.5 462,139.5 L462,141.2 L471.6,141.2 L479.3,139.5 L481.2,139.5 L481.2,141.2 L458.2,144.5 C448.5,144.5 438.3,138.3 427.6,125.9 L427.6,127.6 L437.2,141.2 L437.2,142.8 L431.5,142.8 C419.6,135.6 412.6,126.6 410.4,115.7 L408.5,93.6 C408.5,65.2 414.9,47 427.6,39.2 L427.6,40.9 L416.1,57.9 L416.1,59.6 L418,59.6 C418,48.8 434,33.5 465.9,13.7 L460.2,15.4 L458.3,15.4 L458.3,13.7 L475.5,10.3 Z M414.2,110.7 L414.2,115.8 L416.1,122.6 L418,122.6 L418,120.9 L416.1,110.7 L414.2,110.7 Z M437.2,29 L437.2,30.7 L427.6,39.2 L427.6,37.5 L437.2,29 Z M454.4,17.1 L456.3,17.1 L456.3,18.8 L442.9,23.9 C442.9,21.7 446.8,19.4 454.4,17.1 Z" id="Shape"></path>
        </g>
    </g>
</svg>