<?xml version="1.0" encoding="UTF-8"?>
<svg width="116px" height="138px" viewBox="0 0 116 138" version="1.1" xmlns="http://www.w3.org/2000/svg" xmlns:xlink="http://www.w3.org/1999/xlink">
    <!-- Generator: Sketch 51.1 (57501) - http://www.bohemiancoding.com/sketch -->
    <title>Shape</title>
    <desc>Created with Sketch.</desc>
    <defs></defs>
    <g id="Page-1" stroke="none" stroke-width="1" fill="none" fill-rule="evenodd">
        <g id="DD-Colorful-Paint-Stroke-Alphabet-55029" transform="translate(-778.000000, -8.000000)" fill="#7B057E" fill-rule="nonzero">
            <path d="M884.6,8 L893.8,13.7 C891.1,23.8 886.2,28.6 879.2,28.2 L829.2,30.2 L829,33.6 L838.5,34.2 L850.1,33.2 L851.9,35.1 L853.8,35.2 L867.3,34.2 L871.1,34.5 L871,36.2 L826.5,40.3 L823,62.3 L824.9,62.4 L876.9,58.7 L878.6,60.5 L878.5,62.2 L874.7,61.9 L874.7,63.6 L887.9,66.2 L887.8,67.9 C885,74.2 866.7,79.4 832.8,83.3 L813.5,83.9 L815.3,85.6 L806.1,107.2 L804.2,107.2 L805.3,91.9 L803.4,91.8 L799.7,115.4 C837.9,110.9 864.9,109.1 880.7,110 L890,112.3 L889.9,115.7 L886.1,115.5 L887.8,117.3 L887.5,122.4 C883.8,126.7 876,128.5 864.1,127.8 L864,129.5 L879.3,130.4 L879,133.8 L789.9,145.4 L788,145.3 C781.8,144.1 778.8,142.3 778.8,140 L778.8,139.7 L779.1,134.6 L784.4,116.2 L782.6,114.4 L786.4,114.5 L785.7,123 L787.6,123.2 C788.3,117.5 789.9,114.8 792.1,115 L790.3,113.1 L791.7,96.2 L787.9,95.9 L785.3,104.3 L787.4,102.7 L789.3,102.8 L788.5,113 L786.6,112.8 L786.9,107.8 L785,107.7 L784.8,111.1 L782.9,111 L783.1,107.6 L789.2,78.9 L787.3,78.8 L791.7,70.6 L789.9,68.8 L790,67.1 L794.2,38.4 L796,40.2 L797.9,40.3 L798.1,36.9 L796.9,28.3 L799.9,13.1 L800.2,8 L802.1,8.2 L803.9,10 L805.9,8.4 L807.8,8.6 L809.6,10.3 L811.6,8.7 L817.3,9.1 L884.6,8 Z M788.8,82.4 L787.9,94.3 L789.8,94.4 L790.7,82.6 L788.8,82.4 Z M851.9,84.6 L853.8,84.6 L853.6,86.3 L818.9,89.4 L817.1,87.5 L817.2,85.9 L834.5,85.2 L834.4,86.9 L851.9,84.6 Z" id="Shape"></path>
        </g>
    </g>
</svg>