<?xml version="1.0" encoding="UTF-8"?>
<svg width="154px" height="153px" viewBox="0 0 154 153" version="1.1" xmlns="http://www.w3.org/2000/svg" xmlns:xlink="http://www.w3.org/1999/xlink">
    <!-- Generator: Sketch 51.1 (57501) - http://www.bohemiancoding.com/sketch -->
    <title>Shape</title>
    <desc>Created with Sketch.</desc>
    <defs></defs>
    <g id="Page-1" stroke="none" stroke-width="1" fill="none" fill-rule="evenodd">
        <g id="DD-Colorful-Paint-Stroke-Alphabet-55029" transform="translate(-1134.000000, -10.000000)" fill="#BF3376" fill-rule="nonzero">
            <path d="M1212.9,10.8 L1214.6,12.5 L1216.5,12.5 L1216.7,10.8 C1237.8,15.6 1247.8,22.4 1246.8,31.2 L1249.3,41.4 L1245.5,41.4 C1246,36.9 1245,34.6 1242.5,34.6 L1240.6,34.6 L1241.6,43.1 L1241.3,44.8 L1237.5,44.8 C1234.9,44.8 1233.9,43.1 1234.3,39.7 L1232.2,41.4 L1230.3,41.4 C1223.9,36.9 1217.8,34.6 1211.9,34.6 C1199.1,34.6 1184.3,46.5 1167.4,70.3 L1161.3,89 C1159.4,104.1 1166.4,114.9 1182.2,121.3 L1181.7,124.7 L1177.9,124.7 L1177.7,126.4 L1181.5,126.4 C1190.6,126.4 1203.9,116.2 1221.6,95.8 L1221.8,94.1 L1219.9,94.1 C1209.8,105 1200.5,112.9 1192.1,117.9 L1190.2,117.9 L1214,95.8 L1200.6,95.8 C1200.9,93.5 1199.1,92.4 1195.3,92.4 L1193.6,90.7 L1193.8,89 C1194,86.7 1200.6,85 1213.5,83.9 L1213.9,80.5 L1211.8,82.2 L1200.3,82.2 L1190.3,70.3 L1192.4,68.6 L1192.5,66.9 L1213.4,68.6 L1263.7,63.5 L1263.9,61.8 C1257.5,61.8 1254.5,60.7 1254.8,58.4 L1256.7,58.4 L1258.4,60.1 L1260.5,58.4 L1262.4,58.4 C1276,61.9 1282.6,64.7 1282.3,66.9 L1282.2,68.6 L1280.1,70.3 L1279.9,72 L1287.6,72 L1287.2,75.4 L1285.3,75.4 L1254.3,78.8 L1254.1,80.5 L1256,80.5 L1273.5,78.8 L1273.1,82.2 C1260.3,82.2 1253.4,86.7 1252.3,95.8 L1243.2,123 L1245,124.7 L1244.8,126.4 L1241.8,134.9 L1242.1,148.5 L1237.9,151.9 L1239.5,153.6 C1234.2,155.1 1231.4,157.9 1230.9,162.1 L1225.2,162.1 C1222.6,162.1 1222,157 1223.2,146.8 L1221.3,146.8 L1219.8,158.7 L1214.1,158.7 L1215.1,150.2 L1214.7,138.3 L1210.9,138.3 C1203.6,142.8 1196.3,145.1 1188.9,145.1 L1179.3,145.1 L1176,141.7 L1176.1,140 L1179.9,140 L1180.1,138.3 C1153.6,138.3 1139.3,130.4 1137.1,114.5 C1135.6,107.2 1134.8,99.8 1134.8,92.5 C1134.8,88 1135.1,83.4 1135.7,78.8 L1136,75.4 C1137.1,66.7 1141.7,55.4 1149.7,41.4 L1151.6,41.4 L1151.2,44.8 L1144,56.7 L1143.9,58.4 L1145.8,58.4 C1147.1,48.1 1159.5,35 1183.1,19.3 L1185,19.3 L1185.2,17.6 L1183.3,17.6 L1177.3,19.3 C1181.1,13.7 1193,10.8 1212.9,10.8 Z M1160.5,32.9 L1160.2,34.6 L1151.8,41.4 L1152,39.7 L1160.5,32.9 Z M1173.4,21 L1175.3,21 L1160.4,32.9 L1160.6,31.2 L1173.4,21 Z M1183.7,140.1 L1183.6,141.8 L1193.2,141.8 L1193.3,140.1 L1183.7,140.1 Z M1188.3,118 L1190.2,118 L1186,121.4 L1184.1,121.4 L1188.3,118 Z M1197.6,135 L1213.8,128.2 L1214.3,124.8 L1212.4,124.8 L1197.6,135 Z M1201.6,24.4 L1201.5,26.1 L1214.9,26.1 L1215,24.4 L1201.6,24.4 Z M1245.2,60.2 L1252.9,60.2 L1248.6,63.6 L1245.2,60.2 Z" id="Shape"></path>
        </g>
    </g>
</svg>