<?xml version="1.0" encoding="UTF-8"?>
<svg width="107px" height="153px" viewBox="0 0 107 153" version="1.1" xmlns="http://www.w3.org/2000/svg" xmlns:xlink="http://www.w3.org/1999/xlink">
    <!-- Generator: Sketch 51.1 (57501) - http://www.bohemiancoding.com/sketch -->
    <title>Shape</title>
    <desc>Created with Sketch.</desc>
    <defs></defs>
    <g id="Page-1" stroke="none" stroke-width="1" fill="none" fill-rule="evenodd">
        <g id="DD-Colorful-Paint-Stroke-Alphabet-55029" transform="translate(-354.000000, -212.000000)" fill="#F7EC45" fill-rule="nonzero">
            <path d="M447.1,213 L447.1,221.5 L452.8,221.5 L452.8,216.4 L460.5,216.4 C448.2,309.3 435.3,355.7 421.8,355.7 C421.8,358 415.4,360.8 402.7,364.2 L400.8,362.5 L398.9,362.5 L389.3,364.2 L387.4,362.5 L387.4,364.2 C374.6,364.2 368.3,359.1 368.3,348.9 L354.9,343.8 L354.9,338.7 L356.8,340.4 L362.5,340.4 L362.5,338.7 C361.9,324 360.6,316.6 358.7,316.6 L362.5,306.4 C366,306.4 369.8,304.7 374,301.3 L381.7,301.3 L383.6,311.5 L387.4,311.5 L387.4,308 L385.5,306.3 L385.5,304.6 L387.4,302.9 L391.2,302.9 C391.2,306.3 393.1,308 396.9,308 L395,319.9 L395,325 C395.8,331.8 397.7,335.2 400.7,335.2 L406.4,319.9 L408.3,321.6 L412.1,321.6 C417.8,321.6 425,289.3 433.6,224.8 L435.5,214.6 L437.4,212.9 L447.1,212.9 L447.1,213 Z M362.4,308 L362.4,316.5 L364.3,316.5 L364.3,308 L362.4,308 Z M412.2,301.2 L414.1,301.2 C414.1,304.6 415.4,306.3 417.9,306.3 C417.9,308.6 416,309.7 412.2,309.7 L414.1,311.4 L414.1,313.1 L410.3,316.5 L412.2,316.5 L414.1,314.8 L414.1,318.2 L408.4,319.9 L408.4,318.2 L412.2,301.2 Z M414.1,292.7 L416,292.7 L416,299.5 L414.1,299.5 L414.1,292.7 Z" id="Shape"></path>
        </g>
    </g>
</svg>