<?xml version="1.0" encoding="UTF-8"?>
<svg width="133px" height="152px" viewBox="0 0 133 152" version="1.1" xmlns="http://www.w3.org/2000/svg" xmlns:xlink="http://www.w3.org/1999/xlink">
    <!-- Generator: Sketch 51.1 (57501) - http://www.bohemiancoding.com/sketch -->
    <title>Shape</title>
    <desc>Created with Sketch.</desc>
    <defs></defs>
    <g id="Page-1" stroke="none" stroke-width="1" fill="none" fill-rule="evenodd">
        <g id="DD-Colorful-Paint-Stroke-Alphabet-55029" transform="translate(-526.000000, -210.000000)" fill="#76AADB" fill-rule="nonzero">
            <path d="M561.1,214 L563,229.3 C565.6,229.3 567.5,225.9 568.7,219.1 L570.6,219.1 L572.5,225.9 L566.8,253.1 L587.9,239.5 L589.8,239.5 L566.8,258.2 L566.8,259.9 L610.8,231 L612.7,232.7 C629.9,220.2 641.4,214 647.2,214 L649.1,214 L651,220.8 L635.7,234.4 L637.6,234.4 C640.2,229.9 644,227.6 649.1,227.6 L651,229.3 L651,227.6 L649.1,225.9 L651,224.2 L656.7,224.2 L658.6,229.3 C649,233.3 626.7,248 591.6,273.5 C600.2,290.2 615.5,312.9 637.5,341.5 L637.5,344.9 L635.6,356.8 L633.7,355.1 L631.8,355.1 L630,362 L622.3,362 L622.3,358.6 L620.4,358.6 L620.4,362 L616.6,362 C616.6,358 602.6,337 574.5,299.1 L570.7,288.9 L561.1,290.6 C559.4,317.9 555.4,334.9 549.1,341.6 L549.1,343.3 L530,341.6 L530,336.5 L531.9,324.6 C528.1,324.6 526.2,321.2 526.2,314.4 C528.3,303.1 530.4,297.4 532.5,297.4 L530.6,295.7 C534.4,264.5 538.3,245.8 542.1,239.6 L540.2,234.5 L545.9,220.9 L545.9,219.2 L544,217.5 L544,215.8 L547.8,215.8 L547.8,227.7 L549.7,227.7 L551.6,222.6 L549.7,220.9 L549.7,219.2 C550.9,215.7 554.7,214 561.1,214 Z M545.8,232.7 L543.9,242.9 L543.9,249.7 L545.8,249.7 L547.7,234.4 L547.7,232.7 L545.8,232.7 Z M601.3,231 L603.2,231 L591.7,239.5 L589.8,239.5 L601.3,231 Z M593.6,334.7 L595.5,334.7 L601.2,339.8 L599.3,339.8 L593.6,334.7 Z M601.3,339.8 C604.5,339.8 607.7,345.5 610.9,356.8 L610.9,358.5 L609,358.5 L601.3,339.8 Z M610.8,224.2 L612.7,224.2 L605,231 L603.1,231 L610.8,224.2 Z M635.7,210.6 L637.6,212.3 L637.6,214 L635.7,215.7 L633.8,214 L631.9,214 L614.7,224.2 L612.8,224.2 C612.8,221.2 620.4,216.6 635.7,210.6 Z M626.2,237.8 L618.5,242.9 L616.6,244.6 L616.6,246.3 L618.5,246.3 L626.2,241.2 L628.1,239.5 L628.1,237.8 L626.2,237.8 Z" id="Shape"></path>
        </g>
    </g>
</svg>