<?xml version="1.0" encoding="UTF-8"?>
<svg width="138px" height="152px" viewBox="0 0 138 152" version="1.1" xmlns="http://www.w3.org/2000/svg" xmlns:xlink="http://www.w3.org/1999/xlink">
    <!-- Generator: Sketch 51.1 (57501) - http://www.bohemiancoding.com/sketch -->
    <title>Shape</title>
    <desc>Created with Sketch.</desc>
    <defs></defs>
    <g id="Page-1" stroke="none" stroke-width="1" fill="none" fill-rule="evenodd">
        <g id="DD-Colorful-Paint-Stroke-Alphabet-55029" transform="translate(-895.000000, -213.000000)" fill="#4A72B2" fill-rule="nonzero">
            <path d="M926.8,215.3 L930.6,215.3 L936,218.7 L936.1,217 C942.9,218.1 947.8,221 950.6,225.5 C955,225.5 959.6,237.4 964.3,261.2 L990.8,225.5 L992.8,223.8 L994.7,223.8 L994.6,225.5 L967.5,268 L971.3,268 C991.3,232.8 1003.3,215.3 1007.1,215.3 L1012.5,218.7 L1012.6,217 C1018.1,217 1024.6,222.7 1032.1,234 L1031.5,239.1 L1029.5,240.8 L1031.2,242.5 L1030.5,249.3 L1026.7,249.3 L1029.5,259.5 L1025.8,278.2 L1025.2,283.3 L1027,285 L1026.8,286.7 L1022.7,290.1 L1026.1,293.5 L1022,296.9 L1025.4,300.3 L1023.4,302 L1021.5,302 L1023.3,303.7 L1018.6,351.3 C1014.8,351.3 1012.7,353 1012.4,356.4 C1008.6,356.4 1006.4,359.2 1005.8,364.9 L1000.1,364.9 L989.3,358.1 L992.2,347.9 L989.4,337.7 L1002.4,264.5 C996,270.4 989,282.9 981.5,301.9 C980.8,308.5 977.8,313 972.5,315.5 L970.6,315.5 L970.7,313.8 L972.8,312.1 L973,310.4 L971.2,308.7 L975.4,305.3 L975.9,300.2 L972.1,300.2 C971.6,306.4 968.6,310.9 963.1,313.8 L961.2,313.8 L952.5,305.3 C949.1,305.3 947.1,300.2 946.4,290 C939.9,278.2 936.9,269.7 937.4,264.5 L935.5,264.5 L931.6,284.9 L930.2,298.5 L927.8,303.6 L928.8,312.1 L925.2,349.5 C922.6,349.5 921.2,351.2 920.8,354.6 L910.4,363.1 L908.5,363.1 L895.5,358 L898.3,349.5 L898.2,330.8 L899,322.3 L901,320.6 L899.3,318.9 L899.5,317.2 C901.2,299.9 905,281.1 910.8,261.1 L912.7,261.1 L910.9,259.4 L911.1,257.7 L913.7,250.9 L912.3,244.1 L912.5,242.4 L914.4,242.4 L914.1,245.8 L916,245.8 L916.6,240.7 L914.8,239 L921.8,227.1 L922.2,222 L920.1,223.7 L918.2,223.7 L916.5,222 L917,216.9 L918.9,216.9 L920.7,218.6 L922.6,218.6 L926.8,215.3 Z M974.8,291.8 L976.3,296.9 L978.2,296.9 C978.7,290.8 986.6,275.5 1001.8,251 L1004.5,242.5 C995,253 985.1,269.5 974.8,291.8 Z M997.8,213.6 L1001.6,213.6 L1001.3,217 L996.8,223.8 L995.1,222.1 L993.2,222.1 L997.8,213.6 Z M996.4,344.5 L995,358.1 L996.9,358.1 L999.7,349.6 L998.2,344.5 L996.4,344.5 Z M1008.9,256.1 L1006.9,257.8 L1002.6,300.3 L1004.5,300.3 L1010,264.6 L1008.2,262.9 L1010.1,262.9 L1008.4,261.2 L1008.5,259.5 L1010.6,257.8 L1010.7,256.1 L1008.9,256.1 Z" id="Shape"></path>
        </g>
    </g>
</svg>