<?xml version="1.0" encoding="UTF-8"?>
<svg width="144px" height="142px" viewBox="0 0 144 142" version="1.1" xmlns="http://www.w3.org/2000/svg" xmlns:xlink="http://www.w3.org/1999/xlink">
    <!-- Generator: Sketch 51.1 (57501) - http://www.bohemiancoding.com/sketch -->
    <title>Shape</title>
    <desc>Created with Sketch.</desc>
    <defs></defs>
    <g id="Page-1" stroke="none" stroke-width="1" fill="none" fill-rule="evenodd">
        <g id="DD-Colorful-Paint-Stroke-Alphabet-55029" transform="translate(-1097.000000, -216.000000)" fill="#3C2C17" fill-rule="nonzero">
            <path d="M1135.8,216.8 L1149.2,227 C1149.2,223.6 1150.5,221.9 1153,221.9 L1154.9,221.9 L1181.7,283.1 L1181.7,286.5 L1179.8,286.5 L1176,276.3 L1174.1,276.3 L1174.1,279.7 L1187.5,308.6 L1189.4,308.6 C1194.5,279.1 1201.9,248.3 1211.5,216.2 L1217.2,219.6 L1222.9,217.9 L1234.4,223 L1234.4,224.7 C1230.6,224.7 1228.7,227 1228.7,231.5 L1230.6,231.5 L1232.5,233.2 L1234.4,233.2 L1236.3,224.7 L1240.1,224.7 L1240.1,226.4 L1238.2,228.1 L1240.1,229.8 L1240.1,231.5 C1230.5,257.7 1221.9,295.3 1214.2,344.3 L1210.4,344.3 L1214.2,317.1 C1211.6,317.1 1207.8,327.9 1202.7,349.4 C1198,352.8 1193.5,354.5 1189.3,354.5 L1189.3,357.9 L1187.4,357.9 C1187.4,355.6 1184.8,354.5 1179.7,354.5 L1179.7,342.6 C1179.7,337.5 1166.9,309.1 1141.4,257.5 L1139.5,257.5 C1134.4,277.7 1129.9,304.9 1126.1,339.2 L1124.2,337.5 C1116.5,339.5 1112.7,342.3 1112.7,346 L1108.9,346 C1106.3,341.7 1105.1,334.4 1105.1,323.9 L1103.2,323.9 L1103.2,339.2 L1099.4,339.2 L1097.5,330.7 C1097.5,299.9 1105.2,262.5 1120.5,218.4 L1135.8,216.8 Z M1109,259.3 L1109,261 L1110.9,262.7 L1109,264.4 L1109,267.8 L1110.9,267.8 L1112.8,261 L1110.9,259.3 L1109,259.3 Z M1181.8,286.5 C1185.1,286.5 1187.7,291 1189.5,300.1 L1189.5,301.8 L1187.6,301.8 L1181.8,286.5 Z" id="Shape"></path>
        </g>
    </g>
</svg>