<?xml version="1.0" encoding="UTF-8"?>
<svg width="112px" height="150px" viewBox="0 0 112 150" version="1.1" xmlns="http://www.w3.org/2000/svg" xmlns:xlink="http://www.w3.org/1999/xlink">
    <!-- Generator: Sketch 51.1 (57501) - http://www.bohemiancoding.com/sketch -->
    <title>Shape</title>
    <desc>Created with Sketch.</desc>
    <defs></defs>
    <g id="Page-1" stroke="none" stroke-width="1" fill="none" fill-rule="evenodd">
        <g id="DD-Colorful-Paint-Stroke-Alphabet-55029" transform="translate(-798.000000, -459.000000)" fill="#4A72B2" fill-rule="nonzero">
            <path d="M858,459.4 C861.4,461.7 872.1,462.8 890.2,462.8 L890.1,464.5 L876.7,464.5 L876.6,466.2 C892.6,466.2 902.6,469.6 906.6,476.4 L906.4,479.8 L896.8,479.8 L896.7,481.5 L910,483.2 L909.9,484.9 L898.4,484.9 L898.3,486.6 C902.1,486.6 904,487.7 903.8,490 C881.1,490 860.7,497.4 842.9,512.1 L842.8,513.8 C867.5,519.7 887.1,532.7 901.5,552.9 L901.4,554.6 C896.7,569.3 883.7,582.9 862.3,595.4 L850.6,597.1 L850.5,598.8 L854.3,598.8 C854.1,601.9 842.4,605.3 819.2,609 L819.4,605.6 L829,605.6 L829.2,603.9 C821,603.9 813.6,599.9 807,592 C801.3,589.4 798.4,584.4 798.4,577.1 C798.4,576.4 798.4,575.7 798.5,575 L804.5,571.6 L810,575 L813.8,575 C849.8,570 868.4,559.8 869.5,544.4 C854.4,537.6 844.4,534.2 839.5,534.2 L839.4,535.9 L820.6,529.1 L822.4,530.8 L822.3,534.2 C806.4,523.8 798.6,515.9 799,510.4 L814,486.6 L824,479.8 L823.8,483.2 L858,459.4 Z M831.2,600.6 L831.1,602.3 L838.8,602.3 L848.5,600.6 L848.5,598.9 L846.6,598.9 L831.2,600.6 Z M831.9,505.3 L831.8,507 L865.6,488.3 L881.1,484.9 L881.3,481.5 L877.5,481.5 C857.3,488.2 842.1,496.1 831.9,505.3 Z M842.4,575.1 L844.3,575.1 L848.4,571.7 L846.5,571.7 L842.4,575.1 Z M852.9,588.7 L852.9,590.4 L854.8,590.4 L862.8,585.3 L852.9,588.7 Z M876.9,575.1 L868.7,583.6 L870.6,583.6 L878.8,575.1 L876.9,575.1 Z" id="Shape"></path>
        </g>
    </g>
</svg>