<?xml version="1.0" encoding="UTF-8"?>
<svg width="133px" height="159px" viewBox="0 0 133 159" version="1.1" xmlns="http://www.w3.org/2000/svg" xmlns:xlink="http://www.w3.org/1999/xlink">
    <!-- Generator: Sketch 51.1 (57501) - http://www.bohemiancoding.com/sketch -->
    <title>Shape</title>
    <desc>Created with Sketch.</desc>
    <defs></defs>
    <g id="Page-1" stroke="none" stroke-width="1" fill="none" fill-rule="evenodd">
        <g id="DD-Colorful-Paint-Stroke-Alphabet-55029" transform="translate(-962.000000, -458.000000)" fill="#336535" fill-rule="nonzero">
            <path d="M1088.5,458.8 L1094.2,460.5 L1094.2,463.9 L1088.5,463.9 L1092.3,469 C1089.5,474.7 1079.3,477.5 1061.7,477.5 L1048.3,479.2 L1046.4,484.3 L1048.3,484.3 C1044.5,492.4 1036.8,528.7 1025.3,593.2 L1031,615.3 L1029.1,615.3 C1026.2,615.3 1023.7,609.6 1021.4,598.3 L1023.3,581.3 L1023.3,579.6 L1021.4,579.6 L1021.4,583 C1017.6,583 1015.7,584.1 1015.7,586.4 L1015.7,588.1 L1019.5,615.3 L1019.5,617 L1015.7,617 L1008,611.9 L1006.1,613.6 L1004.2,613.6 C999.1,603.8 996.5,595.3 996.5,588.1 L998.4,589.8 L1000.3,589.8 L996.5,577.9 L1002.2,576.2 L1002.2,567.7 L998.4,567.7 L998.4,566 C1002.2,566 1004.1,564.9 1004.1,562.6 L1004.1,560.9 L1000.3,560.9 C1000.3,551.8 1002.2,547.3 1006,547.3 L1006,525.2 C1008,523.6 1010.6,511.7 1013.7,489.5 L1000.3,491.2 L973.5,489.5 L973.5,487.8 L983.1,486.1 L983.1,487.8 L985,486.1 L1013.7,486.1 L1013.7,481 L983.1,484.4 L981.2,482.7 L979.3,482.7 L967.8,484.4 L962.1,481 L964,472.5 L962.1,470.8 C962.1,465.1 969.8,462.3 985.1,462.3 L1088.5,458.8 Z M1006.2,559.2 L1002.4,596.6 L1006.2,596.6 L1004.3,588.1 L1004.3,584.7 L1008.1,579.6 L1006.2,579.6 L1008.1,577.9 L1008.1,576.2 L1006.2,574.5 L1006.2,572.8 L1010,566 L1008.1,559.2 L1006.2,559.2 Z M1077,463.9 L1077,465.6 L1084.7,465.6 L1084.7,463.9 L1077,463.9 Z" id="Shape"></path>
        </g>
    </g>
</svg>