<?xml version="1.0" encoding="UTF-8"?>
<svg width="120px" height="139px" viewBox="0 0 120 139" version="1.1" xmlns="http://www.w3.org/2000/svg" xmlns:xlink="http://www.w3.org/1999/xlink">
    <!-- Generator: Sketch 51.1 (57501) - http://www.bohemiancoding.com/sketch -->
    <title>Shape</title>
    <desc>Created with Sketch.</desc>
    <defs></defs>
    <g id="Page-1" stroke="none" stroke-width="1" fill="none" fill-rule="evenodd">
        <g id="DD-Colorful-Paint-Stroke-Alphabet-55029" transform="translate(-39.000000, -697.000000)" fill="#7B057E" fill-rule="nonzero">
            <path d="M39.6,697.5 C54.9,697.5 62.6,702 62.6,711.1 L64.5,711.1 L64.5,706 L68.3,706 C73.4,719.3 77.9,737.4 81.7,760.4 L79.8,760.4 L81.7,762.1 L81.7,777.4 L85.5,777.4 L83.6,779.1 L83.6,787.6 L85.5,787.6 C90.5,776.3 100.7,761 116.1,741.7 L118,743.4 L121.8,738.3 L120,738.3 L116.2,741.7 L116.2,740 L137.3,719.6 L141.1,719.6 L148.8,726.4 L139.2,736.6 L144.9,736.6 C144.9,733.1 148.7,729.1 156.4,724.7 L156.4,729.8 C151.3,730.3 148.7,732 148.7,734.9 L152.5,734.9 C152.5,731.5 154.4,729.8 158.2,729.8 L158.2,734.9 C151.7,738.3 142.1,748.5 129.5,765.5 L89.3,830.1 L85.5,830.1 L83.6,828.4 C79.8,828.4 77.9,830.7 77.9,835.2 L74.1,835.2 C65.2,835.2 60.7,831.2 60.7,823.3 L62.6,818.2 L58.8,821.6 L58.8,826.7 L60.7,828.4 L60.7,830.1 L58.8,831.8 L55,831.8 L53.1,823.3 L55,818.2 L53,818.2 L54.9,816.5 L54.9,806.3 C53.3,743.9 48.9,712.7 41.5,712.7 L43.4,707.6 L39.6,697.5 Z M56.8,748.6 L56.8,757.1 L58.7,757.1 L58.7,748.6 L56.8,748.6 Z M58.8,762.2 L58.8,780.9 L60.7,780.9 L60.7,762.2 L58.8,762.2 Z M93.2,763.9 L93.2,765.6 L87.5,772.4 L87.5,770.7 L93.2,763.9 Z M87.5,811.5 L89.4,813.2 L91.3,813.2 L95.1,803 C92.5,803.5 90,806.4 87.5,811.5 Z M95.1,757.1 L97,757.1 L97,762.2 L95.1,763.9 L93.2,763.9 L93.2,762.2 L95.1,757.1 Z M97.1,797.9 L97.1,799.6 L102.8,794.5 L102.8,792.8 L97.1,797.9 Z M118.1,729.8 L118.1,731.5 L100.9,752 L100.9,750.3 C103.8,743.9 109.6,737 118.1,729.8 Z M131.5,717.9 L131.5,719.6 L123.8,726.4 L121.9,726.4 C124.9,721.5 128.1,718.7 131.5,717.9 Z M133.4,740.1 L127.7,748.6 L129.6,748.6 L135.3,741.8 L135.3,740.1 L133.4,740.1 Z" id="Shape"></path>
        </g>
    </g>
</svg>