<?xml version="1.0" encoding="UTF-8"?>
<svg width="157px" height="151px" viewBox="0 0 157 151" version="1.1" xmlns="http://www.w3.org/2000/svg" xmlns:xlink="http://www.w3.org/1999/xlink">
    <!-- Generator: Sketch 51.1 (57501) - http://www.bohemiancoding.com/sketch -->
    <title>Shape</title>
    <desc>Created with Sketch.</desc>
    <defs></defs>
    <g id="Page-1" stroke="none" stroke-width="1" fill="none" fill-rule="evenodd">
        <g id="DD-Colorful-Paint-Stroke-Alphabet-55029" transform="translate(-224.000000, -686.000000)" fill="#336535" fill-rule="nonzero">
            <path d="M235.9,694.1 L241.6,694.1 L243.5,702.6 C247.3,702.6 249.2,700.9 249.2,697.5 L251.1,697.5 L254.9,700.9 L253,711.1 L254.9,711.1 L253,712.8 L253,714.5 L254.9,716.2 L254.9,717.9 L253,717.9 L254.9,719.6 L254.9,721.3 L253,777.4 L253,779.1 L254.9,779.1 L260.6,762.1 L264.4,762.1 L251,794.4 L254.8,794.4 L277.8,736.6 L274,736.6 L266.3,758.7 L262.5,758.7 L262.5,757 L275.9,729.8 L277.8,729.8 L277.8,733.2 L293.1,729.8 C298.2,731.5 300.8,733.2 300.8,734.9 L302.7,733.2 L308.4,733.2 L316.1,774 L318,774 C318,768.9 328.1,739.7 348.2,686.3 L350.1,686.3 L352,691.4 L353.9,691.4 L353.9,688 L355.8,688 C365.3,688 370.4,689.7 371.1,693.1 L371.1,696.5 L367.3,701.6 L367.3,703.3 L371.1,703.3 L373,691.4 L376.8,691.4 L380.6,694.8 L380.6,696.5 L337,830.1 L331.3,831.8 L331.3,828.4 L329.4,830.1 L327.5,830.1 L325.6,828.4 C325.6,832.9 323.7,835.2 319.9,835.2 C309.7,834.4 304.6,832.7 304.6,830.1 L306.5,830.1 C305.2,824.4 302.7,820.5 298.8,818.2 L291.1,780.8 C288.9,780.9 281.3,796.7 268.1,828.4 L258.5,836.9 L257,836.9 L255.1,830.1 C274.6,801.4 284.8,779.3 285.7,763.8 C282.3,766.8 274,783.8 260.8,814.8 C259.2,814.8 256.7,821.6 253.1,835.2 L235.9,835.2 L234,828.4 L232.1,830.1 L230.2,830.1 C230.2,824 228.3,819.4 224.5,816.5 L224.5,809.7 L232.2,814.8 L228.4,785.9 L230.3,784.2 L228.4,782.5 L230.3,780.8 L228.4,780.8 L230.3,779.1 L230.3,755.3 L232.2,746.8 L230.3,746.8 L232.2,745.1 L232.2,700.9 L230.3,699.2 L230.3,697.5 L235.9,694.1 Z M348.4,694.9 C329.6,747 320.1,776.2 320.1,782.6 L320.1,784.3 L322,784.3 L352.2,694.9 L348.4,694.9 Z M333.5,801.3 L329.7,816.6 L329.7,820 L331.6,820 L335.4,803 L335.4,801.3 L333.5,801.3 Z M345,760.5 L341.2,775.8 L341.2,777.5 L343.1,777.5 L346.9,762.2 L346.9,760.5 L345,760.5 Z" id="Shape"></path>
        </g>
    </g>
</svg>