<?xml version="1.0" encoding="UTF-8"?>
<svg width="120px" height="157px" viewBox="0 0 120 157" version="1.1" xmlns="http://www.w3.org/2000/svg" xmlns:xlink="http://www.w3.org/1999/xlink">
    <!-- Generator: Sketch 51.1 (57501) - http://www.bohemiancoding.com/sketch -->
    <title>Shape</title>
    <desc>Created with Sketch.</desc>
    <defs></defs>
    <g id="Page-1" stroke="none" stroke-width="1" fill="none" fill-rule="evenodd">
        <g id="DD-Colorful-Paint-Stroke-Alphabet-55029" transform="translate(-633.000000, -693.000000)" fill="#594E41" fill-rule="nonzero">
            <path d="M725.8,693.5 L727.7,693.5 L727.7,696.9 L729.6,695.2 L731.5,695.2 C740.4,697.9 744.9,700.1 744.9,702 L735.3,712.2 L739.1,712.2 C744.2,709.9 746.8,707 746.8,703.7 L752.5,703.7 L752.5,705.4 L750.6,707.1 L752.5,708.8 L752.5,710.5 C707.2,753.9 685,788.4 686.1,814.2 L682.3,831.1 L684.2,832.8 L684.2,834.5 L674.6,849.8 L659.3,848.1 L659.3,834.5 L653.6,827.8 L653.6,824.4 L655.5,804 L657.4,805.7 L659.3,805.7 L657.4,804 L657.4,802.3 L659.3,800.6 L659.3,798.9 L657.4,797.2 L663.1,795.5 L661.2,804 L661.2,810.8 L663.1,810.8 L665.4,790.3 L663.5,785.2 L661.6,785.2 L661.6,790.3 L659.7,790.3 L657.8,776.7 L659.7,775 L659.7,773.3 L633.3,713.6 L633.3,710.2 L637.1,710.2 L633.3,701.7 L635.2,700 L639,700 C641.9,700 643.8,702.8 644.7,708.5 L650.4,705.1 L656.1,705.1 C656.1,712.1 663,726.9 676.7,749.5 C684.1,737.1 690.4,729.7 695.8,727.4 L695.8,729.1 C683.4,743.5 677,752 677,754.6 L677,756.3 L678.9,756.3 L723.9,702.1 L723.9,700.4 L701.8,720.6 L701.8,718.9 L725.8,693.5 Z M665.2,837.9 L665.2,844.7 L667.1,844.7 L667.1,837.9 L665.2,837.9 Z M727.8,719 C700.3,750.3 686.6,768.4 686.6,773.2 L690.4,773.2 C701.4,754.3 714.5,736.2 729.7,719 L727.8,719 Z M701.9,720.5 L701.9,722.2 L698.1,725.6 L698.1,723.9 L701.9,720.5 Z" id="Shape"></path>
        </g>
    </g>
</svg>