<?xml version="1.0" encoding="UTF-8"?>
<svg width="99px" height="159px" viewBox="0 0 99 159" version="1.1" xmlns="http://www.w3.org/2000/svg" xmlns:xlink="http://www.w3.org/1999/xlink">
    <!-- Generator: Sketch 51.1 (57501) - http://www.bohemiancoding.com/sketch -->
    <title>Fill 8</title>
    <desc>Created with Sketch.</desc>
    <defs></defs>
    <g id="Page-1" stroke="none" stroke-width="1" fill="none" fill-rule="evenodd">
        <g id="medialoot-hand-drawn-vector-arrows-tonythomas" transform="translate(-663.000000, -546.000000)" fill="#FFFFFF" stroke="#000000" stroke-width="7">
            <path d="M718.392111,699.445329 C718.944111,699.247329 719.540111,699.040329 720.133111,698.821329 C722.678111,697.882329 725.200111,696.873329 727.772111,696.012329 C732.777111,694.340329 737.888111,693.051329 743.052111,691.966329 C746.022111,691.342329 748.988111,690.694329 751.948111,690.028329 C755.997111,689.116329 756.052111,689.004329 756.129111,685.022329 C756.216111,680.525329 755.719111,676.066329 754.975111,671.661329 C753.779111,664.569329 752.038111,657.592329 749.931111,650.707329 C745.476111,636.140329 739.466111,622.223329 732.539111,608.683329 C731.812111,607.260329 731.038111,605.859329 730.371111,604.409329 C729.495111,602.503329 729.819111,601.155329 731.479111,599.739329 C732.573111,598.805329 733.752111,597.975329 734.871111,597.071329 C738.227111,594.359329 741.577111,591.639329 744.915111,588.907329 C745.494111,588.434329 745.423111,587.699329 744.774111,587.390329 C741.167111,585.678329 737.605111,583.860329 733.925111,582.321329 C724.781111,578.498329 715.798111,574.324329 706.829111,570.113329 C698.874111,566.378329 690.912111,562.659329 682.942111,558.953329 C681.639111,558.346329 680.295111,557.829329 678.958111,557.299329 C678.398111,557.077329 677.652111,557.514329 677.494111,558.168329 C677.268111,559.094329 677.068111,560.029329 676.915111,560.970329 C675.947111,566.960329 675.214111,572.998329 673.983111,578.932329 C672.358111,586.764329 671.220111,594.664329 670.012111,602.558329 C668.539111,612.192329 667.038111,621.821329 665.556111,631.453329 C665.484111,631.925329 665.476111,632.407329 665.441111,632.884329 C665.386111,633.651329 665.913111,634.205329 666.541111,634.005329 C667.607111,633.665329 668.653111,633.264329 669.719111,632.930329 C676.731111,630.734329 683.748111,628.557329 690.756111,626.348329 C691.761111,626.031329 692.683111,626.059329 693.416111,626.817329 C696.080111,629.573329 698.965111,632.197329 700.661111,635.697329 C703.795111,642.169329 706.795111,648.711329 708.601111,655.715329 C709.758111,660.199329 710.943111,664.679329 711.983111,669.191329 C714.135111,678.530329 716.451111,687.842329 717.279111,697.431329 C717.320111,697.898329 718.392111,699.445329 718.392111,699.445329 Z" id="Fill-8" transform="translate(710.788068, 628.343127) rotate(22.000000) translate(-710.788068, -628.343127) "></path>
        </g>
    </g>
</svg>