<?xml version="1.0" encoding="UTF-8"?>
<svg width="588px" height="301px" viewBox="0 0 588 301" version="1.1" xmlns="http://www.w3.org/2000/svg" xmlns:xlink="http://www.w3.org/1999/xlink">
    <!-- Generator: Sketch 51.2 (57519) - http://www.bohemiancoding.com/sketch -->
    <title>Logo</title>
    <desc>Created with Sketch.</desc>
    <defs>
        <path d="M0,269.144708 C36.2700965,139.12311 48.3601286,55.6925846 36.2700965,18.8531317 C172.282958,-28.6047516 216.717031,24.9393214 209.308682,76.062635 C209.308682,128.071274 198.320856,122.858152 171.527331,147.574514 C229.710611,251.591793 250.265081,248.685637 221.398714,269.144708 C159.437299,277.596112 170.195653,189.831533 117.17722,189.831533 C80.85209,189.831533 85.3858521,187.88121 76.318328,197.632829 C73.2958199,209.334773 77.6940907,250.15463 57.4276527,269.144708 C45.4991687,280.321949 26.3566178,280.321949 0,269.144708 Z M91.4308682,66.3110151 C71.3878345,81.5654448 72.1623794,122.87041 77.829582,131.321814 C83.4967846,139.773218 140.546624,141.723542 151.125402,131.321814 C161.70418,120.920086 170.771704,91.0151188 160.192926,68.2613391 C139.790997,57.8596112 110.680439,51.6604772 91.4308682,66.3110151 Z" id="path-1"></path>
    </defs>
    <g id="Logo" stroke="none" stroke-width="1" fill="none" fill-rule="evenodd">
        <g>
            <ellipse id="mouthBG" fill="#1D53AE" cx="118" cy="120" rx="66" ry="65"></ellipse>
            <g id="letter/R">
                <g id="R">
                    <path d="M142.813505,32.5053996 C135.580663,19.0574845 123.067736,8.32761518 105.274725,0.315791568 C117.787652,21.7755302 117.787652,32.5053996 105.274725,32.5053996 L142.813505,32.5053996 Z" id="fin" fill="#F05200"></path>
                    <path d="M112.588424,34.4557235 C105.355582,21.0078085 92.8426558,10.2779392 75.0496449,2.26611554 C87.5625714,23.7258542 87.5625714,34.4557235 75.0496449,34.4557235 L112.588424,34.4557235 Z" id="fin-copy" fill="#F05200"></path>
                    <path d="M82.3633441,40.3066955 C75.1305019,26.8587804 62.6175754,16.1289111 44.8245645,8.11708746 C57.337491,29.5768261 57.337491,40.3066955 44.8245645,40.3066955 L82.3633441,40.3066955 Z" id="fin-copy-2" fill="#F05200"></path>
                    <path d="M59.6945338,46.1576674 C52.4616916,32.7097523 39.9487651,21.979883 22.1557542,13.9680594 C34.6686808,35.4277981 41.7211995,53.0921526 43.3133105,66.9611231 L59.6945338,46.1576674 Z" id="fin-copy-3" fill="#F05200"></path>
                    <g id="teeth" transform="translate(65.739550, 77.362851)" fill="#FFFFFF">
                        <ellipse id="tooth" cx="88.0305466" cy="14.9524838" rx="7.17845659" ry="7.8012959"></ellipse>
                        <ellipse id="tooth-copy" cx="72.9180064" cy="7.8012959" rx="7.17845659" ry="7.8012959"></ellipse>
                        <ellipse id="tooth-copy-2" cx="57.8054662" cy="7.8012959" rx="7.17845659" ry="7.8012959"></ellipse>
                        <ellipse id="tooth-copy-3" cx="42.692926" cy="7.8012959" rx="7.17845659" ry="7.8012959"></ellipse>
                        <ellipse id="tooth-copy-4" cx="27.5803859" cy="14.3023758" rx="7.17845659" ry="7.8012959"></ellipse>
                        <ellipse id="tooth-copy-5" transform="translate(17.757235, 26.004320) rotate(-16.000000) translate(-17.757235, -26.004320) " cx="17.7572347" cy="26.0043197" rx="7.17845659" ry="7.8012959"></ellipse>
                        <ellipse id="tooth-copy-6" transform="translate(12.467846, 42.907127) rotate(-32.000000) translate(-12.467846, -42.907127) " cx="12.4678457" cy="42.9071274" rx="7.17845659" ry="7.8012959"></ellipse>
                        <ellipse id="tooth-copy-7" transform="translate(11.712219, 59.159827) rotate(-60.000000) translate(-11.712219, -59.159827) " cx="11.7122186" cy="59.1598272" rx="7.17845659" ry="7.8012959"></ellipse>
                        <ellipse id="tooth-copy-8" transform="translate(14.734727, 75.412527) rotate(-96.000000) translate(-14.734727, -75.412527) " cx="14.7347267" cy="75.412527" rx="7.17845659" ry="7.8012959"></ellipse>
                        <ellipse id="tooth-copy-9" transform="translate(30.602894, 81.913607) rotate(-152.000000) translate(-30.602894, -81.913607) " cx="30.6028939" cy="81.9136069" rx="7.17845659" ry="7.8012959"></ellipse>
                        <ellipse id="tooth-copy-10" transform="translate(48.737942, 83.213823) rotate(-159.000000) translate(-48.737942, -83.213823) " cx="48.7379421" cy="83.2138229" rx="7.17845659" ry="7.8012959"></ellipse>
                        <ellipse id="tooth-copy-11" transform="translate(66.117363, 83.213823) rotate(-165.000000) translate(-66.117363, -83.213823) " cx="66.1173633" cy="83.2138229" rx="7.17845659" ry="7.8012959"></ellipse>
                        <ellipse id="tooth-copy-12" transform="translate(84.252412, 79.313175) rotate(-184.000000) translate(-84.252412, -79.313175) " cx="84.2524116" cy="79.3131749" rx="7.17845659" ry="7.8012959"></ellipse>
                        <ellipse id="tooth-copy-13" transform="translate(93.319936, 63.060475) rotate(-210.000000) translate(-93.319936, -63.060475) " cx="93.3199357" cy="63.0604752" rx="7.17845659" ry="7.8012959"></ellipse>
                        <ellipse id="tooth-copy-14" transform="translate(99.364952, 46.807775) rotate(-240.000000) translate(-99.364952, -46.807775) " cx="99.3649518" cy="46.8077754" rx="7.17845659" ry="7.8012959"></ellipse>
                        <ellipse id="tooth-copy-15" transform="translate(96.342444, 30.555076) rotate(-240.000000) translate(-96.342444, -30.555076) " cx="96.3424437" cy="30.5550756" rx="7.17845659" ry="7.8012959"></ellipse>
                    </g>
                    <g transform="translate(0.000000, 23.403888)">
                        <mask id="mask-2" fill="white">
                            <use xlink:href="#path-1"></use>
                        </mask>
                        <g id="Mask">
                            <use fill="#622875" xlink:href="#path-1"></use>
                            <use fill="#FFA513" xlink:href="#path-1"></use>
                        </g>
                        <rect id="toe" fill="#D82262" mask="url(#mask-2)" x="38.5147339" y="266.525139" width="15.1125402" height="18.2030238" rx="7.5562701"></rect>
                        <rect id="toe-copy" fill="#D82262" mask="url(#mask-2)" transform="translate(27.180329, 274.326435) rotate(24.000000) translate(-27.180329, -274.326435) " x="19.6240587" y="265.224923" width="15.1125402" height="18.2030238" rx="7.5562701"></rect>
                        <rect id="toe-copy-2" fill="#D82262" mask="url(#mask-2)" transform="translate(10.556535, 267.825355) rotate(45.000000) translate(-10.556535, -267.825355) " x="3.00026446" y="258.723843" width="15.1125402" height="18.2030238" rx="7.5562701"></rect>
                        <rect id="toe-copy-5" fill="#D82262" mask="url(#mask-2)" transform="translate(231.199621, 261.974383) scale(-1, 1) rotate(8.000000) translate(-231.199621, -261.974383) " x="223.643351" y="252.872871" width="15.1125402" height="18.2030238" rx="7.5562701"></rect>
                        <rect id="toe-copy-4" fill="#D82262" mask="url(#mask-2)" transform="translate(215.331454, 268.475463) scale(-1, 1) rotate(5.000000) translate(-215.331454, -268.475463) " x="207.775184" y="259.373951" width="15.1125402" height="18.2030238" rx="7.5562701"></rect>
                        <rect id="toe-copy-3" fill="#D82262" mask="url(#mask-2)" transform="translate(197.952033, 266.525139) scale(-1, 1) rotate(17.000000) translate(-197.952033, -266.525139) " x="190.395763" y="257.423627" width="15.1125402" height="18.2030238" rx="7.5562701"></rect>
                        <g id="spots" mask="url(#mask-2)" fill="#F05200">
                            <g transform="translate(21.913183, 39.006479)">
                                <ellipse id="spot" cx="180.972669" cy="56.5593952" rx="21.5353698" ry="17.5529158"></ellipse>
                                <ellipse id="spot-copy-4" cx="26.4469453" cy="53.9589633" rx="5.28938907" ry="6.50107991"></ellipse>
                                <ellipse id="spot-copy-5" cx="17.3794212" cy="13.0021598" rx="15.8681672" ry="13.0021598"></ellipse>
                                <ellipse id="spot-copy-6" cx="31.7363344" cy="104.342333" rx="5.28938907" ry="4.22570194"></ellipse>
                                <ellipse id="spot-copy-7" cx="91.0530547" cy="146.924406" rx="24.5578778" ry="19.5032397"></ellipse>
                                <ellipse id="spot-copy-8" cx="140.16881" cy="153.75054" rx="8.68971061" ry="6.82613391"></ellipse>
                                <ellipse id="spot-copy-9" cx="103.898714" cy="115.394168" rx="8.68971061" ry="6.82613391"></ellipse>
                                <ellipse id="spot-copy-10" cx="18.8906752" cy="161.87689" rx="9.82315113" ry="7.8012959"></ellipse>
                                <ellipse id="spot-copy-11" cx="14.3569132" cy="127.74622" rx="14.3569132" ry="11.3768898"></ellipse>
                                <ellipse id="spot-copy-12" cx="34.0032154" cy="207.384449" rx="21.1575563" ry="16.9028078"></ellipse>
                                <ellipse id="spot-copy-13" cx="188.528939" cy="201.533477" rx="7.17845659" ry="5.85097192"></ellipse>
                                <ellipse id="spot-copy-14" cx="180.972669" cy="166.427646" rx="7.17845659" ry="5.85097192"></ellipse>
                                <ellipse id="spot-copy-15" cx="162.081994" cy="190.806695" rx="11.7122186" ry="9.42656587"></ellipse>
                                <ellipse id="spot-copy" cx="166.993569" cy="13.0021598" rx="7.5562701" ry="6.50107991"></ellipse>
                                <ellipse id="spot-copy-2" cx="155.659164" cy="80.9384449" rx="11.3344051" ry="9.42656587"></ellipse>
                                <ellipse id="spot-copy-3" cx="160.192926" cy="116.694384" rx="15.8681672" ry="19.1781857"></ellipse>
                            </g>
                        </g>
                    </g>
                    <g id="eye" transform="translate(71.028939, 28.604752)">
                        <ellipse id="Oval" fill="#FFFFFF" cx="19.6463023" cy="29.042097" rx="19.6463023" ry="20.5906931"></ellipse>
                        <ellipse fill="#000000" cx="22.6688103" cy="35.1058315" rx="11.3344051" ry="13.0021598"></ellipse>
                        <path d="M4.53376206,1.95032397 C17.6312969,-2.3837293 29.9732047,1.30021598 41.5594855,13.0021598" id="brow" stroke="#000000" stroke-width="4" stroke-linecap="round"></path>
                    </g>
                    <g id="eye-copy" transform="translate(159.815113, 53.633909) scale(-1, 1) translate(-159.815113, -53.633909) translate(139.035370, 28.604752)">
                        <ellipse id="Oval" fill="#FFFFFF" cx="19.6463023" cy="29.042097" rx="19.6463023" ry="20.5906931"></ellipse>
                        <ellipse id="eye" fill="#000000" cx="22.6688103" cy="35.1058315" rx="11.3344051" ry="13.0021598"></ellipse>
                        <path d="M4.53376206,1.95032397 C17.6312969,-2.3837293 29.9732047,1.30021598 41.5594855,13.0021598" id="brow" stroke="#000000" stroke-width="4" stroke-linecap="round"></path>
                    </g>
                </g>
            </g>
            <path d="M284.546875,119.828125 L242.828125,119.828125 C242.880209,124.671899 243.856761,128.94269 245.757812,132.640625 C247.658864,136.33856 250.18488,139.124991 253.335938,141 C256.486995,142.875009 259.963523,143.8125 263.765625,143.8125 C266.317721,143.8125 268.648427,143.513024 270.757812,142.914062 C272.867198,142.315101 274.911448,141.377611 276.890625,140.101562 C278.869802,138.825514 280.6927,137.458341 282.359375,136 C284.02605,134.541659 286.187487,132.562512 288.84375,130.0625 C289.937505,129.124995 291.49999,128.65625 293.53125,128.65625 C295.718761,128.65625 297.489577,129.255202 298.84375,130.453125 C300.197923,131.651048 300.875,133.343739 300.875,135.53125 C300.875,137.458343 300.119799,139.710925 298.609375,142.289062 C297.098951,144.8672 294.820328,147.341134 291.773438,149.710938 C288.726547,152.080741 284.898461,154.046867 280.289062,155.609375 C275.679664,157.171883 270.380238,157.953125 264.390625,157.953125 C250.69264,157.953125 240.041705,154.046914 232.4375,146.234375 C224.833295,138.421836 221.03125,127.822984 221.03125,114.4375 C221.03125,108.135385 221.968741,102.289089 223.84375,96.8984375 C225.718759,91.5077855 228.453107,86.8854359 232.046875,83.03125 C235.640643,79.1770641 240.067682,76.2213645 245.328125,74.1640625 C250.588568,72.1067605 256.421843,71.078125 262.828125,71.078125 C271.1615,71.078125 278.309866,72.8359199 284.273438,76.3515625 C290.237009,79.8672051 294.70311,84.4114305 297.671875,89.984375 C300.64064,95.5573195 302.125,101.234346 302.125,107.015625 C302.125,112.380235 300.588557,115.856763 297.515625,117.445312 C294.442693,119.033862 290.11982,119.828125 284.546875,119.828125 Z M242.828125,107.71875 L281.5,107.71875 C280.979164,100.427047 279.013038,94.9713723 275.601562,91.3515625 C272.190087,87.7317527 267.697945,85.921875 262.125,85.921875 C256.812473,85.921875 252.450538,87.7577941 249.039062,91.4296875 C245.627587,95.1015809 243.557295,100.531214 242.828125,107.71875 Z M398.53125,86.859375 L398.53125,148.8125 C398.53125,155.895869 397.776049,161.989558 396.265625,167.09375 C394.755201,172.197942 392.33335,176.41665 389,179.75 C385.66665,183.08335 381.304714,185.557284 375.914062,187.171875 C370.523411,188.786466 363.817748,189.59375 355.796875,189.59375 C348.453088,189.59375 341.890654,188.565114 336.109375,186.507812 C330.328096,184.450511 325.875016,181.794287 322.75,178.539062 C319.624984,175.283838 318.0625,171.937517 318.0625,168.5 C318.0625,165.89582 318.947908,163.773446 320.71875,162.132812 C322.489592,160.492179 324.624987,159.671875 327.125,159.671875 C330.250016,159.671875 332.984363,161.05207 335.328125,163.8125 C336.473964,165.218757 337.658848,166.638014 338.882812,168.070312 C340.106777,169.502611 341.46093,170.726557 342.945312,171.742188 C344.429695,172.757818 346.213531,173.513018 348.296875,174.007812 C350.380219,174.502607 352.776028,174.75 355.484375,174.75 C361.005236,174.75 365.289047,173.981779 368.335938,172.445312 C371.382828,170.908846 373.518223,168.76043 374.742188,166 C375.966152,163.23957 376.682291,160.28387 376.890625,157.132812 C377.098959,153.981755 377.255208,148.916702 377.359375,141.9375 C374.078109,146.520856 370.289084,150.010405 365.992188,152.40625 C361.695291,154.802095 356.578155,156 350.640625,156 C343.505173,156 337.268256,154.177102 331.929688,150.53125 C326.591119,146.885398 322.489598,141.781283 319.625,135.21875 C316.760402,128.656217 315.328125,121.078168 315.328125,112.484375 C315.328125,106.078093 316.200512,100.296901 317.945312,95.140625 C319.690113,89.9843492 322.177067,85.6354344 325.40625,82.09375 C328.635433,78.5520656 332.359354,75.8828215 336.578125,74.0859375 C340.796896,72.2890535 345.432266,71.390625 350.484375,71.390625 C356.526072,71.390625 361.760395,72.5494676 366.1875,74.8671875 C370.614605,77.1849074 374.729148,80.8176836 378.53125,85.765625 L378.53125,82.875 C378.53125,79.1770648 379.442699,76.3125102 381.265625,74.28125 C383.088551,72.2499898 385.432277,71.234375 388.296875,71.234375 C392.411479,71.234375 395.145827,72.5755074 396.5,75.2578125 C397.854173,77.9401176 398.53125,81.8072664 398.53125,86.859375 Z M336.734375,113.890625 C336.734375,122.536502 338.622377,129.072895 342.398438,133.5 C346.174498,137.927105 351.057262,140.140625 357.046875,140.140625 C360.588559,140.140625 363.93488,139.190114 367.085938,137.289062 C370.236995,135.388011 372.802073,132.523457 374.78125,128.695312 C376.760427,124.867168 377.75,120.218777 377.75,114.75 C377.75,106.05204 375.835957,99.2812742 372.007812,94.4375 C368.179668,89.5937258 363.140656,87.171875 356.890625,87.171875 C350.796845,87.171875 345.914081,89.4895602 342.242188,94.125 C338.570294,98.7604398 336.734375,105.348916 336.734375,113.890625 Z M479.625,119.828125 L437.90625,119.828125 C437.958334,124.671899 438.934886,128.94269 440.835938,132.640625 C442.736989,136.33856 445.263005,139.124991 448.414062,141 C451.56512,142.875009 455.041648,143.8125 458.84375,143.8125 C461.395846,143.8125 463.726552,143.513024 465.835938,142.914062 C467.945323,142.315101 469.989573,141.377611 471.96875,140.101562 C473.947927,138.825514 475.770825,137.458341 477.4375,136 C479.104175,134.541659 481.265612,132.562512 483.921875,130.0625 C485.01563,129.124995 486.578115,128.65625 488.609375,128.65625 C490.796886,128.65625 492.567702,129.255202 493.921875,130.453125 C495.276048,131.651048 495.953125,133.343739 495.953125,135.53125 C495.953125,137.458343 495.197924,139.710925 493.6875,142.289062 C492.177076,144.8672 489.898453,147.341134 486.851562,149.710938 C483.804672,152.080741 479.976586,154.046867 475.367188,155.609375 C470.757789,157.171883 465.458363,157.953125 459.46875,157.953125 C445.770765,157.953125 435.11983,154.046914 427.515625,146.234375 C419.91142,138.421836 416.109375,127.822984 416.109375,114.4375 C416.109375,108.135385 417.046866,102.289089 418.921875,96.8984375 C420.796884,91.5077855 423.531232,86.8854359 427.125,83.03125 C430.718768,79.1770641 435.145807,76.2213645 440.40625,74.1640625 C445.666693,72.1067605 451.499968,71.078125 457.90625,71.078125 C466.239625,71.078125 473.387991,72.8359199 479.351562,76.3515625 C485.315134,79.8672051 489.781235,84.4114305 492.75,89.984375 C495.718765,95.5573195 497.203125,101.234346 497.203125,107.015625 C497.203125,112.380235 495.666682,115.856763 492.59375,117.445312 C489.520818,119.033862 485.197945,119.828125 479.625,119.828125 Z M437.90625,107.71875 L476.578125,107.71875 C476.057289,100.427047 474.091163,94.9713723 470.679688,91.3515625 C467.268212,87.7317527 462.77607,85.921875 457.203125,85.921875 C451.890598,85.921875 447.528663,87.7577941 444.117188,91.4296875 C440.705712,95.1015809 438.63542,100.531214 437.90625,107.71875 Z M561.421875,149.125 L545.953125,126.390625 L530.09375,149.125 C527.802072,152.302099 525.861987,154.567702 524.273438,155.921875 C522.684888,157.276048 520.666679,157.953125 518.21875,157.953125 C515.510403,157.953125 513.205739,157.106779 511.304688,155.414062 C509.403636,153.721346 508.453125,151.781261 508.453125,149.59375 C508.453125,147.354155 509.911444,144.151062 512.828125,139.984375 L532.125,112.328125 L515.015625,89.28125 C512.04686,85.4791477 510.5625,82.1718891 510.5625,79.359375 C510.5625,77.1718641 511.447908,75.2708414 513.21875,73.65625 C514.989592,72.0416586 517.307277,71.234375 520.171875,71.234375 C522.671887,71.234375 524.742179,71.937493 526.382812,73.34375 C528.023446,74.750007 529.937489,76.9635266 532.125,79.984375 L545.953125,98.890625 L559.390625,79.984375 C561.63022,76.8593594 563.570304,74.6197984 565.210938,73.265625 C566.851571,71.9114516 568.895821,71.234375 571.34375,71.234375 C574.156264,71.234375 576.48697,72.0286379 578.335938,73.6171875 C580.184905,75.2057371 581.109375,77.1197805 581.109375,79.359375 C581.109375,80.9739664 580.731775,82.5234301 579.976562,84.0078125 C579.22135,85.4921949 578.062508,87.2499898 576.5,89.28125 L559.390625,112.328125 L578.6875,139.984375 C581.708348,144.307313 583.21875,147.562489 583.21875,149.75 C583.21875,151.989595 582.281259,153.916659 580.40625,155.53125 C578.531241,157.145841 576.213555,157.953125 573.453125,157.953125 C571.005196,157.953125 568.934904,157.250007 567.242188,155.84375 C565.549471,154.437493 563.609386,152.197932 561.421875,149.125 Z" id="egex" fill="#1D53AE"></path>
            <path d="M243.789062,195.626953 L244.902344,195.626953 L244.902344,189.541016 C244.902344,187.908195 244.945638,186.627934 245.032227,185.700195 C245.118816,184.772456 245.360024,183.974613 245.755859,183.306641 C246.151695,182.613929 246.720699,182.051109 247.462891,181.618164 C248.205082,181.185219 249.03385,180.96875 249.949219,180.96875 C251.235684,180.96875 252.398432,181.451167 253.4375,182.416016 C254.130212,183.059248 254.569335,183.844722 254.754883,184.772461 C254.940431,185.7002 255.033203,187.01757 255.033203,188.724609 L255.033203,195.626953 L258.744141,195.626953 C260.179044,195.626953 261.273759,195.967119 262.02832,196.647461 C262.782881,197.327803 263.160156,198.199864 263.160156,199.263672 C263.160156,200.624356 262.622076,201.57682 261.545898,202.121094 C260.469721,202.665367 258.929698,202.9375 256.925781,202.9375 L255.033203,202.9375 L255.033203,221.566406 C255.033203,223.149747 255.088867,224.36816 255.200195,225.22168 C255.311524,226.0752 255.608396,226.767901 256.09082,227.299805 C256.573245,227.831708 257.358719,228.097656 258.447266,228.097656 C259.041019,228.097656 259.845047,227.992514 260.859375,227.782227 C261.873703,227.571939 262.665362,227.466797 263.234375,227.466797 C264.050785,227.466797 264.786781,227.794593 265.442383,228.450195 C266.097985,229.105798 266.425781,229.916011 266.425781,230.880859 C266.425781,232.51368 265.535165,233.763017 263.753906,234.628906 C261.972647,235.494796 259.412126,235.927734 256.072266,235.927734 C252.905583,235.927734 250.505868,235.395839 248.873047,234.332031 C247.240226,233.268224 246.17025,231.796233 245.663086,229.916016 C245.155922,228.035798 244.902344,225.524755 244.902344,222.382812 L244.902344,202.9375 L243.566406,202.9375 C242.106764,202.9375 240.993493,202.591149 240.226562,201.898438 C239.459632,201.205726 239.076172,200.327479 239.076172,199.263672 C239.076172,198.199864 239.478186,197.327803 240.282227,196.647461 C241.086267,195.967119 242.255201,195.626953 243.789062,195.626953 Z M280.044922,185.830078 L280.044922,200.859375 C281.331387,199.374993 282.586908,198.199874 283.811523,197.333984 C285.036139,196.468095 286.390618,195.818687 287.875,195.385742 C289.359382,194.952797 290.95507,194.736328 292.662109,194.736328 C295.235039,194.736328 297.517243,195.280594 299.508789,196.369141 C301.500335,197.457688 303.065098,199.041005 304.203125,201.119141 C304.920577,202.331386 305.402994,203.685865 305.650391,205.182617 C305.897788,206.679369 306.021484,208.404938 306.021484,210.359375 L306.021484,229.767578 C306.021484,231.796234 305.557622,233.330073 304.629883,234.369141 C303.702144,235.408208 302.471362,235.927734 300.9375,235.927734 C297.59764,235.927734 295.927734,233.874369 295.927734,229.767578 L295.927734,212.660156 C295.927734,209.419255 295.445317,206.926767 294.480469,205.182617 C293.51562,203.438468 291.684909,202.566406 288.988281,202.566406 C287.182283,202.566406 285.555671,203.079747 284.108398,204.106445 C282.661126,205.133143 281.57878,206.5371 280.861328,208.318359 C280.317055,209.827482 280.044922,212.511699 280.044922,216.371094 L280.044922,229.767578 C280.044922,231.771494 279.593429,233.299148 278.69043,234.350586 C277.78743,235.402023 276.531909,235.927734 274.923828,235.927734 C271.583968,235.927734 269.914062,233.874369 269.914062,229.767578 L269.914062,185.830078 C269.914062,183.776682 270.353186,182.236659 271.231445,181.209961 C272.109705,180.183263 273.340487,179.669922 274.923828,179.669922 C276.531909,179.669922 277.78743,180.189448 278.69043,181.228516 C279.593429,182.267583 280.044922,183.801422 280.044922,185.830078 Z M344.318359,217.818359 L324.501953,217.818359 C324.526693,220.119152 324.990555,222.147778 325.893555,223.904297 C326.796554,225.660816 327.996412,226.984371 329.493164,227.875 C330.989916,228.765629 332.641267,229.210938 334.447266,229.210938 C335.659511,229.210938 336.766597,229.068686 337.768555,228.78418 C338.770513,228.499673 339.741532,228.054365 340.681641,227.448242 C341.621749,226.842119 342.487626,226.192712 343.279297,225.5 C344.070967,224.807288 345.09765,223.867193 346.359375,222.679688 C346.878909,222.234373 347.621089,222.011719 348.585938,222.011719 C349.625005,222.011719 350.466143,222.296221 351.109375,222.865234 C351.752607,223.434248 352.074219,224.238276 352.074219,225.277344 C352.074219,226.192713 351.715498,227.262689 350.998047,228.487305 C350.280595,229.71192 349.198249,230.887039 347.750977,232.012695 C346.303704,233.138352 344.485363,234.072262 342.295898,234.814453 C340.106434,235.556644 337.589207,235.927734 334.744141,235.927734 C328.237598,235.927734 323.178403,234.072284 319.566406,230.361328 C315.954409,226.650372 314.148438,221.615917 314.148438,215.257812 C314.148438,212.264308 314.593746,209.487317 315.484375,206.926758 C316.375004,204.366198 317.67382,202.170582 319.380859,200.339844 C321.087899,198.509105 323.190743,197.105148 325.689453,196.12793 C328.188164,195.150711 330.958969,194.662109 334.001953,194.662109 C337.960306,194.662109 341.35578,195.497062 344.188477,197.166992 C347.021173,198.836922 349.142571,200.995429 350.552734,203.642578 C351.962898,206.289727 352.667969,208.986314 352.667969,211.732422 C352.667969,214.280612 351.938158,215.931962 350.478516,216.686523 C349.018873,217.441085 346.965508,217.818359 344.318359,217.818359 Z M324.501953,212.066406 L342.871094,212.066406 C342.623697,208.602847 341.689787,206.011402 340.069336,204.291992 C338.448885,202.572583 336.315117,201.712891 333.667969,201.712891 C331.144519,201.712891 329.072599,202.584952 327.452148,204.329102 C325.831698,206.073251 324.848309,208.652327 324.501953,212.066406 Z M417.460938,202.158203 L417.460938,231.585938 C417.460938,234.950538 417.102217,237.84504 416.384766,240.269531 C415.667314,242.694023 414.516935,244.697909 412.933594,246.28125 C411.350253,247.864591 409.278333,249.03971 406.717773,249.806641 C404.157214,250.573572 400.972024,250.957031 397.162109,250.957031 C393.673811,250.957031 390.556654,250.468429 387.810547,249.491211 C385.064439,248.513993 382.949226,247.252286 381.464844,245.706055 C379.980461,244.159823 379.238281,242.570321 379.238281,240.9375 C379.238281,239.700515 379.65885,238.692387 380.5,237.913086 C381.34115,237.133785 382.355463,236.744141 383.542969,236.744141 C385.027351,236.744141 386.326166,237.399733 387.439453,238.710938 C387.983727,239.37891 388.546547,240.053056 389.12793,240.733398 C389.709313,241.41374 390.352536,241.995115 391.057617,242.477539 C391.762699,242.959963 392.610021,243.318684 393.599609,243.553711 C394.589198,243.788738 395.727207,243.90625 397.013672,243.90625 C399.636081,243.90625 401.670891,243.541345 403.118164,242.811523 C404.565437,242.081702 405.57975,241.061204 406.161133,239.75 C406.742516,238.438796 407.082682,237.034838 407.181641,235.538086 C407.280599,234.041334 407.354817,231.635433 407.404297,228.320312 C405.845695,230.497407 404.045909,232.154942 402.004883,233.292969 C399.963857,234.430995 397.533217,235 394.712891,235 C391.323551,235 388.361015,234.134123 385.825195,232.402344 C383.289375,230.670564 381.341153,228.246109 379.980469,225.128906 C378.619785,222.011703 377.939453,218.41213 377.939453,214.330078 C377.939453,211.287094 378.353837,208.541028 379.182617,206.091797 C380.011397,203.642566 381.192701,201.576831 382.726562,199.894531 C384.260424,198.212231 386.029287,196.94434 388.033203,196.09082 C390.037119,195.2373 392.23892,194.810547 394.638672,194.810547 C397.508478,194.810547 399.994781,195.360997 402.097656,196.461914 C404.200531,197.562831 406.154939,199.2884 407.960938,201.638672 L407.960938,200.265625 C407.960938,198.509106 408.393876,197.148442 409.259766,196.183594 C410.125655,195.218745 411.238925,194.736328 412.599609,194.736328 C414.554046,194.736328 415.852861,195.373366 416.496094,196.647461 C417.139326,197.921556 417.460938,199.758452 417.460938,202.158203 Z M388.107422,214.998047 C388.107422,219.104838 389.004223,222.209625 390.797852,224.3125 C392.59148,226.415375 394.910793,227.466797 397.755859,227.466797 C399.438159,227.466797 401.027662,227.015304 402.524414,226.112305 C404.021166,225.209305 405.239579,223.848642 406.179688,222.030273 C407.119796,220.211905 407.589844,218.003919 407.589844,215.40625 C407.589844,211.274719 406.680673,208.058605 404.862305,205.757812 C403.043936,203.45702 400.650405,202.306641 397.681641,202.306641 C394.787095,202.306641 392.467782,203.407541 390.723633,205.609375 C388.979483,207.811209 388.107422,210.940735 388.107422,214.998047 Z M453.308594,230.212891 C450.859363,232.117848 448.490571,233.546545 446.202148,234.499023 C443.913726,235.451502 441.347019,235.927734 438.501953,235.927734 C435.904284,235.927734 433.62208,235.414393 431.655273,234.387695 C429.688467,233.360997 428.173182,231.96941 427.109375,230.212891 C426.045568,228.456371 425.513672,226.551443 425.513672,224.498047 C425.513672,221.7272 426.391918,219.364593 428.148438,217.410156 C429.904957,215.455719 432.317042,214.144535 435.384766,213.476562 C436.027998,213.328124 437.623685,212.994143 440.171875,212.474609 C442.720065,211.955076 444.903311,211.478843 446.72168,211.045898 C448.540048,210.612954 450.51301,210.087243 452.640625,209.46875 C452.516926,206.796862 451.978846,204.836269 451.026367,203.586914 C450.073888,202.337559 448.100926,201.712891 445.107422,201.712891 C442.534492,201.712891 440.598639,202.071611 439.299805,202.789062 C438.00097,203.506514 436.8877,204.582675 435.959961,206.017578 C435.032222,207.452481 434.37663,208.398761 433.993164,208.856445 C433.609699,209.31413 432.787116,209.542969 431.525391,209.542969 C430.387364,209.542969 429.403975,209.178064 428.575195,208.448242 C427.746415,207.718421 427.332031,206.784511 427.332031,205.646484 C427.332031,203.865225 427.962884,202.133472 429.224609,200.451172 C430.486334,198.768872 432.453112,197.383469 435.125,196.294922 C437.796888,195.206375 441.124329,194.662109 445.107422,194.662109 C449.560569,194.662109 453.061185,195.18782 455.609375,196.239258 C458.157565,197.290695 459.957352,198.954416 461.008789,201.230469 C462.060227,203.506522 462.585938,206.524721 462.585938,210.285156 C462.585938,212.660168 462.579753,214.676424 462.567383,216.333984 C462.555013,217.991545 462.536458,219.834625 462.511719,221.863281 C462.511719,223.768239 462.827145,225.75357 463.458008,227.819336 C464.08887,229.885101 464.404297,231.214841 464.404297,231.808594 C464.404297,232.847661 463.915695,233.793941 462.938477,234.647461 C461.961258,235.500981 460.854173,235.927734 459.617188,235.927734 C458.57812,235.927734 457.551437,235.439132 456.537109,234.461914 C455.522781,233.484696 454.44662,232.068369 453.308594,230.212891 Z M452.640625,215.554688 C451.156243,216.098961 448.997736,216.674151 446.165039,217.280273 C443.332343,217.886396 441.37175,218.331704 440.283203,218.616211 C439.194656,218.900718 438.155604,219.457353 437.166016,220.286133 C436.176427,221.114913 435.681641,222.271477 435.681641,223.755859 C435.681641,225.289721 436.263015,226.594721 437.425781,227.670898 C438.588547,228.747076 440.110017,229.285156 441.990234,229.285156 C443.994151,229.285156 445.843416,228.846033 447.538086,227.967773 C449.232756,227.089514 450.475908,225.957689 451.267578,224.572266 C452.182947,223.038404 452.640625,220.514992 452.640625,217.001953 L452.640625,215.554688 Z M506.560547,216.074219 L506.560547,229.544922 C506.560547,231.672537 506.07813,233.268224 505.113281,234.332031 C504.148433,235.395839 502.874357,235.927734 501.291016,235.927734 C499.757154,235.927734 498.514002,235.395839 497.561523,234.332031 C496.609045,233.268224 496.132812,231.672537 496.132812,229.544922 L496.132812,213.402344 C496.132812,210.854154 496.046225,208.875007 495.873047,207.464844 C495.699869,206.05468 495.229822,204.898116 494.462891,203.995117 C493.69596,203.092118 492.483732,202.640625 490.826172,202.640625 C487.511051,202.640625 485.327805,203.778634 484.276367,206.054688 C483.22493,208.330741 482.699219,211.596333 482.699219,215.851562 L482.699219,229.544922 C482.699219,231.647797 482.222987,233.237299 481.270508,234.313477 C480.318029,235.389654 479.062508,235.927734 477.503906,235.927734 C475.970044,235.927734 474.714523,235.389654 473.737305,234.313477 C472.760086,233.237299 472.271484,231.647797 472.271484,229.544922 L472.271484,200.5625 C472.271484,198.657543 472.710608,197.210291 473.588867,196.220703 C474.467127,195.231115 475.623691,194.736328 477.058594,194.736328 C478.444017,194.736328 479.600581,195.200191 480.52832,196.12793 C481.456059,197.055669 481.919922,198.335929 481.919922,199.96875 L481.919922,200.933594 C483.676441,198.830719 485.556631,197.28451 487.560547,196.294922 C489.564463,195.305334 491.791003,194.810547 494.240234,194.810547 C496.788424,194.810547 498.977855,195.317703 500.808594,196.332031 C502.639332,197.346359 504.148432,198.880198 505.335938,200.933594 C507.042977,198.855458 508.873688,197.315435 510.828125,196.313477 C512.782562,195.311518 514.947254,194.810547 517.322266,194.810547 C520.093113,194.810547 522.480459,195.354812 524.484375,196.443359 C526.488291,197.531906 527.985021,199.090485 528.974609,201.119141 C529.840499,202.949879 530.273438,205.832012 530.273438,209.765625 L530.273438,229.544922 C530.273438,231.672537 529.79102,233.268224 528.826172,234.332031 C527.861323,235.395839 526.587247,235.927734 525.003906,235.927734 C523.470044,235.927734 522.214523,235.389654 521.237305,234.313477 C520.260086,233.237299 519.771484,231.647797 519.771484,229.544922 L519.771484,212.511719 C519.771484,210.334625 519.678712,208.590501 519.493164,207.279297 C519.307616,205.968092 518.806645,204.867192 517.990234,203.976562 C517.173824,203.085933 515.936857,202.640625 514.279297,202.640625 C512.943353,202.640625 511.675462,203.036454 510.475586,203.828125 C509.27571,204.619796 508.3418,205.683587 507.673828,207.019531 C506.931637,208.726571 506.560547,211.74477 506.560547,216.074219 Z M568.384766,217.818359 L548.568359,217.818359 C548.593099,220.119152 549.056962,222.147778 549.959961,223.904297 C550.86296,225.660816 552.062818,226.984371 553.55957,227.875 C555.056323,228.765629 556.707673,229.210938 558.513672,229.210938 C559.725918,229.210938 560.833003,229.068686 561.834961,228.78418 C562.836919,228.499673 563.807938,228.054365 564.748047,227.448242 C565.688156,226.842119 566.554032,226.192712 567.345703,225.5 C568.137374,224.807288 569.164056,223.867193 570.425781,222.679688 C570.945315,222.234373 571.687495,222.011719 572.652344,222.011719 C573.691411,222.011719 574.532549,222.296221 575.175781,222.865234 C575.819014,223.434248 576.140625,224.238276 576.140625,225.277344 C576.140625,226.192713 575.781905,227.262689 575.064453,228.487305 C574.347002,229.71192 573.264656,230.887039 571.817383,232.012695 C570.37011,233.138352 568.551769,234.072262 566.362305,234.814453 C564.172841,235.556644 561.655613,235.927734 558.810547,235.927734 C552.304004,235.927734 547.24481,234.072284 543.632812,230.361328 C540.020815,226.650372 538.214844,221.615917 538.214844,215.257812 C538.214844,212.264308 538.660152,209.487317 539.550781,206.926758 C540.441411,204.366198 541.740226,202.170582 543.447266,200.339844 C545.154305,198.509105 547.257149,197.105148 549.755859,196.12793 C552.25457,195.150711 555.025375,194.662109 558.068359,194.662109 C562.026713,194.662109 565.422186,195.497062 568.254883,197.166992 C571.087579,198.836922 573.208977,200.995429 574.619141,203.642578 C576.029304,206.289727 576.734375,208.986314 576.734375,211.732422 C576.734375,214.280612 576.004565,215.931962 574.544922,216.686523 C573.085279,217.441085 571.031914,217.818359 568.384766,217.818359 Z M548.568359,212.066406 L566.9375,212.066406 C566.690103,208.602847 565.756193,206.011402 564.135742,204.291992 C562.515291,202.572583 560.381524,201.712891 557.734375,201.712891 C555.210925,201.712891 553.139005,202.584952 551.518555,204.329102 C549.898104,206.073251 548.914715,208.652327 548.568359,212.066406 Z" id="the-game" fill="#D82262"></path>
        </g>
    </g>
</svg>