<?xml version="1.0" encoding="UTF-8"?>
<svg width="484px" height="484px" viewBox="0 0 484 484" version="1.1" xmlns="http://www.w3.org/2000/svg" xmlns:xlink="http://www.w3.org/1999/xlink">
    <!-- Generator: Sketch 51.1 (57501) - http://www.bohemiancoding.com/sketch -->
    <title>messageHead</title>
    <desc>Created with Sketch.</desc>
    <defs>
        <path d="M124.556287,24.8520181 C124.556287,24.8520181 158.68965,13.5658881 174.130935,24.852018 C195.120572,13.565888 235.288604,15.1575502 225.013234,15.3257176 C214.737864,15.4938849 258.270141,-16.4245434 288.26668,14.3846975 C318.263218,45.1939384 300.912001,79.4495131 300.912001,79.4495131 C300.912001,79.4495131 305.17715,103.677719 273.249684,132.568262 C257.197339,169.261942 238.444157,169.785318 207.934331,169.785314 C207.934331,169.785314 183.49836,181.537981 137.541142,181.537973 C91.5839238,181.537965 34.8660766,153.735103 34.8660766,153.735103 C34.8660766,153.735103 -26.2611729,86.4896309 15.6875449,36.8966501 C46.7395031,1.50283957 124.556287,24.8520181 124.556287,24.8520181 Z" id="path-1"></path>
        <path d="M241.397701,140.193264 C241.397701,140.193264 257.591985,167.003216 223.437163,177.445017 C189.282341,187.886817 165.756177,176.028259 165.756177,176.028259" id="path-2"></path>
        <path d="M180.895101,149.073941 C180.895101,149.073941 194.795197,175.883893 165.478971,186.325694 C136.162745,196.767495 115.969452,184.908936 115.969452,184.908936" id="path-3"></path>
        <path d="M130.47143,153.080163 C130.47143,153.080163 133.078016,182.178451 101.25539,184.144519 C69.4327639,186.110588 55,169.451789 55,169.451789" id="path-4"></path>
    </defs>
    <g id="gregor-avatar-steven" stroke="none" stroke-width="1" fill="none" fill-rule="evenodd">
        <g id="Artboard" transform="translate(-5138.000000, -1147.000000)">
            <g id="Gregor-2018-Work-Copy" transform="translate(4780.000000, 907.000000)">
                <g id="messageHead" transform="translate(373.000000, 255.000000)">
                    <circle id="Oval" stroke="#979797" stroke-width="30" fill="#D82262" cx="227" cy="227" r="227"></circle>
                    <g id="Head-Copy" transform="translate(34.000000, 32.000000)">
                        <path d="M323.041417,184.652476 C338.338777,197.758711 363.221693,222.419584 367.641679,247.340724 C374.106205,283.78957 332.792011,356.267862 269.23266,367.987451 C217.700987,379.955731 148.687739,375.221871 113.174212,354.215342 C77.3341021,334.755472 70.4556804,328.227488 51.4144646,289.369675 C36.6239066,262.642923 53.6286914,258.128717 53.6286914,258.128717 C53.6286914,258.128717 15.3583223,211.513248 39.9117187,93.9609814 C61.3260686,24.2913379 109.604831,19.8103618 133.643084,12.6464878 C204.679401,-10.9541486 271.682317,3.99529253 292.132092,27.5596292 C317.156147,54.0303268 322.396372,82.6140766 322.396372,82.6140766 C342.475971,133.272144 315.965358,178.58996 323.041417,184.652476 Z" id="Path-5" stroke="#000000" stroke-width="4" fill="#975720"></path>
                        <g id="eye" transform="translate(115.000000, 103.000000)">
                            <ellipse id="eye-frame" stroke="#000000" stroke-width="4" fill="#FFFFFF" cx="34" cy="47.5" rx="34" ry="47.5"></ellipse>
                            <ellipse id="pupil" fill="#000000" cx="38.5" cy="50.0172414" rx="13.5" ry="22.8103448"></ellipse>
                        </g>
                        <g id="eye-copy" transform="translate(227.000000, 103.000000)">
                            <ellipse id="eye-frame" stroke="#000000" stroke-width="4" fill="#FFFFFF" cx="34" cy="47.5" rx="34" ry="47.5"></ellipse>
                            <ellipse id="pupil" fill="#000000" cx="32.5" cy="50.0172414" rx="13.5" ry="22.8103448"></ellipse>
                        </g>
                        <g id="nose" transform="translate(211.000000, 162.000000)" stroke="#000000" stroke-linecap="round">
                            <path d="M10.0440357,0.742203207 C10.0440357,0.742203207 25.0367604,2.19497927 30.1555723,12.7136512 C35.2743843,23.2323231 27.6695285,41.2318598 27.6695285,41.2318598" stroke-width="4" fill="#975720"></path>
                            <path d="M5.39907233,23.3106484 C5.39907233,23.3106484 5.00229722,37.2887043 0.925020041,45.9495596" id="nostril" stroke-width="3"></path>
                            <path d="M18.3990723,23.3106484 C18.3990723,23.3106484 18.0022972,37.2887043 13.92502,45.9495596" id="nostril" stroke-width="3"></path>
                        </g>
                        <g id="beard" transform="translate(66.000000, 194.000000)">
                            <g>
                                <use fill="#2C190B" xlink:href="#path-1"></use>
                                <use stroke="#000000" stroke-width="4" fill="#4D3224" xlink:href="#path-1"></use>
                            </g>
                            <g id="Path-11" transform="translate(205.495190, 160.969125) rotate(9.000000) translate(-205.495190, -160.969125) ">
                                <use fill="#2C190B" xlink:href="#path-2"></use>
                                <use stroke="#000000" stroke-width="4" fill="#4D3224" xlink:href="#path-2"></use>
                            </g>
                            <g id="Path-11-Copy" transform="translate(150.078776, 169.849803) rotate(9.000000) translate(-150.078776, -169.849803) ">
                                <use fill="#2C190B" xlink:href="#path-3"></use>
                                <use stroke="#000000" stroke-width="4" fill="#4D3224" xlink:href="#path-3"></use>
                            </g>
                            <g id="Path-11-Copy-2" transform="translate(92.761538, 168.692980) rotate(9.000000) translate(-92.761538, -168.692980) ">
                                <use fill="#2C190B" xlink:href="#path-4"></use>
                                <use stroke="#000000" stroke-width="4" fill="#4D3224" xlink:href="#path-4"></use>
                            </g>
                        </g>
                        <g id="mouth" transform="translate(97.000000, 231.000000)" stroke="#000000">
                            <path d="M58.0202484,2.39628293 C128.104358,11.0564563 100.453873,11.8151826 128.048981,11.8151827 C173.062286,8.58762741 198.868455,-11.8222873 224.021027,11.8151827 C234.082993,22.3507633 231.963934,56.1452125 202.698495,75.1301128 C176.210331,90.2385769 156.577523,98.564645 133.162831,102.269398 C124.943822,102.269394 66.4455196,102.269395 48.1505057,90.4968798 C31.5665123,80.767625 -5.67454932,65.843095 1,29.8575342 C18.4109383,-13.7578352 58.0202484,5.39628293 58.0202484,2.39628293 Z" id="smile" stroke-width="4" fill="#FFFFFF"></path>
                            <path d="M191.616689,82.2076079 C191.616689,82.2076079 196.210573,51.6209583 191.246598,2.27382462" id="Path-2" stroke-width="3"></path>
                            <path d="M49.3468115,91.8980083 C49.3468115,91.8980083 54.3107864,52.6209583 49.3468115,3.27382462" id="Path-2-Copy-2" stroke-width="3" transform="translate(50.449917, 47.585916) scale(-1, 1) translate(-50.449917, -47.585916) "></path>
                            <path d="M122.246598,102.272444 C122.246598,102.272444 131.37392,43.7544383 122.246598,13.2738246" id="Path-2-Copy" stroke-width="3"></path>
                        </g>
                        <path d="M117.266608,92.6353615 C117.266608,92.6353615 136.062085,68.0179955 171.10795,68.0179955" id="Path-3" stroke="#000000" stroke-width="30" stroke-linecap="round" transform="translate(144.187279, 80.326679) rotate(9.000000) translate(-144.187279, -80.326679) "></path>
                        <path d="M244.266608,92.6353615 C244.266608,92.6353615 263.062085,68.0179955 298.10795,68.0179955" id="Path-3-Copy" stroke="#000000" stroke-width="30" stroke-linecap="round" transform="translate(271.187279, 80.326679) scale(-1, 1) rotate(9.000000) translate(-271.187279, -80.326679) "></path>
                        <path d="M59.6531119,258.115799 C61.1447646,261.489272 54.7526031,266.070251 48.7675729,269.005788 C32.0813374,281.387642 0.363175937,261.956793 0.363175879,222.993774 C0.363175937,172.416991 52.7442732,193.467569 52.7442732,193.467569" id="Path-6" stroke="#000000" stroke-width="4" fill="#975720" stroke-linecap="round"></path>
                    </g>
                </g>
            </g>
        </g>
    </g>
</svg>