<?xml version="1.0" encoding="UTF-8"?>
<svg width="250px" height="405px" viewBox="0 0 250 405" version="1.1" xmlns="http://www.w3.org/2000/svg" xmlns:xlink="http://www.w3.org/1999/xlink">
    <!-- Generator: Sketch 51.1 (57501) - http://www.bohemiancoding.com/sketch -->
    <title>4</title>
    <desc>Created with Sketch.</desc>
    <defs>
        <path d="M7,23 C-5,65 1.5,79 5,134 C7.33333333,170.666667 46.3333333,183 122,171 C117.333333,259 117.333333,309.666667 122,323 C129,343 164,360 185,332 C185,220 193,220 185,171 C237,180 250,163 250,142 C250,114 222,114 192,114 C192,85 205,31 192,14 C179,-3 145,-7 132.622256,32 C120.244513,71 127.678863,97 127.678863,114 C96,122 90,134 59,114 C43,75 71,28 59,14 C47,4.52748949e-13 12,-10 7,23 Z" id="path-1"></path>
    </defs>
    <g id="Symbols" stroke="none" stroke-width="1" fill="none" fill-rule="evenodd">
        <g id="number/4">
            <g id="4">
                <g id="leg" transform="translate(158.000000, 325.000000)">
                    <path d="M16,0 C16,36 20.3333333,60 29,72" id="Path-3" stroke="#3A3A3A" stroke-width="4"></path>
                    <ellipse id="Oval-3" fill="#3A3A3A" cx="17.5" cy="72.5" rx="17.5" ry="7.5"></ellipse>
                </g>
                <g id="leg" transform="translate(124.000000, 309.000000)">
                    <path d="M20,0 C20,36 24.3333333,60 33,72" id="Path-3" stroke="#3A3A3A" stroke-width="4"></path>
                    <ellipse id="Oval-3" fill="#3A3A3A" cx="17.5" cy="72.5" rx="17.5" ry="7.5"></ellipse>
                </g>
                <g id="fin-+-fin-copy-+-fin-copy-2-+-fin-copy-3-Mask">
                    <mask id="mask-2" fill="white">
                        <use xlink:href="#path-1"></use>
                    </mask>
                    <g id="Mask">
                        <use fill="#74CAE0" xlink:href="#path-1"></use>
                        <use fill="#FFA513" xlink:href="#path-1"></use>
                    </g>
                    <path d="M112.678981,196.514248 C103.107006,175.828584 86.5473463,159.323835 63,147 C79.5596602,180.009498 79.5596602,196.514248 63,196.514248 L112.678981,196.514248 Z" id="fin" fill="#F05200" mask="url(#mask-2)" transform="translate(87.839490, 171.757124) rotate(38.000000) translate(-87.839490, -171.757124) "></path>
                    <path d="M252.678981,196.514248 C243.107006,175.828584 226.547346,159.323835 203,147 C219.55966,180.009498 219.55966,196.514248 203,196.514248 L252.678981,196.514248 Z" id="fin-copy-10" fill="#F05200" mask="url(#mask-2)" transform="translate(227.839490, 171.757124) rotate(38.000000) translate(-227.839490, -171.757124) "></path>
                    <path d="M67.6789805,194.514248 C58.1070065,173.828584 41.5473463,157.323835 18,145 C34.5596602,178.009498 34.5596602,194.514248 18,194.514248 L67.6789805,194.514248 Z" id="fin-copy" fill="#F05200" mask="url(#mask-2)" transform="translate(42.839490, 169.757124) rotate(59.000000) translate(-42.839490, -169.757124) "></path>
                    <path d="M32.6789805,165.514248 C23.1070065,144.828584 6.5473463,128.323835 -17,116 C-0.440339817,149.009498 -0.440339817,165.514248 -17,165.514248 L32.6789805,165.514248 Z" id="fin-copy-2" fill="#F05200" mask="url(#mask-2)" transform="translate(7.839490, 140.757124) rotate(105.000000) translate(-7.839490, -140.757124) "></path>
                    <path d="M22.6789805,104.514248 C13.1070065,83.8285842 -3.4526537,67.323835 -27,55 C-10.4403398,88.0094983 -1.10700648,115.180914 1,136.514248 L22.6789805,104.514248 Z" id="fin-copy-3" fill="#F05200" mask="url(#mask-2)" transform="translate(-2.160510, 95.757124) rotate(105.000000) translate(2.160510, -95.757124) "></path>
                    <path d="M152.678981,346.514248 C143.107006,325.828584 126.547346,309.323835 103,297 C119.55966,330.009498 119.55966,346.514248 103,346.514248 L152.678981,346.514248 Z" id="fin-copy-7" fill="#F05200" mask="url(#mask-2)" transform="translate(127.839490, 321.757124) rotate(102.000000) translate(-127.839490, -321.757124) "></path>
                    <path d="M157.678981,304.514248 C148.107006,283.828584 131.547346,267.323835 108,255 C124.55966,288.009498 124.55966,304.514248 108,304.514248 L157.678981,304.514248 Z" id="fin-copy-6" fill="#F05200" mask="url(#mask-2)" transform="translate(132.839490, 279.757124) rotate(102.000000) translate(-132.839490, -279.757124) "></path>
                    <path d="M152.678981,265.514248 C143.107006,244.828584 126.547346,228.323835 103,216 C119.55966,249.009498 119.55966,265.514248 103,265.514248 L152.678981,265.514248 Z" id="fin-copy-5" fill="#F05200" mask="url(#mask-2)" transform="translate(127.839490, 240.757124) rotate(102.000000) translate(-127.839490, -240.757124) "></path>
                    <path d="M142.678981,204.514248 C133.107006,183.828584 116.547346,167.323835 93,155 C109.55966,188.009498 118.892994,215.180914 121,236.514248 L142.678981,204.514248 Z" id="fin-copy-4" fill="#F05200" mask="url(#mask-2)" transform="translate(117.839490, 195.757124) rotate(102.000000) translate(-117.839490, -195.757124) "></path>
                    <path d="M162.678981,115.514248 C153.107006,94.8285842 136.547346,78.323835 113,66 C129.55966,99.0094983 129.55966,115.514248 113,115.514248 L162.678981,115.514248 Z" id="fin-copy-9" fill="#F05200" mask="url(#mask-2)" transform="translate(137.839490, 90.757124) rotate(102.000000) translate(-137.839490, -90.757124) "></path>
                    <path d="M152.678981,54.5142475 C143.107006,33.8285842 126.547346,17.323835 103,5 C119.55966,38.0094983 128.892994,65.1809142 131,86.5142475 L152.678981,54.5142475 Z" id="fin-copy-8" fill="#F05200" mask="url(#mask-2)" transform="translate(127.839490, 45.757124) rotate(102.000000) translate(-127.839490, -45.757124) "></path>
                </g>
                <ellipse id="Oval-2" fill="#FFFFFF" cx="33" cy="38" rx="21" ry="24"></ellipse>
                <ellipse id="Oval-2-Copy-4" fill="#FFFFFF" cx="163" cy="38" rx="21" ry="24"></ellipse>
                <ellipse id="Oval-2-Copy-3" fill="#000000" cx="35" cy="39.0769231" rx="7" ry="8.07692308"></ellipse>
                <ellipse id="Oval-2-Copy-5" fill="#000000" cx="155" cy="39.0769231" rx="7" ry="8.07692308"></ellipse>
            </g>
        </g>
    </g>
</svg>