<?xml version="1.0" encoding="UTF-8"?>
<svg width="250px" height="405px" viewBox="0 0 250 405" version="1.1" xmlns="http://www.w3.org/2000/svg" xmlns:xlink="http://www.w3.org/1999/xlink">
    <!-- Generator: Sketch 51.2 (57519) - http://www.bohemiancoding.com/sketch -->
    <title>4</title>
    <desc>Created with Sketch.</desc>
    <defs>
        <path d="M7,23 C-5,65 1.5,79 5,134 C7.33333333,170.666667 46.3333333,183 122,171 C117.333333,259 117.333333,309.666667 122,323 C129,343 164,360 185,332 C185,220 193,220 185,171 C237,180 250,163 250,142 C250,114 222,114 192,114 C192,85 205,31 192,14 C179,-3 145,-7 132.622256,32 C120.244513,71 127.678863,97 127.678863,114 C96,122 90,134 59,114 C43,75 71,28 59,14 C47,4.52748949e-13 12,-10 7,23 Z" id="path-1"></path>
    </defs>
    <g id="Symbols" stroke="none" stroke-width="1" fill="none" fill-rule="evenodd">
        <g id="number/4">
            <g id="4">
                <g id="leg" transform="translate(158.000000, 325.000000)">
                    <path d="M16,0 C16,36 20.3333333,60 29,72" id="Path-3" stroke="#3A3A3A" stroke-width="4"></path>
                    <ellipse id="Oval-3" fill="#3A3A3A" cx="17.5" cy="72.5" rx="17.5" ry="7.5"></ellipse>
                </g>
                <g id="leg" transform="translate(124.000000, 309.000000)">
                    <path d="M20,0 C20,36 24.3333333,60 33,72" id="Path-3" stroke="#3A3A3A" stroke-width="4"></path>
                    <ellipse id="Oval-3" fill="#3A3A3A" cx="17.5" cy="72.5" rx="17.5" ry="7.5"></ellipse>
                </g>
                <g id="fin-+-fin-copy-+-fin-copy-2-+-fin-copy-3-Mask-Copy">
                    <mask id="mask-2" fill="white">
                        <use xlink:href="#path-1"></use>
                    </mask>
                    <g id="Mask">
                        <use fill="#74CAE0" xlink:href="#path-1"></use>
                        <use fill="#FFA513" xlink:href="#path-1"></use>
                    </g>
                    <path d="M117.494627,67.3969923 C116.373069,67.6958022 115.24463,67.9745058 114.10931,68.2331032 L87.3159005,40.3746863 C108.621121,42.7491723 137.139285,39.2690497 172.870394,29.9343185 C157.03452,49.0589624 138.897232,61.4591112 118.458529,67.1347649 C120.021011,78.2011544 136.274846,79.6921432 167.220032,71.6077314 C150.269734,92.0782423 130.682706,104.844504 108.458949,109.906516 L117.494627,67.3969923 Z M107.494627,217.396992 C106.373069,217.695802 105.24463,217.974506 104.10931,218.233103 L92.3085809,205.963308 C92.2634558,206.16186 92.2176849,206.36033 92.1712684,206.558721 L53.0236975,175.973286 C66.0728878,186.168431 76.234226,173.162511 83.5077122,136.955527 C91.9494477,155.587651 95.6046453,173.623002 94.4733048,191.061579 C113.189816,190.666194 135.988846,186.957107 162.870394,179.934318 C147.03452,199.058962 128.897232,211.459111 108.458529,217.134765 C110.021011,228.201154 126.274846,229.692143 157.220032,221.607731 C144.165022,237.373986 129.54591,248.570095 113.362695,255.196058 C114.134511,267.111504 130.42029,268.915395 162.220032,260.607731 C146.536992,279.547802 128.596745,291.892548 108.399291,297.64197 C109.547681,309.155388 125.821261,310.810642 157.220032,302.607731 C140.269734,323.078242 120.682706,335.844504 98.4589486,340.906516 L107.608019,297.863522 C106.235361,298.241473 104.852337,298.589137 103.458949,298.906516 L112.692171,255.46762 C108.074436,257.317375 103.330028,258.797007 98.4589486,259.906516 L107.494627,217.396992 Z M-11.2348978,116.289528 C-13.1557651,116.746917 -15.0935241,117.144981 -17.0481749,117.483719 L-42.3468683,88.2612219 C-21.1951172,91.7474829 7.46609947,89.764655 43.6367819,82.3127384 C27.463034,99.8855801 9.48859328,111.134183 -10.2865404,116.058547 C-9.38830566,127.272567 6.76786401,129.643596 38.1819687,123.171634 C20.1835565,142.72698 -0.044762441,154.45064 -22.5029881,158.342614 L-11.2348978,116.289528 Z M232.171268,206.558721 L193.023697,175.973286 C206.072888,186.168431 216.234226,173.162511 223.507712,136.955527 C234.475964,161.164035 237.363816,184.3651 232.171268,206.558721 Z M34.4117766,203.799584 L8.82521007,161.216386 C17.3540656,175.410786 31.5013969,166.910211 51.267204,135.714664 C52.8313955,162.245923 47.2129197,184.940897 34.4117766,203.799584 Z" id="Combined-Shape" fill="#F05200" mask="url(#mask-2)"></path>
                </g>
                <ellipse id="Oval-2" fill="#FFFFFF" cx="33" cy="38" rx="21" ry="24"></ellipse>
                <ellipse id="Oval-2-Copy-4" fill="#FFFFFF" cx="163" cy="38" rx="21" ry="24"></ellipse>
                <ellipse id="Oval-2-Copy-3" fill="#000000" cx="35" cy="39.0769231" rx="7" ry="8.07692308"></ellipse>
                <ellipse id="Oval-2-Copy-5" fill="#000000" cx="155" cy="39.0769231" rx="7" ry="8.07692308"></ellipse>
            </g>
        </g>
    </g>
</svg>