<?xml version="1.0" encoding="UTF-8"?>
<svg width="211px" height="229px" viewBox="0 0 211 229" version="1.1" xmlns="http://www.w3.org/2000/svg" xmlns:xlink="http://www.w3.org/1999/xlink">
    <!-- Generator: Sketch 51.1 (57501) - http://www.bohemiancoding.com/sketch -->
    <title>e</title>
    <desc>Created with Sketch.</desc>
    <defs>
        <path d="M58,123 C134.666667,133.666667 180.666667,133.666667 196,123 C219,107 222,38 155,11 C88,-16 1,5 1,95 C1,185 -14,229 91,229 C196,229 221,189 196,170 C171,151 163,170 127,180 C91,190 66,195 53,162 C44.3333333,140 46,127 58,123 Z" id="path-1"></path>
    </defs>
    <g id="Symbols" stroke="none" stroke-width="1" fill="none" fill-rule="evenodd">
        <g id="letter/e" transform="translate(-12.000000, -6.000000)">
            <g id="e" transform="translate(12.000000, 6.000000)">
                <g id="teeth" transform="translate(35.000000, 113.000000)" fill="#FFFFFF">
                    <polygon id="tooth" points="154 6 141 32 131 2"></polygon>
                    <polygon id="tooth-copy" points="134 9 121 35 111 5"></polygon>
                    <polygon id="tooth-copy-2" points="113 9 100 35 90 5"></polygon>
                    <polygon id="tooth-copy-3" points="93 9 80 35 70 5"></polygon>
                    <polygon id="tooth-copy-4" points="72 7 59 33 49 3"></polygon>
                    <polygon id="tooth-copy-5" points="51 6 38 32 28 2"></polygon>
                    <polygon id="tooth-copy-6" transform="translate(19.500000, 19.000000) rotate(-53.000000) translate(-19.500000, -19.000000) " points="31 8 18 34 8 4"></polygon>
                    <polygon id="tooth-copy-7" transform="translate(18.500000, 39.000000) rotate(-87.000000) translate(-18.500000, -39.000000) " points="30 28 17 54 7 24"></polygon>
                    <polygon id="tooth-copy-8" transform="translate(28.500000, 59.000000) rotate(-144.000000) translate(-28.500000, -59.000000) " points="40 48 27 74 17 44"></polygon>
                    <polygon id="tooth-copy-9" transform="translate(48.500000, 69.000000) rotate(-183.000000) translate(-48.500000, -69.000000) " points="60 58 47 84 37 54"></polygon>
                    <polygon id="tooth-copy-10" transform="translate(71.500000, 67.000000) rotate(-192.000000) translate(-71.500000, -67.000000) " points="83 56 70 82 60 52"></polygon>
                    <polygon id="tooth-copy-11" transform="translate(94.500000, 65.000000) rotate(-198.000000) translate(-94.500000, -65.000000) " points="106 54 93 80 83 50"></polygon>
                    <polygon id="tooth-copy-12" transform="translate(114.500000, 52.000000) rotate(-198.000000) translate(-114.500000, -52.000000) " points="126 41 113 67 103 37"></polygon>
                    <polygon id="tooth-copy-13" transform="translate(135.500000, 46.000000) rotate(-198.000000) translate(-135.500000, -46.000000) " points="147 35 134 61 124 31"></polygon>
                </g>
                <g id="freckles">
                    <mask id="mask-2" fill="white">
                        <use xlink:href="#path-1"></use>
                    </mask>
                    <use id="Mask" fill="#1FA448" xlink:href="#path-1"></use>
                    <g mask="url(#mask-2)" fill="#000000" opacity="0.280636161">
                        <g transform="translate(-4.000000, 18.000000)">
                            <path d="M25,74 C31.627417,74 33,64.7319865 33,57 C33,49.2680135 31.627417,43 25,43 C18.372583,43 13,49.2680135 13,57 C13,64.7319865 18.372583,74 25,74 Z" id="Oval"></path>
                            <path d="M49.049255,25.1237014 C55.676672,25.1237014 57.049255,18.6508629 57.049255,13.2507952 C57.049255,7.85072757 55.676672,3.4731078 49.049255,3.4731078 C42.421838,3.4731078 37.049255,7.85072757 37.049255,13.2507952 C37.049255,18.6508629 42.421838,25.1237014 49.049255,25.1237014 Z" id="Oval-Copy" transform="translate(47.049255, 14.298405) rotate(26.000000) translate(-47.049255, -14.298405) "></path>
                            <path d="M58.2360474,198.688052 C64.8634644,198.688052 67.8258052,189.671069 67.8258052,184.271002 C67.8258052,178.870934 66.8227695,171.52803 60.1953525,171.52803 C53.5679355,171.52803 45.2816609,177.281176 45.2816609,182.681244 C45.2816609,188.081312 51.6086304,198.688052 58.2360474,198.688052 Z" id="Oval-Copy-2" transform="translate(56.553733, 185.108041) rotate(58.000000) translate(-56.553733, -185.108041) "></path>
                            <path d="M117.938089,214.759529 C122.10115,214.759529 125.761725,211.87693 125.761725,208.484838 C125.761725,205.092745 121.800576,198.964009 117.637515,198.964009 C113.474453,198.964009 107.137712,205.574303 107.137712,208.966395 C107.137712,212.358488 113.775027,214.759529 117.938089,214.759529 Z" id="Oval-Copy-3" transform="translate(116.449719, 206.861769) rotate(58.000000) translate(-116.449719, -206.861769) "></path>
                            <path d="M127.938089,174.759529 C132.10115,174.759529 135.761725,171.87693 135.761725,168.484838 C135.761725,165.092745 131.800576,158.964009 127.637515,158.964009 C123.474453,158.964009 117.137712,165.574303 117.137712,168.966395 C117.137712,172.358488 123.775027,174.759529 127.938089,174.759529 Z" id="Oval-Copy-4" transform="translate(126.449719, 166.861769) rotate(58.000000) translate(-126.449719, -166.861769) "></path>
                            <path d="M163.34375,188.657811 C168.904686,188.657811 173.794411,184.807291 173.794411,180.2762 C173.794411,175.745109 168.503185,167.558464 162.942249,167.558464 C157.381313,167.558464 148.916819,176.388364 148.916819,180.919455 C148.916819,185.450547 157.782814,188.657811 163.34375,188.657811 Z" id="Oval-Copy-5" transform="translate(161.355615, 178.108137) rotate(58.000000) translate(-161.355615, -178.108137) "></path>
                            <path d="M183.379201,156.079309 C188.402876,156.079309 192.820187,152.600801 192.820187,148.507475 C192.820187,144.414148 188.040165,137.018443 183.016491,137.018443 C177.992816,137.018443 170.346106,144.995256 170.346106,149.088583 C170.346106,153.181909 178.355527,156.079309 183.379201,156.079309 Z" id="Oval-Copy-6" transform="translate(181.583146, 146.548876) rotate(58.000000) translate(-181.583146, -146.548876) "></path>
                            <path d="M206.768781,184.680593 C210.401374,184.680593 213.595508,182.165303 213.595508,179.20544 C213.595508,176.245577 210.1391,170.897783 206.506507,170.897783 C202.873915,170.897783 197.344619,176.665774 197.344619,179.625636 C197.344619,182.585499 203.136189,184.680593 206.768781,184.680593 Z" id="Oval-Copy-7" transform="translate(205.470064, 177.789188) rotate(58.000000) translate(-205.470064, -177.789188) "></path>
                            <path d="M11.5,171.647059 C17.8512746,171.647059 23,172.051575 23,164.205882 C23,156.36019 17.8512746,150 11.5,150 C5.14872538,150 0,156.36019 0,164.205882 C0,172.051575 5.14872538,171.647059 11.5,171.647059 Z" id="Oval-2"></path>
                            <path d="M36,125 C42.3512746,125 43,122.051575 43,114.205882 C43,106.36019 37.8512746,100 31.5,100 C25.1487254,100 20,106.36019 20,114.205882 C20,122.051575 29.6487254,125 36,125 Z" id="Oval-2-Copy"></path>
                            <path d="M71.826087,88 C76.5205073,88 77,85.8771337 77,80.2282353 C77,74.5793369 73.1944204,70 68.5,70 C63.8055796,70 60,74.5793369 60,80.2282353 C60,85.8771337 67.1316666,88 71.826087,88 Z" id="Oval-2-Copy-2"></path>
                            <path d="M193.913043,91 C199.435891,91 200,88.5233226 200,81.9329412 C200,75.3425597 195.522847,70 190,70 C184.477153,70 180,75.3425597 180,81.9329412 C180,88.5233226 188.390196,91 193.913043,91 Z" id="Oval-2-Copy-3"></path>
                            <path d="M189.73913,35 C193.605124,35 194,33.2309447 194,28.5235294 C194,23.8161141 190.865993,20 187,20 C183.134007,20 180,23.8161141 180,28.5235294 C180,33.2309447 185.873137,35 189.73913,35 Z" id="Oval-2-Copy-4"></path>
                        </g>
                    </g>
                </g>
                <g id="eye" transform="translate(116.118450, 59.157188) rotate(16.000000) translate(-116.118450, -59.157188) translate(67.118450, 20.157188)">
                    <path d="M49,78 C76.0619527,78 98,55.6205433 98,28.0140845 C98,0.407625675 76.0619527,-4.54747351e-13 49,-4.54747351e-13 C21.9380473,-4.54747351e-13 0,0.407625675 0,28.0140845 C0,55.6205433 21.9380473,78 49,78 Z" id="eye-copy" fill="#585858"></path>
                    <path d="M48.5,75 C73.0766714,75 93,54.6289561 93,29.5 C93,4.37104388 73.0766714,4 48.5,4 C23.9233286,4 4,4.37104388 4,29.5 C4,54.6289561 23.9233286,75 48.5,75 Z" fill="#FFFFFF"></path>
                    <circle id="pupil" fill="#000000" cx="50.5" cy="42.5" r="10.5"></circle>
                </g>
            </g>
        </g>
    </g>
</svg>