<?xml version="1.0" encoding="UTF-8"?>
<svg width="765px" height="518px" viewBox="0 0 765 518" version="1.1" xmlns="http://www.w3.org/2000/svg" xmlns:xlink="http://www.w3.org/1999/xlink">
    <!-- Generator: Sketch 51.1 (57501) - http://www.bohemiancoding.com/sketch -->
    <title>engineerAndgricha</title>
    <desc>Created with Sketch.</desc>
    <defs>
        <rect id="path-1" x="2.84217094e-14" y="0.586778419" width="206" height="404.413222" rx="21"></rect>
        <rect id="path-3" x="0" y="0" width="134.304636" height="236" rx="67.1523179"></rect>
        <linearGradient x1="50%" y1="0%" x2="50%" y2="100%" id="linearGradient-5">
            <stop stop-color="#C8C8C8" offset="0%"></stop>
            <stop stop-color="#979797" offset="100%"></stop>
        </linearGradient>
    </defs>
    <g id="engineerAndgricha" stroke="none" stroke-width="1" fill="none" fill-rule="evenodd">
        <g id="engineer" transform="translate(343.000000, 6.000000)">
            <g>
                <g id="ear-right" transform="translate(284.500000, 138.500000) scale(-1, 1) translate(-284.500000, -138.500000) translate(274.000000, 118.000000)">
                    <path d="M19,8 C11,-2.66666667 5.33333333,-2.66666667 2,8 C-3,24 2,41 13,41 C20.3333333,41 22.3333333,30 19,8 Z" id="Path-27" fill="#D6B376" fill-rule="nonzero"></path>
                    <path d="M17.4913704,10.6341463 C12.0293463,1.78861789 8.16041263,1.78861789 5.88456927,10.6341463 C2.47080424,23.902439 5.88456927,38 13.3948524,38 C18.4017077,38 19.7672137,28.8780488 17.4913704,10.6341463 Z" id="Path-27-Copy" fill="#5A3101" opacity="0.5"></path>
                </g>
                <g id="ear" transform="translate(134.000000, 118.000000)">
                    <path d="M19,8 C11,-2.66666667 5.33333333,-2.66666667 2,8 C-3,24 2,41 13,41 C20.3333333,41 22.3333333,30 19,8 Z" id="Path-27" fill="#D6B376" fill-rule="nonzero"></path>
                    <path d="M17.4913704,10.6341463 C12.0293463,1.78861789 8.16041263,1.78861789 5.88456927,10.6341463 C2.47080424,23.902439 5.88456927,38 13.3948524,38 C18.4017077,38 19.7672137,28.8780488 17.4913704,10.6341463 Z" id="Path-27-Copy" fill="#5A3101" opacity="0.5"></path>
                </g>
                <rect id="neck" fill="#BD9653" fill-rule="nonzero" opacity="0.824553571" x="188" y="261" width="59" height="94"></rect>
                <g id="head" transform="translate(131.000000, 0.000000)">
                    <path d="M13.8163265,158.6 C9.14965986,163.933333 9.14965986,171.266667 13.8163265,180.6 C5.81632653,194.6 -1.18367347,214.6 13.8163265,220.6 C28.8163265,226.6 115.816327,239.6 129.816327,227.6 C143.816327,233.6 153.816327,231.6 158.816327,216.6 C163.816327,201.6 158.816327,201.6 152.816327,191.6 C158.816327,180.6 152.816327,165.6 142.816327,151.6 C136.14966,142.266667 93.1496599,144.6 13.8163265,158.6 Z" id="mullet" fill="#853629"></path>
                    <rect fill="#D6B376" fill-rule="nonzero" x="16" y="40" width="134" height="236" rx="67"></rect>
                    <path d="M77,247.547193 C82.3333333,245.343007 87.6666667,245.493942 93,248" id="chin" stroke="#853629" stroke-width="2" opacity="0.5" stroke-linecap="round"></path>
                    <path d="M57.2490139,190 C57.2490139,192.732496 56.2529583,194.581868 58.2450695,197.514364 C64.2214028,200.929985 78.386993,200.246861 90.1188475,198.880613 C95.0991254,197.361044 92.1109587,192.049372 92.1109587,190" id="nose" stroke="#853629" stroke-width="3" stroke-linecap="round"></path>
                    <ellipse id="mouth" stroke="#853629" stroke-width="5" fill="#853629" stroke-linecap="round" cx="84" cy="226" rx="9" ry="6"></ellipse>
                    <ellipse id="eye-left" stroke="#5A3101" stroke-width="5" fill="#5A3101" stroke-linecap="round" transform="translate(44.000000, 141.000000) rotate(90.000000) translate(-44.000000, -141.000000) " cx="44" cy="141" rx="9" ry="6"></ellipse>
                    <ellipse id="eye-right" stroke="#5A3101" stroke-width="5" fill="#5A3101" stroke-linecap="round" transform="translate(104.000000, 141.000000) rotate(90.000000) translate(-104.000000, -141.000000) " cx="104" cy="141" rx="9" ry="6"></ellipse>
                    <path d="M30,119 C40,112.090909 48,111.14876 54,116.173554" id="eyebrow" stroke="#853629" stroke-width="5" stroke-linecap="round"></path>
                    <path d="M98,119 C108,112.090909 116,111.14876 122,116.173554" id="eyebrow" stroke="#853629" stroke-width="5" stroke-linecap="round" transform="translate(110.000000, 116.000000) scale(-1, 1) translate(-110.000000, -116.000000) "></path>
                    <path d="M150.064516,119.895569 C150.731183,112.562236 148.731183,105.895569 144.064516,99.895569 C137.064516,90.895569 141.064516,80.895569 139.064516,70.895569 C137.064516,60.895569 48.0645161,58.895569 34.0645161,64.895569 C20.0645161,70.895569 29.0645161,71.895569 29.0645161,82.895569 C29.0645161,93.895569 20.0645161,104.895569 20.0645161,110.895569 C20.0645161,114.895569 19.0645161,117.895569 17.0645161,119.895569 C1.7311828,103.228902 -3.2688172,90.895569 2.06451613,82.895569 C10.0645161,70.895569 -5.93548387,69.895569 7.06451613,56.895569 C20.0645161,43.895569 23.0342742,26.895569 49.0645161,26.895569 C72.0645161,2.89556903 104.064516,-12.104431 124.064516,12.895569 C144.064516,37.895569 131.278021,32.1973002 136.064516,51.895569 C161.064516,51.895569 158.638127,66.253106 162.064516,82.895569 C164.446923,94.4672603 160.446923,106.800594 150.064516,119.895569 Z" id="hair" fill="#853629"></path>
                    <g id="glasses" transform="translate(17.000000, 122.000000)" stroke="#2C2C2C" stroke-width="4">
                        <path d="M87.9914531,2.00570605 L70.3587759,3.26518424 C65.6490276,3.60159517 62,7.52056474 62,12.2423125 L62,31.8422283 C62,36.3150873 65.284792,40.1092032 69.71158,40.7495268 C75.4752484,41.5832301 81.2378138,42.000002 87,42.000002 C92.4367318,42.000002 97.8738647,41.5993652 103.312163,40.7979199 C107.728216,40.1471235 110.999998,36.3578399 110.999998,31.8940897 L111,12.155145 C111,7.4628987 107.395011,3.55799218 102.717708,3.18380759 L87.9914531,2.00570605 Z"></path>
                        <path d="M27.9914531,2.00570605 L10.3587759,3.26518424 C5.64902757,3.60159517 2,7.52056474 2,12.2423125 L2,31.8422283 C2,36.3150873 5.28479202,40.1092032 9.71157996,40.7495268 C15.4752484,41.5832301 21.2378138,42.000002 27,42.000002 C32.4367318,42.000002 37.8738647,41.5993652 43.3121628,40.7979199 C47.7282163,40.1471235 50.9999978,36.3578399 50.9999978,31.8940897 L51,12.155145 C51,7.4628987 47.3950105,3.55799218 42.7177077,3.18380759 L27.9914531,2.00570605 Z"></path>
                        <path d="M51,22 L62,22" id="Path-29"></path>
                    </g>
                </g>
                <rect id="upper-arm-right" fill="#077DAB" transform="translate(343.500000, 420.500000) rotate(-26.000000) translate(-343.500000, -420.500000) " x="310" y="319" width="67" height="203" rx="33.5"></rect>
                <rect id="upper-arm-right-copy" fill="#077DAB" transform="translate(83.500000, 420.500000) scale(-1, 1) rotate(-26.000000) translate(-83.500000, -420.500000) " x="50" y="319" width="67" height="203" rx="33.5"></rect>
                <path d="M115.438712,424.062287 L128.846959,334.277715 C129.493437,329.948751 132.880057,326.543266 137.205364,325.872751 L181.539543,319 L216.817995,330 L254.492768,319 L297.629493,325.885765 C301.813166,326.55359 305.121977,329.785288 305.888255,333.952052 L322.340285,423.412691 C322.779185,425.79928 323,428.220856 323,430.647466 L323,549 C323,571.09139 305.09139,589 283,589 L155,589 C132.90861,589 115,571.09139 115,549 L115,429.97029 C115,427.992819 115.146639,426.01807 115.438712,424.062287 Z" id="torso" fill="#40A8D0"></path>
                <rect id="lower-arm-copy" fill="#D6B376" transform="translate(98.460822, 542.749068) scale(-1, 1) rotate(-132.000000) translate(-98.460822, -542.749068) " x="64.9608216" y="441.249068" width="67" height="203" rx="33.5"></rect>
                <rect id="lower-arm" fill="#D6B376" transform="translate(328.460822, 542.749068) rotate(-132.000000) translate(-328.460822, -542.749068) " x="294.960822" y="441.249068" width="67" height="203" rx="33.5"></rect>
                <polygon id="collar" fill="#077DAB" transform="translate(174.000000, 336.000000) rotate(-33.000000) translate(-174.000000, -336.000000) " points="200 317 213 355 135 337"></polygon>
                <polygon id="collar" fill="#077DAB" transform="translate(260.000000, 336.000000) scale(-1, 1) rotate(-33.000000) translate(-260.000000, -336.000000) " points="286 317 299 355 221 337"></polygon>
            </g>
        </g>
        <g id="Gregor-2017" transform="translate(0.000000, 78.000000)">
            <g>
                <g id="arm" transform="translate(344.578559, 368.945529) scale(-1, 1) rotate(-160.000000) translate(-344.578559, -368.945529) translate(305.078559, 247.445529)" fill-rule="nonzero">
                    <g id="path-1-link" fill="#515151">
                        <path d="M8.68555,134.409226 C8.68555,103.87898 1.224374,46.425954 1.224374,46.425954 C-1.282349,25.141637 13.81433,4.992894 34.944206,1.4224 L34.277558,1.535049 C55.40723,-2.03541 73.483977,12.408541 74.610138,33.809444 C74.610138,33.809444 78.559489,102.273327 78.559489,132.000747 C78.559489,157.148805 71.652919,203.917753 71.652919,203.917753 C68.839896,225.157721 49.18627,242.376118 27.752918,242.376118 L35.492121,242.376118 C14.059844,242.376118 -0.925697,225.158384 1.874773,203.924441 C1.874773,203.924441 8.68555,158.754458 8.68555,134.409226 Z" id="path-1"></path>
                    </g>
                    <g id="path-1-link" fill="#3E3E3E">
                        <path d="M8.68555,134.409226 C8.68555,103.87898 1.224374,46.425954 1.224374,46.425954 C-1.282349,25.141637 13.81433,4.992894 34.944206,1.4224 L34.277558,1.535049 C55.40723,-2.03541 73.483977,12.408541 74.610138,33.809444 C74.610138,33.809444 78.559489,102.273327 78.559489,132.000747 C78.559489,157.148805 71.652919,203.917753 71.652919,203.917753 C68.839896,225.157721 49.18627,242.376118 27.752918,242.376118 L35.492121,242.376118 C14.059844,242.376118 -0.925697,225.158384 1.874773,203.924441 C1.874773,203.924441 8.68555,158.754458 8.68555,134.409226 Z" id="path-1"></path>
                    </g>
                </g>
                <g id="neck-copy" transform="translate(115.000000, 256.000000)">
                    <g id="Mask" fill="#515151" fill-rule="nonzero">
                        <rect id="path-2" x="2.84217094e-14" y="0.586778419" width="206" height="404.413222" rx="21"></rect>
                    </g>
                    <g id="Clipped">
                        <mask id="mask-2" fill="white">
                            <use xlink:href="#path-1"></use>
                        </mask>
                        <g id="path-2"></g>
                        <rect id="Rectangle-path" fill="#3E3E3E" fill-rule="nonzero" mask="url(#mask-2)" x="63" y="-101" width="78.8700027" height="150.319259" rx="39.4350013"></rect>
                    </g>
                </g>
                <g id="arm-copy-3" transform="translate(84.881609, 371.586143) rotate(-160.000000) translate(-84.881609, -371.586143) translate(45.881609, 247.586143)" fill-rule="nonzero">
                    <g id="path-4-link" fill="#515151">
                        <path d="M8.0153402,134.071655 C8.0153402,101.926879 0.3391371,39.422782 0.3391371,39.422782 C-2.04883,18.124519 13.3997934,0.858866 34.8346355,0.858866 L27.0699841,0.858866 C48.5092889,0.858866 67.906266,18.114959 70.285245,39.419656 C70.285245,39.419656 77.889279,100.236314 77.889279,131.535808 C77.889279,158.013769 70.744193,209.248687 70.744193,209.248687 C68.062898,230.511355 48.5048262,247.748153 27.0699841,247.748153 L34.8346355,247.748153 C13.3953307,247.748153 -1.7116784,230.517972 0.9611467,209.260004 C0.9611467,209.260004 8.0153402,159.704334 8.0153402,134.071655 Z" id="path-4"></path>
                    </g>
                    <g id="path-4-link" fill="#3E3E3E">
                        <path d="M8.0153402,134.071655 C8.0153402,101.926879 0.3391371,39.422782 0.3391371,39.422782 C-2.04883,18.124519 13.3997934,0.858866 34.8346355,0.858866 L27.0699841,0.858866 C48.5092889,0.858866 67.906266,18.114959 70.285245,39.419656 C70.285245,39.419656 77.889279,100.236314 77.889279,131.535808 C77.889279,158.013769 70.744193,209.248687 70.744193,209.248687 C68.062898,230.511355 48.5048262,247.748153 27.0699841,247.748153 L34.8346355,247.748153 C13.3953307,247.748153 -1.7116784,230.517972 0.9611467,209.260004 C0.9611467,209.260004 8.0153402,159.704334 8.0153402,134.071655 Z" id="path-4"></path>
                    </g>
                </g>
                <g id="lower" transform="translate(44.000000, 638.000000)">
                    <rect id="Belt" fill="#000000" fill-rule="nonzero" x="70.8387097" y="0" width="206.612903" height="21.6430678"></rect>
                    <g id="Rectangle-19" transform="translate(153.000000, 1.000000)">
                        <g id="path-5-link" fill="#D8D8D8">
                            <rect id="path-5" x="0.483871" y="0.96755162" width="33.4516129" height="17.0521141"></rect>
                        </g>
                        <rect id="Rectangle-path" stroke="#979797" stroke-width="4" x="2.483871" y="2.96755162" width="29.4516129" height="13.0521141"></rect>
                    </g>
                    <rect id="Rectangle-18" fill="#044981" fill-rule="nonzero" x="70.8387097" y="21.6430678" width="203.333333" height="78.7020649"></rect>
                    <g id="sock" transform="translate(96.000000, 531.000000)">
                        <g id="path-6-link" fill="#D8D8D8">
                            <rect id="path-6" x="0.4193548" y="0.894789" width="64.9354839" height="64.273353"></rect>
                        </g>
                        <rect id="Rectangle-path" stroke="#C6C6C6" x="0.9193548" y="1.394789" width="63.9354839" height="63.273353"></rect>
                    </g>
                    <g id="sock" transform="translate(200.000000, 512.000000)">
                        <g id="path-7-link" fill="#D8D8D8">
                            <rect id="path-7" x="0.709677" y="0.219272" width="70.8387097" height="64.273353"></rect>
                        </g>
                        <rect id="Rectangle-path" stroke="#C6C6C6" x="1.209677" y="0.719272" width="69.8387097" height="63.273353"></rect>
                    </g>
                    <g id="Group-2" transform="translate(180.376344, 569.278269)" fill-rule="nonzero">
                        <path d="M2.40978876,43.5280202 C1.60652584,52.0712383 -5.68434189e-14,77.4522549 -5.68434189e-14,77.4522549 L44.0390377,79.4042494 L61.4320441,70.7956685 L69.4642865,80.0566896 L244.782527,82.4534086 L246.201388,53.7973688 C246.201388,53.7973688 246.201379,48.3784424 234.032854,42.7231225 C215.920722,40.0409896 187.001115,45.0307033 187.001115,45.0307033 C187.001115,45.0307033 183.451157,43.2118503 182.089976,42.3024239 C160.416829,27.8222514 118.881373,15.000995 97.2082261,0.520822488 C97.2082261,0.520822488 55.2792209,11.5597426 16.808838,4.81109557 C4.36831773,17.4250802 3.62322182,30.6223786 2.40978876,43.5280202 Z" id="shoe-main" fill="#3C2415"></path>
                        <polygon id="sole" fill="#1E0F07" points="-5.68434189e-14 77.3533495 44.0390377 79.3053439 61.4320441 70.696763 69.4642865 79.9577841 245.610123 82.3545031 245.610123 75.0630631 75.6210246 75.0630636 65.4922312 64.3890913 57.9354534 64.3890913 39.5454733 73.4041471 -5.68434189e-14 71.745231"></polygon>
                        <path d="M148.443121,21.9524882 C158.444246,26.2115762 136.535373,40.9219184 136.535373,40.9219184 C136.535373,40.9219184 96.3668578,36.5700135 89.3270724,33.9461825 C75.9981754,26.2558024 84.9818421,21.7071638 84.9818421,21.7071638 C84.9818421,21.7071638 98.1901239,9.533495 105.772673,2.8343652 C123.533139,11.1162117 138.441996,17.6934002 148.443121,21.9524882 Z" id="lace-plate" fill="#663019"></path>
                        <g id="Shoelace-group" transform="translate(104.546969, 16.878002) rotate(-4.000000) translate(-104.546969, -16.878002) translate(91.046969, 3.878002)">
                            <ellipse id="slace-hole" fill="#994325" cx="3.31038464" cy="22.395367" rx="3.31038464" ry="3.31783215"></ellipse>
                            <path d="M12.1370828,11.7230401 C15.7489134,8.46361683 24.6277669,0.285854263 24.6277669,0.285854263 C24.6277669,0.285854263 27.3526137,0.330339803 26.2890766,2.13507661 C25.2255396,3.93981341 21.4106843,7.57758086 18.9714881,9.88410397 C14.3695571,14.2357262 9.37140297,19.2880916 5.16569492,22.1095127 C0.959986875,24.9309338 3.50438516,20.2602904 3.50438516,20.2602904 C3.50438516,20.2602904 8.98365155,14.5687902 12.1370828,11.7230401 Z" id="Shoe-string" fill="#000000"></path>
                        </g>
                        <g id="Shoelace-group" transform="translate(114.300189, 22.196441) rotate(-4.000000) translate(-114.300189, -22.196441) translate(101.800189, 9.696441)">
                            <ellipse id="slace-hole" fill="#994325" cx="3.31038464" cy="21.565909" rx="3.31038464" ry="3.31783215"></ellipse>
                            <path d="M12.1370828,10.893582 C15.7489134,7.6341588 22.9725745,0.285854263 22.9725745,0.285854263 C22.9725745,0.285854263 25.6974214,0.330339803 24.6338843,2.13507661 C23.5703472,3.93981341 21.4106843,6.74812282 18.9714881,9.05464593 C14.3695571,13.4062682 9.37140297,18.4586336 5.16569492,21.2800547 C0.959986875,24.1014758 3.50438516,19.4308324 3.50438516,19.4308324 C3.50438516,19.4308324 8.98365155,13.7393321 12.1370828,10.893582 Z" id="Shoe-string" fill="#000000"></path>
                        </g>
                        <g id="Shoelace-group" transform="translate(127.214795, 25.367187) rotate(-4.000000) translate(-127.214795, -25.367187) translate(116.714795, 13.867187)">
                            <ellipse id="slace-hole" fill="#994325" cx="3.31038464" cy="19.0775348" rx="3.31038464" ry="3.31783215"></ellipse>
                            <path d="M10.4818905,10.064124 C14.0937211,6.80470076 18.8345937,0.285854263 18.8345937,0.285854263 C18.8345937,0.285854263 21.5594406,0.330339803 20.4959035,2.13507661 C19.4323664,3.93981341 19.755492,4.25974871 17.3162958,6.56627182 C12.7143647,10.9178941 9.37140297,15.9702595 5.16569492,18.7916806 C0.959986875,21.6131017 3.50438516,16.9424582 3.50438516,16.9424582 C3.50438516,16.9424582 7.32845923,12.9098741 10.4818905,10.064124 Z" id="Shoe-string" fill="#000000"></path>
                        </g>
                        <g id="Shoelace-group-Copy" transform="translate(139.833339, 30.011930) rotate(-10.000000) translate(-139.833339, -30.011930) translate(130.833339, 20.511930)">
                            <ellipse id="slace-hole" fill="#994325" cx="3.31038464" cy="14.9302447" rx="3.31038464" ry="3.31783215"></ellipse>
                            <path d="M10.4818905,5.91683382 C14.0937211,2.65741058 15.5242091,0.285854263 15.5242091,0.285854263 C15.5242091,0.285854263 18.2490559,1.15979784 17.1855189,2.96453464 C16.1219818,4.76927145 15.6175112,5.08920675 13.178315,7.39572986 C8.57638393,11.7473521 9.37140297,11.8229693 5.16569492,14.6443904 C0.959986875,17.4658115 3.50438516,12.7951681 3.50438516,12.7951681 C3.50438516,12.7951681 7.32845923,8.76258393 10.4818905,5.91683382 Z" id="Shoe-string" fill="#000000"></path>
                        </g>
                    </g>
                    <g id="Left-shoe" transform="translate(0.000000, 541.388397)" fill-rule="nonzero">
                        <path d="M0.538177007,93.0165266 L1.89621168,117.538628 L9.35129631,125.550446 L113.729575,124.875208 L172.348813,100.155021 L173.295772,55.753226 C173.295772,55.753226 161.114089,38.0138954 128.287935,29.6444227 C106.925144,24.1976896 78.7678255,13.8273182 68.7399845,23.0859174 C54.617174,51.5635309 37.0965808,77.3494767 37.0965808,77.3494767 L0.538177007,93.0165266 Z" id="Path-64" fill="#3C2415"></path>
                        <polygon id="Path-64-Copy" fill="#1E0F07" points="21.248312 116.750118 1.89621168 115.165269 9.35129631 125.550446 113.729575 124.875208 172.348813 100.155021 173.295772 87.85711 114.019939 116.114343"></polygon>
                        <path d="M41.5653756,68.9679749 C41.5653756,68.9679749 78.1721659,61.4682766 107.382478,79.9349098 C137.419165,57.5641285 133.920466,54.7971431 142.57601,40.0123836 C142.57601,40.0123836 95.8644436,20.6394697 62.5932007,33.1655225 C51.6836666,46.4578579 41.5653756,68.9679749 41.5653756,68.9679749 Z" id="Path-65" fill="#663019"></path>
                        <g id="Shoelace-group" transform="translate(94.959896, 42.959304) rotate(-128.000000) translate(-94.959896, -42.959304) translate(66.959896, 10.459304)">
                            <ellipse id="slace-hole" fill="#994325" cx="3.73298694" cy="60.2414395" rx="3.73298694" ry="4.00213503"></ellipse>
                            <path d="M32.8666844,26.2499917 C36.9395998,22.3183124 52.9447068,0.394716153 52.9447068,0.394716153 C52.9447068,0.394716153 56.2723619,2.66932238 55.0730541,4.84628615 C54.5774896,5.74582679 47.8571732,12.4978331 40.2318409,22.8925049 C29.4032298,37.6538103 15.9074815,57.0160938 14.1747393,58.4625063 C11.7231389,60.9157665 13.4913478,60.635053 7.3952966,62.073058 C2.91160829,62.0730558 1.53552728,60.9461265 2.58563574,59.5362358 C3.63574419,58.1263451 7.25403702,60.9210685 10.810034,57.4883825 L32.8666844,26.2499917 Z" id="Shoe-string" fill="#000000"></path>
                        </g>
                        <g id="Shoelace-group-Copy-2" transform="translate(89.853831, 51.727954) rotate(-128.000000) translate(-89.853831, -51.727954) translate(62.853831, 20.227954)">
                            <ellipse id="slace-hole" fill="#994325" cx="3.73298694" cy="58.0033495" rx="3.73298694" ry="4.00213503"></ellipse>
                            <path d="M32.8666844,24.0119017 C36.9395998,20.0802224 51.578589,0.026858711 51.578589,0.026858711 C51.578589,0.026858711 54.9062442,2.30146494 53.7069364,4.47842871 C53.2113718,5.37796935 47.8571732,10.2597431 40.2318409,20.6544149 C29.4032298,35.4157203 15.9074815,54.7780038 14.1747393,56.2244164 C11.7231389,58.6776766 13.4913478,58.396963 7.3952966,59.834968 C2.91160829,59.8349658 1.53552728,58.7080366 2.58563574,57.2981459 C3.63574419,55.8882552 7.25403702,58.6829786 10.810034,55.2502925 L32.8666844,24.0119017 Z" id="Shoe-string" fill="#000000"></path>
                        </g>
                        <g id="Shoelace-group-Copy-3" transform="translate(83.047028, 59.867014) rotate(-128.000000) translate(-83.047028, -59.867014) translate(57.047028, 29.867014)">
                            <ellipse id="slace-hole" fill="#994325" cx="3.73298694" cy="55.4947212" rx="3.73298694" ry="4.00213503"></ellipse>
                            <path d="M32.8666844,21.5032734 C36.9395998,17.5715941 49.3017261,0.635284606 49.3017261,0.635284606 C49.3017261,0.635284606 52.6293812,2.90989084 51.4300735,5.08685461 C50.9345089,5.98639525 47.8571732,7.75111483 40.2318409,18.1457866 C29.4032298,32.907092 15.9074815,52.2693755 14.1747393,53.715788 C11.7231389,56.1690483 13.4913478,55.8883347 7.3952966,57.3263397 C2.91160829,57.3263375 1.53552728,56.1994082 2.58563574,54.7895175 C3.63574419,53.3796268 7.25403702,56.1743502 10.810034,52.7416642 L32.8666844,21.5032734 Z" id="Shoe-string" fill="#000000"></path>
                        </g>
                        <g id="Shoelace-group-Copy-4" transform="translate(76.743511, 66.075879) rotate(-128.000000) translate(-76.743511, -66.075879) translate(52.243511, 38.575879)">
                            <ellipse id="slace-hole" fill="#994325" cx="3.73298694" cy="50.7480029" rx="3.73298694" ry="4.00213503"></ellipse>
                            <path d="M32.8666844,16.7565551 C36.9395998,12.8248758 46.1141181,0.252442216 46.1141181,0.252442216 C46.1141181,0.252442216 49.4417732,2.52704845 48.2424654,4.70401222 C47.7469009,5.60355286 47.8571732,3.00439654 40.2318409,13.3990683 C29.4032298,28.1603737 15.9074815,47.5226572 14.1747393,48.9690698 C11.7231389,51.42233 13.4913478,51.1416164 7.3952966,52.5796214 C2.91160829,52.5796192 1.53552728,51.45269 2.58563574,50.0427993 C3.63574419,48.6329086 7.25403702,51.427632 10.810034,47.9949459 L32.8666844,16.7565551 Z" id="Shoe-string" fill="#000000"></path>
                        </g>
                    </g>
                    <path d="M70.8387097,21.6430678 L173.817204,21.6430678 L167.258065,567.310718 C167.258065,567.310718 140.437592,573.869223 127.027355,573.869223 C106.111427,573.869223 64.2795699,567.310718 64.2795699,567.310718 L70.8387097,21.6430678 Z" id="leg-left" fill="#044981" fill-rule="nonzero"></path>
                    <polygon id="leg-right" fill="#044981" fill-rule="nonzero" points="174.473118 21.6430678 277.451613 21.6430678 284.010753 567.310718 181.032258 580.427729"></polygon>
                </g>
                <rect id="neck" fill="#814414" fill-rule="nonzero" x="183" y="163" width="69.8739393" height="133.173557" rx="34.9369696"></rect>
                <g id="head-wide" transform="translate(133.000000, 0.000000)">
                    <g id="Beard" transform="translate(15.668874, 0.000000)">
                        <g id="Mask" fill="#814414" fill-rule="nonzero">
                            <rect id="path-8" x="0" y="0" width="134.304636" height="236" rx="67.1523179"></rect>
                        </g>
                        <g id="Clipped">
                            <mask id="mask-4" fill="white">
                                <use xlink:href="#path-3"></use>
                            </mask>
                            <g id="path-8"></g>
                            <g id="Group" mask="url(#mask-4)">
                                <g transform="translate(-25.000000, 111.000000)" id="path-11-link">
                                    <g>
                                        <path d="M93.2054009,37.488002 C71.2817507,37.877576 49.6993652,50.367845 49.6993652,50.367845 L9.455954,10.887097 L0.4581446,96.547232 L56.7981328,137.441447 L129.081147,138.010661 L200.795893,72.663856 L179.061249,0.688463 L136.004053,48.834249 C136.004053,48.834249 115.129051,37.098429 93.2054009,37.488002 Z" id="path-11" fill="url(#linearGradient-5)" fill-rule="nonzero"></path>
                                    </g>
                                    <g style="mix-blend-mode: multiply;">
                                        <path d="M93.2054009,37.488002 C71.2817507,37.877576 49.6993652,50.367845 49.6993652,50.367845 L9.455954,10.887097 L0.4581446,96.547232 L56.7981328,137.441447 L129.081147,138.010661 L200.795893,72.663856 L179.061249,0.688463 L136.004053,48.834249 C136.004053,48.834249 115.129051,37.098429 93.2054009,37.488002 Z" id="path-11" fill="#492813" fill-rule="nonzero"></path>
                                    </g>
                                </g>
                            </g>
                        </g>
                    </g>
                    <ellipse id="beard-hole" fill="#814414" fill-rule="nonzero" cx="84.5" cy="190.14218" rx="35.2549669" ry="26.8436019"></ellipse>
                    <ellipse id="right-ear" fill="#814414" fill-rule="nonzero" cx="24.0860832" cy="111.38616" rx="24.0860832" ry="19.6705199"></ellipse>
                    <ellipse id="left-ear" fill="#814414" fill-rule="nonzero" cx="143.84105" cy="111.38616" rx="24.0860832" ry="19.6705199"></ellipse>
                    <g id="mouth" transform="translate(60.000000, 178.000000)">
                        <g id="path-12-link" fill="#000000">
                            <ellipse id="path-12" cx="13.8675497" cy="11.582938" rx="13.4304636" ry="10.6255924"></ellipse>
                        </g>
                        <ellipse id="Oval" stroke="#5A2F10" stroke-width="5" cx="13.8675497" cy="11.582938" rx="10.9304636" ry="8.12559242"></ellipse>
                    </g>
                    <g id="Group" transform="translate(35.814570, 77.175355)">
                        <path d="M69.7189867,57.7072603 C69.7189867,57.7072603 70.1367448,63.909813 63.2966931,65.7058668 C56.4566413,67.5019206 44.078188,67.8422978 36.0520137,65.7058668 C28.0258394,63.5694358 29.2408439,57.7072603 29.2408439,57.7072603" id="Line" stroke="#321B0D" stroke-width="6" opacity="0.5" stroke-linecap="round"></path>
                        <path d="M27.3514773,0.618678089 C27.3514773,0.618678089 25.4708472,4.0702389 21.6645346,5.06969659 C17.858222,6.06915427 10.9699315,6.2585654 6.5035722,5.06969659 C2.03721292,3.88082778 0.6002299,0.618678089 0.6002299,0.618678089" id="Line-Copy" stroke="#321B0D" stroke-width="6" opacity="0.5" stroke-linecap="round" transform="translate(13.975854, 3.255264) scale(-1, 1) rotate(-180.000000) translate(-13.975854, -3.255264) "></path>
                        <path d="M95.1560093,-2.14751619e-07 C95.1560093,-2.14751619e-07 93.2753792,3.4515606 89.4690666,4.45101829 C85.662754,5.45047598 78.7744635,5.6398871 74.3081042,4.45101829 C69.8417449,3.26214948 68.4047619,-2.14751619e-07 68.4047619,-2.14751619e-07" id="Line-Copy-2" stroke="#321B0D" stroke-width="6" opacity="0.5" stroke-linecap="round" transform="translate(81.780386, 2.636586) scale(-1, 1) rotate(-180.000000) translate(-81.780386, -2.636586) "></path>
                        <ellipse id="Oval-1" fill="#311B0C" fill-rule="nonzero" cx="12.657679" cy="26.5329121" rx="6.32883948" ry="8.84430402"></ellipse>
                        <ellipse id="Oval-1-Copy" fill="#311B0C" fill-rule="nonzero" cx="82.3282088" cy="26.5329121" rx="6.32883948" ry="8.84430402"></ellipse>
                    </g>
                </g>
                <g id="drink" transform="translate(161.521607, 280.369755) rotate(11.000000) translate(-161.521607, -280.369755) translate(120.021607, 184.369755)">
                    <g id="cup" transform="translate(0.000000, 66.000000)">
                        <g id="path-13-link" transform="translate(3.000000, 3.000000)" fill="#D2D2D2">
                            <polygon id="path-13" points="5.68434189e-14 0.3367784 6 120.336778 70 120.336778 77 0.3367784"></polygon>
                        </g>
                        <polygon id="Shape" stroke="#D2D2D2" stroke-width="5" points="0.37187695 0.8367784 82.6500832 0.8367784 75.3584165 125.836778 6.62187695 125.836778"></polygon>
                    </g>
                    <polyline id="straw" stroke="#BF0A0A" stroke-width="8" points="66.1838201 0.367456331 42 53 34 166"></polyline>
                    <g id="water" transform="translate(9.000000, 101.000000)">
                        <g id="path-14-link" transform="translate(3.000000, 4.000000)" fill="#72C1F6">
                            <polygon id="path-14" points="0.5 19.336778 3.1865672 77.336778 56.0223881 77.336778 60.5 0.336778"></polygon>
                        </g>
                        <polygon id="Shape" stroke="#72C1F6" stroke-width="5" points="0.91378645 21.533393 66.2065549 0.85735 61.3812344 83.836778 3.79968697 83.836778"></polygon>
                    </g>
                </g>
                <path d="M63.4854527,441.755937 C63.4854527,411.225691 56.069219,354.173469 56.069219,354.173469 C53.5376748,332.667794 69.0499418,315.234 90.7116647,315.234 L82.1331799,315.234 C103.797219,315.234 123.501291,332.66162 126.020376,354.177816 C126.020376,354.177816 133.359392,409.620038 133.359392,439.347458 C133.359392,464.495516 134.114308,468.398813 134.114308,468.398813 C135.288194,490.02125 118.675327,507.549698 97.0136046,507.549698 L105.592089,507.549698 C83.9280506,507.549698 65.2728051,490.03055 64.1781347,468.383043 C64.1781347,468.383043 63.4854527,466.101169 63.4854527,441.755937 Z" id="arm-copy" fill="#814414" fill-rule="nonzero" transform="translate(94.985731, 411.391849) rotate(44.000000) translate(-94.985731, -411.391849) "></path>
                <path d="M316.531826,455.954483 C310.158631,432.794552 364.343487,411.679223 377.501139,441.046303 C390.658791,470.413383 382.508043,660.549451 382.508043,660.549451 C381.831223,679.588409 365.833054,695.022534 346.780065,695.022534 L357.056231,695.022534 C338.001034,695.022534 322.336462,679.58072 322.043348,660.521279 C322.043348,660.521279 320.313238,521.830678 316.531826,455.954483 Z" id="arm-copy-2" fill="#814414" fill-rule="nonzero" transform="translate(350.508381, 560.854443) rotate(13.000000) translate(-350.508381, -560.854443) "></path>
            </g>
        </g>
    </g>
</svg>