<?xml version="1.0" encoding="UTF-8"?>
<svg width="413px" height="564px" viewBox="0 0 413 564" version="1.1" xmlns="http://www.w3.org/2000/svg" xmlns:xlink="http://www.w3.org/1999/xlink">
    <!-- Generator: Sketch 51.1 (57501) - http://www.bohemiancoding.com/sketch -->
    <title>engineer</title>
    <desc>Created with Sketch.</desc>
    <defs></defs>
    <g id="engineer" stroke="none" stroke-width="1" fill="none" fill-rule="evenodd">
        <g id="ear-right" transform="translate(284.500000, 140.500000) scale(-1, 1) translate(-284.500000, -140.500000) translate(274.000000, 120.000000)">
            <path d="M19,8 C11,-2.66666667 5.33333333,-2.66666667 2,8 C-3,24 2,41 13,41 C20.3333333,41 22.3333333,30 19,8 Z" id="Path-27" fill="#CCA054" fill-rule="nonzero"></path>
            <path d="M17.4913704,10.6341463 C12.0293463,1.78861789 8.16041263,1.78861789 5.88456927,10.6341463 C2.47080424,23.902439 5.88456927,38 13.3948524,38 C18.4017077,38 19.7672137,28.8780488 17.4913704,10.6341463 Z" id="Path-27-Copy" fill="#5A3101" opacity="0.5"></path>
        </g>
        <g id="ear" transform="translate(134.000000, 120.000000)">
            <path d="M19,8 C11,-2.66666667 5.33333333,-2.66666667 2,8 C-3,24 2,41 13,41 C20.3333333,41 22.3333333,30 19,8 Z" id="Path-27" fill="#CCA054" fill-rule="nonzero"></path>
            <path d="M17.4913704,10.6341463 C12.0293463,1.78861789 8.16041263,1.78861789 5.88456927,10.6341463 C2.47080424,23.902439 5.88456927,38 13.3948524,38 C18.4017077,38 19.7672137,28.8780488 17.4913704,10.6341463 Z" id="Path-27-Copy" fill="#5A3101" opacity="0.5"></path>
        </g>
        <g id="head" transform="translate(131.000000, 2.000000)">
            <path d="M13.8163265,158.6 C9.14965986,163.933333 9.14965986,171.266667 13.8163265,180.6 C5.81632653,194.6 -1.18367347,214.6 13.8163265,220.6 C28.8163265,226.6 115.816327,239.6 129.816327,227.6 C143.816327,233.6 153.816327,231.6 158.816327,216.6 C163.816327,201.6 158.816327,201.6 152.816327,191.6 C158.816327,180.6 152.816327,165.6 142.816327,151.6 C136.14966,142.266667 93.1496599,144.6 13.8163265,158.6 Z" id="mullet" fill="#853629"></path>
            <rect fill="#CCA054" fill-rule="nonzero" x="16" y="40" width="134" height="236" rx="67"></rect>
            <path d="M77,247.547193 C82.3333333,245.343007 87.6666667,245.493942 93,248" id="chin" stroke="#853629" stroke-width="2" opacity="0.5" stroke-linecap="round"></path>
            <path d="M57.2490139,190 C57.2490139,192.732496 56.2529583,194.581868 58.2450695,197.514364 C64.2214028,200.929985 78.386993,200.246861 90.1188475,198.880613 C95.0991254,197.361044 92.1109587,192.049372 92.1109587,190" id="nose" stroke="#853629" stroke-width="3" stroke-linecap="round"></path>
            <ellipse id="mouth" stroke="#853629" stroke-width="5" fill="#853629" stroke-linecap="round" cx="84" cy="226" rx="9" ry="6"></ellipse>
            <ellipse id="eye-left" stroke="#5A3101" stroke-width="5" fill="#5A3101" stroke-linecap="round" transform="translate(44.000000, 141.000000) rotate(90.000000) translate(-44.000000, -141.000000) " cx="44" cy="141" rx="9" ry="6"></ellipse>
            <ellipse id="eye-right" stroke="#5A3101" stroke-width="5" fill="#5A3101" stroke-linecap="round" transform="translate(104.000000, 141.000000) rotate(90.000000) translate(-104.000000, -141.000000) " cx="104" cy="141" rx="9" ry="6"></ellipse>
            <path d="M30,119 C40,112.090909 48,111.14876 54,116.173554" id="eyebrow" stroke="#853629" stroke-width="5" stroke-linecap="round"></path>
            <path d="M98,119 C108,112.090909 116,111.14876 122,116.173554" id="eyebrow" stroke="#853629" stroke-width="5" stroke-linecap="round" transform="translate(110.000000, 116.000000) scale(-1, 1) translate(-110.000000, -116.000000) "></path>
            <path d="M150.064516,119.895569 C150.731183,112.562236 148.731183,105.895569 144.064516,99.895569 C137.064516,90.895569 141.064516,80.895569 139.064516,70.895569 C137.064516,60.895569 48.0645161,58.895569 34.0645161,64.895569 C20.0645161,70.895569 29.0645161,71.895569 29.0645161,82.895569 C29.0645161,93.895569 20.0645161,104.895569 20.0645161,110.895569 C20.0645161,114.895569 19.0645161,117.895569 17.0645161,119.895569 C1.7311828,103.228902 -3.2688172,90.895569 2.06451613,82.895569 C10.0645161,70.895569 -5.93548387,69.895569 7.06451613,56.895569 C20.0645161,43.895569 23.0342742,26.895569 49.0645161,26.895569 C72.0645161,2.89556903 104.064516,-12.104431 124.064516,12.895569 C144.064516,37.895569 131.278021,32.1973002 136.064516,51.895569 C161.064516,51.895569 158.638127,66.253106 162.064516,82.895569 C164.446923,94.4672603 160.446923,106.800594 150.064516,119.895569 Z" id="hair" fill="#853629"></path>
            <g id="glasses" transform="translate(17.000000, 122.000000)" stroke="#2C2C2C" stroke-width="4">
                <path d="M87.9914531,2.00570605 L70.3587759,3.26518424 C65.6490276,3.60159517 62,7.52056474 62,12.2423125 L62,31.8422283 C62,36.3150873 65.284792,40.1092032 69.71158,40.7495268 C75.4752484,41.5832301 81.2378138,42.000002 87,42.000002 C92.4367318,42.000002 97.8738647,41.5993652 103.312163,40.7979199 C107.728216,40.1471235 110.999998,36.3578399 110.999998,31.8940897 L111,12.155145 C111,7.4628987 107.395011,3.55799218 102.717708,3.18380759 L87.9914531,2.00570605 Z"></path>
                <path d="M27.9914531,2.00570605 L10.3587759,3.26518424 C5.64902757,3.60159517 2,7.52056474 2,12.2423125 L2,31.8422283 C2,36.3150873 5.28479202,40.1092032 9.71157996,40.7495268 C15.4752484,41.5832301 21.2378138,42.000002 27,42.000002 C32.4367318,42.000002 37.8738647,41.5993652 43.3121628,40.7979199 C47.7282163,40.1471235 50.9999978,36.3578399 50.9999978,31.8940897 L51,12.155145 C51,7.4628987 47.3950105,3.55799218 42.7177077,3.18380759 L27.9914531,2.00570605 Z"></path>
                <path d="M51,22 L62,22" id="Path-29"></path>
            </g>
        </g>
        <rect id="neck" fill="#CCA054" fill-rule="nonzero" opacity="0.8" x="188" y="263" width="59" height="94"></rect>
        <rect id="upper-arm-right" fill="#077DAB" transform="translate(343.500000, 422.500000) rotate(-26.000000) translate(-343.500000, -422.500000) " x="310" y="321" width="67" height="203" rx="33.5"></rect>
        <rect id="upper-arm-right-copy" fill="#077DAB" transform="translate(83.500000, 422.500000) scale(-1, 1) rotate(-26.000000) translate(-83.500000, -422.500000) " x="50" y="321" width="67" height="203" rx="33.5"></rect>
        <path d="M108.403596,357.068139 L131.70674,336.323715 C137.091239,331.530442 143.671028,328.281401 150.750254,326.9202 L181.539543,321 L216.817995,332 L254.492768,321 L284.720139,327.027845 C291.211658,328.322362 297.280453,331.207633 302.382389,335.424959 L328.484895,357.001627 C337.677698,364.600516 343,375.905241 343,387.832133 L343,551 C343,573.09139 325.09139,591 303,591 L135,591 C112.90861,591 95,573.09139 95,551 L95,386.945075 C95,375.529757 99.8772284,364.658299 108.403596,357.068139 Z" id="torso" fill="#40A8D0"></path>
        <rect id="lower-arm-copy" fill="#D6B376" transform="translate(98.460822, 544.749068) scale(-1, 1) rotate(-132.000000) translate(-98.460822, -544.749068) " x="64.9608216" y="443.249068" width="67" height="203" rx="33.5"></rect>
        <rect id="lower-arm" fill="#D6B376" transform="translate(328.460822, 544.749068) rotate(-132.000000) translate(-328.460822, -544.749068) " x="294.960822" y="443.249068" width="67" height="203" rx="33.5"></rect>
        <polygon id="Path-28" fill="#077DAB" transform="translate(174.000000, 338.000000) rotate(-33.000000) translate(-174.000000, -338.000000) " points="200 319 213 357 135 339"></polygon>
        <polygon id="Path-28-Copy" fill="#077DAB" transform="translate(260.000000, 338.000000) scale(-1, 1) rotate(-33.000000) translate(-260.000000, -338.000000) " points="286 319 299 357 221 339"></polygon>
    </g>
</svg>