<?xml version="1.0" encoding="UTF-8"?>
<svg width="217px" height="339px" viewBox="0 0 217 339" version="1.1" xmlns="http://www.w3.org/2000/svg" xmlns:xlink="http://www.w3.org/1999/xlink">
    <!-- Generator: Sketch 51.1 (57501) - http://www.bohemiancoding.com/sketch -->
    <title>J</title>
    <desc>Created with Sketch.</desc>
    <defs>
        <path d="M136,15 C158.666667,15 180.666667,10 202,0 C234.666667,202 210.333333,313 129,333 C47.6666667,353 4.66666667,316.666667 0,224 L59,206 C60.3196881,238 70.6530214,254 90,254 C119.020468,254 182,265 136,15 Z" id="path-1"></path>
    </defs>
    <g id="Symbols" stroke="none" stroke-width="1" fill="none" fill-rule="evenodd">
        <g id="letter/J">
            <g id="J">
                <g id="J-shape">
                    <mask id="mask-2" fill="white">
                        <use xlink:href="#path-1"></use>
                    </mask>
                    <use id="Mask" fill="#622875" xlink:href="#path-1"></use>
                    <ellipse id="spot" fill="#ED5ACC" opacity="0.340401786" mask="url(#mask-2)" cx="156" cy="104.5" rx="20" ry="16.5"></ellipse>
                    <ellipse id="spot-copy" fill="#ED5ACC" opacity="0.340401786" mask="url(#mask-2)" cx="186.5" cy="37.5" rx="10.5" ry="16.5"></ellipse>
                    <ellipse id="spot-copy-2" fill="#ED5ACC" opacity="0.340401786" mask="url(#mask-2)" cx="202" cy="176.5" rx="26" ry="21.5"></ellipse>
                    <ellipse id="spot-copy-3" fill="#ED5ACC" opacity="0.340401786" mask="url(#mask-2)" cx="171.5" cy="240.5" rx="15.5" ry="16.5"></ellipse>
                    <ellipse id="spot-copy-4" fill="#ED5ACC" opacity="0.340401786" mask="url(#mask-2)" cx="6.5" cy="240.5" rx="15.5" ry="16.5"></ellipse>
                    <ellipse id="spot-copy-5" fill="#ED5ACC" opacity="0.340401786" mask="url(#mask-2)" cx="64.5" cy="232.5" rx="15.5" ry="16.5"></ellipse>
                </g>
                <g id="eye" transform="translate(40.000000, 262.000000)">
                    <ellipse fill="#FFFFFF" cx="20" cy="20.5" rx="20" ry="20.5"></ellipse>
                    <ellipse id="Oval" fill="#000000" cx="25" cy="24.5" rx="5" ry="10.5"></ellipse>
                </g>
                <g id="eye-copy" transform="translate(120.000000, 262.000000)">
                    <ellipse id="eye" fill="#FFFFFF" cx="20" cy="20.5" rx="20" ry="20.5"></ellipse>
                    <ellipse id="Oval" fill="#000000" cx="17" cy="24.5" rx="5" ry="10.5"></ellipse>
                </g>
                <path d="M61.8177174,317.75 C61.7255906,317.499537 61.6785714,317.246054 61.6785714,316.99 C61.6785714,312.163031 78.3879442,308.25 99,308.25 C119.612056,308.25 136.321429,312.163031 136.321429,316.99 C136.321429,317.246054 136.274409,317.499537 136.182283,317.75 C134.537695,313.278896 118.518656,309.77 99,309.77 C79.4813438,309.77 63.4623045,313.278896 61.8177174,317.75 Z" id="smile" fill="#D95B5B" transform="translate(99.000000, 313.000000) scale(1, -1) translate(-99.000000, -313.000000) "></path>
                <polygon id="tooth" fill="#FFFFFF" transform="translate(67.000000, 319.500000) scale(1, -1) rotate(-16.000000) translate(-67.000000, -319.500000) " points="67 313 72 326 62 326"></polygon>
                <polygon id="tooth" fill="#FFFFFF" transform="translate(82.000000, 322.500000) scale(1, -1) rotate(-7.000000) translate(-82.000000, -322.500000) " points="82 316 87 329 77 329"></polygon>
                <polygon id="tooth-copy" fill="#FFFFFF" points="97 330 102 317 92 317"></polygon>
                <polygon id="tooth-copy-2" fill="#FFFFFF" transform="translate(112.000000, 323.500000) rotate(-3.000000) translate(-112.000000, -323.500000) " points="112 330 117 317 107 317"></polygon>
                <polygon id="tooth-copy-3" fill="#FFFFFF" transform="translate(127.000000, 321.500000) rotate(-12.000000) translate(-127.000000, -321.500000) " points="127 328 132 315 122 315"></polygon>
            </g>
        </g>
    </g>
</svg>