<?xml version="1.0" encoding="UTF-8"?>
<svg width="76px" height="123px" viewBox="0 0 76 123" version="1.1" xmlns="http://www.w3.org/2000/svg" xmlns:xlink="http://www.w3.org/1999/xlink">
    <!-- Generator: Sketch 51.1 (57501) - http://www.bohemiancoding.com/sketch -->
    <title>Group 11</title>
    <desc>Created with Sketch.</desc>
    <defs></defs>
    <g id="Page-1" stroke="none" stroke-width="1" fill="none" fill-rule="evenodd">
        <g id="293959-P70SA5-767" transform="translate(-33.000000, -332.000000)">
            <g id="Group-11" transform="translate(33.000000, 332.000000)">
                <path d="M52.538,54.875 C48.986,54.293 44.762,54.248 42.021,51.587 C39.937,49.566 38.981,46.283 39.558,43.442 C39.842,42.039 40.662,40.228 41.882,39.388 C43.876,38.01 47.394,40.045 49.3,40.86 C53.245,42.542 57.096,44.412 60.901,46.388 C64.011,48.01 67.096,48.542 68.434,44.592 C70.036,39.87 70.976,34.82 72.041,29.955 C72.807,26.462 74.603,21.224 69.916,19.806 C68.514,19.378 66.951,19.388 65.439,19.383 C60.956,18.597 56.324,18.044 51.797,17.905 C51.508,14.074 51.031,10.303 50.478,6.482 C49.941,2.726 46.906,2.92 43.767,3.099 C41.514,3.229 39.255,3.353 37.001,3.482 C35.458,3.566 33.24,3.283 31.896,4.258 C30.787,5.06 30.553,6.273 30.503,7.562 C30.414,9.806 30.568,12.064 30.543,14.312 C30.523,16.437 30.101,16.637 28.006,16.561 C26.18,16.502 24.409,16.547 22.618,16.945 C19.314,17.671 16.299,19.353 13.727,21.517 C8.409,25.994 5.429,33.044 6.001,39.984 C6.593,47.129 10.299,53.875 15.911,58.318 C22.26,63.343 30.742,64.642 36.991,69.791 C39.678,72 41.961,75.035 41.872,78.661 C41.797,81.776 40.096,84.766 36.767,85.09 C32.513,85.502 27.618,82.931 23.667,81.606 C21.618,80.92 19.553,80.259 17.493,79.582 C15.747,79.01 13.926,78.204 12.125,78.985 C10.374,79.746 9.717,81.527 9.309,83.264 C8.727,85.746 8.299,88.288 7.811,90.791 C6.946,95.278 6.901,99.363 10.359,102.767 C15.812,108.135 23.966,110.045 31.434,108.96 C31.494,110.069 31.563,111.18 31.633,112.289 C31.747,114.109 31.653,116.199 32.29,117.935 C33.588,121.473 37.041,121.487 40.26,121.617 C42.483,121.707 44.712,121.821 46.936,121.916 C48.837,122 50.921,122.273 52.727,121.498 C55.593,120.264 56.812,117.125 56.847,114.174 C56.867,112.513 56.011,110.453 56.344,108.86 C56.638,107.453 59.031,107.159 60.28,106.597 C63.3,105.239 66.036,103.174 68.3,100.762 C72.872,95.891 75.643,89.313 75.862,82.637 C76.295,69.179 65.653,57.015 52.538,54.875" id="Fill-73" fill="#E5E5E0"></path>
                <path d="M9.274,80.283 C9.916,80.283 11.105,81.064 11.672,81.299 C12.827,81.776 13.976,82.254 15.13,82.731 C21.503,85.368 29.857,90.174 36.618,86.079 C41.528,83.104 42.921,76.268 41.041,71.124 C38.782,64.95 32.832,61.224 27.096,58.711 C20.449,55.81 13.583,53.388 9.359,47.095 C5.752,41.711 4.249,34.457 7.279,28.468 C10.026,23.05 15.503,19.104 21.687,19.148 C25.046,19.174 29.13,19.224 30.474,15.378 C31.06,13.696 30.752,11.93 30.483,10.219 C30.329,9.258 30.17,8.293 30.011,7.328 C29.921,6.775 29.384,5.074 29.429,4.258 C29.503,4.243 29.598,4.219 29.722,4.184 C30.439,3.989 31.26,4.024 32.001,3.955 C33.051,3.855 34.105,3.756 35.16,3.661 C36.573,3.526 40.996,2.462 41.976,3.423 C43.115,4.542 41.966,8.785 41.876,10.214 C41.717,12.666 41.692,15.124 41.543,17.577 C41.449,19.153 42.871,20.139 44.255,20.288 C49.827,20.89 55.723,20.815 61.369,20.362 C61.956,20.502 62.489,20.691 62.912,20.96 L63.066,21.06 C62.941,21.298 62.817,21.875 62.817,21.885 C62.503,22.751 62.404,23.751 62.215,24.651 C61.797,26.651 61.35,28.647 60.961,30.651 C60.603,32.512 60.314,34.383 60.001,36.248 C59.842,37.184 59.673,38.114 59.523,39.05 C59.275,40.632 59.613,41.238 58.076,40.547 C54.837,39.094 51.683,37.477 48.409,36.089 C43.031,33.815 35.613,29.811 31.409,36.079 C28.364,40.616 28.916,46.905 32.121,51.199 C36.399,56.936 43.17,56.1 49.354,57.841 C54.926,59.413 59.693,63.333 62.628,68.283 C69.041,79.114 64.414,92.86 53.867,99.119 C51.543,100.498 48.11,101.114 47.349,104.109 C46.539,107.304 49.852,112.259 46.782,114.811 C45.28,116.06 41.837,115.394 40.026,115.299 C37.852,115.185 35.339,115.228 33.23,114.642 C31.19,114.069 31.752,111.508 31.727,109.756 C31.687,107.428 31.658,105.1 31.543,102.776 C31.464,101.104 29.926,99.751 28.22,100.244 C21.812,102.095 13.304,101.144 8.269,96.328 C5.105,93.304 7.21,87.936 7.916,84.233 C8.095,83.299 8.229,82.333 8.458,81.408 C8.523,81.134 8.628,80.254 8.827,80.129 C8.827,80.179 9.782,80.228 9.274,80.283" id="Fill-74" fill="#73BB64"></path>
                <path d="M47.539,51.875 C60.653,54.015 71.295,66.179 70.862,79.637 C70.643,86.313 67.872,92.891 63.3,97.762 C61.036,100.174 58.3,102.239 55.28,103.597 C54.031,104.159 51.638,104.453 51.344,105.86 C51.011,107.453 51.867,109.513 51.847,111.174 C51.812,114.125 50.593,117.264 47.727,118.498 C45.921,119.273 43.837,119 41.936,118.916 C39.712,118.821 37.483,118.707 35.26,118.617 C32.04,118.487 28.588,118.473 27.289,114.936 C26.653,113.199 26.747,111.109 26.633,109.289 C26.563,108.18 26.494,107.069 26.434,105.96 C18.966,107.045 10.812,105.135 5.359,99.767 C1.901,96.363 1.946,92.278 2.812,87.791 C3.299,85.288 3.727,82.746 4.309,80.264 C4.717,78.527 5.374,76.746 7.125,75.985 C8.926,75.204 10.747,76.01 12.493,76.582 C14.553,77.259 16.618,77.92 18.667,78.606 C22.618,79.931 27.513,82.502 31.767,82.09 C35.096,81.767 36.797,78.776 36.872,75.661 C36.961,72.035 34.678,69 31.991,66.791 C25.742,61.642 17.26,60.343 10.911,55.318 C5.299,50.875 1.593,44.129 1.001,36.984 C0.429,30.044 3.409,22.994 8.727,18.517 C11.299,16.352 14.314,14.671 17.618,13.944 C19.409,13.547 21.18,13.502 23.006,13.562 C25.101,13.637 25.523,13.438 25.543,11.313 C25.568,9.064 25.414,6.806 25.503,4.561 C25.553,3.273 25.787,2.06 26.896,1.258 C28.24,0.283 30.458,0.566 32.001,0.482 C34.255,0.353 36.513,0.228 38.767,0.099 C41.906,-0.08 44.941,-0.274 45.479,3.482 C46.031,7.303 46.508,11.074 46.797,14.905 C51.324,15.044 55.956,15.597 60.439,16.383 C61.951,16.388 63.514,16.378 64.916,16.806 C69.603,18.224 67.807,23.462 67.041,26.955 C65.976,31.82 65.036,36.87 63.434,41.592 C62.096,45.542 59.011,45.01 55.901,43.388 C52.096,41.413 48.245,39.542 44.299,37.86 C42.394,37.045 38.876,35.01 36.881,36.388 C35.663,37.229 34.842,39.039 34.558,40.442 C33.981,43.283 34.936,46.567 37.021,48.587 C39.762,51.248 43.986,51.293 47.539,51.875 M8.827,80.129 C8.628,80.254 8.523,81.134 8.458,81.408 C8.229,82.333 8.095,83.299 7.916,84.233 C7.21,87.936 5.105,93.304 8.269,96.328 C13.304,101.144 21.812,102.095 28.22,100.244 C29.926,99.751 31.464,101.104 31.543,102.776 C31.658,105.1 31.687,107.428 31.727,109.756 C31.752,111.508 31.19,114.069 33.23,114.642 C35.339,115.228 37.852,115.185 40.026,115.299 C41.837,115.394 45.28,116.06 46.782,114.811 C49.852,112.259 46.539,107.304 47.349,104.109 C48.11,101.114 51.543,100.498 53.867,99.119 C64.414,92.86 69.041,79.114 62.628,68.283 C59.693,63.333 54.926,59.413 49.354,57.841 C43.17,56.1 36.399,56.936 32.121,51.199 C28.916,46.905 28.364,40.616 31.409,36.079 C35.613,29.811 43.031,33.815 48.409,36.089 C51.683,37.477 54.837,39.094 58.076,40.547 C59.613,41.238 59.275,40.632 59.523,39.05 C59.673,38.114 59.842,37.184 60.001,36.248 C60.314,34.383 60.603,32.512 60.961,30.651 C61.35,28.647 61.797,26.651 62.215,24.651 C62.404,23.751 62.503,22.751 62.817,21.885 C62.817,21.875 62.941,21.298 63.066,21.06 L62.912,20.96 C62.489,20.691 61.956,20.502 61.369,20.362 C55.723,20.815 49.827,20.89 44.255,20.288 C42.871,20.139 41.449,19.153 41.543,17.577 C41.692,15.124 41.717,12.666 41.876,10.214 C41.966,8.785 43.115,4.542 41.976,3.423 C40.996,2.462 36.573,3.526 35.16,3.661 C34.105,3.756 33.051,3.855 32.001,3.955 C31.26,4.024 30.439,3.989 29.722,4.184 C29.598,4.219 29.503,4.243 29.429,4.258 C29.384,5.074 29.921,6.775 30.011,7.328 C30.17,8.293 30.329,9.258 30.483,10.219 C30.752,11.93 31.06,13.696 30.474,15.378 C29.13,19.224 25.046,19.174 21.687,19.148 C15.503,19.104 10.026,23.05 7.279,28.468 C4.249,34.457 5.752,41.711 9.359,47.095 C13.583,53.388 20.449,55.81 27.096,58.711 C32.832,61.224 38.782,64.95 41.041,71.124 C42.921,76.268 41.528,83.104 36.618,86.079 C29.857,90.174 21.503,85.368 15.13,82.731 C13.976,82.254 12.827,81.776 11.672,81.299 C11.105,81.064 9.916,80.283 9.274,80.283 C9.782,80.228 8.827,80.179 8.827,80.129" id="Fill-75" fill="#257256"></path>
                <path d="M13.525,39.614 C13.141,39.614 12.76,39.457 12.458,39.193 C10.032,37.082 11.593,32.663 12.847,30.304 C14.419,27.348 16.891,24.724 19.873,23.176 C23.09,21.505 26.688,20.79 30.297,20.752 C30.733,20.747 31.195,20.743 31.676,20.743 C34.824,20.743 38.754,20.933 41.222,22.495 C42.814,23.503 42.492,25.865 40.706,26.438 C39.781,26.734 38.788,26.83 37.769,26.83 C36.838,26.83 35.886,26.75 34.945,26.67 C34.003,26.59 33.072,26.51 32.184,26.51 C32.1,26.51 32.016,26.511 31.932,26.513 C29.13,26.562 26.238,26.876 23.677,28.092 C21.309,29.216 19.263,31.013 17.938,33.279 C16.803,35.221 16.246,38.224 14.224,39.422 C14.001,39.554 13.762,39.614 13.525,39.614" id="Fill-76" fill="#9CCB86"></path>
                <path d="M49.724,28.526 C46.755,28.526 46.76,23.921 49.724,23.921 C52.693,23.921 52.688,28.526 49.724,28.526" id="Fill-77" fill="#9CCB86"></path>
                <path d="M51.033,93.753 C49.029,93.752 47.776,91.259 49.255,89.436 C52.376,85.585 55.061,82.087 55.164,76.886 C55.262,71.908 52.669,67.251 48.979,64.04 C48.027,63.212 48.911,61.932 49.933,61.932 C50.12,61.932 50.312,61.975 50.497,62.071 C56.126,64.995 59.637,70.604 60.26,76.886 C60.858,82.91 57.936,90.547 52.328,93.419 C51.876,93.65 51.439,93.753 51.033,93.753" id="Fill-78" fill="#9CCB86"></path>
            </g>
        </g>
    </g>
</svg>