<?xml version="1.0" encoding="UTF-8"?>
<svg width="110px" height="111px" viewBox="0 0 110 111" version="1.1" xmlns="http://www.w3.org/2000/svg" xmlns:xlink="http://www.w3.org/1999/xlink">
    <!-- Generator: Sketch 51.1 (57501) - http://www.bohemiancoding.com/sketch -->
    <title>Group 12</title>
    <desc>Created with Sketch.</desc>
    <defs></defs>
    <g id="Page-1" stroke="none" stroke-width="1" fill="none" fill-rule="evenodd">
        <g id="293959-P70SA5-767" transform="translate(-117.000000, -336.000000)">
            <g id="Group-12" transform="translate(117.000000, 336.000000)">
                <path d="M84.387,85.085 C87.486,84.14 89.864,87.299 88.959,90.184 C88.138,92.811 83.297,96.453 81.372,92.905 C80.019,90.413 81.78,85.881 84.387,85.085 M87.029,65.936 C79.954,65.547 72.501,67.741 67.143,72.463 C62.79,76.304 60.123,82.019 61.188,87.637 C60.491,98.383 68.004,108.587 78.914,110.333 C91.645,112.373 106.322,104.751 109.068,91.508 C111.954,77.617 100.248,66.656 87.029,65.936" id="Fill-79" fill="#E5E5E0"></path>
                <path d="M33.223,30.83 C32.396,33.457 27.556,37.105 25.63,33.552 C24.277,31.06 26.044,26.527 28.646,25.73 C31.745,24.785 34.123,27.945 33.223,30.83 M53.332,32.154 C56.212,18.264 44.506,7.308 31.287,6.582 C24.217,6.193 16.76,8.388 11.406,13.109 C7.048,16.95 4.381,22.671 5.446,28.283 C4.75,39.029 12.262,49.233 23.178,50.979 C35.904,53.02 50.581,45.397 53.332,32.154" id="Fill-80" fill="#E5E5E0"></path>
                <path d="M92.78,31.264 C94.685,28.975 96.616,26.701 98.501,24.393 C99.949,22.611 101.422,20.741 101.651,18.373 C102.108,13.716 97.939,9.512 94.516,6.944 C92.785,5.642 90.372,3.791 88.108,3.83 C85.422,3.875 84.472,6.806 83.104,8.646 C79.929,12.905 75.546,16.039 72.322,20.193 C68.695,24.87 65.362,29.796 61.894,34.582 C55.113,43.94 48.098,53.447 40.864,62.264 C33.123,71.696 25.282,81.074 17.79,90.706 C15.317,93.881 9.745,98.602 12.187,103.085 C14.202,106.791 18.202,110.602 22.675,110.547 C27.521,110.492 29.983,105.294 32.61,102.005 C36.511,97.119 40.655,92.418 44.74,87.687 C52.755,78.413 60.76,69.129 68.765,59.851 C76.894,50.423 84.815,40.825 92.78,31.264" id="Fill-81" fill="#E5E5E0"></path>
                <path d="M86.89,89.129 C88.949,84.627 86.282,78.433 80.865,78.408 C77.71,78.398 74.735,80.836 73.785,83.776 C72.277,86.323 72.561,89.936 74.65,92.333 C78.332,96.542 84.914,93.458 86.89,89.129 M78.472,67.468 C88.566,66.99 100.059,73.637 99.203,85 C98.387,95.767 87.227,102.339 77.263,102.239 C67.636,102.145 60.128,94.283 59.929,84.722 C59.844,80.717 61.218,77.045 63.506,74.035 C67.203,70.129 72.531,67.746 78.472,67.468" id="Fill-82" fill="#24AAD3"></path>
                <path d="M31.148,29.775 C33.207,25.273 30.541,19.079 25.123,19.055 C21.969,19.044 18.994,21.487 18.043,24.423 C16.54,26.97 16.819,30.582 18.914,32.979 C22.59,37.188 29.173,34.104 31.148,29.775 M22.73,8.114 C32.824,7.637 44.317,14.288 43.461,25.646 C42.65,36.413 31.486,42.99 21.521,42.891 C11.894,42.791 4.386,34.93 4.187,25.368 C4.103,21.363 5.481,17.696 7.765,14.682 C11.461,10.775 16.79,8.393 22.73,8.114" id="Fill-83" fill="#24AAD3"></path>
                <path d="M91.263,14.144 C91.715,16.273 88.994,18.606 87.77,20.104 C86.103,22.143 84.436,24.184 82.77,26.219 C75.994,34.512 69.153,42.756 62.521,51.159 C55.874,59.582 49.228,68 42.591,76.423 C35.974,84.821 29.551,93.458 22.312,101.333 C20.576,103.219 18.705,104.577 16.197,103.09 C15.292,102.558 14.531,101.762 13.864,100.96 C13.411,100.413 11.72,98.513 11.67,97.767 C11.571,96.394 14.64,93.508 15.491,92.403 C17.063,90.354 18.625,88.299 20.172,86.233 C26.456,77.836 32.76,69.458 39.153,61.149 C52.725,43.512 66.625,26.119 80.606,8.806 C80.725,8.681 80.84,8.552 80.959,8.428 C81.65,7.706 82.466,6.269 83.293,5.735 C83.377,5.78 83.477,5.84 83.606,5.939 C84.029,6.269 84.551,6.527 84.989,6.835 C85.815,7.428 86.586,8.094 87.312,8.806 C88.695,10.153 90.85,12.174 91.263,14.144" id="Fill-84" fill="#24AAD3"></path>
                <path d="M99.203,85 C100.059,73.637 88.566,66.99 78.472,67.468 C72.531,67.746 67.203,70.129 63.506,74.035 C61.218,77.045 59.844,80.717 59.929,84.722 C60.128,94.283 67.636,102.145 77.263,102.239 C87.227,102.339 98.387,95.767 99.203,85 M82.029,62.936 C95.247,63.656 106.954,74.617 104.069,88.508 C101.322,101.751 86.645,109.373 73.914,107.333 C63.004,105.587 55.491,95.383 56.188,84.637 C55.123,79.02 57.79,73.304 62.143,69.463 C67.501,64.741 74.954,62.547 82.029,62.936" id="Fill-85" fill="#267FB6"></path>
                <path d="M87.77,20.104 C88.994,18.606 91.715,16.273 91.263,14.144 C90.85,12.174 88.695,10.153 87.312,8.806 C86.586,8.094 85.815,7.428 84.989,6.835 C84.551,6.527 84.029,6.269 83.606,5.939 C83.477,5.84 83.377,5.78 83.293,5.735 C82.466,6.269 81.65,7.706 80.959,8.428 C80.84,8.552 80.725,8.681 80.606,8.806 C66.625,26.119 52.725,43.512 39.153,61.149 C32.76,69.458 26.456,77.836 20.172,86.233 C18.625,88.299 17.063,90.354 15.491,92.403 C14.64,93.508 11.571,96.394 11.67,97.767 C11.72,98.513 13.411,100.413 13.864,100.96 C14.531,101.762 15.292,102.558 16.197,103.09 C18.705,104.577 20.576,103.219 22.312,101.333 C29.551,93.458 35.974,84.821 42.591,76.423 C49.228,68 55.874,59.582 62.521,51.159 C69.153,42.756 75.994,34.512 82.77,26.219 C84.436,24.184 86.103,22.143 87.77,20.104 M89.516,3.944 C92.939,6.512 97.108,10.716 96.651,15.373 C96.422,17.741 94.949,19.611 93.501,21.393 C91.616,23.701 89.686,25.975 87.78,28.264 C79.815,37.825 71.895,47.423 63.765,56.851 C55.76,66.129 47.755,75.413 39.74,84.686 C35.655,89.418 31.511,94.119 27.61,99.005 C24.983,102.294 22.521,107.492 17.675,107.548 C13.203,107.603 9.202,103.791 7.187,100.085 C4.745,95.602 10.317,90.881 12.79,87.706 C20.282,78.074 28.123,68.696 35.864,59.264 C43.098,50.447 50.113,40.94 56.894,31.582 C60.362,26.796 63.695,21.87 67.322,17.193 C70.546,13.039 74.929,9.905 78.103,5.646 C79.472,3.806 80.422,0.875 83.108,0.83 C85.372,0.791 87.785,2.642 89.516,3.944" id="Fill-86" fill="#267FB6"></path>
                <path d="M83.959,87.184 C84.865,84.299 82.486,81.14 79.387,82.085 C76.78,82.881 75.019,87.413 76.372,89.905 C78.297,93.453 83.138,89.811 83.959,87.184 Z M80.865,78.408 C86.282,78.433 88.949,84.627 86.89,89.129 C84.914,93.458 78.332,96.542 74.65,92.333 C72.561,89.936 72.277,86.323 73.785,83.776 C74.735,80.836 77.71,78.398 80.865,78.408 Z" id="Fill-87" fill="#267FB6"></path>
                <path d="M43.461,25.646 C44.317,14.288 32.824,7.637 22.73,8.114 C16.79,8.393 11.461,10.775 7.765,14.682 C5.481,17.696 4.103,21.363 4.187,25.368 C4.386,34.93 11.894,42.791 21.521,42.891 C31.486,42.99 42.65,36.413 43.461,25.646 M26.287,3.582 C39.506,4.308 51.212,15.264 48.332,29.154 C45.581,42.397 30.904,50.02 18.178,47.98 C7.262,46.233 -0.251,36.029 0.446,25.283 C-0.619,19.671 2.048,13.95 6.406,10.109 C11.76,5.388 19.217,3.193 26.287,3.582" id="Fill-88" fill="#267FB6"></path>
                <path d="M28.222,27.83 C29.123,24.945 26.745,21.786 23.645,22.731 C21.043,23.527 19.277,28.06 20.63,30.552 C22.556,34.104 27.396,30.457 28.222,27.83 Z M25.123,19.055 C30.541,19.079 33.208,25.273 31.148,29.775 C29.173,34.104 22.59,37.188 18.914,32.979 C16.819,30.582 16.541,26.97 18.043,24.423 C18.994,21.487 21.969,19.044 25.123,19.055 Z" id="Fill-89" fill="#267FB6"></path>
                <path d="M36.924,30.924 C36.2,30.924 35.484,30.345 35.476,29.531 C35.44,26.227 36.534,23.02 35.176,19.831 C33.91,16.858 31.26,14.766 28.231,13.797 C26.906,13.374 27.311,11.511 28.541,11.511 C28.639,11.511 28.743,11.522 28.851,11.548 C32.719,12.458 36.058,14.87 38.005,18.36 C40.064,22.049 41.049,27.209 37.864,30.52 C37.595,30.801 37.259,30.924 36.924,30.924" id="Fill-90" fill="#3FBCD7"></path>
                <path d="M33.533,37.451 C32.607,37.451 31.734,36.949 31.267,36.151 C31.03,35.742 30.911,35.301 30.909,34.827 C30.911,34.354 31.03,33.912 31.267,33.503 L31.393,33.245 C31.767,32.478 32.711,32.018 33.533,32.018 C34.354,32.018 35.298,32.478 35.672,33.245 L35.798,33.503 C36.035,33.912 36.155,34.354 36.156,34.827 C36.155,35.301 36.035,35.742 35.798,36.151 C35.331,36.949 34.458,37.451 33.533,37.451" id="Fill-91" fill="#3FBCD7"></path>
                <path d="M49.774,59.745 C48.503,59.745 47.524,57.965 48.127,56.745 C50.162,52.625 53.694,49.118 56.54,45.523 C59.427,41.877 62.288,38.21 65.163,34.555 C70.874,27.292 76.279,19.007 83.376,13.016 C83.54,12.877 83.757,12.813 83.976,12.813 C84.535,12.813 85.106,13.227 84.837,13.866 C81.205,22.511 74.676,30.141 69.011,37.523 C66.053,41.38 63.036,45.185 59.986,48.97 C57.105,52.545 54.408,56.559 50.759,59.377 C50.426,59.634 50.091,59.745 49.774,59.745" id="Fill-92" fill="#3FBCD7"></path>
                <path d="M42.543,65.532 C42.145,65.532 41.729,65.393 41.401,65.22 C40.902,64.956 40.579,64.452 40.41,63.931 C40.242,63.412 40.356,62.73 40.627,62.269 C40.868,61.856 41.419,61.35 41.917,61.276 C42.204,61.234 42.431,61.2 42.661,61.2 C42.866,61.2 43.073,61.227 43.327,61.302 C43.874,61.462 44.504,61.865 44.745,62.396 C44.933,62.719 45.027,63.067 45.028,63.441 C45.027,63.815 44.933,64.164 44.745,64.486 C44.396,65.084 43.717,65.514 43.014,65.514 C42.995,65.514 42.976,65.513 42.957,65.513 L42.849,65.502 C42.749,65.523 42.647,65.532 42.543,65.532" id="Fill-93" fill="#3FBCD7"></path>
                <path d="M28.621,86.207 C27.298,86.207 26.118,84.711 26.877,83.266 C29.536,78.203 33.858,73.714 37.357,69.192 C37.697,68.753 38.138,68.57 38.589,68.57 C39.942,68.57 41.382,70.22 40.425,71.56 C37.095,76.219 34.038,81.623 29.944,85.633 C29.533,86.035 29.069,86.207 28.621,86.207" id="Fill-94" fill="#3FBCD7"></path>
                <path d="M93.356,83.95 C92.749,83.95 92.167,83.653 91.831,82.939 C90.335,79.769 87.911,78.054 84.931,76.381 C82.98,75.285 81.024,74.335 78.733,74.335 C78.731,74.335 78.729,74.335 78.727,74.335 C76.622,74.337 74.459,74.95 72.424,75.433 C72.3,75.462 72.18,75.476 72.064,75.476 C70.693,75.476 69.96,73.543 71.301,72.769 C73.798,71.326 76.229,70.135 79.156,69.918 C79.383,69.901 79.608,69.893 79.831,69.893 C82.356,69.893 84.713,70.927 86.929,72.093 C90.738,74.098 95.875,76.952 95.579,81.925 C95.51,83.074 94.397,83.95 93.356,83.95" id="Fill-95" fill="#3FBCD7"></path>
                <path d="M94.561,89.437 C93.874,89.437 93.264,89.149 92.768,88.693 C92.15,88.127 91.821,87.03 92.116,86.227 L92.171,86.075 C92.386,85.486 92.729,84.9 93.31,84.594 C93.699,84.389 94.121,84.275 94.561,84.256 C94.587,84.255 94.613,84.254 94.639,84.254 C95.156,84.254 95.665,84.48 96.063,84.788 C96.51,85.134 96.761,85.555 96.952,86.075 L97.007,86.227 C97.311,87.057 96.954,88.095 96.354,88.693 C95.895,89.153 95.211,89.437 94.561,89.437" id="Fill-96" fill="#3FBCD7"></path>
            </g>
        </g>
    </g>
</svg>