<?xml version="1.0" encoding="UTF-8"?>
<svg width="76px" height="76px" viewBox="0 0 76 76" version="1.1" xmlns="http://www.w3.org/2000/svg" xmlns:xlink="http://www.w3.org/1999/xlink">
    <!-- Generator: Sketch 51.1 (57501) - http://www.bohemiancoding.com/sketch -->
    <title>Group 14</title>
    <desc>Created with Sketch.</desc>
    <defs></defs>
    <g id="Page-1" stroke="none" stroke-width="1" fill="none" fill-rule="evenodd">
        <g id="293959-P70SA5-767" transform="translate(-289.000000, -340.000000)">
            <g id="Group-14" transform="translate(289.000000, 340.000000)">
                <path d="M73.312,26.328 C71.714,25.294 69.844,25.318 68.022,25.558 C65.286,25.916 62.56,26.383 59.833,26.801 C57.326,27.189 54.813,27.572 52.301,27.955 C51.903,28.016 50.898,28.01 50.316,28.164 C50.739,27.353 50.719,25.318 50.814,24.562 C51.191,21.587 51.381,18.592 51.346,15.592 C51.316,12.971 51.396,9.995 50.664,7.458 C49.473,3.311 44.476,3.388 40.539,3.464 C39.709,3.48 38.927,3.496 38.236,3.473 C33.903,3.323 28.942,4.025 28.529,9.328 C28.301,12.244 28.574,15.199 28.341,18.135 C28.087,21.264 27.564,24.368 27.092,27.473 C27.008,28.025 27.127,28.498 27.355,28.881 C26.738,29.159 25.391,29.209 24.997,29.239 C22.341,29.438 19.649,29.114 16.997,28.966 C13.047,28.746 6.908,28.1 6.047,33.273 C5.659,35.598 5.957,38.13 5.992,40.482 C6.022,42.498 5.524,45.09 6.749,46.881 C7.674,48.234 9.211,48.682 10.764,48.846 C13.425,49.13 16.167,49.045 18.843,49.125 C21.529,49.209 24.217,49.289 26.908,49.373 C27.48,49.389 29.595,49.722 29.669,49.194 C29.684,49.572 29.49,50.304 29.47,50.572 C29.391,51.478 29.355,52.389 29.301,53.294 C29.013,57.951 28.395,62.847 28.818,67.508 C29.196,71.688 31.44,75.358 36.063,75.339 C38.505,75.334 41.032,74.757 43.455,74.479 C46.082,74.18 48.804,74.056 51.391,73.513 C56.067,72.538 57.923,68.697 57.68,64.209 C57.555,61.886 57.191,59.558 56.933,57.244 C56.799,56.006 56.669,54.762 56.52,53.522 C56.455,52.99 56.381,52.463 56.311,51.931 C56.241,51.473 56.187,51.011 56.137,50.543 C58.256,49.691 61.191,49.94 63.386,49.797 C65.878,49.627 68.436,49.418 70.844,48.707 C76.003,47.18 75.664,42.911 75.754,38.339 C75.828,34.632 77.043,28.741 73.312,26.328" id="Fill-107" fill="#E5E5E0"></path>
                <path d="M64.993,27.199 C66.818,27.632 66.098,31.005 66.077,32.513 C66.053,34.707 66.127,36.921 66.003,39.109 C65.933,40.353 65.813,40.776 64.609,41.249 C63.376,41.731 61.858,41.895 60.555,42.04 C58.53,42.264 56.495,42.324 54.465,42.522 C52.555,42.707 50.082,42.707 48.341,43.607 C44.814,45.434 46.569,51.185 46.878,54.244 C47.092,56.334 47.351,58.424 47.51,60.513 C47.63,62.154 47.898,64.344 46.142,65.14 C44.231,66.006 41.476,65.802 39.405,66.001 C37.058,66.234 34.694,66.563 32.336,66.652 C30.445,66.722 29.878,66.17 29.564,64.344 C29.261,62.577 29.415,60.697 29.41,58.911 C29.4,56.643 29.36,54.379 29.286,52.11 C29.217,50.04 29.376,47.791 28.928,45.762 C28.151,42.266 24.889,42.344 21.924,42.421 C21.432,42.434 20.948,42.447 20.485,42.443 C18.935,42.432 17.378,42.445 15.82,42.459 C12.676,42.486 9.525,42.513 6.405,42.334 C4.699,42.239 4.519,41.05 4.645,39.558 C4.759,38.254 4.938,36.955 5.097,35.657 C5.236,34.478 5.166,33.03 5.545,31.916 C5.861,30.99 6.266,30.993 7.111,30.997 C7.238,30.997 7.376,30.998 7.524,30.995 C9.379,30.964 11.214,31.113 13.044,31.263 C16.168,31.518 19.277,31.773 22.44,31.13 C27.908,30.02 27.047,25.428 27.177,20.966 C27.196,20.413 27.217,19.856 27.236,19.304 C27.619,17.025 27.863,14.717 28.022,12.418 C28.092,11.358 28.132,10.299 28.167,9.239 C28.191,8.563 27.973,6.722 28.46,6.109 C29.331,5.03 32.54,5.607 33.679,5.646 C35.694,5.722 37.858,5.587 39.854,5.876 C40.958,6.035 40.709,5.796 40.858,7.204 C40.987,8.398 41.053,9.598 41.092,10.796 C41.262,15.398 40.783,19.881 40.146,24.428 C39.649,27.961 41.267,30.677 45.137,30.259 C49.754,29.762 54.366,28.791 58.953,28.055 C60.644,27.786 63.306,26.802 64.993,27.199" id="Fill-108" fill="#73BB64"></path>
                <path d="M66.077,32.513 C66.098,31.005 66.818,27.632 64.993,27.199 C63.306,26.802 60.644,27.786 58.953,28.055 C54.366,28.791 49.754,29.762 45.137,30.259 C41.267,30.677 39.649,27.961 40.146,24.428 C40.783,19.881 41.262,15.398 41.092,10.796 C41.053,9.598 40.987,8.398 40.858,7.204 C40.709,5.796 40.958,6.035 39.854,5.876 C37.858,5.587 35.694,5.722 33.679,5.646 C32.54,5.607 29.331,5.03 28.46,6.109 C27.973,6.722 28.191,8.563 28.167,9.239 C28.132,10.299 28.092,11.358 28.022,12.418 C27.863,14.717 27.619,17.025 27.236,19.304 C27.217,19.856 27.196,20.413 27.177,20.966 C27.047,25.428 27.908,30.02 22.44,31.13 C19.277,31.773 16.168,31.518 13.044,31.263 C11.214,31.113 9.379,30.964 7.524,30.995 C7.376,30.998 7.238,30.997 7.111,30.997 C6.266,30.993 5.861,30.99 5.545,31.916 C5.166,33.03 5.236,34.478 5.097,35.657 C4.938,36.955 4.759,38.254 4.645,39.558 C4.519,41.05 4.699,42.239 6.405,42.334 C9.525,42.513 12.676,42.486 15.82,42.459 C17.378,42.445 18.935,42.432 20.485,42.443 C20.948,42.447 21.432,42.434 21.924,42.421 C24.889,42.344 28.151,42.266 28.928,45.762 C29.376,47.791 29.217,50.04 29.286,52.11 C29.36,54.379 29.4,56.643 29.41,58.911 C29.415,60.697 29.261,62.577 29.564,64.344 C29.878,66.17 30.445,66.722 32.336,66.652 C34.694,66.563 37.058,66.234 39.405,66.001 C41.476,65.802 44.231,66.006 46.142,65.14 C47.898,64.344 47.63,62.154 47.51,60.513 C47.351,58.424 47.092,56.334 46.878,54.244 C46.569,51.185 44.814,45.434 48.341,43.607 C50.082,42.707 52.555,42.707 54.465,42.522 C56.495,42.324 58.53,42.264 60.555,42.04 C61.858,41.895 63.376,41.731 64.609,41.249 C65.813,40.776 65.933,40.353 66.003,39.109 C66.127,36.921 66.053,34.707 66.077,32.513 M68.311,23.329 C72.043,25.741 70.828,31.632 70.754,35.339 C70.664,39.911 71.003,44.18 65.844,45.707 C63.436,46.418 60.878,46.627 58.386,46.797 C56.191,46.94 53.256,46.692 51.137,47.543 C51.187,48.011 51.241,48.473 51.312,48.931 C51.381,49.463 51.455,49.99 51.519,50.522 C51.669,51.762 51.799,53.006 51.933,54.244 C52.191,56.558 52.555,58.886 52.68,61.209 C52.923,65.697 51.067,69.538 46.391,70.513 C43.804,71.056 41.082,71.18 38.455,71.478 C36.032,71.757 33.505,72.334 31.062,72.339 C26.44,72.358 24.196,68.688 23.818,64.508 C23.395,59.847 24.013,54.951 24.301,50.294 C24.355,49.389 24.391,48.478 24.47,47.572 C24.49,47.304 24.684,46.572 24.669,46.194 C24.595,46.722 22.48,46.389 21.908,46.373 C19.217,46.289 16.529,46.209 13.843,46.125 C11.167,46.045 8.425,46.13 5.764,45.846 C4.211,45.682 2.674,45.234 1.749,43.881 C0.524,42.09 1.022,39.498 0.992,37.483 C0.957,35.13 0.659,32.598 1.047,30.274 C1.908,25.1 8.047,25.746 11.997,25.966 C14.649,26.114 17.341,26.439 19.997,26.239 C20.391,26.209 21.738,26.159 22.355,25.881 C22.127,25.498 22.008,25.025 22.092,24.473 C22.564,21.368 23.087,18.264 23.341,15.135 C23.574,12.199 23.301,9.244 23.53,6.328 C23.942,1.025 28.903,0.323 33.236,0.473 C33.926,0.496 34.709,0.48 35.539,0.464 C39.476,0.388 44.473,0.311 45.664,4.458 C46.396,6.995 46.316,9.971 46.346,12.592 C46.381,15.592 46.191,18.587 45.813,21.563 C45.719,22.318 45.739,24.354 45.316,25.164 C45.898,25.01 46.903,25.016 47.301,24.955 C49.813,24.572 52.326,24.189 54.833,23.801 C57.56,23.384 60.286,22.916 63.022,22.558 C64.844,22.318 66.714,22.294 68.311,23.329" id="Fill-109" fill="#257256"></path>
                <path d="M49.373,37.613 C46.552,37.613 43.706,37.225 40.924,36.893 C38.035,36.547 35.481,35.434 34.424,32.517 C31.899,25.551 36.427,17.753 35.273,10.58 C35.094,9.464 35.989,8.72 36.839,8.72 C37.398,8.72 37.937,9.042 38.141,9.789 C39.728,15.631 38.23,21.48 38.66,27.396 C38.734,28.417 38.754,30.506 39.738,31.191 C40.226,31.531 41.069,31.593 41.881,31.593 C42.116,31.593 42.348,31.588 42.568,31.582 C42.788,31.577 42.996,31.572 43.183,31.572 C43.297,31.572 43.403,31.574 43.499,31.579 C46.595,31.74 49.767,31.731 52.759,32.617 C54.898,33.25 55.323,37.042 52.759,37.395 C51.638,37.55 50.507,37.613 49.373,37.613" id="Fill-110" fill="#9CCB86"></path>
                <path d="M41.486,61.703 C41.005,61.703 40.524,61.528 40.209,61.179 C37.282,57.938 39.169,52.327 39.828,48.498 C39.97,47.677 40.728,47.266 41.486,47.266 C42.245,47.266 43.004,47.677 43.145,48.498 C43.805,52.327 45.687,57.944 42.765,61.179 C42.449,61.528 41.968,61.703 41.486,61.703" id="Fill-111" fill="#9CCB86"></path>
            </g>
        </g>
    </g>
</svg>