<?xml version="1.0" encoding="UTF-8"?>
<svg width="56px" height="24px" viewBox="0 0 56 24" version="1.1" xmlns="http://www.w3.org/2000/svg" xmlns:xlink="http://www.w3.org/1999/xlink">
    <!-- Generator: Sketch 51.1 (57501) - http://www.bohemiancoding.com/sketch -->
    <title>Group 15</title>
    <desc>Created with Sketch.</desc>
    <defs></defs>
    <g id="Page-1" stroke="none" stroke-width="1" fill="none" fill-rule="evenodd">
        <g id="293959-P70SA5-767" transform="translate(-300.000000, -417.000000)">
            <g id="Group-15" transform="translate(300.000000, 417.000000)">
                <path d="M44.968,3.463 C40.067,3.781 35.127,3.896 30.236,4.358 C25.933,4.334 21.629,4.413 17.321,4.567 C14.714,4.662 12.063,4.683 9.47,4.956 C7.286,5.185 6.106,6.443 5.783,8.578 C5.415,11.011 5.266,13.603 5.146,16.056 C5.032,18.379 5.6,20.523 7.724,21.757 C9.375,22.717 11.36,22.782 13.217,22.871 C16.047,23.006 18.878,23.051 21.709,23.13 C27.381,23.294 33.037,23.479 38.714,23.408 C41.391,23.379 44.067,23.329 46.744,23.265 C48.868,23.21 51.515,23.443 53.191,21.837 C54.699,20.384 54.928,17.807 55.207,15.866 C55.564,13.344 55.978,10.712 55.863,8.155 C55.58,1.688 49.495,3.17 44.968,3.463" id="Fill-112" fill="#E5E5E0"></path>
                <path d="M45.903,4.448 C46.749,5.353 45.963,8.737 45.823,10.016 C45.704,11.095 45.545,12.175 45.391,13.249 C45.306,13.847 45.395,15.329 44.883,15.776 C44.583,16.037 43.621,16.014 42.901,15.99 C42.617,15.981 42.37,15.972 42.217,15.98 C41.112,16.035 40.013,16.09 38.908,16.135 C36.704,16.22 34.5,16.244 32.296,16.255 C24.027,16.294 15.465,16.349 7.276,15.03 C6.833,14.961 5.843,14.911 5.524,14.548 C5.032,13.98 5.44,12.424 5.485,11.717 C5.545,10.826 5.6,9.936 5.659,9.04 C5.688,8.598 5.714,8.149 5.744,7.702 C5.764,7.408 5.783,7.11 5.804,6.812 L5.804,6.787 C6.087,6.752 6.37,6.717 6.654,6.683 C7.092,6.717 7.634,6.567 8.072,6.518 C9.013,6.408 9.958,6.299 10.903,6.194 C13.106,5.956 15.311,5.737 17.52,5.538 C25.077,4.856 32.654,4.379 40.236,3.951 L40.44,3.946 C41.724,3.921 44.963,3.438 45.903,4.448" id="Fill-113" fill="#DE4274"></path>
                <path d="M45.823,10.016 C45.963,8.737 46.749,5.353 45.903,4.448 C44.963,3.438 41.724,3.921 40.44,3.946 L40.236,3.951 C32.654,4.379 25.077,4.856 17.52,5.538 C15.311,5.737 13.106,5.956 10.903,6.194 C9.958,6.299 9.013,6.408 8.072,6.518 C7.634,6.567 7.092,6.717 6.654,6.683 C6.37,6.717 6.087,6.752 5.804,6.787 L5.804,6.812 C5.783,7.11 5.764,7.408 5.744,7.702 C5.714,8.149 5.688,8.598 5.659,9.04 C5.6,9.936 5.545,10.826 5.485,11.717 C5.44,12.424 5.032,13.98 5.524,14.548 C5.843,14.911 6.833,14.961 7.276,15.03 C15.465,16.349 24.027,16.294 32.296,16.255 C34.5,16.244 36.704,16.22 38.908,16.135 C40.013,16.09 41.112,16.035 42.217,15.98 C42.37,15.972 42.617,15.981 42.901,15.99 C43.621,16.014 44.583,16.037 44.883,15.776 C45.395,15.329 45.306,13.847 45.391,13.249 C45.545,12.175 45.704,11.095 45.823,10.016 M50.863,5.155 C50.978,7.712 50.564,10.344 50.207,12.866 C49.928,14.807 49.699,17.384 48.191,18.837 C46.515,20.443 43.868,20.21 41.744,20.265 C39.067,20.329 36.391,20.379 33.714,20.408 C28.037,20.478 22.381,20.294 16.709,20.13 C13.878,20.051 11.047,20.006 8.217,19.871 C6.36,19.782 4.376,19.717 2.724,18.757 C0.6,17.523 0.032,15.379 0.146,13.056 C0.266,10.603 0.415,8.011 0.783,5.578 C1.106,3.443 2.286,2.185 4.47,1.956 C7.062,1.683 9.714,1.662 12.321,1.567 C16.629,1.413 20.933,1.334 25.236,1.358 C30.127,0.896 35.067,0.781 39.968,0.463 C44.495,0.17 50.58,-1.312 50.863,5.155" id="Fill-114" fill="#AD2555"></path>
                <path d="M26.156,11.935 C21.358,11.934 16.578,11.212 11.922,9.896 C10.626,9.53 11.057,7.734 12.253,7.734 C12.335,7.734 12.421,7.743 12.511,7.761 C14.621,8.188 16.738,8.334 18.859,8.334 C21.135,8.334 23.416,8.166 25.697,7.998 C27.978,7.83 30.26,7.662 32.539,7.662 C32.739,7.662 32.939,7.663 33.139,7.666 C35.18,7.693 35.76,10.982 33.635,11.331 C31.146,11.74 28.649,11.935 26.156,11.935" id="Fill-115" fill="#E46D98"></path>
            </g>
        </g>
    </g>
</svg>