<?xml version="1.0" encoding="UTF-8"?>
<svg width="38px" height="36px" viewBox="0 0 38 36" version="1.1" xmlns="http://www.w3.org/2000/svg" xmlns:xlink="http://www.w3.org/1999/xlink">
    <!-- Generator: Sketch 51.1 (57501) - http://www.bohemiancoding.com/sketch -->
    <title>Group 13</title>
    <desc>Created with Sketch.</desc>
    <defs></defs>
    <g id="Page-1" stroke="none" stroke-width="1" fill="none" fill-rule="evenodd">
        <g id="293959-P70SA5-767" transform="translate(-242.000000, -355.000000)">
            <g id="Group-13" transform="translate(242.000000, 355.000000)">
                <path d="M12.032,7.046 C8.176,9.936 5.788,14.544 5.589,19.354 C5.081,31.354 18.853,39.589 29.395,33.574 C37.545,28.927 40.594,16.867 34.689,9.266 C29.37,2.409 18.703,2.036 12.032,7.046" id="Fill-98" fill="#E5E5E0"></path>
                <path d="M23.142,6.817 C29.37,10.608 29.171,19.812 24.425,24.777 C19.942,29.475 12.017,29.708 7.569,24.882 C2.086,18.937 5.395,11.37 10.341,6.325 C14.351,4.43 19.38,4.529 23.142,6.817" id="Fill-100" fill="#E77D66"></path>
                <path d="M24.425,24.777 C29.171,19.812 29.37,10.608 23.142,6.817 C19.38,4.529 14.351,4.43 10.341,6.325 C5.395,11.37 2.086,18.937 7.569,24.882 C12.017,29.708 19.942,29.475 24.425,24.777 M29.688,6.266 C35.595,13.867 32.545,25.927 24.396,30.574 C13.853,36.589 0.082,28.354 0.589,16.355 C0.788,11.544 3.176,6.937 7.032,4.046 C13.703,-0.964 24.37,-0.591 29.688,6.266" id="Fill-101" fill="#C54C3B"></path>
                <path d="M22.154,23.769 C21.117,23.769 20.125,22.991 20.006,21.688 C19.844,19.9 21.641,14.321 18.322,14.321 C18.242,14.321 18.158,14.324 18.071,14.331 C18.015,14.335 17.96,14.338 17.906,14.338 C15.935,14.338 15.885,11.454 17.599,10.838 C18.145,10.642 18.707,10.55 19.265,10.55 C21.272,10.55 23.235,11.733 24.3,13.479 C25.941,16.17 25.739,20.224 23.972,22.762 C23.489,23.455 22.812,23.769 22.154,23.769" id="Fill-103" fill="#EEA28C"></path>
                <path d="M15.518,25.876 C12.699,25.876 12.704,21.504 15.518,21.504 C18.336,21.504 18.331,25.876 15.518,25.876" id="Fill-104" fill="#EEA28C"></path>
            </g>
        </g>
    </g>
</svg>