<?xml version="1.0" encoding="UTF-8"?>
<svg width="150px" height="213px" viewBox="0 0 150 213" version="1.1" xmlns="http://www.w3.org/2000/svg" xmlns:xlink="http://www.w3.org/1999/xlink">
    <!-- Generator: Sketch 51.1 (57501) - http://www.bohemiancoding.com/sketch -->
    <title>XMLID_1066_</title>
    <desc>Created with Sketch.</desc>
    <defs></defs>
    <g id="Page-1" stroke="none" stroke-width="1" fill="none" fill-rule="evenodd">
        <g id="XMLID_613_" transform="translate(-488.000000, 0.000000)" fill-rule="nonzero">
            <g id="XMLID_1066_" transform="translate(488.000000, 0.000000)">
                <g id="XMLID_1088_" transform="translate(83.000000, 169.000000)" fill="#986B29">
                    <polygon id="XMLID_1089_" points="37.7 34.9 0.5 14.6 0.5 0.8 37.8 21"></polygon>
                </g>
                <path d="M113.8,117.1 C111.6,113.4 108.9,110.6 105.6,108.7 L68.3,88.4 C71.5,90.3 74.3,93.1 76.5,96.8 C80.5,104.3 82.4,112.7 82.4,122 C82.4,126.3 82,130.8 81.3,135.5 C80.4,140.2 78.9,144.7 76.9,149 C75,153.1 72.3,156.6 68.9,159.7 C65.6,162.9 61.4,164.8 56.3,165.5 C52.2,166.1 48.7,165.6 45.8,164 L83.1,184.3 C86,185.9 89.4,186.3 93.6,185.8 C98.8,185.1 103,183.1 106.2,180 C109.6,177 112.2,173.4 114.2,169.3 C116.3,165 117.8,160.5 118.6,155.8 C119.3,151.1 119.7,146.6 119.7,142.3 C119.8,133 117.8,124.6 113.8,117.1 Z" id="XMLID_606_" fill="#986B29"></path>
                <g id="XMLID_1078_" transform="translate(68.000000, 88.000000)" fill="#000000">
                    <path d="M0.2,0.3 L37.5,20.6 C37.6,20.6 37.6,20.7 37.7,20.7 L0.4,0.4 C0.4,0.4 0.3,0.4 0.2,0.3 Z" id="XMLID_1079_"></path>
                </g>
                <g id="XMLID_1076_" transform="translate(82.000000, 0.000000)" fill="#E0A810">
                    <polygon id="XMLID_1077_" points="38.2 25.1 0.9 4.9 30.5 0.7 67.8 21"></polygon>
                </g>
                <g id="XMLID_1073_" transform="translate(82.000000, 4.000000)" fill="#B07E09">
                    <polygon id="XMLID_1074_" points="37.6 91.6 0.4 71.3 0.9 0.9 38.2 21.1"></polygon>
                </g>
                <g id="XMLID_1069_" transform="translate(37.000000, 20.000000)" fill="#FFF197">
                    <path d="M83.2,5.1 L112.8,0.9 L112.5,179.7 L83.8,183.7 L83.8,169.9 C74.3,182.4 62.9,189.5 49,191.5 C48.8,191.5 48.6,191.6 48.4,191.6 C31.2,193.7 18.9,188.8 11.5,177 C4.2,165.5 0.6,151 0.8,133.7 C0.7,116.2 4.3,100.8 11.7,87.3 C19.1,73.9 31.4,65.8 48.6,63 C62.9,61 74.2,65.1 82.6,75.4 L83.2,5.1 Z M81.6,135.8 C82.3,131.1 82.7,126.6 82.7,122.3 C82.7,113.1 80.7,104.7 76.8,97.1 C74.6,93.4 71.9,90.6 68.6,88.7 C65.2,86.8 61.1,86.2 56.2,86.9 C46.9,88.5 40.4,93.8 36.7,102.7 C34.9,106.8 33.7,111.1 32.9,115.9 C32,120.6 31.6,125.1 31.6,129.4 C31.4,138.3 33.2,146.8 36.9,154.9 C38.8,158.4 41.4,161.3 44.6,163.4 C47.7,165.7 51.7,166.5 56.5,165.8 C61.7,165.1 65.9,163.1 69.1,160 C72.5,157 75.1,153.4 77.1,149.3 C79.2,145 80.7,140.5 81.6,135.8 Z" id="XMLID_1070_"></path>
                </g>
                <g id="XMLID_1067_" transform="translate(0.000000, 62.000000)" fill="#B07E09">
                    <path d="M59.9,146.1 L22.6,125.8 C18,123.3 14.2,119.6 11.2,114.8 C3.9,103.3 0.3,88.8 0.5,71.5 C0.4,54 4,38.6 11.4,25.2 C18.8,11.8 31.1,3.7 48.3,0.9 C57.3,-0.4 65.2,0.8 71.8,4.4 L109.1,24.7 C102.4,21.1 94.6,19.9 85.6,21.2 C68.4,23.9 56.1,32 48.7,45.5 C41.3,58.9 37.7,74.4 37.8,91.9 C37.6,109.3 41.2,123.7 48.5,135.2 C51.5,139.9 55.3,143.6 59.9,146.1 Z" id="XMLID_1068_"></path>
                </g>
            </g>
        </g>
    </g>
</svg>