<?xml version="1.0" encoding="UTF-8"?>
<svg width="118px" height="209px" viewBox="0 0 118 209" version="1.1" xmlns="http://www.w3.org/2000/svg" xmlns:xlink="http://www.w3.org/1999/xlink">
    <!-- Generator: Sketch 51.1 (57501) - http://www.bohemiancoding.com/sketch -->
    <title>XMLID_1030_</title>
    <desc>Created with Sketch.</desc>
    <defs></defs>
    <g id="Page-1" stroke="none" stroke-width="1" fill="none" fill-rule="evenodd">
        <g id="XMLID_613_" transform="translate(-831.000000, -4.000000)" fill-rule="nonzero">
            <g id="XMLID_1030_" transform="translate(831.000000, 4.000000)">
                <g id="XMLID_1047_" transform="translate(75.000000, 26.000000)" fill="#000000">
                    <path d="M0.9,0.5 L38.2,20.8 C38.8,21.1 39.3,21.4 39.8,21.8 L2.5,1.5 C2,1.2 1.4,0.8 0.9,0.5 Z" id="XMLID_1048_"></path>
                </g>
                <g id="XMLID_1045_" transform="translate(51.000000, 57.000000)" fill="#E0A810">
                    <polygon id="XMLID_1046_" points="37.8 24.2 0.5 3.9 26.4 0.3 63.7 20.6"></polygon>
                </g>
                <g id="XMLID_1043_" transform="translate(21.000000, 88.000000)" fill="#B07E09">
                    <polygon id="XMLID_1044_" points="38 120.2 0.7 99.9 0.9 0.5 38.2 20.7"></polygon>
                </g>
                <path d="M79.9,0.7 C73.6,6.10622664e-16 66.4,0.1 58.3,1.1 C46.5,2.9 37.6,8 31.6,16.3 C25.2,24.8 22.1,35.4 22,47.9 L22,65.1 L59.3,85.4 L59.3,68.2 C59.3,55.6 62.5,45.1 68.9,36.6 C74.9,28.3 83.9,23.2 95.6,21.4 C103.7,20.4 110.9,20.3 117.2,21 L79.9,0.7 Z" id="XMLID_609_" fill="#E0A810"></path>
                <g id="XMLID_1035_" transform="translate(0.000000, 68.000000)" fill="#B07E09">
                    <polygon id="XMLID_1036_" points="37.3 43.8 0 23.5 0.1 0.2 37.3 20.4"></polygon>
                </g>
                <g id="XMLID_1033_" transform="translate(37.000000, 20.000000)" fill="#FFF197">
                    <path d="M58.5,1.4 C66.6,0.4 73.8,0.3 80.1,1 L77.6,27.8 C76.3,26.9 74.7,26.1 72.8,25.4 C70.9,24.9 68.2,24.9 64.8,25.3 C59.9,26.1 56.5,28.5 54.6,32.5 C52.7,36.6 51.7,41.1 51.7,46 L51.7,61.3 L77.5,57.7 L77.5,81.1 L51.7,84.7 L51.5,184.1 L21.9,188.3 L22.1,88.9 L0.2,92 L0.2,68.6 L22.1,65.5 L22.1,48.3 C22.1,35.7 25.3,25.2 31.7,16.7 C37.8,8.3 46.8,3.2 58.5,1.4 Z" id="XMLID_1034_"></path>
                </g>
                <g id="XMLID_1031_" transform="translate(0.000000, 65.000000)" fill="#E0A810">
                    <polygon id="XMLID_1032_" points="37.3 23.4 0.1 3.2 21.9 0.1 59.2 20.4"></polygon>
                </g>
            </g>
        </g>
    </g>
</svg>