<?xml version="1.0" encoding="UTF-8"?>
<svg width="143px" height="204px" viewBox="0 0 143 204" version="1.1" xmlns="http://www.w3.org/2000/svg" xmlns:xlink="http://www.w3.org/1999/xlink">
    <!-- Generator: Sketch 51.1 (57501) - http://www.bohemiancoding.com/sketch -->
    <title>XMLID_976_</title>
    <desc>Created with Sketch.</desc>
    <defs></defs>
    <g id="Page-1" stroke="none" stroke-width="1" fill="none" fill-rule="evenodd">
        <g id="XMLID_613_" transform="translate(-37.000000, -298.000000)" fill-rule="nonzero">
            <g id="XMLID_976_" transform="translate(37.000000, 298.000000)">
                <path d="M112.4,115.4 C112.3,111.3 111.5,107.7 110.2,104.5 C109.2,101 107.3,98.3 104.7,96.5 L67.4,76.2 C70,78.1 71.9,80.7 72.9,84.2 C74.2,87.4 75,91 75.1,95.1 C75.2,99.2 75.3,103.3 75.3,107.2 L75.2,172.8 L112.5,193.1 L112.6,127.5 C112.6,123.6 112.5,119.5 112.4,115.4 Z" id="XMLID_591_" fill="#986B29"></path>
                <g id="XMLID_989_" transform="translate(67.000000, 76.000000)" fill="#000000">
                    <path d="M0,0 L37.3,20.3 C37.4,20.4 37.6,20.4 37.7,20.5 L0.4,0.2 C0.3,0.1 0.2,0.1 0,0 Z" id="XMLID_990_"></path>
                </g>
                <path d="M88.4,51.5 C82.6,48.4 75.3,47.4 66.4,48.5 C50.5,51.1 38.5,59.2 30.6,73.1 L67.9,93.4 C75.9,79.6 87.8,71.4 103.7,68.8 C112.6,67.7 119.9,68.7 125.7,71.8 L88.4,51.5 Z" id="XMLID_592_" fill="#E0A810"></path>
                <g id="XMLID_983_" transform="translate(30.000000, 73.000000)" fill="#000000">
                    <polygon id="XMLID_984_" points="37.4 20.4 0.1 0.1 0.5 0 37.8 20.3"></polygon>
                </g>
                <g id="XMLID_981_" transform="translate(37.000000, 20.000000)" fill="#FFF197">
                    <path d="M30.5,0.6 L30.4,73.3 L30.8,73.2 C38.8,59.4 50.7,51.2 66.6,48.6 C80,46.9 89.9,50 96.2,58 C102.2,66.1 105.2,77.2 105.2,91.3 L105,169 L75.4,173.2 L75.5,107.6 C75.5,103.6 75.4,99.6 75.3,95.5 C75.2,91.4 74.4,87.8 73.1,84.6 C72.1,81.1 70.2,78.4 67.6,76.6 C64.8,74.9 61,74.4 56.3,75.1 C51,75.8 46.7,77.8 43.5,80.9 C40.2,84.1 37.6,87.9 35.5,92.3 C33.6,96.7 32.2,101.3 31.5,106 C30.6,110.9 30.2,115.4 30.2,119.5 L30.1,179.6 L0.5,183.8 L0.8,5 L30.5,0.6 Z" id="XMLID_982_"></path>
                </g>
                <g id="XMLID_979_" transform="translate(0.000000, 4.000000)" fill="#B07E09">
                    <polygon id="XMLID_980_" points="37.5 199.6 0.3 179.4 0.6 0.5 37.9 20.8"></polygon>
                </g>
                <g id="XMLID_977_" fill="#E0A810">
                    <polygon id="XMLID_978_" points="37.9 24.8 0.6 4.5 30.2 0.4 67.5 20.6"></polygon>
                </g>
            </g>
        </g>
    </g>
</svg>