<?xml version="1.0" encoding="UTF-8"?>
<svg width="68px" height="201px" viewBox="0 0 68 201" version="1.1" xmlns="http://www.w3.org/2000/svg" xmlns:xlink="http://www.w3.org/1999/xlink">
    <!-- Generator: Sketch 51.1 (57501) - http://www.bohemiancoding.com/sketch -->
    <title>XMLID_3_</title>
    <desc>Created with Sketch.</desc>
    <defs></defs>
    <g id="Page-1" stroke="none" stroke-width="1" fill="none" fill-rule="evenodd">
        <g id="XMLID_613_" transform="translate(-217.000000, -301.000000)" fill-rule="nonzero">
            <g id="XMLID_3_" transform="translate(217.000000, 301.000000)">
                <g id="XMLID_969_" transform="translate(0.000000, 53.000000)">
                    <g id="XMLID_974_" transform="translate(0.000000, 4.000000)" fill="#B07E09">
                        <polygon id="XMLID_975_" points="37.4 143.6 0.1 123.4 0.4 0.6 37.6 20.8"></polygon>
                    </g>
                    <g id="XMLID_972_" fill="#986B29">
                        <polygon id="XMLID_973_" points="37.6 24.8 0.4 4.6 30 0.4 67.2 20.7"></polygon>
                    </g>
                    <g id="XMLID_970_" transform="translate(37.000000, 20.000000)" fill="#FFF197">
                        <polygon id="XMLID_971_" points="0.4 127.6 0.6 4.8 30.2 0.7 30 123.5"></polygon>
                    </g>
                </g>
                <g id="XMLID_962_">
                    <g id="XMLID_967_" fill="#E0A810">
                        <polygon id="XMLID_968_" points="37.7 24.9 0.5 4.6 30.1 0.5 67.3 20.7"></polygon>
                    </g>
                    <g id="XMLID_965_" transform="translate(0.000000, 4.000000)" fill="#B07E09">
                        <polygon id="XMLID_966_" points="37.7 51.4 0.4 31.2 0.5 0.6 37.7 20.9"></polygon>
                    </g>
                    <g id="XMLID_963_" transform="translate(37.000000, 20.000000)" fill="#FFF197">
                        <polygon id="XMLID_964_" points="0.7 4.9 30.3 0.7 30.3 31.3 0.7 35.4"></polygon>
                    </g>
                </g>
            </g>
        </g>
    </g>
</svg>