<?xml version="1.0" encoding="UTF-8"?>
<svg width="87px" height="255px" viewBox="0 0 87 255" version="1.1" xmlns="http://www.w3.org/2000/svg" xmlns:xlink="http://www.w3.org/1999/xlink">
    <!-- Generator: Sketch 51.1 (57501) - http://www.bohemiancoding.com/sketch -->
    <title>XMLID_15_</title>
    <desc>Created with Sketch.</desc>
    <defs></defs>
    <g id="Page-1" stroke="none" stroke-width="1" fill="none" fill-rule="evenodd">
        <g id="XMLID_613_" transform="translate(-303.000000, -247.000000)" fill-rule="nonzero">
            <g id="XMLID_15_" transform="translate(303.000000, 247.000000)">
                <g id="XMLID_949_" transform="translate(0.000000, 53.000000)">
                    <g id="XMLID_958_" transform="translate(0.000000, 157.000000)" fill="#B07E09">
                        <polygon id="XMLID_959_" points="37.7 44.2 0.4 23.9 1.6 0.9 38.8 21.1"></polygon>
                    </g>
                    <g id="XMLID_954_" transform="translate(20.000000, 0.000000)" fill="#986B29">
                        <polygon id="XMLID_955_" points="37.2 24.6 0 4.4 29.6 0.2 66.8 20.5"></polygon>
                    </g>
                    <path d="M57.2,24.6 L20,4.4 L19.8,132 C19.9,141.2 19,147.4 16.9,150.8 C14.5,154.1 9.5,156.5 1.6,157.9 L38.9,178.2 C46.7,176.8 51.8,174.4 54.2,171.1 C56.3,167.8 57.2,161.5 57.1,152.3 L57.2,24.6 Z" id="XMLID_593_" fill="#B07E09"></path>
                    <g id="XMLID_950_" transform="translate(37.000000, 20.000000)" fill="#FFF197">
                        <path d="M20,132.2 L20.2,4.6 L49.8,0.4 L49.6,132.3 C49.6,136.6 49.2,141.3 48.5,146.3 C47.6,151.5 46,156.6 43.6,161.5 C41.2,166.1 37.8,170.3 33.4,173.9 C28.8,177.4 22.8,179.8 15.3,181 C9.8,181.8 5,181.8 0.7,181.1 L1.8,158.1 C9.6,156.7 14.7,154.3 17.1,151 C19.1,147.7 20.1,141.4 20,132.2 Z" id="XMLID_951_"></path>
                    </g>
                </g>
                <g id="XMLID_942_" transform="translate(20.000000, 0.000000)">
                    <g id="XMLID_947_" fill="#E0A810">
                        <polygon id="XMLID_948_" points="37.3 24.7 0.1 4.4 29.7 0.3 66.9 20.5"></polygon>
                    </g>
                    <g id="XMLID_945_" transform="translate(0.000000, 4.000000)" fill="#B07E09">
                        <polygon id="XMLID_946_" points="37.3 51.2 0 31 0.1 0.4 37.3 20.7"></polygon>
                    </g>
                    <g id="XMLID_943_" transform="translate(37.000000, 20.000000)" fill="#FFF197">
                        <polygon id="XMLID_944_" points="0.3 4.7 29.9 0.5 29.9 31.1 0.3 35.2"></polygon>
                    </g>
                </g>
            </g>
        </g>
    </g>
</svg>