<?xml version="1.0" encoding="UTF-8"?>
<svg width="144px" height="204px" viewBox="0 0 144 204" version="1.1" xmlns="http://www.w3.org/2000/svg" xmlns:xlink="http://www.w3.org/1999/xlink">
    <!-- Generator: Sketch 51.1 (57501) - http://www.bohemiancoding.com/sketch -->
    <title>XMLID_927_</title>
    <desc>Created with Sketch.</desc>
    <defs></defs>
    <g id="Page-1" stroke="none" stroke-width="1" fill="none" fill-rule="evenodd">
        <g id="XMLID_613_" transform="translate(-428.000000, -298.000000)" fill-rule="nonzero">
            <g id="XMLID_927_" transform="translate(428.000000, 298.000000)">
                <g id="XMLID_940_" transform="translate(30.000000, 119.000000)" fill="#986B29">
                    <polygon id="XMLID_941_" points="75.6 75.1 38.4 54.8 0.5 0.5 37.8 20.8"></polygon>
                </g>
                <g id="XMLID_938_" transform="translate(66.000000, 46.000000)" fill="#E0A810">
                    <polygon id="XMLID_939_" points="37.2 25.6 0 5.4 34.9 0.5 72.1 20.7"></polygon>
                </g>
                <g id="XMLID_936_" transform="translate(30.000000, 51.000000)" fill="#986B29">
                    <polygon id="XMLID_937_" points="37.8 74.7 0.5 54.5 36 0.4 73.2 20.6"></polygon>
                </g>
                <g id="XMLID_934_" transform="translate(30.000000, 105.000000)" fill="#000000">
                    <polygon id="XMLID_935_" points="37.3 20.8 0.1 0.5 0.5 0.5 37.8 20.7"></polygon>
                </g>
                <g id="XMLID_932_" transform="translate(0.000000, 4.000000)" fill="#B07E09">
                    <polygon id="XMLID_933_" points="37.6 199.6 0.3 179.4 0.7 0.5 37.9 20.8"></polygon>
                </g>
                <g id="XMLID_930_" fill="#E0A810">
                    <polygon id="XMLID_931_" points="37.9 24.8 0.7 4.5 30.3 0.4 67.5 20.6"></polygon>
                </g>
                <g id="XMLID_928_" transform="translate(37.000000, 20.000000)" fill="#FFF197">
                    <polygon id="XMLID_929_" points="30.5 0.6 30.3 105.8 30.8 105.7 66.2 51.6 101.1 46.7 58.6 107.6 106.2 168.8 68.6 174.1 30.8 119.8 30.3 119.9 30.2 179.5 0.6 183.6 0.9 4.8"></polygon>
                </g>
            </g>
        </g>
    </g>
</svg>