<?xml version="1.0" encoding="UTF-8"?>
<svg width="206px" height="167px" viewBox="0 0 206 167" version="1.1" xmlns="http://www.w3.org/2000/svg" xmlns:xlink="http://www.w3.org/1999/xlink">
    <!-- Generator: Sketch 51.1 (57501) - http://www.bohemiancoding.com/sketch -->
    <title>XMLID_887_</title>
    <desc>Created with Sketch.</desc>
    <defs></defs>
    <g id="Page-1" stroke="none" stroke-width="1" fill="none" fill-rule="evenodd">
        <g id="XMLID_613_" transform="translate(-699.000000, -336.000000)" fill-rule="nonzero">
            <g id="XMLID_887_" transform="translate(699.000000, 336.000000)">
                <path d="M173.7,55.3 C172.7,52.6 171.1,50.5 168.8,49.1 L131.5,28.8 C133.7,30.2 135.3,32.3 136.4,35 C137.9,40.7 138.5,46.6 138.4,52.8 L138.3,126 L175.6,146.3 L175.7,73.1 C175.8,66.9 175.2,61 173.7,55.3 Z" id="XMLID_597_" fill="#986B29"></path>
                <g id="XMLID_912_" transform="translate(131.000000, 28.000000)" fill="#000000">
                    <path d="M0.3,0.6 L37.6,20.9 C37.7,21 37.8,21 37.9,21.1 L0.6,0.8 C0.5,0.7 0.4,0.7 0.3,0.6 Z" id="XMLID_913_"></path>
                </g>
                <path d="M153.4,4 C148,1.1 141,0.2 132.1,1.3 C125,2.3 118.3,5 112,9.4 C105.4,13.8 100.2,20 96.5,28 L133.8,48.3 C137.5,40.3 142.7,34.1 149.3,29.7 C155.6,25.3 162.3,22.6 169.4,21.6 C178.2,20.5 185.3,21.3 190.7,24.3 L153.4,4 Z" id="XMLID_595_" fill="#E0A810"></path>
                <path d="M105,64.9 C104,62.2 102.4,60.1 100.1,58.7 L62.8,38.4 C65,39.8 66.6,41.9 67.7,44.6 C69.2,50.3 69.8,56.2 69.7,62.4 L69.6,135.6 L106.9,155.9 L107,82.7 C107.1,76.6 106.5,70.6 105,64.9 Z" id="XMLID_598_" fill="#986B29"></path>
                <g id="XMLID_900_" transform="translate(62.000000, 38.000000)" fill="#000000">
                    <path d="M0.6,0.3 L37.9,20.6 C38,20.7 38.1,20.7 38.2,20.8 L0.9,0.5 C0.8,0.4 0.7,0.3 0.6,0.3 Z" id="XMLID_901_"></path>
                </g>
                <g id="XMLID_898_" transform="translate(63.000000, 10.000000)" fill="#E0A810">
                    <path d="M20.9,3.8 L58.2,24.1 C52.6,21.1 45.8,20.1 37.7,21.2 L0.4,0.9 C8.5,-0.2 15.3,0.8 20.9,3.8 Z" id="XMLID_899_"></path>
                </g>
                <path d="M63.5,10.9 C63.3,10.9 63.2,10.9 63,11 C57.4,11.8 51.6,14 45.5,17.7 C39.5,21.6 34,27.6 28.7,35.8 L66,56.1 C71.3,47.9 76.8,41.9 82.8,38 C88.8,34.3 94.7,32 100.3,31.3 C100.5,31.3 100.6,31.2 100.8,31.2 L63.5,10.9 Z" id="XMLID_594_" fill="#E0A810"></path>
                <g id="XMLID_892_" transform="translate(1.000000, 18.000000)" fill="#E0A810">
                    <polygon id="XMLID_893_" points="37.3 24.8 0.1 4.6 27.7 0.7 65 21"></polygon>
                </g>
                <g id="XMLID_890_" transform="translate(37.000000, 21.000000)" fill="#FFF197">
                    <path d="M63.7,10.2 C79.3,8 90.3,13.7 96.7,27.3 C100.4,19.3 105.6,13.1 112.2,8.7 C118.5,4.3 125.2,1.6 132.3,0.6 C146.1,-1.2 155.7,2 161,10.2 C166,18.4 168.4,29.6 168.2,43.8 L168.1,121.3 L138.5,125.5 L138.6,52.3 C138.8,46.1 138.1,40.1 136.6,34.5 C135.6,31.8 134,29.7 131.7,28.3 C129.3,26.9 126,26.5 121.5,27.1 C116.6,27.8 112.8,29.7 110,32.8 C106.9,35.9 104.6,39.8 103.1,44.3 C101.6,48.6 100.7,53.1 100.2,57.8 C99.6,62.8 99.3,67.4 99.3,71.5 L99.2,131.1 L69.6,135.3 L69.7,62.1 C69.9,55.9 69.2,49.9 67.7,44.3 C66.7,41.6 65.1,39.5 62.8,38.1 C60.4,36.7 57.1,36.3 52.6,36.9 C47.7,37.6 43.9,39.5 41.1,42.6 C38,45.7 35.7,49.6 34.2,54.1 C32.7,58.4 31.8,62.9 31.3,67.6 C30.7,72.6 30.4,77.2 30.4,81.3 L30.3,140.9 L0.7,145.1 L0.9,22.3 L29,18 L29,35.2 C34.3,27 39.8,21 45.8,17.1 C51.8,13.4 57.7,11.1 63.3,10.4 C63.4,10.3 63.5,10.2 63.7,10.2 Z" id="XMLID_891_"></path>
                </g>
                <g id="XMLID_888_" transform="translate(0.000000, 22.000000)" fill="#B07E09">
                    <polygon id="XMLID_889_" points="38.1 143.6 0.9 123.4 1.1 0.6 38.3 20.8"></polygon>
                </g>
            </g>
        </g>
    </g>
</svg>