<?xml version="1.0" encoding="UTF-8"?>
<svg width="157px" height="151px" viewBox="0 0 157 151" version="1.1" xmlns="http://www.w3.org/2000/svg" xmlns:xlink="http://www.w3.org/1999/xlink">
    <!-- Generator: Sketch 51.1 (57501) - http://www.bohemiancoding.com/sketch -->
    <title>XMLID_851_</title>
    <desc>Created with Sketch.</desc>
    <defs></defs>
    <g id="Page-1" stroke="none" stroke-width="1" fill="none" fill-rule="evenodd">
        <g id="XMLID_613_" transform="translate(-11.000000, -578.000000)" fill-rule="nonzero">
            <g id="XMLID_851_" transform="translate(11.000000, 578.000000)">
                <g id="XMLID_862_" transform="translate(45.000000, 102.000000)" fill="#000000">
                    <path d="M37.7,20.5 L0.4,0.2 C0.6,0.3 0.8,0.4 0.9,0.5 L38.2,20.8 C38.1,20.7 37.9,20.6 37.7,20.5 Z" id="XMLID_863_"></path>
                </g>
                <path d="M119,53.9 C117.2,51.5 115.1,49.6 112.6,48.3 L75.3,28 C77.8,29.3 79.9,31.2 81.7,33.6 C86.3,40.1 88.5,48.3 88.5,58.2 C88.5,63.3 88.1,68.3 87.4,73.4 C86.7,78.6 85.2,83.4 83,87.9 C80.8,92.3 77.8,96 74.1,98.9 C70.3,102 65.5,103.9 59.7,104.7 C54.5,105.4 50.2,104.9 46.8,103 L84.1,123.3 C87.5,125.2 91.8,125.7 97,125 C102.7,124.2 107.5,122.2 111.4,119.2 C115.1,116.3 118,112.6 120.3,108.2 C122.5,103.8 124,98.9 124.7,93.7 C125.4,88.7 125.8,83.6 125.8,78.5 C125.8,68.6 123.5,60.4 119,53.9 Z" id="XMLID_590_" fill="#986B29"></path>
                <g id="XMLID_856_" fill="#B07E09">
                    <path d="M63.1,144.8 L25.8,124.5 C22.2,122.5 18.9,120 15.9,117 C5.5,106.5 0.3,92.3 0.3,74.4 C0.5,53.9 6.3,37.1 17.6,24.1 C28.7,11.3 42.7,3.6 59.8,1 C73,-0.7 84.3,1 93.9,6.2 L131.2,26.5 C121.7,21.3 110.3,19.6 97.1,21.3 C80,23.9 65.9,31.6 54.9,44.4 C43.5,57.4 37.8,74.2 37.6,94.7 C37.6,112.7 42.8,126.9 53.2,137.3 C56.2,140.3 59.4,142.9 63.1,144.8 Z" id="XMLID_857_"></path>
                </g>
                <g id="XMLID_852_" transform="translate(37.000000, 20.000000)" fill="#FFF197">
                    <path d="M102.8,12.4 C114,22.3 119.6,37.4 119.7,57.9 C119.7,75.9 114.5,91.5 104.1,104.9 C93.8,118.4 79,126.7 59.9,129.7 C41,132 26.5,127.9 16.2,117.2 C5.8,106.7 0.6,92.5 0.6,74.6 C0.8,54.1 6.6,37.3 17.9,24.3 C29,11.5 43,3.8 60.1,1.2 C77.5,-1.1 91.8,2.7 102.8,12.4 Z M87.6,73.7 C88.3,68.7 88.7,63.6 88.7,58.5 C88.7,48.6 86.4,40.5 81.9,33.9 C77.1,27.4 69.8,24.8 60.1,26 C50.7,27.5 43.6,32.2 38.9,40.2 C34,48 31.6,56.8 31.6,66.5 C31.6,68.9 31.7,71.2 32,73.6 C32.3,76.3 32.6,78.7 33.1,81.1 C34,86.1 35.4,90.5 37.5,94.3 C39.7,98.1 42.6,101 46.3,102.8 C49.8,105 54.4,105.7 60,104.9 C65.7,104.1 70.5,102.1 74.4,99.1 C78.1,96.2 81,92.5 83.3,88.1 C85.4,83.7 86.9,78.8 87.6,73.7 Z" id="XMLID_853_"></path>
                </g>
            </g>
        </g>
    </g>
</svg>