<?xml version="1.0" encoding="UTF-8"?>
<svg width="106px" height="155px" viewBox="0 0 106 155" version="1.1" xmlns="http://www.w3.org/2000/svg" xmlns:xlink="http://www.w3.org/1999/xlink">
    <!-- Generator: Sketch 51.1 (57501) - http://www.bohemiancoding.com/sketch -->
    <title>XMLID_782_</title>
    <desc>Created with Sketch.</desc>
    <defs></defs>
    <g id="Page-1" stroke="none" stroke-width="1" fill="none" fill-rule="evenodd">
        <g id="XMLID_613_" transform="translate(-556.000000, -578.000000)" fill-rule="nonzero">
            <g id="XMLID_782_" transform="translate(556.000000, 578.000000)">
                <g id="XMLID_793_" transform="translate(27.000000, 35.000000)" fill="#000000">
                    <polygon id="XMLID_794_" points="37.4 21.2 0.2 0.9 0.6 0.9 37.9 21.1"></polygon>
                </g>
                <path d="M67.9,0.4 C64.8,0.2 61.8,0.3 58.8,0.7 C50,2.3 42.8,6.9 37.3,14.7 L74.6,35 C80.1,27.2 87.2,22.6 96.1,21 C99,20.6 102.1,20.5 105.2,20.7 L67.9,0.4 Z" id="XMLID_586_" fill="#E0A810"></path>
                <g id="XMLID_789_" transform="translate(27.000000, 14.000000)" fill="#B07E09">
                    <path d="M37.9,42.1 L0.6,21.8 C1.5,15.3 4.7,8.3 10.4,0.6 L47.7,20.9 C42,28.6 38.8,35.6 37.9,42.1 Z" id="XMLID_790_"></path>
                </g>
                <g id="XMLID_787_" transform="translate(0.000000, 8.000000)" fill="#E0A810">
                    <polygon id="XMLID_788_" points="38.2 24 0.9 3.7 27.2 0 64.5 20.3"></polygon>
                </g>
                <g id="XMLID_785_" transform="translate(0.000000, 11.000000)" fill="#B07E09">
                    <polygon id="XMLID_786_" points="38 143.8 0.7 123.5 0.9 0.7 38.2 21"></polygon>
                </g>
                <g id="XMLID_783_" transform="translate(38.000000, 20.000000)" fill="#FFF197">
                    <path d="M58.1,1 C61,0.6 64.1,0.5 67.2,0.7 L67.1,32.9 C64,31.6 59.6,31.3 53.9,32.1 C48,32.9 43.4,35.3 40.2,39.3 C36.9,43.1 34.5,47.8 32.9,53.4 C31.4,58.7 30.5,64.2 30.2,70 C29.9,75.6 29.7,80.8 29.7,85.6 L29.6,130.7 L-1.13686838e-13,134.9 L0.2,12.1 L26.5,8.4 L26.4,36.3 L26.8,36.2 C27.7,29.7 30.9,22.7 36.6,15 C42.1,7.2 49.3,2.6 58.1,1 Z" id="XMLID_784_"></path>
                </g>
            </g>
        </g>
    </g>
</svg>