<?xml version="1.0" encoding="UTF-8"?>
<svg width="120px" height="153px" viewBox="0 0 120 153" version="1.1" xmlns="http://www.w3.org/2000/svg" xmlns:xlink="http://www.w3.org/1999/xlink">
    <!-- Generator: Sketch 51.1 (57501) - http://www.bohemiancoding.com/sketch -->
    <title>XMLID_751_</title>
    <desc>Created with Sketch.</desc>
    <defs></defs>
    <g id="Page-1" stroke="none" stroke-width="1" fill="none" fill-rule="evenodd">
        <g id="XMLID_613_" transform="translate(-679.000000, -578.000000)" fill-rule="nonzero">
            <g id="XMLID_751_" transform="translate(679.000000, 578.000000)">
                <g id="XMLID_778_" transform="translate(66.000000, 56.000000)" fill="#000000">
                    <path d="M1.4,0.5 L38.7,20.8 C38.4,20.6 38.1,20.5 37.8,20.3 L0.5,0 C0.8,0.2 1.1,0.4 1.4,0.5 Z" id="XMLID_779_"></path>
                </g>
                <g id="XMLID_774_" transform="translate(46.000000, 80.000000)" fill="#000000">
                    <path d="M0.2,0.7 L37.5,21 C38.8,21.7 39.8,22.5 40.7,23.6 L3.4,3.3 C2.6,2.2 1.5,1.4 0.2,0.7 Z" id="XMLID_775_"></path>
                </g>
                <path d="M66.5,56.1 C63.4,54.8 60.2,53.8 56.8,53.2 C53.7,52.4 50.6,51.7 47.5,51.2 C44.4,50.7 41.6,50 39.1,49.3 L76.4,69.6 C78.9,70.4 81.7,71 84.8,71.5 C87.9,72 91,72.7 94.1,73.5 C97.5,74.1 100.7,75.1 103.8,76.4 L66.5,56.1 Z" id="XMLID_585_" fill="#986B29"></path>
                <g id="XMLID_766_" transform="translate(35.000000, 47.000000)" fill="#000000">
                    <path d="M37.6,21.1 L0.3,0.8 C1.4,1.4 2.6,1.8 4.1,2.2 L41.4,22.5 C39.9,22.1 38.7,21.7 37.6,21.1 Z" id="XMLID_767_"></path>
                </g>
                <path d="M86.7,103.5 L49.4,83.2 C50.7,85.1 51.4,87.6 51.4,90.8 C51.2,96.5 49,100.8 44.5,103.5 C40.2,106.3 36,108 31.9,108.6 C21.7,110 12,108.7 2.8,104.6 L40.1,124.9 C49.4,129 59.1,130.3 69.2,128.9 C73.3,128.3 77.5,126.6 81.8,123.8 C86.2,121.1 88.5,116.9 88.7,111.1 C88.7,107.9 88,105.4 86.7,103.5 Z" id="XMLID_584_" fill="#986B29"></path>
                <g id="XMLID_762_" transform="translate(1.000000, 104.000000)" fill="#B07E09">
                    <polygon id="XMLID_763_" points="37.3 47.3 0 27.1 1.8 0.6 39.1 20.9"></polygon>
                </g>
                <g id="XMLID_758_" transform="translate(2.000000, 59.000000)" fill="#B07E09">
                    <path d="M48.4,32.8 L11.1,12.5 C9.3,11.5 7.7,10.4 6.2,9.1 C3.7,6.9 1.8,4 0.5,0.4 L37.8,20.7 C39.1,24.3 41,27.2 43.5,29.4 C45,30.7 46.6,31.8 48.4,32.8 Z" id="XMLID_759_"></path>
                </g>
                <path d="M77,1.7 C72.6,1 67.9,0.6 62.9,0.3 C57.7,0.2 51.7,0.7 44.8,1.7 C32.9,3.4 22.6,7.8 14.1,15.1 L51.4,35.4 C59.9,28.2 70.2,23.7 82.1,22 C89,21 95.1,20.6 100.2,20.6 C105.2,20.8 109.9,21.3 114.3,22 L77,1.7 Z" id="XMLID_587_" fill="#E0A810"></path>
                <g id="XMLID_754_" transform="translate(37.000000, 20.000000)" fill="#FFF197">
                    <path d="M45,1.9 C51.9,0.9 58,0.5 63.1,0.5 C68.1,0.7 72.8,1.2 77.2,1.9 L75.2,26.3 C70.9,25.2 66.8,24.4 62.8,24 C58.8,23.8 54.1,24 48.7,24.8 C44.6,25.4 40.7,26.8 37.2,29 C33.4,31.6 31.4,35.5 31.2,40.8 C31.3,45.4 34.1,48.3 39.4,49.4 C41.9,50.2 44.7,50.8 47.8,51.3 C50.9,51.8 54,52.5 57.1,53.3 C60.5,53.9 63.7,54.9 66.8,56.2 C69.7,57.7 72.4,59.6 74.7,61.8 C77.2,64.1 79.2,67.1 80.6,70.7 C81.9,74.5 82.6,79.2 82.6,85 C82.3,99.2 77.4,110.1 68,117.8 C58.6,125.3 47.5,130 34.8,131.8 C23.5,133.2 12.3,133.1 1.2,131.3 L3,104.8 C12.3,108.9 22,110.2 32.1,108.8 C36.2,108.2 40.4,106.5 44.7,103.7 C49.1,101 51.4,96.8 51.6,91 C51.6,87.8 50.9,85.3 49.6,83.4 C48.1,81.7 46.1,80.5 43.7,79.7 C38.5,78.2 32.7,77 26,76 C22.9,75.3 19.8,74.4 16.7,73.2 C13.6,72.1 10.8,70.4 8.3,68.2 C5.8,66 3.9,63.1 2.6,59.5 C1,56.1 0.2,51.7 0.2,46.3 C0.4,32.9 5,22.6 14.2,15.3 C22.8,8.1 33.1,3.6 45,1.9 Z" id="XMLID_755_"></path>
                </g>
                <g id="XMLID_752_" transform="translate(0.000000, 15.000000)" fill="#B07E09">
                    <path d="M39.7,64.6 L2.4,44.3 C0.8,40.9 1.13686838e-13,36.5 1.13686838e-13,31.1 C0.2,17.7 4.8,7.4 14,0.1 L51.3,20.4 C42.2,27.7 37.5,38.1 37.3,51.4 C37.3,56.8 38.1,61.2 39.7,64.6 Z" id="XMLID_753_"></path>
                </g>
            </g>
        </g>
    </g>
</svg>