<?xml version="1.0" encoding="UTF-8"?>
<svg width="118px" height="181px" viewBox="0 0 118 181" version="1.1" xmlns="http://www.w3.org/2000/svg" xmlns:xlink="http://www.w3.org/1999/xlink">
    <!-- Generator: Sketch 51.1 (57501) - http://www.bohemiancoding.com/sketch -->
    <title>XMLID_730_</title>
    <desc>Created with Sketch.</desc>
    <defs></defs>
    <g id="Page-1" stroke="none" stroke-width="1" fill="none" fill-rule="evenodd">
        <g id="XMLID_613_" transform="translate(-816.000000, -578.000000)" fill-rule="nonzero">
            <g id="XMLID_730_" transform="translate(816.000000, 578.000000)">
                <g id="XMLID_749_" transform="translate(65.000000, 128.000000)" fill="#E0A810">
                    <path d="M38,26.3 L0.7,6 C6.3,5.2 10.8,3.5 14.2,0.8 L51.5,21.1 C48.1,23.8 43.6,25.5 38,26.3 Z" id="XMLID_750_"></path>
                </g>
                <g id="XMLID_747_" transform="translate(58.000000, 132.000000)" fill="#E0A810">
                    <path d="M37.5,21.2 L0.2,0.9 C2.1,2 4.6,2.3 7.7,2 L45,22.3 C42,22.6 39.5,22.3 37.5,21.2 Z" id="XMLID_748_"></path>
                </g>
                <g id="XMLID_745_" transform="translate(22.000000, 125.000000)" fill="#B07E09">
                    <path d="M51.5,52.1 L14.2,31.8 C4.9,26.8 0.3,16.2 0.2,0.1 L37.5,20.4 C37.6,36.5 42.2,47.1 51.5,52.1 Z" id="XMLID_746_"></path>
                </g>
                <g id="XMLID_743_" transform="translate(52.000000, 31.000000)" fill="#E0A810">
                    <polygon id="XMLID_744_" points="37.3 24.4 0 4.1 26.3 0.4 63.6 20.7"></polygon>
                </g>
                <g id="XMLID_741_" transform="translate(22.000000, 62.000000)" fill="#B07E09">
                    <polygon id="XMLID_742_" points="37.5 83.4 0.2 63.1 0.4 0.7 37.6 20.9"></polygon>
                </g>
                <g id="XMLID_739_" transform="translate(22.000000, 0.000000)" fill="#E0A810">
                    <polygon id="XMLID_740_" points="37.7 35 0.5 14.7 30.1 0.3 67.3 20.6"></polygon>
                </g>
                <g id="XMLID_737_" transform="translate(22.000000, 14.000000)" fill="#B07E09">
                    <polygon id="XMLID_738_" points="37.7 45.6 0.4 25.3 0.5 0.7 37.7 21"></polygon>
                </g>
                <g id="XMLID_735_" transform="translate(0.000000, 42.000000)" fill="#B07E09">
                    <polygon id="XMLID_736_" points="37.7 44 0.5 23.7 0.5 0.4 37.8 20.6"></polygon>
                </g>
                <g id="XMLID_733_" transform="translate(37.000000, 20.000000)" fill="#FFF197">
                    <path d="M52.3,0.6 L52.2,35.4 L78.5,31.7 L78.5,55.1 L52.2,58.8 L52.1,116 C51.9,121.4 52.9,125.9 54.9,129.4 C56.8,133.3 60.5,134.9 65.9,134.3 C71.5,133.5 76,131.8 79.4,129.1 L80.2,154.3 C74.3,157 67,159 58.3,160.2 C34.4,162.9 22.5,151.3 22.4,125.4 L22.5,62.9 L0.6,66 L0.6,42.6 L22.5,39.5 L22.5,14.9 L52.3,0.6 Z" id="XMLID_734_"></path>
                </g>
                <g id="XMLID_731_" transform="translate(0.000000, 39.000000)" fill="#E0A810">
                    <polygon id="XMLID_732_" points="37.8 23.6 0.5 3.4 22.4 0.3 59.7 20.6"></polygon>
                </g>
            </g>
        </g>
    </g>
</svg>