<?xml version="1.0" encoding="UTF-8"?>
<svg width="143px" height="156px" viewBox="0 0 143 156" version="1.1" xmlns="http://www.w3.org/2000/svg" xmlns:xlink="http://www.w3.org/1999/xlink">
    <!-- Generator: Sketch 51.1 (57501) - http://www.bohemiancoding.com/sketch -->
    <title>XMLID_707_</title>
    <desc>Created with Sketch.</desc>
    <defs></defs>
    <g id="Page-1" stroke="none" stroke-width="1" fill="none" fill-rule="evenodd">
        <g id="XMLID_613_" transform="translate(-958.000000, -578.000000)" fill-rule="nonzero">
            <g id="XMLID_707_" transform="translate(958.000000, 578.000000)">
                <g id="XMLID_728_" transform="translate(77.000000, 110.000000)" fill="#986B29">
                    <polygon id="XMLID_729_" points="37.3 37.3 0 17.1 0.1 0.4 37.3 20.6"></polygon>
                </g>
                <g id="XMLID_726_" transform="translate(62.000000, 91.000000)" fill="#986B29">
                    <path d="M38.2,31.8 L0.9,11.5 C4.3,8.3 6.9,4.5 8.7,0.2 L46,20.5 C44.2,24.9 41.6,28.7 38.2,31.8 Z" id="XMLID_727_"></path>
                </g>
                <g id="XMLID_724_" transform="translate(70.000000, 64.000000)" fill="#986B29">
                    <path d="M37.9,47.5 L0.6,27.2 C2.7,22.8 4,18.2 4.6,13.5 C5.2,8.8 5.5,4.5 5.5,0.5 L42.8,20.8 C42.8,24.8 42.5,29.1 41.9,33.8 C41.3,38.5 40,43.1 37.9,47.5 Z" id="XMLID_725_"></path>
                </g>
                <g id="XMLID_722_" transform="translate(39.000000, 102.000000)" fill="#986B29">
                    <path d="M38.2,26.1 L0.9,5.8 C3.4,7.2 6.6,7.6 10.4,7 C15.9,6.2 20.3,4.1 23.9,0.6 L61.2,20.9 C57.7,24.4 53.2,26.6 47.7,27.3 C43.8,27.8 40.7,27.4 38.2,26.1 Z" id="XMLID_723_"></path>
                </g>
                <g id="XMLID_720_" transform="translate(10.000000, 125.000000)" fill="#B07E09">
                    <path d="M45.1,27.6 L7.8,7.3 C4.7,5.6 2.2,3.4 0,0.5 L37.3,20.8 C39.5,23.7 42.1,26 45.1,27.6 Z" id="XMLID_721_"></path>
                </g>
                <g id="XMLID_718_" transform="translate(75.000000, 4.000000)" fill="#986B29">
                    <polygon id="XMLID_719_" points="37.9 80.8 0.6 60.6 0.7 0.5 38 20.7"></polygon>
                </g>
                <g id="XMLID_716_" transform="translate(75.000000, 0.000000)" fill="#E0A810">
                    <polygon id="XMLID_717_" points="38 24.7 0.7 4.5 30.3 0.3 67.6 20.6"></polygon>
                </g>
                <g id="XMLID_714_" transform="translate(0.000000, 92.000000)" fill="#B07E09">
                    <path d="M47.4,53.8 L10.1,33.5 C3.8,25.5 0.6,14.5 0.7,0.5 L38,20.8 C37.9,34.8 41,45.8 47.4,53.8 Z" id="XMLID_715_"></path>
                </g>
                <g id="XMLID_712_" transform="translate(0.000000, 10.000000)" fill="#E0A810">
                    <polygon id="XMLID_713_" points="38.1 25.3 0.8 5 30.4 0.8 67.7 21.1"></polygon>
                </g>
                <g id="XMLID_710_" transform="translate(0.000000, 15.000000)" fill="#B07E09">
                    <polygon id="XMLID_711_" points="37.9 97.8 0.7 77.5 0.8 0 38.1 20.3"></polygon>
                </g>
                <g id="XMLID_708_" transform="translate(37.000000, 20.000000)" fill="#FFF197">
                    <path d="M105.6,0.6 L105.4,123.4 L77.3,127.3 L77.3,110.6 L76.9,110.7 C67.6,124.7 55.1,133 39.5,135.5 C26.1,137.2 16.4,134 10.4,125.8 C4.1,117.8 0.9,106.8 1,92.8 L1.1,15.3 L30.7,11.1 L30.6,76.7 C30.6,78.4 30.7,80.3 31,82.1 C31,84 31.1,86 31.2,88 C31.5,92.1 32.1,95.9 33.2,99.4 C34.5,102.7 36.4,105.3 38.9,107.2 C41.5,109.2 45.2,109.9 49.7,109.3 C55.2,108.5 59.6,106.4 63.2,102.9 C66.6,99.7 69.2,95.9 71,91.6 C73.1,87.2 74.4,82.6 75,77.9 C75.6,73.2 75.9,68.9 75.9,64.9 L76,4.8 L105.6,0.6 Z" id="XMLID_709_"></path>
                </g>
            </g>
        </g>
    </g>
</svg>