<?xml version="1.0" encoding="UTF-8"?>
<svg width="156px" height="210px" viewBox="0 0 156 210" version="1.1" xmlns="http://www.w3.org/2000/svg" xmlns:xlink="http://www.w3.org/1999/xlink">
    <!-- Generator: Sketch 51.1 (57501) - http://www.bohemiancoding.com/sketch -->
    <title>XMLID_645_</title>
    <desc>Created with Sketch.</desc>
    <defs></defs>
    <g id="Page-1" stroke="none" stroke-width="1" fill="none" fill-rule="evenodd">
        <g id="XMLID_613_" transform="translate(-691.000000, -814.000000)" fill-rule="nonzero">
            <g id="XMLID_645_" transform="translate(691.000000, 814.000000)">
                <g id="XMLID_660_" transform="translate(24.000000, 139.000000)" fill="#B07E09">
                    <path d="M37.8,45.4 L0.5,25.1 C6.5,24.1 11.3,21.4 14.7,16.9 C18.1,12.4 19.8,7 19.8,0.4 L57.1,20.7 C57.1,27.2 55.4,32.7 52,37.2 C48.5,41.6 43.8,44.3 37.8,45.4 Z" id="XMLID_661_"></path>
                </g>
                <g id="XMLID_658_" transform="translate(9.000000, 164.000000)" fill="#B07E09">
                    <path d="M37.5,20.3 L0.2,0 C3.6,1 8.7,1 15.4,0 L52.7,20.3 C46,21.3 40.9,21.3 37.5,20.3 Z" id="XMLID_659_"></path>
                </g>
                <g id="XMLID_656_" transform="translate(7.000000, 164.000000)" fill="#986B29">
                    <polygon id="XMLID_657_" points="37.5 44.2 0.3 24 2.3 0.1 39.5 20.3"></polygon>
                </g>
                <g id="XMLID_654_" transform="translate(60.000000, 4.000000)" fill="#B07E09">
                    <polygon id="XMLID_655_" points="37.7 114 0.4 93.8 28.4 0.2 65.7 20.5"></polygon>
                </g>
                <g id="XMLID_652_" transform="translate(88.000000, 0.000000)" fill="#E0A810">
                    <polygon id="XMLID_653_" points="37.7 24.5 0.4 4.2 30.5 0 67.7 20.2"></polygon>
                </g>
                <g id="XMLID_650_" transform="translate(0.000000, 12.000000)" fill="#E0A810">
                    <polygon id="XMLID_651_" points="37.8 24.8 0.5 4.6 33.2 0 70.5 20.2"></polygon>
                </g>
                <g id="XMLID_648_" transform="translate(0.000000, 16.000000)" fill="#B07E09">
                    <polygon id="XMLID_649_" points="81 143.7 43.8 123.4 0.5 0.6 37.8 20.8"></polygon>
                </g>
                <g id="XMLID_646_" transform="translate(37.000000, 20.000000)" fill="#FFF197">
                    <path d="M118.7,0.2 L75.8,128 C73.6,135 71.3,141.8 68.9,148.5 C66.5,155.3 63.6,161.5 60.3,167.1 C57,172.6 52.9,177.3 47.9,181 C42.6,184.9 36.1,187.4 28.4,188.5 C21.3,189.5 14.3,189.4 7.4,188.1 L9.4,164.2 C12.8,165.2 17.9,165.2 24.6,164.2 C30.6,163.2 35.4,160.5 38.8,156 C42.2,151.5 43.9,146.1 43.9,139.5 L0.6,16.6 L33.3,12 L60.5,97.8 L88.5,4.2 L118.7,0.2 Z" id="XMLID_647_"></path>
                </g>
            </g>
        </g>
    </g>
</svg>