<?xml version="1.0" encoding="UTF-8"?>
<svg width="133px" height="157px" viewBox="0 0 133 157" version="1.1" xmlns="http://www.w3.org/2000/svg" xmlns:xlink="http://www.w3.org/1999/xlink">
    <!-- Generator: Sketch 51.1 (57501) - http://www.bohemiancoding.com/sketch -->
    <title>XMLID_4_</title>
    <desc>Created with Sketch.</desc>
    <defs></defs>
    <g id="Page-1" stroke="none" stroke-width="1" fill="none" fill-rule="evenodd">
        <g id="XMLID_613_" transform="translate(-863.000000, -814.000000)" fill-rule="nonzero">
            <g id="XMLID_4_" transform="translate(863.000000, 814.000000)">
                <g id="XMLID_14_" transform="translate(36.000000, 97.000000)" fill="#E0A810">
                    <polygon id="XMLID_582_" points="38.1 29.2 0.9 8.9 59.4 0.7 96.7 21"></polygon>
                </g>
                <g id="XMLID_12_" transform="translate(0.000000, 109.000000)" fill="#B07E09">
                    <polygon id="XMLID_13_" points="38.1 47.1 0.8 26.8 0.9 0.8 38.1 21.1"></polygon>
                </g>
                <g id="XMLID_10_" transform="translate(0.000000, 29.000000)" fill="#B07E09">
                    <polygon id="XMLID_11_" points="38.1 101.1 0.9 80.8 58.7 0.7 95.9 21"></polygon>
                </g>
                <g id="XMLID_8_" transform="translate(3.000000, 12.000000)" fill="#B07E09">
                    <polygon id="XMLID_9_" points="37.7 45.7 0.4 25.4 0.5 0.6 37.7 20.9"></polygon>
                </g>
                <g id="XMLID_6_" transform="translate(3.000000, 0.000000)" fill="#E0A810">
                    <polygon id="XMLID_7_" points="37.7 32.9 0.5 12.6 90.6 0 127.9 20.2"></polygon>
                </g>
                <g id="XMLID_5_" transform="translate(38.000000, 20.000000)" fill="#FFF197">
                    <polygon id="XMLID_16_" points="92.9 0.2 92.8 26.5 36.1 106.2 94.7 98 94.6 122.8 0.1 136.1 0.1 110.1 57.9 30 2.7 37.7 2.7 12.9"></polygon>
                </g>
            </g>
        </g>
    </g>
</svg>