<?xml version="1.0" encoding="UTF-8"?>
<svg width="125px" height="142px" viewBox="0 0 125 142" version="1.1" xmlns="http://www.w3.org/2000/svg" xmlns:xlink="http://www.w3.org/1999/xlink">
    <!-- Generator: Sketch 51.1 (57501) - http://www.bohemiancoding.com/sketch -->
    <title>Shape</title>
    <desc>Created with Sketch.</desc>
    <defs></defs>
    <g id="Page-1" stroke="none" stroke-width="1" fill="none" fill-rule="evenodd">
        <g id="DD-Colorful-Paint-Stroke-Alphabet-55029" transform="translate(-587.000000, -7.000000)" fill="#58167D" fill-rule="nonzero">
            <path d="M614.3,7.5 L622,7.5 L627.7,10.9 L641.1,9.2 C663.2,9.2 683.7,20.5 702.4,43.2 L712,60.2 L710,62 L711.9,70.5 L711.9,79 C711.9,108.2 685.1,130.3 631.5,145.3 L612.4,147 C612.4,144.1 609.8,142.4 604.7,141.9 L604.7,148.7 L599,148.7 L599,138.5 L597.1,136.8 L599,135.1 L599,133.4 C591.3,128.7 587.5,124.8 587.5,121.5 C591.3,70.1 597.7,32.7 606.6,9.2 L608.5,9.2 L610.4,10.9 L614.3,7.5 Z M595.2,138.5 L597.1,138.5 L597.1,140.2 L593.3,143.6 L591.4,143.6 L591.4,141.9 L595.2,138.5 Z M606.7,24.5 L597.1,73.8 L597.1,75.5 L599,75.5 L608.6,27.9 L608.6,24.5 L606.7,24.5 Z M616.2,128.3 L618.1,133.4 L621.9,133.4 L625.7,130 L625.7,128.3 L623.8,128.3 L618.1,130 L616.2,128.3 Z M637.3,36.4 C637.3,38.7 634.7,39.8 629.6,39.8 C624.5,60.5 620.7,84.3 618.1,111.3 C625.5,111.3 644.7,105.6 675.5,94.3 L675.5,92.6 L671.7,92.6 C681.9,83.3 687,73.7 687,63.7 L687,58.6 C687,46.1 677.4,38.8 658.3,36.5 L637.3,36.5 L637.3,36.4 Z M631.6,126.6 L631.6,128.3 L639.3,128.3 L648.9,124.9 L648.9,123.2 L647,123.2 L631.6,126.6 Z M675.6,36.4 L675.6,38.1 L683.3,41.5 L683.3,39.8 L677.6,36.4 L675.6,36.4 Z M675.6,116.4 C678.6,116 683.1,112.6 689,106.2 L689,104.5 L675.6,116.4 Z M687.1,85.8 L683.3,92.6 L685.2,92.6 L689,85.8 L687.1,85.8 Z M692.8,60.3 L690.9,80.7 L694.7,80.7 L694.7,75.6 L696.6,68.8 L694.7,60.3 L692.8,60.3 Z M706.2,73.9 L696.6,101.1 L696.6,102.8 L698.5,102.8 L708.1,77.3 L708.1,73.9 L706.2,73.9 Z" id="Shape"></path>
        </g>
    </g>
</svg>