<?xml version="1.0" encoding="UTF-8"?>
<svg width="114px" height="160px" viewBox="0 0 114 160" version="1.1" xmlns="http://www.w3.org/2000/svg" xmlns:xlink="http://www.w3.org/1999/xlink">
    <!-- Generator: Sketch 51.1 (57501) - http://www.bohemiancoding.com/sketch -->
    <title>Shape</title>
    <desc>Created with Sketch.</desc>
    <defs></defs>
    <g id="Page-1" stroke="none" stroke-width="1" fill="none" fill-rule="evenodd">
        <g id="DD-Colorful-Paint-Stroke-Alphabet-55029" transform="translate(-959.000000, -2.000000)" fill="#B20053" fill-rule="nonzero">
            <path d="M1032.9,2.7 L1032.7,6.1 L1027,6.1 L1026.9,7.8 L1028.8,7.8 L1065.3,6.1 L1073,6.1 L1072.9,7.8 L1069,11.2 L1070.8,12.9 L1070.7,16.3 C1070.5,22.2 1068.4,25.6 1064.5,26.5 L1066.3,31.6 L1064,36.7 L1062.2,35 L1060.3,35 C1042.4,35.8 1033.5,36.9 1033.4,38.4 L1031.5,36.7 C1009.7,39.8 998.6,45.4 998.3,53.7 L997.7,67.3 L1043.8,63.9 L1045.7,65.6 L1045.6,67.3 L1036,67.3 L1035.9,69 C1042.3,69 1045.4,70.1 1045.2,72.4 L1045.2,74.1 C1045,79.8 1043.6,82.6 1041,82.6 L1029.5,82.6 L1029.4,84.3 L1042.8,84.3 L1042.7,87.7 C1042.6,89.6 1026.5,93.6 994.3,99.6 L991.6,118.3 L993.5,120 L993.5,121.7 L991.5,123.4 L991.4,125.1 L993.1,130.2 L991.2,130.2 L992.9,135.3 C993.4,140.1 988.9,148.9 979.5,161.7 L964.2,160 L966.8,143 C961.9,143 959.5,140.9 959.5,136.7 L959.5,136.2 C961.5,133.3 963.8,115.5 966.5,82.6 L970.3,82.6 L968.5,80.9 L971,67.3 L972.8,69 L974.7,69 L977.4,52 L977.7,45.2 C971.3,45.2 968.1,44.1 968.1,41.8 L972.2,36.7 C967.1,36.7 964.7,35 964.9,31.6 C965.3,21.4 967.4,16.3 971.2,16.3 C977.6,16.3 980.9,13.5 981.1,7.8 L983,7.8 L984.8,9.5 L988.9,6.1 L994.6,6.1 L1000.1,11.2 L1032.9,2.7 Z M969.4,98 L968.6,116.7 L970.5,116.7 L971.3,98 L969.4,98 Z M972.2,146.5 L971.9,153.3 L973.8,153.3 L974.1,146.5 L972.2,146.5 Z M1020.2,29.9 L1020.2,31.6 L1022.1,31.6 L1060.4,28.2 L1060.5,26.5 L1054.9,24.8 L1052.9,26.5 L1051,26.5 L1049.2,24.8 L1020.2,29.9 Z M1038.2,11.2 L1038.1,12.9 L1043.8,12.9 L1065,11.2 L1065,9.5 L1053.5,9.5 L1038.2,11.2 Z" id="Shape"></path>
        </g>
    </g>
</svg>