<?xml version="1.0" encoding="UTF-8"?>
<svg width="125px" height="147px" viewBox="0 0 125 147" version="1.1" xmlns="http://www.w3.org/2000/svg" xmlns:xlink="http://www.w3.org/1999/xlink">
    <!-- Generator: Sketch 51.1 (57501) - http://www.bohemiancoding.com/sketch -->
    <title>Shape</title>
    <desc>Created with Sketch.</desc>
    <defs></defs>
    <g id="Page-1" stroke="none" stroke-width="1" fill="none" fill-rule="evenodd">
        <g id="DD-Colorful-Paint-Stroke-Alphabet-55029" transform="translate(-47.000000, -215.000000)" fill="#002E82" fill-rule="nonzero">
            <path d="M70.8,215 L72.7,215 L72.7,220.1 L74.6,220.1 L74.6,216.7 L82.3,216.7 C84.9,216.7 86.1,220.1 86.1,226.9 L91.8,228.6 C91.8,225.2 93.1,223.5 95.6,223.5 L97.5,225.2 L97.5,226.9 L87.9,272.8 L116.6,271.1 L135.7,271.1 L137.6,262.6 L135.7,260.9 L139.5,260.9 L137.6,249 L137.6,247.3 L141.4,247.3 L139.5,245.6 L139.5,242.2 L143.3,242.2 L143.3,238.8 L139.5,238.8 L139.5,237.1 L143.3,237.1 L141.4,235.4 L141.4,223.5 L143.3,225.2 L145.2,225.2 L145.2,218.4 L143.3,216.7 L143.3,215 L149,215 L139.4,272.8 C142,272.8 145.8,254.1 150.9,216.7 L158.6,215 C159.9,224.1 161.8,228.6 164.3,228.6 L166.2,228.6 C166.2,225.2 167.5,223.5 170,223.5 L171.9,223.5 C165.5,262.7 155.9,308.7 143.2,361.3 L141.3,361.3 L139.4,359.6 L141.3,357.9 L141.3,344.3 L139.4,344.3 L133.7,361.3 L128,361.3 C125.4,361.3 124.2,357.9 124.2,351.1 L122.3,351.1 L122.3,357.9 L120.4,357.9 C117.8,357.9 116.6,356.2 116.6,352.8 C116.6,344.6 120.4,325.3 128.1,295 L126.2,295 L101.3,296.7 L84.1,295 C80.3,322.2 76.4,340.4 72.6,349.4 L66.9,349.4 C64.3,349.4 63.1,344.9 63.1,335.8 L61.2,335.8 L59.3,347.7 L55.5,344.3 L55.5,339.2 L57.4,337.5 L57.4,335.8 L55.5,334.1 L53.6,334.1 L51.7,335.8 L49.8,335.8 L47.9,329 C53,290.7 58.7,262.9 65.1,245.6 L67,245.6 L65.1,243.9 L65.1,238.8 L70.8,220.1 L68.9,220.1 L70.8,215 Z M49.7,337.4 L51.6,337.4 L51.6,345.9 L49.7,345.9 L49.7,337.4 Z M61.2,279.6 L61.2,286.4 L63.1,286.4 L63.1,279.6 L61.2,279.6 Z M65,262.6 L63.1,271.1 L63.1,272.8 L65,272.8 L66.9,266 L66.9,262.6 L65,262.6 Z M66.9,254.1 L66.9,260.9 L68.8,260.9 L68.8,254.1 L66.9,254.1 Z M70.8,235.4 L68.9,249 L68.9,252.4 L70.8,252.4 L72.7,238.8 L72.7,235.4 L70.8,235.4 Z M72.7,221.8 L72.7,233.7 L74.6,233.7 L74.6,221.8 L72.7,221.8 Z M130.1,310.2 L130.1,317 L132,317 L132,310.2 L130.1,310.2 Z M133.9,296.6 L132,306.8 L132,308.5 L133.9,308.5 L135.8,300 L135.8,296.6 L133.9,296.6 Z M143.5,328.9 L141.6,337.4 L141.6,342.5 L143.5,342.5 L145.4,330.6 L145.4,328.9 L143.5,328.9 Z" id="Shape"></path>
        </g>
    </g>
</svg>