<?xml version="1.0" encoding="UTF-8"?>
<svg width="50px" height="147px" viewBox="0 0 50 147" version="1.1" xmlns="http://www.w3.org/2000/svg" xmlns:xlink="http://www.w3.org/1999/xlink">
    <!-- Generator: Sketch 51.1 (57501) - http://www.bohemiancoding.com/sketch -->
    <title>Shape</title>
    <desc>Created with Sketch.</desc>
    <defs></defs>
    <g id="Page-1" stroke="none" stroke-width="1" fill="none" fill-rule="evenodd">
        <g id="DD-Colorful-Paint-Stroke-Alphabet-55029" transform="translate(-241.000000, -216.000000)" fill="#594E41" fill-rule="nonzero">
            <path d="M279.5,216.6 C279.2,220 281.6,221.7 286.7,221.7 L290.2,228.5 L288.2,230.2 L290.1,230.2 C280.9,254.2 275.3,282 273.3,313.6 L272.6,323.8 L274.5,325.5 L274.4,327.2 L272.4,328.9 L274.3,328.9 L272.3,330.6 L273.4,342.5 L273.2,345.9 C266.4,353.2 262.8,358.9 262.5,362.9 L254.8,362.9 L245.6,359.5 L248.3,347.6 L241,340.8 L244.5,315.3 L246.4,284.7 L250.6,279.6 L251.1,272.8 L249.3,271.1 L249.4,269.4 L253.2,269.4 L253.3,267.7 L251.5,266 L259.3,233.7 L257.4,233.7 L259.4,232 L260,221.8 L258.2,220.1 L258.3,218.4 L279.5,216.6 Z M252.2,347.5 L251.6,356 L255.5,352.6 L256,347.5 L252.2,347.5 Z M252.5,279.5 L251.9,289.7 L253.8,289.7 L254.4,279.5 L252.5,279.5 Z M255.5,264.2 L254.8,274.4 L256.7,274.4 L257.4,264.2 L255.5,264.2 Z M258.4,247.2 L257.7,259.1 L259.6,259.1 L260.3,247.2 L258.4,247.2 Z" id="Shape"></path>
        </g>
    </g>
</svg>