<?xml version="1.0" encoding="UTF-8"?>
<svg width="129px" height="144px" viewBox="0 0 129 144" version="1.1" xmlns="http://www.w3.org/2000/svg" xmlns:xlink="http://www.w3.org/1999/xlink">
    <!-- Generator: Sketch 51.1 (57501) - http://www.bohemiancoding.com/sketch -->
    <title>Shape</title>
    <desc>Created with Sketch.</desc>
    <defs></defs>
    <g id="Page-1" stroke="none" stroke-width="1" fill="none" fill-rule="evenodd">
        <g id="DD-Colorful-Paint-Stroke-Alphabet-55029" transform="translate(-713.000000, -214.000000)" fill="#336535" fill-rule="nonzero">
            <path d="M742.1,215 C744.7,215 745.9,218.4 745.9,225.2 L749.7,225.2 L755.4,221.8 L757.3,223.5 L747.7,318.8 C755.8,315.4 777.5,311.4 812.8,306.9 L814.7,306.9 L814.7,308.6 C770,315.1 747.7,320.2 747.7,323.9 L768.8,318.8 L768.8,320.5 L805.2,313.7 L805.2,315.4 L807.1,313.7 L809,313.7 L810.9,315.4 L820.5,313.7 L828.2,313.7 L841.6,315.4 L841.6,317.1 C841.6,320.5 832,323.3 812.9,325.6 L812.9,327.3 L814.8,325.6 L816.7,325.6 L830.1,327.3 L832,325.6 L832,330.7 L768.8,344.3 L728.6,357.9 L723,357.9 L715.3,349.4 L713.4,349.4 L713.4,347.7 C713.4,344.8 716,343.1 721.1,342.6 L721.1,337.5 L715.4,330.7 L723.1,254.1 L725,254.1 L725,260.9 L723.1,272.8 L726.9,272.8 L723.1,294.9 L725,296.6 L723.1,303.4 L723.1,311.9 L725,311.9 L732.7,221.7 C735.3,221.7 736.5,220 736.5,216.6 L738.4,214.9 L742.1,214.9 L742.1,215 Z" id="Shape"></path>
        </g>
    </g>
</svg>