<?xml version="1.0" encoding="UTF-8"?>
<svg width="135px" height="137px" viewBox="0 0 135 137" version="1.1" xmlns="http://www.w3.org/2000/svg" xmlns:xlink="http://www.w3.org/1999/xlink">
    <!-- Generator: Sketch 51.1 (57501) - http://www.bohemiancoding.com/sketch -->
    <title>Shape</title>
    <desc>Created with Sketch.</desc>
    <defs></defs>
    <g id="Page-1" stroke="none" stroke-width="1" fill="none" fill-rule="evenodd">
        <g id="DD-Colorful-Paint-Stroke-Alphabet-55029" transform="translate(-37.000000, -461.000000)" fill="#BF3376" fill-rule="nonzero">
            <path d="M120,461.4 C135,461.4 149.1,465.4 162.1,473.3 L160.2,475 L160.2,476.7 L167.9,486.9 L164,486.9 L162.1,485.2 L160.2,485.2 L165.9,522.6 L167.8,522.6 C167.8,516.9 169.1,514.1 171.6,514.1 L171.6,520.9 C171.6,527.3 165.2,542 152.5,565.1 L154.4,565.1 C145.4,576.1 132,586.3 114.2,595.7 L104.6,597.4 L102.7,597.4 C72.4,597.4 53.2,586.6 45.3,565.1 L37.7,555 L39.6,553.3 L37.7,541.4 L37.7,538 C37.7,528.6 47.9,512.1 68.3,488.7 L68.3,490.4 C58.9,501.6 51.3,514.1 45.3,527.8 L45.3,529.5 L47.2,529.5 C51.9,512.9 69.1,491.9 98.9,466.6 L85.5,473.4 L83.6,473.4 C83.6,468.1 95.7,464.1 120,461.4 Z M43.4,537.9 L43.4,551.5 L45.3,551.5 L45.3,537.9 L43.4,537.9 Z M68.3,514.1 L62.6,524.3 L64.5,524.3 L70.2,514.1 L68.3,514.1 Z M110.4,490.3 L108.5,488.6 L108.5,490.3 L110.4,492 L97,502.2 C86.4,502.2 76.2,518.1 66.4,549.8 C66.4,558.9 72.1,566.8 83.6,573.6 L85.5,573.6 C99.5,573.6 115.4,560.6 133.4,534.5 C139.8,522.1 143,513 143,507.3 L143,493.7 C143,490.6 136.6,488.3 123.9,486.9 L122,486.9 L120.1,488.6 L118.2,488.6 L118.2,486.9 L110.4,490.3 Z M72.1,580.5 L72.1,582.2 L81.7,587.3 L81.7,585.6 L72.1,580.5 Z M133.4,543 L125.7,551.5 L127.6,551.5 L135.3,543 L133.4,543 Z M142.9,524.3 L135.2,541.3 L140.9,541.3 L146.6,529.4 L144.7,524.3 L142.9,524.3 Z M156.3,531.1 L154.4,536.2 L154.4,539.6 L156.3,539.6 L158.2,532.8 L158.2,531.1 L156.3,531.1 Z M165.9,495.4 L169.7,495.4 L169.7,503.9 L165.9,503.9 L165.9,495.4 Z" id="Shape"></path>
        </g>
    </g>
</svg>