<?xml version="1.0" encoding="UTF-8"?>
<svg width="114px" height="159px" viewBox="0 0 114 159" version="1.1" xmlns="http://www.w3.org/2000/svg" xmlns:xlink="http://www.w3.org/1999/xlink">
    <!-- Generator: Sketch 51.1 (57501) - http://www.bohemiancoding.com/sketch -->
    <title>Shape</title>
    <desc>Created with Sketch.</desc>
    <defs></defs>
    <g id="Page-1" stroke="none" stroke-width="1" fill="none" fill-rule="evenodd">
        <g id="DD-Colorful-Paint-Stroke-Alphabet-55029" transform="translate(-239.000000, -455.000000)" fill="#B20053" fill-rule="nonzero">
            <path d="M262.1,455 L263.9,456.7 L263.9,458.4 L265.8,456.7 L275.4,456.7 C278,456.7 279.2,459.5 279,465.2 L280.9,465.2 C281,461.8 282.4,460.1 285,460.1 C287.6,460.1 288.8,461.8 288.6,465.2 L302.1,463.5 L322.6,466.9 L330.3,465.2 C340.1,465.2 347.6,469.7 352.8,478.8 L350.8,490.7 L352.6,492.4 L352.6,494.1 L348.4,504.3 L346.5,504.3 L346.6,500.9 L344.7,500.9 C334.8,522.2 320.8,537 302.8,545.1 L271.7,557 L270.7,585.9 L272.3,594.4 C269.7,594.4 266.3,600.1 262.1,611.4 L260.2,613.1 L258.3,613.1 L243.2,606.3 L245.7,592.7 L240,586 L244.7,562.2 L242.8,560.5 L249.8,528.2 L247.9,526.5 L249.9,524.8 L253.7,524.8 L253.5,531.6 L255.4,531.6 L255.7,523.1 L254,518 L257.8,518 L258,509.5 L254.3,506.1 L254.1,512.9 L252.2,512.9 C252.5,505.7 248.9,500 241.4,495.9 L239.8,485.7 L240.1,478.9 C256.8,472.8 265.2,468.9 265.3,467 L265.4,465.3 L261.7,461.9 L259.8,463.6 L258,456.8 L260,455.1 L262.1,455.1 L262.1,455 Z M249.7,533.2 L249.6,534.9 L251.4,536.6 L249.5,538.3 L249.3,541.7 L253.1,541.7 L253.6,533.2 L249.7,533.2 Z M327.5,497.5 C323.4,503.9 307.1,513.5 278.5,526.4 L276.6,528.1 L276.6,529.8 L280.4,529.8 C299.2,524.7 315.6,513.9 329.4,497.5 L327.5,497.5 Z M278.7,521.3 L282.5,521.3 C298.9,515.2 313.4,505 325.7,490.7 L320,490.7 C294.4,492.2 281.5,495.6 281.4,500.9 L278.7,521.3 Z" id="Shape"></path>
        </g>
    </g>
</svg>