<?xml version="1.0" encoding="UTF-8"?>
<svg width="131px" height="162px" viewBox="0 0 131 162" version="1.1" xmlns="http://www.w3.org/2000/svg" xmlns:xlink="http://www.w3.org/1999/xlink">
    <!-- Generator: Sketch 51.1 (57501) - http://www.bohemiancoding.com/sketch -->
    <title>Shape</title>
    <desc>Created with Sketch.</desc>
    <defs></defs>
    <g id="Page-1" stroke="none" stroke-width="1" fill="none" fill-rule="evenodd">
        <g id="DD-Colorful-Paint-Stroke-Alphabet-55029" transform="translate(-420.000000, -460.000000)" fill="#7B057E" fill-rule="nonzero">
            <path d="M498.9,460.5 L500.8,460.5 L502.7,462.2 L504.6,460.5 L506.5,460.5 C535.9,472.5 550.5,487.3 550.5,504.7 L550.5,516.6 C550.5,540.8 541.6,562.3 523.7,581.2 L523.7,584.6 C530.5,588.7 536.8,594.9 542.8,603.3 L542.8,605 C534.4,616.3 528.6,622 525.6,622 C517.7,622 509.4,614.6 500.7,599.9 L487.3,601.6 L475.8,601.6 L464.3,599.9 L462.4,599.9 L462.4,601.6 L472,603.3 L472,605 L460.5,606.7 C433.7,594.8 420.3,580.6 420.3,564.2 C420.3,531.4 430.5,506.5 450.9,489.3 L450.9,487.6 C464.5,472.9 474.1,465.5 479.6,465.5 L479.6,467.2 L481.5,468.9 L498.7,462.1 L498.7,460.5 L498.9,460.5 Z M424.2,562.6 L426.1,572.8 L428,572.8 L428,564.3 L426.1,562.6 L424.2,562.6 Z M439.5,579.6 L439.5,581.3 C439.5,586.8 446.5,593.1 460.6,600 L460.6,598.3 C449,591.8 442.7,585.6 441.5,579.6 L439.5,579.6 Z M447.2,552.4 L447.2,555.8 C447.2,565.5 451,572.8 458.7,577.9 L464.4,577.9 C471.8,577.9 479.4,573.9 487.4,566 L479.7,549 L481.6,547.3 L485.4,547.3 L485.4,550.7 L487.3,549 L489.2,549 L502.6,552.4 C515.4,534.7 521.7,518.8 521.7,504.8 L521.7,496.3 C518.5,490.6 513.4,487.8 506.4,487.8 C494.6,487.8 479.3,498.6 460.5,520.1 C451.7,534.8 447.2,545.5 447.2,552.4 Z M495.1,479.2 L500.8,480.9 L516.1,477.5 L516.1,475.8 L508.4,475.8 L506.5,477.5 L504.6,477.5 L504.6,475.8 L506.5,474.1 L506.5,472.4 L502.7,472.4 C498.5,473.5 496,475.8 495.1,479.2 Z M516.1,543.8 C508.4,550.9 504.6,556 504.6,559.1 C508.7,557.5 513.1,552.4 518,543.8 L516.1,543.8 Z M512.3,480.9 L510.4,482.6 L510.4,484.3 L521.9,486 L521.9,482.6 L512.3,480.9 Z M525.7,504.7 C525.7,511.2 523.1,521.4 518,535.3 C524.4,533.4 527.6,524.9 527.6,509.8 L527.6,504.7 L525.7,504.7 Z M518,571.1 L518,572.8 L519.9,572.8 L533.3,555.8 L533.3,554.1 C527,558.6 521.9,564.3 518,571.1 Z M541,503 C541,518.7 539.1,533.4 535.3,547.2 L535.3,548.9 L537.2,548.9 L544.9,513.2 L543,503 L541,503 Z" id="Shape"></path>
        </g>
    </g>
</svg>