<?xml version="1.0" encoding="UTF-8"?>
<svg width="123px" height="162px" viewBox="0 0 123 162" version="1.1" xmlns="http://www.w3.org/2000/svg" xmlns:xlink="http://www.w3.org/1999/xlink">
    <!-- Generator: Sketch 51.1 (57501) - http://www.bohemiancoding.com/sketch -->
    <title>Shape</title>
    <desc>Created with Sketch.</desc>
    <defs></defs>
    <g id="Page-1" stroke="none" stroke-width="1" fill="none" fill-rule="evenodd">
        <g id="DD-Colorful-Paint-Stroke-Alphabet-55029" transform="translate(-620.000000, -461.000000)" fill="#58167D" fill-rule="nonzero">
            <path d="M658.7,461 L681.7,461 C708.5,465.5 721.9,475.7 721.9,491.6 L721.9,501.8 L702.8,525.6 L704.7,525.6 L723.8,510.3 L723.8,513.7 C717.3,526.6 709,535.1 698.9,539.2 L687.4,542.6 L687.4,549.4 C690.2,549.4 703.6,564.1 727.6,593.6 C732.7,595.5 737.8,600 742.9,607.2 L742.9,608.9 L733.3,602.1 L733.3,603.8 C739.7,609.8 742.9,614.3 742.9,617.4 L741,617.4 L731.4,622.5 L729.5,622.5 L725.7,617.4 L723.8,619.1 L721.9,619.1 C696.4,600.6 678.5,581.8 668.3,563 L658.7,546 C654.2,546 651.6,552.8 651,566.4 C651.8,577.7 651.2,584.6 649.1,587.1 C645.3,589.8 644.7,592.6 647.2,595.3 L647.2,598.7 L641.5,598.7 C638.9,598.7 637.7,596.4 637.7,591.9 L635.8,591.9 C635.8,596.4 633.4,598.1 628.6,597 L620.2,587 L622.5,571.5 L622.5,564.7 L634,517.1 L635.9,517.1 L635.9,523.9 L637.8,523.9 L647.4,488.2 C644.8,488.2 643.6,490.5 643.6,495 L641.7,495 L641.7,491.6 L630,491.6 L630,489.9 C630,487.6 633.8,485.9 641.5,484.8 L641.5,483.1 L637.7,483.1 L626.2,486.5 L624.3,486.5 C624.3,484.2 626.9,483.1 632,483.1 L632,481.4 C626.9,481.4 624.3,479.7 624.3,476.3 L658.7,461 Z M631.9,532.4 L631.9,539.2 L633.8,539.2 L633.8,532.4 L631.9,532.4 Z M635.7,510.3 L637.6,510.3 L637.6,517.1 L635.7,517.1 L635.7,510.3 Z M639.5,495 L641.4,495 L641.4,500.1 L639.5,506.9 L637.6,506.9 L637.6,501.8 L639.5,495 Z M660.6,522.2 L662.5,522.2 C682.5,513.7 696.6,504.6 704.6,495 L704.6,491.6 C704.6,487.7 696.9,483.8 681.6,479.7 L670.1,483.1 L660.6,522.2 Z M689.3,583.5 L689.3,585.2 L697,592 C694.5,586.8 691.9,584 689.3,583.5 Z M704.6,501.8 L695,513.7 L696.9,513.7 L706.5,503.5 L706.5,501.8 L704.6,501.8 Z M698.9,479.7 C701.5,484.8 704,487.7 706.6,488.2 L706.6,484.8 L698.9,479.7 Z M698.9,595.4 L698.9,597.1 L706.6,602.2 L706.6,600.5 L698.9,595.4 Z M710.4,489.9 L708.5,498.4 L710.4,498.4 L712.3,496.7 L712.3,489.9 L710.4,489.9 Z M723.8,505.2 L727.6,505.2 L725.7,510.3 L723.8,510.3 L723.8,505.2 Z" id="Shape"></path>
        </g>
    </g>
</svg>