<?xml version="1.0" encoding="UTF-8"?>
<svg width="116px" height="149px" viewBox="0 0 116 149" version="1.1" xmlns="http://www.w3.org/2000/svg" xmlns:xlink="http://www.w3.org/1999/xlink">
    <!-- Generator: Sketch 51.1 (57501) - http://www.bohemiancoding.com/sketch -->
    <title>Shape</title>
    <desc>Created with Sketch.</desc>
    <defs></defs>
    <g id="Page-1" stroke="none" stroke-width="1" fill="none" fill-rule="evenodd">
        <g id="DD-Colorful-Paint-Stroke-Alphabet-55029" transform="translate(-1140.000000, -462.000000)" fill="#594E41" fill-rule="nonzero">
            <path d="M1171.6,462.1 L1175.4,467.2 L1173.5,475.7 L1175.4,477.4 L1177.3,477.4 L1179.2,468.9 L1183,468.9 L1184.9,474 C1174.7,506.7 1169.6,532.2 1169.6,550.6 C1170.9,563.1 1173.4,569.3 1177.3,569.3 L1221.3,525.1 L1223.2,516.6 L1223.2,469 L1227,465.6 C1229.6,465.6 1230.8,467.9 1230.8,472.4 L1232.7,472.4 C1232.7,467.9 1235.9,465.6 1242.3,465.6 L1246.1,472.4 L1244.2,480.9 C1246.8,480.9 1248,478.1 1248,472.4 L1251.8,472.4 L1253.7,474.1 L1255.6,474.1 L1246,596.6 L1244.1,603.4 C1239,603.4 1236.4,605.7 1236.4,610.2 L1228.7,610.2 L1230.6,593.2 L1226.8,593.2 L1226.8,603.4 L1221.1,608.5 L1221.1,606.8 L1223,589.8 C1219.2,589.8 1217.3,587.5 1217.3,583 L1215.4,583 L1182.9,596.6 L1167.6,593.2 L1167.6,594.9 C1154.4,594.9 1145.5,577.9 1140.8,543.9 C1145.9,492.9 1151,467.3 1156.1,467.3 L1156.1,465.6 L1158,465.6 L1158,472.4 L1154.2,472.4 L1154.2,475.8 L1156.1,477.5 L1156.1,479.2 L1154.2,479.2 L1156.1,484.3 L1150.4,492.8 L1152.3,492.8 L1154.2,491.1 L1148.5,521.7 L1148.5,528.5 L1150.4,528.5 C1154.6,484.2 1161.6,462.1 1171.6,462.1 Z M1148.6,530.1 L1146.7,531.8 L1146.7,545.4 L1148.6,545.4 L1150.5,530.1 L1148.6,530.1 Z M1152.5,571 L1152.5,574.4 L1154.4,579.5 L1156.3,579.5 L1156.3,576.1 L1154.4,571 L1152.5,571 Z M1165.9,579.5 L1165.9,581.2 C1165.9,585.1 1171.6,588.5 1183.1,591.4 L1186.9,591.4 L1186.9,589.7 C1179.6,589.6 1172.5,586.2 1165.9,579.5 Z M1208,543.7 L1194.6,557.3 L1196.5,557.3 L1209.9,543.7 L1208,543.7 Z" id="Shape"></path>
        </g>
    </g>
</svg>