<?xml version="1.0" encoding="UTF-8"?>
<svg width="144px" height="154px" viewBox="0 0 144 154" version="1.1" xmlns="http://www.w3.org/2000/svg" xmlns:xlink="http://www.w3.org/1999/xlink">
    <!-- Generator: Sketch 51.1 (57501) - http://www.bohemiancoding.com/sketch -->
    <title>Shape</title>
    <desc>Created with Sketch.</desc>
    <defs></defs>
    <g id="Page-1" stroke="none" stroke-width="1" fill="none" fill-rule="evenodd">
        <g id="DD-Colorful-Paint-Stroke-Alphabet-55029" transform="translate(-435.000000, -695.000000)" fill="#4A72B2" fill-rule="nonzero">
            <path d="M469.9,695.1 C483.9,701.5 491,710.6 491,722.3 L502.5,737.6 L508.2,732.5 L510.1,732.5 L502.4,742.7 L504.3,744.4 L506.2,744.4 C534.7,714.9 553.2,700.2 561.7,700.2 C566.4,700.2 570.2,703 573.2,708.7 C577,708.7 578.9,709.8 578.9,712.1 C578.9,716.4 568.1,726 546.4,741 L519.6,766.5 L519.6,769.9 C531.1,786.7 540.7,805.4 548.3,826 L546.4,831.1 L548.3,831.1 L538.7,843 L533,843 L533,839.6 L527.3,843 L502.4,790.3 L500.5,790.3 C488.1,803.7 475.3,823 462.2,848.1 L458.4,848.1 L458.4,844.7 L460.3,843 L458.4,841.3 L458.4,839.6 C464.8,825.8 476.3,807.1 492.9,783.5 L494.8,783.5 L494.8,778.4 C469.3,809.8 456.5,829.6 456.5,837.9 L448.8,841.3 C444.7,841.3 440.2,837.3 435.4,829.4 C435.4,823 450.7,799.2 481.3,757.9 C469.6,738.5 462.6,723.7 460.2,713.7 L462.1,713.7 L454.4,696.7 L456.3,696.7 L458.2,698.4 L469.9,695.1 Z M439.3,829.5 L481.4,770 C484,770 485.2,767.7 485.2,763.2 L483.3,763.2 C460.7,789.5 446,811.6 439.3,829.5 Z M521.6,720.6 L523.5,720.6 L510.1,732.5 L510.1,730.8 L521.6,720.6 Z M525.4,746.2 L521.6,751.3 L523.5,751.3 L527.3,746.2 L525.4,746.2 Z M552.2,696.8 L554.1,696.8 L525.4,720.6 L523.5,720.6 L523.5,718.9 L552.2,696.8 Z M527.3,829.5 L527.3,831.2 L529.2,838 L531.1,838 L531.1,831.2 L529.2,829.5 L527.3,829.5 Z" id="Shape"></path>
        </g>
    </g>
</svg>