<?xml version="1.0" encoding="UTF-8"?>
<svg width="116px" height="141px" viewBox="0 0 116 141" version="1.1" xmlns="http://www.w3.org/2000/svg" xmlns:xlink="http://www.w3.org/1999/xlink">
    <!-- Generator: Sketch 51.1 (57501) - http://www.bohemiancoding.com/sketch -->
    <title>Shape</title>
    <desc>Created with Sketch.</desc>
    <defs></defs>
    <g id="Page-1" stroke="none" stroke-width="1" fill="none" fill-rule="evenodd">
        <g id="DD-Colorful-Paint-Stroke-Alphabet-55029" transform="translate(-810.000000, -699.000000)" fill="#001A5A" fill-rule="nonzero">
            <path d="M820,699.9 L831.6,701.6 L870,699.9 L918,712.4 L918,716 L919.9,717.8 L918,719.6 L916,719.6 L916,721.4 L919.8,721.4 L923.6,717.8 L925.5,717.8 L925.5,724.9 L850.6,805.7 L862.1,805.7 L873.7,803.8 C889.5,807.5 899.7,812.9 904.3,820 L906.3,820 L906.3,827.1 L902.4,830.8 L900.5,830.8 L890.9,827.1 L892.8,829 L892.8,832.4 L877.5,829 L871.8,829 C859.4,829 842.7,832.6 821.8,839.7 L810.3,830.8 L816,816.4 L812.2,812.8 L812.2,805.7 C821.7,791.4 827.4,784.2 829.5,784.2 L831.4,786 L833.3,784.2 L833.3,782.4 L831.4,782.4 C831.4,778.8 834,777 839.1,777 L846.8,768 L844.9,766.3 L850.6,762.7 L852.5,764.5 C863.9,748.6 871.6,740.2 875.6,739.4 L875.6,741.2 L854.4,766.3 L856.3,766.3 L889,730.4 L887.1,730.4 L879.4,735.8 L877.5,734 L877.5,732.2 L879.4,730.4 L860.1,732.2 L837.1,732.2 C831,729.5 826.5,725.4 823.6,719.7 L823.6,717.9 L827.4,712.5 C825.3,706.5 822.1,703.5 817.8,703.5 L819.7,701.7 L819.7,699.9 L820,699.9 Z M846.9,773.4 L837.3,784.2 L839.2,784.2 L848.8,773.4 L846.9,773.4 Z M856.5,782.4 L846.9,793.1 L848.8,793.1 L858.4,782.4 L856.5,782.4 Z M870,768 L858.4,780.5 L860.3,780.5 L871.9,768 L870,768 Z" id="Shape"></path>
        </g>
    </g>
</svg>