<?xml version="1.0" encoding="UTF-8"?>
<svg width="700px" height="907px" viewBox="0 0 700 907" version="1.1" xmlns="http://www.w3.org/2000/svg" xmlns:xlink="http://www.w3.org/1999/xlink">
    <!-- Generator: Sketch 51.2 (57519) - http://www.bohemiancoding.com/sketch -->
    <title>Battle BG Custom v2</title>
    <desc>Created with Sketch.</desc>
    <defs>
        <linearGradient x1="50%" y1="0%" x2="50%" y2="100%" id="linearGradient-1">
            <stop stop-color="#53C2FF" offset="0%"></stop>
            <stop stop-color="#AEF6FF" offset="100%"></stop>
        </linearGradient>
        <linearGradient x1="50%" y1="0%" x2="50%" y2="100%" id="linearGradient-2">
            <stop stop-color="#EAEAEA" offset="0%"></stop>
            <stop stop-color="#EDF8FF" offset="100%"></stop>
        </linearGradient>
        <linearGradient x1="50%" y1="0%" x2="50%" y2="100%" id="linearGradient-3">
            <stop stop-color="#FAD961" offset="0%"></stop>
            <stop stop-color="#C4BA45" offset="100%"></stop>
        </linearGradient>
        <path d="M456,700 C612.254743,700 838.747258,766.831348 916,700 C958.070538,663.604777 893,453.086873 893,382.5 C893,280.092905 901.808095,97.6039682 819.493806,31.681247 C740.885789,-31.2732469 573.894917,20 456,20 C315.915042,20 131.225112,-15.3230939 51.2527191,69.7071277 C-6.55707526,131.173084 19,298.499976 19,382.5 C19,468.77328 -29.6649056,663.121531 31,700 C111.11228,748.700615 318.655491,700 456,700 Z" id="path-4"></path>
        <radialGradient cx="50%" cy="0%" fx="50%" fy="0%" r="100%" gradientTransform="translate(0.500000,0.000000),scale(0.393219,1.000000),rotate(90.000000),translate(-0.500000,-0.000000)" id="radialGradient-6">
            <stop stop-color="#DAC650" offset="0%"></stop>
            <stop stop-color="#DEAF43" offset="100%"></stop>
        </radialGradient>
        <radialGradient cx="50%" cy="0%" fx="50%" fy="0%" r="100%" gradientTransform="translate(0.500000,0.000000),scale(0.393219,1.000000),rotate(90.000000),translate(-0.500000,-0.000000)" id="radialGradient-7">
            <stop stop-color="#EFDF7E" offset="0%"></stop>
            <stop stop-color="#F6D791" offset="100%"></stop>
        </radialGradient>
        <path d="M468,701 C617.322969,701 789.67949,747.947899 865,666 C911.418881,615.496761 893,458.836914 893,382.5 C893,280.092905 901.808095,97.6039682 819.493806,31.681247 C740.885789,-31.2732469 573.894917,20 456,20 C315.915042,20 131.225112,-15.3230939 51.2527191,69.7071277 C-6.55707526,131.173084 19,298.499976 19,382.5 C19,457.889989 -28.4806012,651.219841 19,688 C97.6073503,748.892043 317.535496,701 468,701 Z" id="path-8"></path>
        <linearGradient x1="53.4878237%" y1="0.121797487%" x2="46.5121763%" y2="99.8782025%" id="linearGradient-10">
            <stop stop-color="#EAEAEA" offset="0%"></stop>
            <stop stop-color="#EDF8FF" offset="100%"></stop>
        </linearGradient>
    </defs>
    <g id="Battle-BG-Custom-v2" stroke="none" stroke-width="1" fill="none" fill-rule="evenodd">
        <g id="battle2" transform="translate(-112.000000, -14.000000)">
            <rect id="sky" fill="url(#linearGradient-1)" x="70" y="0" width="784" height="934"></rect>
            <path d="M112,335 C142,252.333333 174.333333,235.597431 209,284.792292 C274,252 314,314 314,335 C346,335 419,280 407,357 C501,335 501,385.759814 501,419 C501,455.759814 449,497 407,497 C379,497 344.653846,514.666667 303.961538,550 C195.320513,566.666667 141,556.666667 141,520 C141,483.333333 131.333333,421.666667 112,335 Z" id="Path-10" fill="url(#linearGradient-2)"></path>
            <path d="M579,515 C557.666667,447 577,424.333333 637,447 C662.333333,385 699,370 747,402 C739.666667,366.666667 751,338.333333 781,317 C811,295.666667 852,302.666667 904,338 C954.666667,434 965,493 935,515 C890,548 768,637 713,603 C676.333333,580.333333 631.666667,551 579,515 Z" id="Path-11" fill="url(#linearGradient-2)"></path>
            <path d="M92,429.927711 C152.666667,407.261044 183,412.261044 183,444.927711 C243,417.927711 273,437.927711 273,501.927711 C308,501.927711 305,513.927711 294,519.927711 C350,501.927711 386,528.927711 372,521.927711 C372,503.927711 470,483.927711 456,519.927711 C498,501.927711 538,519.927711 538,531.927711 C594,483.927711 664,531.927711 650,531.927711 C674,474.320826 793,496.927711 775,501.927711 C839,444.927711 859,446.71394 877,474.320826 C889,492.725416 897,565.261044 901,691.927711 L775,930.927711 L0,986.927711 L92,429.927711 Z" id="Path-9" fill="#0072AB"></path>
            <g id="Group-3" transform="translate(28.000000, 545.000000)">
                <g id="Path-5-+-Path-5-Copy-Mask">
                    <mask id="mask-5" fill="white">
                        <use xlink:href="#path-4"></use>
                    </mask>
                    <use id="Mask" fill="url(#linearGradient-3)" xlink:href="#path-4"></use>
                    <path d="M366.607426,-109.707662 C279.188909,-108.842133 235.47965,-98.4557741 235.47965,-78.5485869 C191.337626,-78.5485869 139.650538,-25.3252294 161.476845,-30.5116787 C205.214426,-40.9047672 69.2979134,-18.8270254 82.2808616,14.9286399 C31.6473638,49.9825999 121.369077,114.302701 161.476845,96.7212133 C145.897308,118.792225 175.498993,141.181492 184.846152,131.775173 C406.854566,255.113181 658.449971,187.334998 700.269194,131.775173 C766.48223,131.775173 808.027664,121.388815 798.9396,96.7212133 C822.308907,81.1416755 883.328763,70.7553169 845.678213,45.7059438 C811.922548,14.9286399 798.9396,9 728.83168,-1.94919275 C700.269194,-30.5116787 697.672604,-78.5485869 631.459569,-78.5485869 C587.317545,-78.5485869 499.033498,-88.9349454 366.607426,-109.707662 Z" id="Path-5" fill="url(#radialGradient-6)" mask="url(#mask-5)"></path>
                    <path d="M397.589456,-72.4388845 C338.437006,-71.8532166 308.86078,-64.8252027 308.86078,-51.3548427 C278.991721,-51.3548427 244.017233,-15.3408251 258.786181,-18.8502782 C288.381571,-25.882846 196.412558,-10.9437626 205.197575,11.8972827 C170.936007,35.6168297 231.646934,79.1395489 258.786181,67.2428924 C248.24416,82.177422 268.274381,97.3273013 274.599213,90.9624395 C424.82301,174.420105 595.067087,128.557447 623.364404,90.9624395 C668.167993,90.9624395 696.280048,83.9344255 690.130536,67.2428924 C705.943568,56.7008715 747.233149,49.6728576 721.756599,32.7229956 C698.915554,11.8972827 686.520913,14.6953189 642.691442,0.476760088 C623.364404,-18.8502782 621.6074,-51.3548427 576.803812,-51.3548427 C546.934752,-51.3548427 487.196634,-58.3828566 397.589456,-72.4388845 Z" id="Path-5-Copy" fill="url(#radialGradient-7)" opacity="0.453236607" mask="url(#mask-5)"></path>
                    <mask id="mask-9" fill="white">
                        <use xlink:href="#path-8"></use>
                    </mask>
                    <use id="darker" fill="#000000" opacity="0.0899999961" xlink:href="#path-8"></use>
                </g>
            </g>
            <path d="M86,40.7185423 C95.4805467,15.2734102 105.698469,10.1220321 116.653768,25.264408 C137.194952,15.1708089 149.835681,34.2546579 149.835681,40.7185423 C159.948264,40.7185423 183.017595,23.7893213 179.225376,47.4902307 C208.931089,40.7185423 208.931089,56.3426169 208.931089,66.5740797 C208.931089,77.8888981 192.498141,90.5827931 179.225376,90.5827931 C165.95261,90.5827931 170.833951,104.86079 146.663344,106.896406 C122.492738,108.932022 95.1645285,114.591506 95.1645285,97.6622855 C95.1645285,86.3761382 92.1096856,67.3948904 86,40.7185423 Z" id="Path-10" fill="url(#linearGradient-2)"></path>
            <path d="M513.943145,111.912053 C509.472178,102.973347 503.830562,80.5160434 532.272202,90.98138 C540.277997,71.8975309 551.865332,67.2804706 567.034206,77.1301992 C564.71674,66.2544573 568.298279,57.5333434 577.778826,50.9668577 C587.259373,44.400372 600.21612,46.5550002 616.649068,57.4307421 C632.660657,86.9799277 635.926179,105.140365 626.445632,111.912053 C612.224812,122.069586 604.138018,135.739887 556.289587,138.998807 C508.441156,142.257726 518.414112,120.850759 513.943145,111.912053 Z" id="Path-11" fill="url(#linearGradient-10)"></path>
            <path d="M328.598957,52.5977643 C355.717466,52.5977643 384.556814,49.6441002 415.117001,43.7367721 C417.751101,32.4143932 412.834706,28.6402669 400.367815,32.4143932 C381.667479,38.0755827 404.916545,17.6460729 372.064603,17.6460729 C350.163309,17.6460729 341.739734,22.5688464 346.793879,32.4143932 C343.761392,18.6306276 335.67476,13.7078542 322.533983,17.6460729 C309.393206,21.5842917 298.61103,30.2811914 290.187455,43.7367721 C288.676614,49.6441002 301.480448,52.5977643 328.598957,52.5977643 Z" id="Path-12" fill="url(#linearGradient-2)"></path>
        </g>
    </g>
</svg>