<?xml version="1.0" encoding="UTF-8"?>
<svg width="690px" height="706px" viewBox="0 0 690 706" version="1.1" xmlns="http://www.w3.org/2000/svg" xmlns:xlink="http://www.w3.org/1999/xlink">
    <!-- Generator: Sketch 51.2 (57519) - http://www.bohemiancoding.com/sketch -->
    <title>battle1</title>
    <desc>Created with Sketch.</desc>
    <defs>
        <linearGradient x1="50%" y1="0%" x2="50%" y2="100%" id="linearGradient-1">
            <stop stop-color="#53C2FF" offset="0%"></stop>
            <stop stop-color="#AEF6FF" offset="100%"></stop>
        </linearGradient>
        <linearGradient x1="50%" y1="0%" x2="50%" y2="100%" id="linearGradient-2">
            <stop stop-color="#EAEAEA" offset="0%"></stop>
            <stop stop-color="#EDF8FF" offset="100%"></stop>
        </linearGradient>
        <radialGradient cx="50%" cy="0%" fx="50%" fy="0%" r="100%" gradientTransform="translate(0.500000,0.000000),scale(0.738850,1.000000),rotate(90.000000),translate(-0.500000,-0.000000)" id="radialGradient-3">
            <stop stop-color="#0AC659" offset="0%"></stop>
            <stop stop-color="#056A16" offset="100%"></stop>
        </radialGradient>
        <path d="M397.045714,586.714443 C616.328007,586.714443 794.091429,375.373941 794.091429,213.357222 C794.091429,51.3405019 616.328007,0 397.045714,0 C177.763421,0 0,51.3405019 0,213.357222 C0,375.373941 177.763421,586.714443 397.045714,586.714443 Z" id="path-4"></path>
        <radialGradient cx="50%" cy="0%" fx="50%" fy="0%" r="100%" gradientTransform="translate(0.500000,0.000000),scale(0.350239,1.000000),rotate(90.000000),translate(-0.500000,-0.000000)" id="radialGradient-6">
            <stop stop-color="#9BEA00" offset="0%"></stop>
            <stop stop-color="#3BBE29" offset="100%"></stop>
        </radialGradient>
        <radialGradient cx="50%" cy="0%" fx="50%" fy="0%" r="100%" gradientTransform="translate(0.500000,0.000000),scale(0.350239,1.000000),rotate(90.000000),translate(-0.500000,-0.000000)" id="radialGradient-7">
            <stop stop-color="#9AE800" offset="0%"></stop>
            <stop stop-color="#81E300" offset="100%"></stop>
        </radialGradient>
    </defs>
    <g id="battle1" stroke="none" stroke-width="1" fill="none" fill-rule="evenodd">
        <g id="Battle-BG-Custom" transform="translate(-85.000000, 0.000000)">
            <rect id="sky" fill="url(#linearGradient-1)" x="63.84" y="0.670341786" width="712.32" height="755.850055"></rect>
            <path d="M78.3771429,231.309813 C105.634286,164.410878 135.011429,150.86716 166.508571,190.678657 C225.565714,164.141125 261.908571,214.315325 261.908571,231.309813 C290.982857,231.309813 357.308571,186.800441 346.405714,249.113561 C431.811429,231.309813 431.811429,272.387765 431.811429,299.287762 C431.811429,329.036057 384.565714,362.410143 346.405714,362.410143 C320.965714,362.410143 289.75978,376.707093 252.787912,405.300992 C154.07978,418.788681 104.725714,410.696068 104.725714,381.023153 C104.725714,351.350239 95.9428571,301.445792 78.3771429,231.309813 Z" id="Path-10" fill="url(#linearGradient-2)"></path>
            <path d="M502.68,376.976847 C483.297143,321.947078 500.862857,303.603822 555.377143,321.947078 C578.394286,271.772878 611.708571,259.633958 655.32,285.53032 C648.657143,256.93642 658.954286,234.00735 686.211429,216.743109 C713.468571,199.478868 750.72,205.143697 797.965714,233.737596 C844,311.426681 853.388571,359.173098 826.131429,376.976847 C785.245714,403.68247 674.4,475.706725 624.428571,448.191841 C591.114286,429.848585 550.531429,406.110254 502.68,376.976847 Z" id="Path-11" fill="url(#linearGradient-2)"></path>
            <path d="M83.8285714,260.385888 C138.948571,242.042631 166.508571,246.088938 166.508571,272.524807 C221.022857,250.674752 248.28,266.859978 248.28,318.652701 C280.08,318.652701 277.354286,328.363837 267.36,333.219405 C318.24,318.652701 353.674286,338.884234 340.954286,333.219405 C271.902857,304.085998 427.268571,304.085998 414.548571,333.219405 C452.708571,318.652701 495.411429,338.884234 489.051429,342.93054 C489.051429,296.311517 603.531429,342.93054 590.811429,342.93054 C622.611429,272.524807 720.737143,314.606395 704.382857,318.652701 C762.531429,272.524807 780.702857,273.970333 797.057143,296.311517 C807.96,311.20564 815.228571,369.905917 818.862857,472.412348 L704.382857,665.825799 L0.24,711.144432 L83.8285714,260.385888 Z" id="back-hedges" fill="#0072AB"></path>
            <g id="green-hills" transform="translate(42.942857, 361.543550)">
                <mask id="mask-5" fill="white">
                    <use xlink:href="#path-4"></use>
                </mask>
                <use id="Mask" fill="url(#radialGradient-3)" xlink:href="#path-4"></use>
                <path d="M335.82845,-19.4222712 C274.651307,-18.8827637 244.062736,-12.4086733 244.062736,5.32907052e-14 C213.171307,5.32907052e-14 189.057143,26.4564498 192.274165,29.9426681 C182.057143,29.9426681 127.765593,37.2260198 136.851307,58.2668137 C101.417022,80.1168688 164.205985,120.209279 192.274165,109.250276 C181.371307,123.007718 202.08713,136.963536 208.62845,131.100331 C363.994165,207.980154 540.065419,165.732231 569.331307,131.100331 C615.66845,131.100331 644.742736,124.62624 638.382736,109.250276 C654.737022,99.53914 697.439879,93.0650496 671.091307,77.4511166 C647.46845,58.2668137 634.649562,60.8443184 589.319879,47.7464168 C569.331307,29.9426681 567.514165,5.32907052e-14 521.177022,5.32907052e-14 C490.285593,5.32907052e-14 428.502736,-6.47409041 335.82845,-19.4222712 Z" id="Path-5" fill="url(#radialGradient-6)" style="mix-blend-mode: lighten;" mask="url(#mask-5)"></path>
                <path d="M357.510265,3.8083382 C316.114254,4.17340036 295.416248,8.55414626 295.416248,16.9505759 C274.513312,16.9505759 250.037499,39.3990601 260.37309,37.2115257 C281.084507,32.8279413 216.722841,42.1398649 222.870764,56.3772891 C198.893866,71.1623065 241.380528,98.2911619 260.37309,90.8756631 C252.995583,100.184748 267.013113,109.628066 271.439351,105.66068 C376.568824,157.682038 495.70887,129.094637 515.511871,105.66068 C546.866276,105.66068 566.539627,101.279935 562.236082,90.8756631 C573.302342,84.3045442 602.197578,79.9237983 584.368603,69.3585036 C568.384004,56.3772891 559.709999,58.1213786 529.037301,49.258577 C515.511871,37.2115257 514.282287,16.9505759 482.927882,16.9505759 C462.024946,16.9505759 420.219074,12.56983 357.510265,3.8083382 Z" id="Path-5-Copy" fill="url(#radialGradient-7)" opacity="0.410770089" mask="url(#mask-5)"></path>
            </g>
            <path d="M176.24941,590.675032 C179.791966,578.015486 193.076219,573.349161 209.428877,576.445711 C217.068661,577.892386 224.336061,580.986908 228.914851,584.784923 C231.20071,586.680998 232.798807,588.767343 233.57954,590.892553 C241.479524,586.460609 249.720566,587.171726 257.864973,593.004107 C267.989062,567.786559 280.442578,554.846748 295.525714,554.846748 C310.442338,554.846748 326.7623,567.703615 344.875937,593.094879 C365.998088,570.180346 385.855411,563.877177 402.682059,571.178747 C410.694032,574.655375 417.694903,581.746207 421.336241,588.367987 C428.936105,572.722187 444.455417,559.387909 460.225601,555.830692 C480.959112,551.153918 497.168376,563.533622 502.922855,592.221282 C509.950526,586.60527 514.562531,585.104974 518.500898,588.194409 C521.284418,590.377929 522.766286,594.706335 523.422867,602.296463 C527.047366,596.902855 531.468341,594.095921 536.751429,594.095921 C543.820339,594.095921 551.561995,599.302956 560.27402,609.497527 C576.910479,579.420336 602.444596,570.273893 635.933202,582.36248 C644.740593,547.742103 663.003757,541.944035 687.889907,565.645071 C688.529505,549.442421 691.440439,538.019218 696.814658,531.291828 C703.405004,523.042102 713.322194,522.087161 725.672823,528.033464 C749.029892,539.2789 767.026984,568.022249 779.956954,614.08896 L780.025611,614.333572 L780.052154,614.586245 C789.904933,708.377978 764.428217,756.283352 703.474286,756.283352 C691.59929,756.283352 671.569777,756.990245 637.784086,758.520343 C626.116112,759.048766 554.913234,762.418268 532.096406,763.4485 C483.507977,765.642379 442.0901,767.281614 402.493118,768.491315 C310.55425,771.300076 237.418542,771.456525 183.863407,768.261109 C117.957495,764.328773 84.2018449,755.794369 86.2110042,738.958787 C80.470783,720.401591 78.8823812,687.763575 80.9007615,650.960459 C82.687029,618.389684 87.016126,589.298929 91.2872562,582.544391 C96.0665287,574.986256 112.394485,569.800552 129.524371,570.416336 C147.65642,571.068147 164.292256,577.74642 176.249411,590.675026 Z" id="Path-6" stroke="#005E91" stroke-width="6" fill="#003261"></path>
            <g id="Group" transform="translate(252.822857, 572.008820)" fill="#005E91">
                <path d="M34.9427776,18.2147617 C32.2629558,21.3822951 14.9315635,27.0761859 10.3165095,55.3910704 C19.6119724,44.4038886 19.7804823,49.5835151 22.345932,41.1723645 C18.3498768,33.7933684 36.9106872,15.8887042 34.9427776,18.2147617 Z" id="Path-7" transform="translate(22.702957, 36.699493) rotate(-37.000000) translate(-22.702957, -36.699493) "></path>
                <path d="M35.7306478,31.3572916 C30.2627284,37.8203397 36.9798893,47.3953413 32.3648352,75.7102258 C41.6602981,64.723044 41.8288081,69.9026705 44.3942578,61.49152 C29.8638154,51.7388631 37.6985574,29.0312341 35.7306478,31.3572916 Z" id="Path-7-Copy-2" transform="translate(38.379547, 53.450697) scale(-1, 1) rotate(-37.000000) translate(-38.379547, -53.450697) "></path>
                <path d="M48.1542857,0.809261301 C31.1942857,12.678427 22.7142857,30.7519294 22.7142857,55.0297685 C22.7142857,79.3076075 26.9542857,94.1440647 35.4342857,99.53914 C25.7428571,76.3403161 25.1371429,53.6809996 33.6171429,31.5611907 C42.0971429,9.44138184 46.9428571,-0.809261301 48.1542857,0.809261301 Z" id="Path-7-Copy"></path>
            </g>
            <g id="Group-2" transform="translate(608.982857, 559.060639)" fill="#005E91">
                <path d="M56.4896297,100.348401 C65.4965533,90.0977582 69.1045755,72.5637633 67.3136962,47.7464168 C64.6273772,10.5203969 66.3257143,12.9481808 63.1460242,0 C73.5555103,21.0407938 75.9663094,89.8280044 70.8691913,100.348401 C67.4711126,107.361999 62.3223345,118.15215 55.4228571,132.718853 L56.4896297,100.348401 Z" id="Path-8"></path>
                <path d="M84.5238075,80.1376013 C86.2523205,78.2686 86.6688572,71.5837385 85.7734176,60.0830169 C84.4302581,42.8319345 83.0417271,39.1363252 81.451882,33.1359487 C86.6566251,42.8865605 95.1449576,83.8312753 92.5963986,88.7065812 C90.8973592,91.9567851 89.2693376,93.1735408 87.7123337,92.3568484 L84.5238075,80.1376013 Z" id="Path-8-Copy" transform="translate(87.257310, 62.869401) rotate(40.000000) translate(-87.257310, -62.869401) "></path>
                <path d="M29.1397638,99.8924268 C34.5265779,92.3454828 37.9921908,83.0649378 39.5366025,72.0507918 C41.85322,55.5295727 43.7649729,45.9022687 42.1751279,39.9018922 C47.379871,49.652504 41.9480816,101.000882 39.3995226,105.876187 C37.7004832,109.126391 36.0724616,110.343147 34.5154577,109.526455 L29.1397638,99.8924268 Z" id="Path-8-Copy-2" transform="translate(36.746255, 74.837176) scale(-1, 1) rotate(53.000000) translate(-36.746255, -74.837176) "></path>
            </g>
            <path d="M468.154286,83.2149945 L670.022828,83.2149945 C674.758085,64.6019846 665.92,58.3976479 643.508571,64.6019846 C609.891429,73.9084895 651.685714,40.3241455 592.628571,40.3241455 C553.257143,40.3241455 538.114286,48.4167585 547.2,64.6019846 C541.748571,41.9426681 527.211429,33.8500551 503.588571,40.3241455 C479.965714,46.7982359 460.582857,61.0951856 445.44,83.2149945 L468.154286,83.2149945 Z" id="Path-12" fill="url(#linearGradient-2)"></path>
        </g>
    </g>
</svg>