<?xml version="1.0" encoding="UTF-8"?>
<svg width="140px" height="153px" viewBox="0 0 140 153" version="1.1" xmlns="http://www.w3.org/2000/svg" xmlns:xlink="http://www.w3.org/1999/xlink">
    <!-- Generator: Sketch 51.1 (57501) - http://www.bohemiancoding.com/sketch -->
    <title>XMLID_1124_</title>
    <desc>Created with Sketch.</desc>
    <defs></defs>
    <g id="Page-1" stroke="none" stroke-width="1" fill="none" fill-rule="evenodd">
        <g id="XMLID_613_" transform="translate(0.000000, -60.000000)" fill-rule="nonzero">
            <g id="XMLID_1124_" transform="translate(0.000000, 60.000000)">
                <g id="XMLID_1155_" transform="translate(75.000000, 105.000000)" fill="#986B29">
                    <path d="M38.9,38.7 L1.6,18.4 C0.7,11.1 0.3,5 0.3,0.2 L37.6,20.5 C37.6,25.3 38,31.4 38.9,38.7 Z" id="XMLID_1156_"></path>
                </g>
                <path d="M74.1,67.1 C74.2,76.8 72.1,85.5 67.9,93.2 C63.2,101 56.2,105.6 47.1,107.1 C42,107.8 37.7,107.3 34.4,105.5 L71.7,125.8 C75,127.6 79.2,128.1 84.4,127.4 C93.5,126 100.5,121.3 105.2,113.5 C109.5,105.7 111.6,97 111.4,87.4 L74.1,67.1 Z" id="XMLID_601_" fill="#986B29"></path>
                <g id="XMLID_1149_" transform="translate(33.000000, 105.000000)" fill="#000000">
                    <path d="M37.8,20.3 L0.5,0 C0.6,0.1 0.7,0.1 0.8,0.2 L38.1,20.5 C37.9,20.4 37.8,20.3 37.8,20.3 Z" id="XMLID_1150_"></path>
                </g>
                <g id="XMLID_1145_" transform="translate(67.000000, 28.000000)" fill="#986B29">
                    <path d="M44.3,40.3 L7.1,20 C7.1,10.1 5.1,3.5 0.9,0.1 L38.2,20.4 C42.3,23.8 44.4,30.4 44.3,40.3 Z" id="XMLID_1146_"></path>
                </g>
                <g id="XMLID_1143_" transform="translate(12.000000, 125.000000)" fill="#000000">
                    <path d="M40.4,22.6 L3.1,2.3 C2.2,1.8 1.3,1.3 0.5,0.7 L37.8,21 C38.7,21.6 39.5,22.1 40.4,22.6 Z" id="XMLID_1144_"></path>
                </g>
                <g id="XMLID_1141_" transform="translate(66.000000, 26.000000)" fill="#000000">
                    <path d="M0.1,0.9 L37.4,21.2 C38.1,21.6 38.7,22 39.3,22.4 L2,2.1 C1.4,1.7 0.7,1.3 0.1,0.9 Z" id="XMLID_1142_"></path>
                </g>
                <path d="M74.1,48 L57.8,50.3 C51.6,51.2 45.1,52.5 38.4,54.2 C31.8,56.1 25.5,59 19.6,62.8 C14,66.3 9.4,71.1 5.9,77.4 C2.1,83.7 0.1,91.4 0.1,100.6 C0.2,112.3 4.4,120.7 12.6,125.8 L49.9,146.1 C41.7,141.1 37.5,132.7 37.4,120.9 C37.4,111.7 39.3,103.9 43.2,97.7 C46.7,91.5 51.3,86.6 56.9,83.1 C62.8,79.3 69.1,76.4 75.7,74.5 C82.5,72.8 89,71.4 95.1,70.6 L111.4,68.3 L74.1,48 Z" id="XMLID_600_" fill="#B07E09"></path>
                <g id="XMLID_1131_" transform="translate(12.000000, 0.000000)" fill="#E0A810">
                    <path d="M71.6,4.6 L108.9,24.9 C101.3,20.8 91.3,19.6 78.8,21.4 C78.4,21.5 77.9,21.5 77.5,21.6 C63.8,23.7 50.6,28.6 37.9,36.5 L0.6,16.2 C13.3,8.4 26.5,3.4 40.2,1.3 C40.6,1.2 41.1,1.2 41.5,1.1 C53.9,-0.7 64,0.5 71.6,4.6 Z" id="XMLID_1132_"></path>
                </g>
                <g id="XMLID_1129_" transform="translate(12.000000, 16.000000)" fill="#B07E09">
                    <polygon id="XMLID_1130_" points="38.6 47.7 1.4 27.4 0.5 0.1 37.8 20.4"></polygon>
                </g>
                <g id="XMLID_1125_" transform="translate(37.000000, 20.000000)" fill="#FFF197">
                    <path d="M101.7,92.8 C102,101.8 102.4,110.9 103,120 L76.9,123.7 C76,116.4 75.6,110.3 75.6,105.5 L75.2,105.6 C71.7,112.8 66.7,118.6 60.4,123.2 C53.9,127.9 47.1,130.8 40.1,131.8 C29.8,133.1 20.7,131.2 12.9,126.1 C4.7,121.1 0.5,112.7 0.4,100.9 C0.4,91.7 2.3,83.9 6.2,77.7 C9.7,71.5 14.3,66.6 19.9,63.1 C25.8,59.3 32.1,56.4 38.7,54.5 C45.5,52.8 52,51.4 58.1,50.6 L74.4,48.3 C74.4,38.4 72.4,31.8 68.2,28.4 C64.1,25.2 57.6,24.2 48.8,25.4 C35.8,27.4 24.1,33.5 13.6,43.7 L12.8,16.4 C25.5,8.6 38.7,3.6 52.4,1.5 C52.8,1.4 53.3,1.4 53.7,1.3 C86,-3.2 101.8,11.8 101.3,46.3 L101.3,62 C101.2,74.1 101.4,84.3 101.7,92.8 Z M68.1,93.5 C72.4,85.7 74.5,77 74.3,67.4 L61.5,69.2 C59.9,69.4 58.2,69.7 56.4,69.9 C54.6,70.1 52.9,70.6 51.1,71.1 C47.3,72.1 43.7,73.6 40.3,75.5 C36.9,77.4 34.2,79.9 32.1,83.1 C29.7,86.3 28.6,90.3 28.5,95 C28.5,100.1 30.3,103.6 34,105.4 C37.4,107.5 41.8,108.1 47.3,107.4 C56.4,105.9 63.3,101.3 68.1,93.5 Z" id="XMLID_1126_"></path>
                </g>
            </g>
        </g>
    </g>
</svg>