<?xml version="1.0" encoding="UTF-8"?>
<svg width="227px" height="238px" viewBox="0 0 227 238" version="1.1" xmlns="http://www.w3.org/2000/svg" xmlns:xlink="http://www.w3.org/1999/xlink">
    <!-- Generator: Sketch 51.2 (57519) - http://www.bohemiancoding.com/sketch -->
    <title>a</title>
    <desc>Created with Sketch.</desc>
    <defs>
        <filter x="-0.4%" y="-0.4%" width="100.9%" height="101.7%" filterUnits="objectBoundingBox" id="filter-1">
            <feOffset dx="0" dy="2" in="SourceAlpha" result="shadowOffsetOuter1"></feOffset>
            <feColorMatrix values="0 0 0 0 0   0 0 0 0 0   0 0 0 0 0  0 0 0 0.5 0" type="matrix" in="shadowOffsetOuter1" result="shadowMatrixOuter1"></feColorMatrix>
            <feMerge>
                <feMergeNode in="shadowMatrixOuter1"></feMergeNode>
                <feMergeNode in="SourceGraphic"></feMergeNode>
            </feMerge>
        </filter>
        <path d="M153.078694,228.103794 C146.282693,235.16118 124.849149,235.16118 88.7780634,228.103794 C34.6714347,217.517714 -6.88872929,128.148205 0.952811089,97.9342232 C0.952811089,69.3366523 86.4256013,-15.7681123 130.338227,11.677279 C159.613311,29.9742066 175.557777,39.1226704 178.171624,39.1226704 C173.466699,28.1445138 173.466699,18.9960501 178.171624,11.677279 C185.22901,0.699122513 215.811018,-4.78995575 221.300096,6.18820078 C226.789174,17.1663573 228.357482,221.046407 221.300096,228.103794 C214.242709,235.16118 171.114237,239.08195 171.114237,232.024564 C171.114237,224.967177 169.545929,218.693945 178.171624,206.931635 C183.922087,199.090094 175.557777,206.147481 153.078694,228.103794 Z" id="path-2"></path>
        <polygon id="path-4" points="0 7.59493671 0 51.6455696 19.0559441 18.2278481 24.3916084 60 38.8741259 18.2278481 50.3076923 60 59.4545455 7.59493671 70.8881119 51.6455696 82.3216783 7.59493671 109 60 109 0"></polygon>
    </defs>
    <g id="Symbols" stroke="none" stroke-width="1" fill="none" fill-rule="evenodd">
        <g id="letter/a">
            <g id="a" filter="url(#filter-1)">
                <g id="A-shape">
                    <g id="toe-+-toe-copy-+-toe-copy-2-+-toe-copy-5-+-toe-copy-4-+-toe-copy-3-+-Mask-Mask">
                        <mask id="mask-3" fill="white">
                            <use xlink:href="#path-2"></use>
                        </mask>
                        <g id="Shape">
                            <use fill="#622875" xlink:href="#path-2"></use>
                            <use fill="#AB0777" xlink:href="#path-2"></use>
                        </g>
                        <g id="toe-+-toe-copy-+-toe-copy-2-+-toe-copy-5-+-toe-copy-4-+-toe-copy-3-Mask" mask="url(#mask-3)">
                            <g transform="translate(54.000000, -1.000000)">
                                <mask id="mask-5" fill="white">
                                    <use xlink:href="#path-4"></use>
                                </mask>
                                <use id="Mask" stroke="none" fill="#ED5ACC" fill-rule="evenodd" opacity="0.340401786" xlink:href="#path-4"></use>
                            </g>
                        </g>
                        <rect id="toe" fill="#D82262" mask="url(#mask-3)" x="-1" y="217" width="20" height="28" rx="10"></rect>
                        <rect id="toe-copy" fill="#D82262" mask="url(#mask-3)" transform="translate(-13.000000, 229.000000) rotate(24.000000) translate(13.000000, -229.000000) " x="-23" y="215" width="20" height="28" rx="10"></rect>
                        <rect id="toe-copy-5" fill="#D82262" mask="url(#mask-3)" transform="translate(225.000000, 226.000000) scale(-1, 1) translate(-225.000000, -226.000000) " x="215" y="212" width="20" height="28" rx="10"></rect>
                        <rect id="toe-copy-4" fill="#D82262" mask="url(#mask-3)" transform="translate(205.000000, 235.000000) scale(-1, 1) rotate(29.000000) translate(-205.000000, -235.000000) " x="195" y="221" width="20" height="28" rx="10"></rect>
                        <rect id="toe-copy-3" fill="#D82262" mask="url(#mask-3)" transform="translate(182.000000, 237.000000) scale(-1, 1) rotate(45.000000) translate(-182.000000, -237.000000) " x="172" y="223" width="20" height="28" rx="10"></rect>
                    </g>
                </g>
                <g id="eye" transform="translate(63.000000, 70.000000)">
                    <ellipse fill="#FFFFFF" cx="44.5" cy="45.5" rx="44.5" ry="45.5"></ellipse>
                    <circle id="Oval" fill="#000000" cx="46.5" cy="48.5" r="13.5"></circle>
                    <circle id="Oval-Copy" fill="#FFFFFF" cx="40.5" cy="42.5" r="4.5"></circle>
                </g>
                <g id="Group-2" transform="translate(190.000000, 107.000000)" stroke="#C12393" stroke-linecap="round" stroke-width="3">
                    <path d="M22,0 C19.3333333,20.6666667 12,34.6666667 0,42" id="Path-13"></path>
                    <path d="M27,20 C17.6666667,21.3333333 10.6666667,18 6,10" id="Path-14"></path>
                    <path d="M14,29.6666667 C7.77777778,30.5555556 3.11111111,28.3333333 0,23" id="Path-14-Copy"></path>
                </g>
                <g id="mouth" transform="translate(77.000000, 184.000000)">
                    <path d="M36.3536818,2 C56.4476419,2 74,1.80900147 74,0.744592562 C74,-0.319816342 56.4476419,0.473070624 36.3536818,0.473070624 C16.2597216,0.473070624 0,-0.59133828 0,0.473070624 C0,1.53747953 16.2597216,2 36.3536818,2 Z" id="smile" fill="#D82262" transform="translate(37.000000, 1.000000) scale(1, -1) translate(-37.000000, -1.000000) "></path>
                    <polygon id="tooth" fill="#FFFFFF" transform="translate(6.000000, 6.500000) scale(1, -1) rotate(8.000000) translate(-6.000000, -6.500000) " points="6 1 11 12 1 12"></polygon>
                    <polygon id="tooth-copy-3" fill="#FFFFFF" transform="translate(69.000000, 6.500000) rotate(-1.000000) translate(-69.000000, -6.500000) " points="69 12 74 1 64 1"></polygon>
                </g>
            </g>
        </g>
    </g>
</svg>