<?xml version="1.0" encoding="UTF-8"?>
<svg width="150px" height="205px" viewBox="0 0 150 205" version="1.1" xmlns="http://www.w3.org/2000/svg" xmlns:xlink="http://www.w3.org/1999/xlink">
    <!-- Generator: Sketch 51.1 (57501) - http://www.bohemiancoding.com/sketch -->
    <title>XMLID_1103_</title>
    <desc>Created with Sketch.</desc>
    <defs></defs>
    <g id="Page-1" stroke="none" stroke-width="1" fill="none" fill-rule="evenodd">
        <g id="XMLID_613_" transform="translate(-174.000000, -8.000000)" fill-rule="nonzero">
            <g id="XMLID_1103_" transform="translate(174.000000, 8.000000)">
                <g id="XMLID_1118_" transform="translate(29.000000, 164.000000)" fill="#986B29">
                    <path d="M48.5,30.3 L11.2,10 C7.2,7.8 3.6,4.7 0.4,0.7 L37.7,21 C40.9,25.1 44.5,28.2 48.5,30.3 Z" id="XMLID_1119_"></path>
                </g>
                <path d="M113.7,105.7 C111.9,102 109.4,99.1 106.2,97.2 C106,97.1 105.9,97 105.7,96.9 L68.4,76.6 C68.6,76.7 68.7,76.8 68.9,76.9 C72.1,78.8 74.6,81.7 76.4,85.4 C79.6,93.4 81.2,101.8 81.2,110.7 C81.2,114.8 80.9,119.3 80.3,123.9 C79.4,128.6 78,133.2 76.1,137.6 C74.3,141.7 71.8,145.2 68.6,148.2 C65.2,151.4 61.1,153.3 56.2,154 C52,154.6 48.3,154.1 45.3,152.4 L82.6,172.7 C85.6,174.3 89.2,174.9 93.5,174.3 C98.4,173.6 102.5,171.7 105.9,168.5 C109.1,165.5 111.7,162 113.4,157.9 C115.3,153.5 116.7,148.9 117.6,144.2 C118.2,139.5 118.5,135.1 118.5,131 C118.5,122.1 116.9,113.7 113.7,105.7 Z" id="XMLID_602_" fill="#986B29"></path>
                <path d="M90.7,52.9 C83.8,49.1 75.1,47.9 64.5,49.2 C49.5,51.5 38.1,59.3 30,72.6 L67.3,92.9 C75.4,79.5 86.8,71.7 101.8,69.5 C112.4,68.2 121.1,69.4 128,73.2 L90.7,52.9 Z" id="XMLID_603_" fill="#E0A810"></path>
                <g id="XMLID_1110_" transform="translate(0.000000, 5.000000)" fill="#B07E09">
                    <polygon id="XMLID_1111_" points="37.5 199.2 0.3 178.9 0.6 0.1 37.8 20.3"></polygon>
                </g>
                <g id="XMLID_1106_" transform="translate(37.000000, 21.000000)" fill="#FFF197">
                    <path d="M101.9,62.4 C109.1,73.8 112.6,88.2 112.4,105.7 C112.5,123 109,138.4 101.7,152 C94.2,165.9 81.8,174.3 64.5,177 C58.2,177.9 51.9,177.4 45.7,175.6 C39.5,173.6 34.2,169.8 29.6,164 L29.1,179.1 L0.4,183.1 L0.7,4.3 L30.3,0.1 L30.2,71.9 C38.3,58.5 49.7,50.7 64.7,48.5 C82,46.4 94.4,51 101.9,62.4 Z M80.6,123.3 C81.2,118.6 81.5,114.2 81.5,110.1 C81.5,101.2 79.9,92.8 76.7,84.8 C74.9,81.1 72.4,78.2 69.2,76.3 C66,74.4 61.9,73.8 57.1,74.4 C47.7,76 40.9,81.4 36.7,90.4 C32.6,99.1 30.5,108 30.5,117.3 C30.3,126.5 32.3,135 36.4,142.7 C38.5,146.2 41.1,149 44.3,151.1 C47.5,153.3 51.6,154.1 56.4,153.4 C61.3,152.7 65.4,150.8 68.8,147.6 C72,144.6 74.6,141.1 76.3,137 C78.3,132.6 79.7,128 80.6,123.3 Z" id="XMLID_1107_"></path>
                </g>
                <g id="XMLID_1104_" fill="#E0A810">
                    <polygon id="XMLID_1105_" points="37.8 25.3 0.6 5.1 30.2 0.9 67.4 21.2"></polygon>
                </g>
            </g>
        </g>
    </g>
</svg>