<?xml version="1.0" encoding="UTF-8"?>
<svg width="124px" height="151px" viewBox="0 0 124 151" version="1.1" xmlns="http://www.w3.org/2000/svg" xmlns:xlink="http://www.w3.org/1999/xlink">
    <!-- Generator: Sketch 51.1 (57501) - http://www.bohemiancoding.com/sketch -->
    <title>XMLID_1090_</title>
    <desc>Created with Sketch.</desc>
    <defs></defs>
    <g id="Page-1" stroke="none" stroke-width="1" fill="none" fill-rule="evenodd">
        <g id="XMLID_613_" transform="translate(-346.000000, -61.000000)" fill-rule="nonzero">
            <g id="XMLID_1090_" transform="translate(346.000000, 61.000000)">
                <path d="M84.6,95.7 C82.1,97.3 78.8,99 74.7,100.7 C70.4,102.7 66.2,104.1 61.9,104.7 C55.5,105.5 50.1,104.7 45.8,102.4 L83.1,122.7 C87.5,125.1 92.8,125.9 99.2,125 C103.5,124.4 107.7,123.1 112,121 C116.1,119.3 119.4,117.7 121.9,116 L84.6,95.7 Z" id="XMLID_605_" fill="#986B29"></path>
                <path d="M84.1,1.9 C76.4,0.3 66.9,0.3 55.4,1.9 C37.7,4.5 24.2,12.6 14.7,26 C5.1,39.3 0.3,55.1 0.3,73.3 C0.3,92.2 5,107 14.6,117.5 C17.6,121 21,123.8 24.9,125.9 L62.2,146.2 C58.3,144.1 54.8,141.3 51.9,137.8 C42.3,127.2 37.6,112.5 37.6,93.6 C37.6,75.3 42.5,59.5 52,46.3 C61.4,32.9 75,24.9 92.7,22.2 C104.2,20.6 113.7,20.6 121.4,22.2 L84.1,1.9 Z" id="XMLID_604_" fill="#B07E09"></path>
                <g id="XMLID_1091_" transform="translate(37.000000, 20.000000)" fill="#FFF197">
                    <path d="M55.6,2.1 C67.1,0.5 76.6,0.5 84.3,2.1 L81.6,27.7 C79.1,26.6 76.3,25.9 73.2,25.5 C70,25.2 66.1,25.3 61.5,26 C52.4,27.4 45.1,32 39.8,39.5 C34.2,47.3 31.4,57.1 31.4,69.1 C31.4,80.5 33.9,89.6 39.1,96.4 C44.1,103.3 51.8,106.1 62.1,104.8 C66.4,104.2 70.6,102.9 74.9,100.8 C79,99.1 82.3,97.5 84.8,95.8 L86.1,122.1 C82,124.1 77.6,125.7 72.8,126.8 C68.1,128.2 62.6,129.4 56.5,130.3 C37.9,132.7 24,128.5 14.8,117.6 C5.2,107 0.5,92.3 0.5,73.4 C0.5,55.1 5.4,39.3 14.9,26.1 C24.4,12.8 38,4.8 55.6,2.1 Z" id="XMLID_1092_"></path>
                </g>
            </g>
        </g>
    </g>
</svg>