<?xml version="1.0" encoding="UTF-8"?>
<svg width="205px" height="235px" viewBox="0 0 205 235" version="1.1" xmlns="http://www.w3.org/2000/svg" xmlns:xlink="http://www.w3.org/1999/xlink">
    <!-- Generator: Sketch 51.2 (57519) - http://www.bohemiancoding.com/sketch -->
    <title>c</title>
    <desc>Created with Sketch.</desc>
    <defs>
        <filter x="-0.5%" y="-0.4%" width="101.0%" height="101.7%" filterUnits="objectBoundingBox" id="filter-1">
            <feOffset dx="0" dy="2" in="SourceAlpha" result="shadowOffsetOuter1"></feOffset>
            <feColorMatrix values="0 0 0 0 0   0 0 0 0 0   0 0 0 0 0  0 0 0 0.5 0" type="matrix" in="shadowOffsetOuter1" result="shadowMatrixOuter1"></feColorMatrix>
            <feMerge>
                <feMergeNode in="shadowMatrixOuter1"></feMergeNode>
                <feMergeNode in="SourceGraphic"></feMergeNode>
            </feMerge>
        </filter>
        <path d="M64,45 C146,10 155,75 180,58 C189,39 189,33.6359168 155,10 C121,-13.6359168 1,4 1,94 C1,184 -14,228 91,228 C196,228 221,188 196,169 C176,169 166,177 130,187 C94,197 50,206 37,173 C24,140 34.1683052,53.1359168 64,45 Z" id="path-2"></path>
    </defs>
    <g id="Symbols" stroke="none" stroke-width="1" fill="none" fill-rule="evenodd">
        <g id="letter/c" transform="translate(-12.000000, -2.000000)">
            <g id="c" filter="url(#filter-1)" transform="translate(12.000000, -4.000000)">
                <g id="teeth" transform="translate(45.000000, 41.000000)" fill="#FFFFFF">
                    <polygon id="tooth" points="134 18 121 44 111 14"></polygon>
                    <polygon id="tooth-copy" points="114 11 101 37 91 7"></polygon>
                    <polygon id="tooth-copy-2" points="93 11 80 37 70 7"></polygon>
                    <polygon id="tooth-copy-3" points="73 6 60 32 50 2"></polygon>
                    <polygon id="tooth-copy-4" points="52 4 39 30 29 0"></polygon>
                    <polygon id="tooth-copy-5" points="31 8 18 34 8 4"></polygon>
                    <polygon id="tooth-copy-8" transform="translate(29.500000, 159.000000) rotate(-171.000000) translate(-29.500000, -159.000000) " points="41 148 28 174 18 144"></polygon>
                    <polygon id="tooth-copy-9" transform="translate(48.500000, 162.000000) rotate(-183.000000) translate(-48.500000, -162.000000) " points="60 151 47 177 37 147"></polygon>
                    <polygon id="tooth-copy-10" transform="translate(71.500000, 160.000000) rotate(-192.000000) translate(-71.500000, -160.000000) " points="83 149 70 175 60 145"></polygon>
                    <polygon id="tooth-copy-11" transform="translate(94.500000, 158.000000) rotate(-198.000000) translate(-94.500000, -158.000000) " points="106 147 93 173 83 143"></polygon>
                    <polygon id="tooth-copy-12" transform="translate(114.500000, 145.000000) rotate(-198.000000) translate(-114.500000, -145.000000) " points="126 134 113 160 103 130"></polygon>
                    <polygon id="tooth-copy-13" transform="translate(135.500000, 139.000000) rotate(-198.000000) translate(-135.500000, -139.000000) " points="147 128 134 154 124 124"></polygon>
                </g>
                <g id="freckles" transform="translate(0.000000, 11.000000)">
                    <mask id="mask-3" fill="white">
                        <use xlink:href="#path-2"></use>
                    </mask>
                    <use id="Mask" fill="#5737C9" xlink:href="#path-2"></use>
                </g>
                <g id="eye" transform="translate(154.142420, 31.005440) rotate(16.000000) translate(-154.142420, -31.005440) translate(130.019331, 6.882352)">
                    <path d="M21.8586627,47.9271299 C36.2558796,47.9271299 47.9271299,36.9058225 47.9271299,23.3103509 C47.9271299,9.71487922 38.1772696,-4.54747351e-13 23.7800527,-4.54747351e-13 C9.38283584,-4.54747351e-13 -1.8189894e-12,11.1130382 -1.8189894e-12,24.7085098 C-1.8189894e-12,38.3039815 7.46144577,47.9271299 21.8586627,47.9271299 Z" fill="#3E1EB3"></path>
                    <path d="M21.9953668,46.3708016 C35.4575477,46.3708016 46.3708016,36.0652797 46.3708016,23.3527743 C46.3708016,10.6402688 37.254152,1.55632829 23.7919711,1.55632829 C10.3297902,1.55632829 1.55632829,11.9476234 1.55632829,24.6601289 C1.55632829,37.3726344 8.53318594,46.3708016 21.9953668,46.3708016 Z" id="eye-copy" fill="#FFFFFF"></path>
                    <circle id="pupil" fill="#000000" cx="26.4049617" cy="24.7214634" r="8.17072354"></circle>
                </g>
                <g id="eye-copy-2" transform="translate(122.873385, 30.962625) rotate(16.000000) translate(-122.873385, -30.962625) translate(98.750297, 6.450454)">
                    <path d="M22.0339316,48.3062926 C36.4311485,48.3062926 48.1023989,37.2849852 48.1023989,23.6895136 C48.1023989,10.0940419 38.3525386,0.379162724 23.9553217,0.379162724 C9.5581048,0.379162724 0.17526896,11.4922009 0.17526896,25.0876725 C0.17526896,38.6831442 7.63671474,48.3062926 22.0339316,48.3062926 Z" id="eye" fill="#3E1EB3"></path>
                    <path d="M22.1706358,46.7499643 C35.6328167,46.7499643 46.5460706,36.4444425 46.5460706,23.731937 C46.5460706,11.0194315 37.4294209,1.93549102 23.96724,1.93549102 C10.5050591,1.93549102 1.73159725,12.3267862 1.73159725,25.0392916 C1.73159725,37.7517971 8.7084549,46.7499643 22.1706358,46.7499643 Z" id="eye-copy" fill="#FFFFFF"></path>
                    <circle id="pupil" fill="#000000" cx="26.5802307" cy="25.1006261" r="8.17072354"></circle>
                </g>
            </g>
        </g>
    </g>
</svg>