<?xml version="1.0" encoding="UTF-8"?>
<svg width="196px" height="415px" viewBox="0 0 196 415" version="1.1" xmlns="http://www.w3.org/2000/svg" xmlns:xlink="http://www.w3.org/1999/xlink">
    <!-- Generator: Sketch 51.2 (57519) - http://www.bohemiancoding.com/sketch -->
    <title>d</title>
    <desc>Created with Sketch.</desc>
    <defs>
        <filter x="-0.5%" y="-0.2%" width="101.0%" height="101.0%" filterUnits="objectBoundingBox" id="filter-1">
            <feOffset dx="0" dy="2" in="SourceAlpha" result="shadowOffsetOuter1"></feOffset>
            <feColorMatrix values="0 0 0 0 0   0 0 0 0 0   0 0 0 0 0  0 0 0 0.5 0" type="matrix" in="shadowOffsetOuter1" result="shadowMatrixOuter1"></feColorMatrix>
            <feMerge>
                <feMergeNode in="shadowMatrixOuter1"></feMergeNode>
                <feMergeNode in="SourceGraphic"></feMergeNode>
            </feMerge>
        </filter>
        <path d="M159,260.426683 L159,4 C159,1.790861 160.790861,4.05812251e-16 163,0 L192,0 C194.209139,-4.05812251e-16 196,1.790861 196,4 L196,409 C196,411.209139 194.209139,413 192,413 L163,413 C160.790861,413 159,411.209139 159,409 L159,386.624604 C155.024814,390.844033 150.671963,394.639942 145.997366,397.798086 C130.894737,408.001377 112.433718,412 92.5,412 C79.4146357,412 66.9638842,409.415083 55.6811583,404.752712 C41.9520506,399.07942 29.9523965,395.330116 20.6432512,384.419101 C14.6135243,377.351811 9.71257933,364.377591 6.20157952,355.7449 C2.19642133,345.897194 0,335.192619 0,324 C0,309.969689 3.45133213,296.706265 9.59036274,284.93621 C20.7025415,263.631388 40.6207346,247.219465 64.8161401,240.008923 C73.557046,237.404021 82.8561752,236 92.5,236 C103.610496,236 114.263478,237.863554 124.132429,241.280028 C137.080602,245.76248 149.198285,251.879848 159,260.426683 Z M93,377 C107.875879,377 121.397018,369.458609 131.425152,360.418632 C142.246177,350.663894 149,338.835456 149,323.5 C149,309.257175 143.174295,300.314273 133.675193,290.727517 C123.468079,280.426214 109.019569,270 93,270 C79.1216913,270 66.4225188,277.823104 56.6387757,285.810531 C44.6193522,295.623163 37,307.211507 37,323.5 C37,333.536763 39.8929679,348.928003 44.9257265,356.954164 C54.7089091,372.556225 72.577825,377 93,377 Z" id="path-2"></path>
    </defs>
    <g id="Symbols" stroke="none" stroke-width="1" fill="none" fill-rule="evenodd">
        <g id="letter/d" transform="translate(-14.000000, -28.000000)">
            <g id="d" filter="url(#filter-1)" transform="translate(14.000000, 28.000000)">
                <g id="teeth" transform="translate(23.000000, 259.000000)" fill="#FFFFFF">
                    <polygon id="tooth" transform="translate(116.500000, 40.000000) rotate(19.000000) translate(-116.500000, -40.000000) " points="128 29 115 55 105 25"></polygon>
                    <polygon id="tooth-copy" points="114 11 101 37 91 7"></polygon>
                    <polygon id="tooth-copy-2" points="93 11 80 37 70 7"></polygon>
                    <polygon id="tooth-copy-3" transform="translate(58.500000, 18.000000) rotate(-16.000000) translate(-58.500000, -18.000000) " points="70 7 57 33 47 3"></polygon>
                    <polygon id="tooth-copy-4" transform="translate(41.500000, 27.000000) rotate(-34.000000) translate(-41.500000, -27.000000) " points="53 16 40 42 30 12"></polygon>
                    <polygon id="tooth-copy-5" transform="translate(27.500000, 38.000000) rotate(-46.000000) translate(-27.500000, -38.000000) " points="39 27 26 53 16 23"></polygon>
                    <polygon id="tooth-copy-8" transform="translate(22.500000, 92.000000) rotate(-162.000000) translate(-22.500000, -92.000000) " points="34 81 21 107 11 77"></polygon>
                    <polygon id="tooth-copy-9" transform="translate(38.500000, 103.000000) rotate(-183.000000) translate(-38.500000, -103.000000) " points="50 92 37 118 27 88"></polygon>
                    <polygon id="tooth-copy-10" transform="translate(61.500000, 110.000000) rotate(-192.000000) translate(-61.500000, -110.000000) " points="73 99 60 125 50 95"></polygon>
                    <polygon id="tooth-copy-11" transform="translate(84.500000, 108.000000) rotate(-198.000000) translate(-84.500000, -108.000000) " points="96 97 83 123 73 93"></polygon>
                    <polygon id="tooth-copy-12" transform="translate(104.500000, 98.000000) rotate(-205.000000) translate(-104.500000, -98.000000) " points="116 87 103 113 93 83"></polygon>
                    <polygon id="tooth-copy-13" transform="translate(119.500000, 88.000000) rotate(-218.000000) translate(-119.500000, -88.000000) " points="131 77 118 103 108 73"></polygon>
                </g>
                <g id="o-body">
                    <mask id="mask-3" fill="white">
                        <use xlink:href="#path-2"></use>
                    </mask>
                    <use id="Combined-Shape" fill="#AB2D2D" xlink:href="#path-2"></use>
                    <path d="M177.5,385 C175.331422,385 173.266859,383.281705 171.392779,381.98458 C169.27494,380.518739 167.400358,379.313699 165.893818,376.570728 C164.312589,373.691768 163.136799,370.220217 162.51073,366.388784 C162.177495,364.349449 161,362.208157 161,360 C161,356.266551 162.507397,352.724246 163.417035,349.54269 C164.305454,346.435353 166.577565,343.67213 168.135404,341.411032 C170.881357,337.425465 173.515064,335 177.5,335 C179.84315,335 182.064864,335.838596 184.056067,337.339859 C185.963214,338.777749 187.6589,340.82354 189.047289,343.322657 C191.505187,347.746903 193,353.591893 193,360 C193,364.169873 192.367045,368.101302 191.247645,371.557981 C190.075442,375.177714 188.369821,378.27685 186.299019,380.584042 C183.79945,383.368944 180.767821,385 177.5,385 Z M178,380.935484 C181.003328,380.935484 183.768786,380.292829 185.969851,377.534166 C187.624427,375.460435 188.960078,371.756075 189.838106,368.644792 C190.584321,366.000583 192,363.062459 192,359.967742 C192,355.941391 190.296379,350.180104 189.076641,346.986308 C187.812351,343.675857 185.993554,342.975111 183.82906,341.220859 C182.075855,339.799944 180.095847,338 178,338 C175.451899,338 173.075024,340.182426 171.068787,342.225645 C169.569467,343.752602 168.277149,343.760313 167.275065,346.114533 C165.839862,349.486289 164,355.568822 164,359.967742 C164,363.517839 165.547011,366.861869 166.512505,369.792529 C167.673507,373.316631 169.439631,377.243003 171.587395,379.211186 C173.479641,380.945215 175.668121,380.935484 178,380.935484 Z M147.5,335 C145.331422,335 143.266859,333.65973 141.392779,332.647972 C139.27494,331.504616 137.400358,330.564685 135.893818,328.425168 C134.312589,326.179579 133.136799,323.471769 132.51073,320.483252 C132.177495,318.89257 131,317.222362 131,315.5 C131,312.58791 132.507397,309.824912 133.417035,307.343298 C134.305454,304.919575 136.577565,302.764262 138.135404,301.000605 C140.881357,297.891863 143.515064,296 147.5,296 C149.84315,296 152.064864,296.654105 154.056067,297.82509 C155.963214,298.946644 157.6589,300.542361 159.047289,302.491672 C161.505187,305.942584 163,310.501677 163,315.5 C163,318.752501 162.367045,321.819016 161.247645,324.515225 C160.075442,327.338617 158.369821,329.755943 156.299019,331.555552 C153.79945,333.727776 150.767821,335 147.5,335 Z M148,331.865427 C151.003328,331.865427 153.768786,331.369808 155.969851,329.242315 C157.624427,327.643044 158.960078,324.786224 159.838106,322.386789 C160.584321,320.347563 162,318.081668 162,315.695008 C162,312.589868 160.296379,308.146738 159.076641,305.683668 C157.812351,303.130633 155.993554,302.590214 153.82906,301.237327 C152.075855,300.141511 150.095847,298.753386 148,298.753386 C145.451899,298.753386 143.075024,300.436483 141.068787,302.012222 C139.569467,303.189819 138.277149,303.195766 137.275065,305.011351 C135.839862,307.611665 134,312.302541 134,315.695008 C134,318.432859 135.547011,321.011791 136.512505,323.271929 C137.673507,325.989733 139.439631,329.017769 141.587395,330.53564 C143.479641,331.872932 145.668121,331.865427 148,331.865427 Z M138.5,394 C136.331422,394 134.266859,392.728462 132.392779,391.768589 C130.27494,390.683867 128.400358,389.792137 126.893818,387.762338 C125.312589,385.631908 124.136799,383.06296 123.51073,380.2277 C123.177495,378.718592 122,377.134036 122,375.5 C122,372.737248 123.507397,370.115942 124.417035,367.761591 C125.305454,365.462161 127.577565,363.417376 129.135404,361.744164 C131.881357,358.794844 134.515064,357 138.5,357 C140.84315,357 143.064864,357.620561 145.056067,358.731496 C146.963214,359.795534 148.6589,361.30942 150.047289,363.158766 C152.505187,366.432708 154,370.758001 154,375.5 C154,378.585706 153.367045,381.494964 152.247645,384.052906 C151.075442,386.731508 149.369821,389.024869 147.299019,390.732191 C144.79945,392.793019 141.767821,394 138.5,394 Z M139,391 C142.003328,391 144.768786,390.535994 146.969851,388.544202 C148.624427,387.046941 149.960078,384.372342 150.838106,382.125954 C151.584321,380.2168 153,378.095434 153,375.861007 C153,372.953927 151.296379,368.7942 150.076641,366.488236 C148.812351,364.098046 146.993554,363.592097 144.82906,362.325504 C143.075855,361.299584 141.095847,360 139,360 C136.451899,360 134.075024,361.575741 132.068787,363.050973 C130.569467,364.153457 129.277149,364.159024 128.275065,365.858803 C126.839862,368.293256 125,372.684927 125,375.861007 C125,378.424224 126.547011,380.838659 127.512505,382.954636 C128.673507,385.499085 130.439631,388.333979 132.587395,389.755033 C134.479641,391.007026 136.668121,391 139,391 Z M110.46875,416 C108.435708,416 106.50018,415.003389 104.74323,414.251056 C102.757756,413.400869 101.000335,412.701945 99.5879544,411.111022 C98.1055517,409.441225 97.003249,407.427726 96.4163092,405.205495 C96.103902,404.02268 95,402.780731 95,401.5 C95,399.3346 96.4131846,397.280063 97.2659705,395.43476 C98.0988627,393.632505 100.228967,392.029836 101.689441,390.718399 C104.263772,388.40677 106.732873,387 110.46875,387 C112.665453,387 114.74831,387.486386 116.615063,388.357118 C118.403013,389.191094 119.992719,390.377653 121.294333,391.827141 C123.598612,394.393204 125,397.783298 125,401.5 C125,403.918526 124.406604,406.198755 123.357167,408.203629 C122.258227,410.303074 120.659208,412.100573 118.71783,413.438744 C116.374485,415.053988 113.532332,416 110.46875,416 Z M111,413 C113.788805,413 116.35673,412.64077 118.400576,411.098737 C119.936968,409.939567 121.177215,407.86891 121.992527,406.129771 C122.685441,404.651716 124,403.009368 124,401.279489 C124,399.028847 122.418066,395.808413 121.285452,394.02315 C120.111469,392.172681 118.422586,391.780978 116.412698,390.80039 C114.784722,390.00613 112.946143,389 111,389 C108.633906,389 106.426808,390.219929 104.563873,391.362043 C103.171648,392.215579 101.971639,392.219889 101.041132,393.535847 C99.7084433,395.420585 98,398.820589 98,401.279489 C98,403.263916 99.4365104,405.133156 100.333041,406.771331 C101.411113,408.741227 103.051086,410.935983 105.045438,412.036155 C106.802524,413.005439 108.834683,413 111,413 Z M70.46875,386 C68.435708,386 66.5001804,385.003389 64.7432301,384.251056 C62.7577563,383.400869 61.0003355,382.701945 59.5879544,381.111022 C58.1055517,379.441225 57.003249,377.427726 56.4163092,375.205495 C56.103902,374.02268 55,372.780731 55,371.5 C55,369.3346 56.4131846,367.280063 57.2659705,365.43476 C58.0988627,363.632505 60.2289675,362.029836 61.6894412,360.718399 C64.2637725,358.40677 66.7328728,357 70.46875,357 C72.6654534,357 74.7483105,357.486386 76.6150632,358.357118 C78.4030132,359.191094 79.992719,360.377653 81.2943334,361.827141 C83.5986125,364.393204 85,367.783298 85,371.5 C85,373.918526 84.4066044,376.198755 83.357167,378.203629 C82.2582272,380.303074 80.6592076,382.100573 78.7178302,383.438744 C76.3744847,385.053988 73.532332,386 70.46875,386 Z M71,383 C73.7888048,383 76.3567296,382.64077 78.4005762,381.098737 C79.9369679,379.939567 81.1772153,377.86891 81.9925268,376.129771 C82.6854414,374.651716 84,373.009368 84,371.279489 C84,369.028847 82.4180658,365.808413 81.2854521,364.02315 C80.1114691,362.172681 78.422586,361.780978 76.4126983,360.80039 C74.7847222,360.00613 72.9461435,359 71,359 C68.6339063,359 66.4268078,360.219929 64.5638734,361.362043 C63.1716481,362.215579 61.9716387,362.219889 61.0411319,363.535847 C59.7084433,365.420585 58,368.820589 58,371.279489 C58,373.263916 59.4365104,375.133156 60.3330407,376.771331 C61.4111133,378.741227 63.0510863,380.935983 65.045438,382.036155 C66.8025235,383.005439 68.8346834,383 71,383 Z M30.46875,396 C28.435708,396 26.5001804,395.003389 24.7432301,394.251056 C22.7577563,393.400869 21.0003355,392.701945 19.5879544,391.111022 C18.1055517,389.441225 17.003249,387.427726 16.4163092,385.205495 C16.103902,384.02268 15,382.780731 15,381.5 C15,379.3346 16.4131846,377.280063 17.2659705,375.43476 C18.0988627,373.632505 20.2289675,372.029836 21.6894412,370.718399 C24.2637725,368.40677 26.7328728,367 30.46875,367 C32.6654534,367 34.7483105,367.486386 36.6150632,368.357118 C38.4030132,369.191094 39.992719,370.377653 41.2943334,371.827141 C43.5986125,374.393204 45,377.783298 45,381.5 C45,383.918526 44.4066044,386.198755 43.357167,388.203629 C42.2582272,390.303074 40.6592076,392.100573 38.7178302,393.438744 C36.3744847,395.053988 33.532332,396 30.46875,396 Z M31,393 C33.7888048,393 36.3567296,392.64077 38.4005762,391.098737 C39.9369679,389.939567 41.1772153,387.86891 41.9925268,386.129771 C42.6854414,384.651716 44,383.009368 44,381.279489 C44,379.028847 42.4180658,375.808413 41.2854521,374.02315 C40.1114691,372.172681 38.422586,371.780978 36.4126983,370.80039 C34.7847222,370.00613 32.9461435,369 31,369 C28.6339063,369 26.4268078,370.219929 24.5638734,371.362043 C23.1716481,372.215579 21.9716387,372.219889 21.0411319,373.535847 C19.7084433,375.420585 18,378.820589 18,381.279489 C18,383.263916 19.4365104,385.133156 20.3330407,386.771331 C21.4111133,388.741227 23.0510863,390.935983 25.045438,392.036155 C26.8025235,393.005439 28.8346834,393 31,393 Z M30.46875,356 C28.435708,356 26.5001804,355.003389 24.7432301,354.251056 C22.7577563,353.400869 21.0003355,352.701945 19.5879544,351.111022 C18.1055517,349.441225 17.003249,347.427726 16.4163092,345.205495 C16.103902,344.02268 15,342.780731 15,341.5 C15,339.3346 16.4131846,337.280063 17.2659705,335.43476 C18.0988627,333.632505 20.2289675,332.029836 21.6894412,330.718399 C24.2637725,328.40677 26.7328728,327 30.46875,327 C32.6654534,327 34.7483105,327.486386 36.6150632,328.357118 C38.4030132,329.191094 39.992719,330.377653 41.2943334,331.827141 C43.5986125,334.393204 45,337.783298 45,341.5 C45,343.918526 44.4066044,346.198755 43.357167,348.203629 C42.2582272,350.303074 40.6592076,352.100573 38.7178302,353.438744 C36.3744847,355.053988 33.532332,356 30.46875,356 Z M31,353 C33.7888048,353 36.3567296,352.64077 38.4005762,351.098737 C39.9369679,349.939567 41.1772153,347.86891 41.9925268,346.129771 C42.6854414,344.651716 44,343.009368 44,341.279489 C44,339.028847 42.4180658,335.808413 41.2854521,334.02315 C40.1114691,332.172681 38.422586,331.780978 36.4126983,330.80039 C34.7847222,330.00613 32.9461435,329 31,329 C28.6339063,329 26.4268078,330.219929 24.5638734,331.362043 C23.1716481,332.215579 21.9716387,332.219889 21.0411319,333.535847 C19.7084433,335.420585 18,338.820589 18,341.279489 C18,343.263916 19.4365104,345.133156 20.3330407,346.771331 C21.4111133,348.741227 23.0510863,350.935983 25.045438,352.036155 C26.8025235,353.005439 28.8346834,353 31,353 Z M10.46875,316 C8.43570801,316 6.50018039,315.003389 4.74323013,314.251056 C2.75775631,313.400869 1.00033548,312.701945 -0.41204559,311.111022 C-1.89444825,309.441225 -2.99675104,307.427726 -3.58369078,305.205495 C-3.89609799,304.02268 -5,302.780731 -5,301.5 C-5,299.3346 -3.58681542,297.280063 -2.73402946,295.43476 C-1.90113727,293.632505 0.228967489,292.029836 1.68944117,290.718399 C4.26377249,288.40677 6.73287285,287 10.46875,287 C12.6654534,287 14.7483105,287.486386 16.6150632,288.357118 C18.4030132,289.191094 19.992719,290.377653 21.2943334,291.827141 C23.5986125,294.393204 25,297.783298 25,301.5 C25,303.918526 24.4066044,306.198755 23.357167,308.203629 C22.2582272,310.303074 20.6592076,312.100573 18.7178302,313.438744 C16.3744847,315.053988 13.532332,316 10.46875,316 Z M11,313 C13.7888048,313 16.3567296,312.64077 18.4005762,311.098737 C19.9369679,309.939567 21.1772153,307.86891 21.9925268,306.129771 C22.6854414,304.651716 24,303.009368 24,301.279489 C24,299.028847 22.4180658,295.808413 21.2854521,294.02315 C20.1114691,292.172681 18.422586,291.780978 16.4126983,290.80039 C14.7847222,290.00613 12.9461435,289 11,289 C8.63390627,289 6.42680779,290.219929 4.56387342,291.362043 C3.17164807,292.215579 1.97163872,292.219889 1.04113193,293.535847 C-0.291556688,295.420585 -2,298.820589 -2,301.279489 C-2,303.263916 -0.563489614,305.133156 0.333040686,306.771331 C1.41111334,308.741227 3.05108625,310.935983 5.04543801,312.036155 C6.80252355,313.005439 8.83468342,313 11,313 Z M169.551522,176.96753 C169.438027,174.801924 170.599771,172.673643 171.460247,170.751895 C172.432644,168.580189 173.225043,166.661506 175.173214,165.0508 C177.217969,163.360239 179.721861,162.051613 182.520469,161.278016 C184.010069,160.866257 185.530828,159.607446 187.162625,159.521927 C189.92159,159.377336 192.618195,160.745479 195.016927,161.530653 C197.359701,162.297511 199.520597,164.459493 201.273047,165.927628 C204.362037,168.515462 206.292259,171.051625 206.500814,175.0311 C206.623445,177.371039 206.12001,179.622186 205.114809,181.668802 C204.152042,183.629022 202.728976,185.401615 200.954827,186.884888 C197.814008,189.510762 193.572876,191.229895 188.837375,191.478073 C185.755898,191.639566 182.817501,191.159737 180.204479,190.175743 C177.4682,189.145335 175.088717,187.562076 173.275357,185.583466 C171.086537,183.195179 169.722546,180.230872 169.551522,176.96753 Z M172.573579,177.309837 C172.730761,180.309049 173.338863,183.046432 175.44312,185.140239 C177.024924,186.714187 179.765759,187.90803 182.055022,188.667287 C184.000613,189.312563 186.193163,190.615278 188.424528,190.498337 C191.327623,190.346192 195.392489,188.427202 197.631456,187.088451 C199.952203,185.700801 200.36227,183.858017 201.513846,181.630201 C202.446604,179.825706 203.640782,177.780397 203.531094,175.687422 C203.397736,173.142813 201.699759,170.851663 200.121551,168.925384 C198.942109,167.485818 198.868915,166.195563 197.119021,165.283812 C194.612791,163.977985 190.130848,162.370487 186.959121,162.53671 C184.399416,162.670858 182.069254,164.342111 180.006708,165.417024 C177.526507,166.7096 174.787931,168.621671 173.481229,170.840863 C172.329985,172.79604 172.451537,174.981153 172.573579,177.309837 Z M145.544404,202.726979 C145.438003,200.696723 146.33195,198.71169 146.991301,196.917773 C147.736411,194.890525 148.3424,193.098934 149.857225,191.605226 C151.44715,190.037464 153.400201,188.831294 155.588668,188.128856 C156.753511,187.754973 157.935985,186.587585 159.214961,186.520557 C161.377393,186.407229 163.503075,187.71095 165.39048,188.465992 C167.233856,189.20342 168.94581,191.246728 170.331885,192.636565 C172.775076,195.086387 174.30914,197.478479 174.504661,201.209236 C174.619627,203.402929 174.242917,205.508387 173.471075,207.418152 C172.731816,209.247299 171.630083,210.896926 170.250703,212.272617 C167.808753,214.708035 164.496648,216.284926 160.785039,216.479443 C158.369828,216.606019 156.061668,216.132775 154.004618,215.189702 C151.850537,214.202145 149.971814,212.699391 148.533873,210.830708 C146.798202,208.57511 145.70474,205.786362 145.544404,202.726979 Z M148.568097,203.100493 C148.714051,205.885476 149.207184,208.431081 150.85407,210.391423 C152.09206,211.865042 154.224789,212.99522 156.004215,213.718395 C157.516508,214.333004 159.225404,215.559808 160.952912,215.469273 C163.20047,215.351483 166.333699,213.603173 168.057238,212.378678 C169.84373,211.109457 170.146506,209.402389 171.020561,207.343936 C171.728531,205.676622 172.637058,203.787906 172.535205,201.84443 C172.411373,199.481579 171.077606,197.341351 169.839558,195.540744 C168.914328,194.195097 168.84722,192.996958 167.484367,192.136598 C165.532464,190.904376 162.047708,189.376216 159.592177,189.504905 C157.61047,189.608762 155.818973,191.141132 154.229964,192.122169 C152.319189,193.301861 150.21327,195.054451 149.218983,197.103648 C148.342985,198.909054 148.454773,200.938144 148.568097,203.100493 Z M145.544404,22.726979 C145.438003,20.6967232 146.33195,18.7116896 146.991301,16.9177731 C147.736411,14.8905249 148.3424,13.0989337 149.857225,11.6052258 C151.44715,10.0374643 153.400201,8.83129374 155.588668,8.12885581 C156.753511,7.75497301 157.935985,6.58758526 159.214961,6.52055698 C161.377393,6.40722869 163.503075,7.71095039 165.39048,8.46599196 C167.233856,9.20341994 168.94581,11.2467282 170.331885,12.6365651 C172.775076,15.0863871 174.30914,17.478479 174.504661,21.2092362 C174.619627,23.4029291 174.242917,25.5083871 173.471075,27.4181522 C172.731816,29.2472988 171.630083,30.8969256 170.250703,32.2726166 C167.808753,34.7080351 164.496648,36.2849259 160.785039,36.479443 C158.369828,36.6060189 156.061668,36.1327745 154.004618,35.1897024 C151.850537,34.2021451 149.971814,32.6993906 148.533873,30.8307083 C146.798202,28.5751096 145.70474,25.7863624 145.544404,22.726979 Z M148.568097,23.100493 C148.714051,25.8854759 149.207184,28.4310807 150.85407,30.3914226 C152.09206,31.8650424 154.224789,32.9952203 156.004215,33.7183949 C157.516508,34.3330045 159.225404,35.5598077 160.952912,35.4692728 C163.20047,35.3514833 166.333699,33.6031726 168.057238,32.3786777 C169.84373,31.1094575 170.146506,29.4023888 171.020561,27.3439356 C171.728531,25.6766222 172.637058,23.7879064 172.535205,21.8444301 C172.411373,19.481579 171.077606,17.3413514 169.839558,15.5407438 C168.914328,14.195097 168.84722,12.9969579 167.484367,12.1365982 C165.532464,10.9043756 162.047708,9.37621602 159.592177,9.50490493 C157.61047,9.6087618 155.818973,11.141132 154.229964,12.1221691 C152.319189,13.3018607 150.21327,15.0544507 149.218983,17.1036478 C148.342985,18.9090538 148.454773,20.9381439 148.568097,23.100493 Z M175.544404,132.726979 C175.438003,130.696723 176.33195,128.71169 176.991301,126.917773 C177.736411,124.890525 178.3424,123.098934 179.857225,121.605226 C181.44715,120.037464 183.400201,118.831294 185.588668,118.128856 C186.753511,117.754973 187.935985,116.587585 189.214961,116.520557 C191.377393,116.407229 193.503075,117.71095 195.39048,118.465992 C197.233856,119.20342 198.94581,121.246728 200.331885,122.636565 C202.775076,125.086387 204.30914,127.478479 204.504661,131.209236 C204.619627,133.402929 204.242917,135.508387 203.471075,137.418152 C202.731816,139.247299 201.630083,140.896926 200.250703,142.272617 C197.808753,144.708035 194.496648,146.284926 190.785039,146.479443 C188.369828,146.606019 186.061668,146.132775 184.004618,145.189702 C181.850537,144.202145 179.971814,142.699391 178.533873,140.830708 C176.798202,138.57511 175.70474,135.786362 175.544404,132.726979 Z M178.568097,133.100493 C178.714051,135.885476 179.207184,138.431081 180.85407,140.391423 C182.09206,141.865042 184.224789,142.99522 186.004215,143.718395 C187.516508,144.333004 189.225404,145.559808 190.952912,145.469273 C193.20047,145.351483 196.333699,143.603173 198.057238,142.378678 C199.84373,141.109457 200.146506,139.402389 201.020561,137.343936 C201.728531,135.676622 202.637058,133.787906 202.535205,131.84443 C202.411373,129.481579 201.077606,127.341351 199.839558,125.540744 C198.914328,124.195097 198.84722,122.996958 197.484367,122.136598 C195.532464,120.904376 192.047708,119.376216 189.592177,119.504905 C187.61047,119.608762 185.818973,121.141132 184.229964,122.122169 C182.319189,123.301861 180.21327,125.054451 179.218983,127.103648 C178.342985,128.909054 178.454773,130.938144 178.568097,133.100493 Z M173.544404,62.726979 C173.438003,60.6967232 174.33195,58.7116896 174.991301,56.9177731 C175.736411,54.8905249 176.3424,53.0989337 177.857225,51.6052258 C179.44715,50.0374643 181.400201,48.8312937 183.588668,48.1288558 C184.753511,47.754973 185.935985,46.5875853 187.214961,46.520557 C189.377393,46.4072287 191.503075,47.7109504 193.39048,48.465992 C195.233856,49.2034199 196.94581,51.2467282 198.331885,52.6365651 C200.775076,55.0863871 202.30914,57.478479 202.504661,61.2092362 C202.619627,63.4029291 202.242917,65.5083871 201.471075,67.4181522 C200.731816,69.2472988 199.630083,70.8969256 198.250703,72.2726166 C195.808753,74.7080351 192.496648,76.2849259 188.785039,76.479443 C186.369828,76.6060189 184.061668,76.1327745 182.004618,75.1897024 C179.850537,74.2021451 177.971814,72.6993906 176.533873,70.8307083 C174.798202,68.5751096 173.70474,65.7863624 173.544404,62.726979 Z M176.568097,63.100493 C176.714051,65.8854759 177.207184,68.4310807 178.85407,70.3914226 C180.09206,71.8650424 182.224789,72.9952203 184.004215,73.7183949 C185.516508,74.3330045 187.225404,75.5598077 188.952912,75.4692728 C191.20047,75.3514833 194.333699,73.6031726 196.057238,72.3786777 C197.84373,71.1094575 198.146506,69.4023888 199.020561,67.3439356 C199.728531,65.6766222 200.637058,63.7879064 200.535205,61.8444301 C200.411373,59.481579 199.077606,57.3413514 197.839558,55.5407438 C196.914328,54.195097 196.84722,52.9969579 195.484367,52.1365982 C193.532464,50.9043756 190.047708,49.376216 187.592177,49.5049049 C185.61047,49.6087618 183.818973,51.141132 182.229964,52.1221691 C180.319189,53.3018607 178.21327,55.0544507 177.218983,57.1036478 C176.342985,58.9090538 176.454773,60.9381439 176.568097,63.100493 Z M145.544404,102.726979 C145.438003,100.696723 146.33195,98.7116896 146.991301,96.9177731 C147.736411,94.8905249 148.3424,93.0989337 149.857225,91.6052258 C151.44715,90.0374643 153.400201,88.8312937 155.588668,88.1288558 C156.753511,87.754973 157.935985,86.5875853 159.214961,86.520557 C161.377393,86.4072287 163.503075,87.7109504 165.39048,88.465992 C167.233856,89.2034199 168.94581,91.2467282 170.331885,92.6365651 C172.775076,95.0863871 174.30914,97.478479 174.504661,101.209236 C174.619627,103.402929 174.242917,105.508387 173.471075,107.418152 C172.731816,109.247299 171.630083,110.896926 170.250703,112.272617 C167.808753,114.708035 164.496648,116.284926 160.785039,116.479443 C158.369828,116.606019 156.061668,116.132775 154.004618,115.189702 C151.850537,114.202145 149.971814,112.699391 148.533873,110.830708 C146.798202,108.57511 145.70474,105.786362 145.544404,102.726979 Z M148.568097,103.100493 C148.714051,105.885476 149.207184,108.431081 150.85407,110.391423 C152.09206,111.865042 154.224789,112.99522 156.004215,113.718395 C157.516508,114.333004 159.225404,115.559808 160.952912,115.469273 C163.20047,115.351483 166.333699,113.603173 168.057238,112.378678 C169.84373,111.109457 170.146506,109.402389 171.020561,107.343936 C171.728531,105.676622 172.637058,103.787906 172.535205,101.84443 C172.411373,99.481579 171.077606,97.3413514 169.839558,95.5407438 C168.914328,94.195097 168.84722,92.9969579 167.484367,92.1365982 C165.532464,90.9043756 162.047708,89.376216 159.592177,89.5049049 C157.61047,89.6087618 155.818973,91.141132 154.229964,92.1221691 C152.319189,93.3018607 150.21327,95.0544507 149.218983,97.1036478 C148.342985,98.9090538 148.454773,100.938144 148.568097,103.100493 Z M50.46875,306 C48.435708,306 46.5001804,305.003389 44.7432301,304.251056 C42.7577563,303.400869 41.0003355,302.701945 39.5879544,301.111022 C38.1055517,299.441225 37.003249,297.427726 36.4163092,295.205495 C36.103902,294.02268 35,292.780731 35,291.5 C35,289.3346 36.4131846,287.280063 37.2659705,285.43476 C38.0988627,283.632505 40.2289675,282.029836 41.6894412,280.718399 C44.2637725,278.40677 46.7328728,277 50.46875,277 C52.6654534,277 54.7483105,277.486386 56.6150632,278.357118 C58.4030132,279.191094 59.992719,280.377653 61.2943334,281.827141 C63.5986125,284.393204 65,287.783298 65,291.5 C65,293.918526 64.4066044,296.198755 63.357167,298.203629 C62.2582272,300.303074 60.6592076,302.100573 58.7178302,303.438744 C56.3744847,305.053988 53.532332,306 50.46875,306 Z M51,303 C53.7888048,303 56.3567296,302.64077 58.4005762,301.098737 C59.9369679,299.939567 61.1772153,297.86891 61.9925268,296.129771 C62.6854414,294.651716 64,293.009368 64,291.279489 C64,289.028847 62.4180658,285.808413 61.2854521,284.02315 C60.1114691,282.172681 58.422586,281.780978 56.4126983,280.80039 C54.7847222,280.00613 52.9461435,279 51,279 C48.6339063,279 46.4268078,280.219929 44.5638734,281.362043 C43.1716481,282.215579 41.9716387,282.219889 41.0411319,283.535847 C39.7084433,285.420585 38,288.820589 38,291.279489 C38,293.263916 39.4365104,295.133156 40.3330407,296.771331 C41.4111133,298.741227 43.0510863,300.935983 45.045438,302.036155 C46.8025235,303.005439 48.8346834,303 51,303 Z M80.46875,256 C78.435708,256 76.5001804,255.003389 74.7432301,254.251056 C72.7577563,253.400869 71.0003355,252.701945 69.5879544,251.111022 C68.1055517,249.441225 67.003249,247.427726 66.4163092,245.205495 C66.103902,244.02268 65,242.780731 65,241.5 C65,239.3346 66.4131846,237.280063 67.2659705,235.43476 C68.0988627,233.632505 70.2289675,232.029836 71.6894412,230.718399 C74.2637725,228.40677 76.7328728,227 80.46875,227 C82.6654534,227 84.7483105,227.486386 86.6150632,228.357118 C88.4030132,229.191094 89.992719,230.377653 91.2943334,231.827141 C93.5986125,234.393204 95,237.783298 95,241.5 C95,243.918526 94.4066044,246.198755 93.357167,248.203629 C92.2582272,250.303074 90.6592076,252.100573 88.7178302,253.438744 C86.3744847,255.053988 83.532332,256 80.46875,256 Z M81,253 C83.7888048,253 86.3567296,252.64077 88.4005762,251.098737 C89.9369679,249.939567 91.1772153,247.86891 91.9925268,246.129771 C92.6854414,244.651716 94,243.009368 94,241.279489 C94,239.028847 92.4180658,235.808413 91.2854521,234.02315 C90.1114691,232.172681 88.422586,231.780978 86.4126983,230.80039 C84.7847222,230.00613 82.9461435,229 81,229 C78.6339063,229 76.4268078,230.219929 74.5638734,231.362043 C73.1716481,232.215579 71.9716387,232.219889 71.0411319,233.535847 C69.7084433,235.420585 68,238.820589 68,241.279489 C68,243.263916 69.4365104,245.133156 70.3330407,246.771331 C71.4111133,248.741227 73.0510863,250.935983 75.045438,252.036155 C76.8025235,253.005439 78.8346834,253 81,253 Z M118.46875,286 C116.435708,286 114.50018,285.003389 112.74323,284.251056 C110.757756,283.400869 109.000335,282.701945 107.587954,281.111022 C106.105552,279.441225 105.003249,277.427726 104.416309,275.205495 C104.103902,274.02268 103,272.780731 103,271.5 C103,269.3346 104.413185,267.280063 105.265971,265.43476 C106.098863,263.632505 108.228967,262.029836 109.689441,260.718399 C112.263772,258.40677 114.732873,257 118.46875,257 C120.665453,257 122.74831,257.486386 124.615063,258.357118 C126.403013,259.191094 127.992719,260.377653 129.294333,261.827141 C131.598612,264.393204 133,267.783298 133,271.5 C133,273.918526 132.406604,276.198755 131.357167,278.203629 C130.258227,280.303074 128.659208,282.100573 126.71783,283.438744 C124.374485,285.053988 121.532332,286 118.46875,286 Z M119,283 C121.788805,283 124.35673,282.64077 126.400576,281.098737 C127.936968,279.939567 129.177215,277.86891 129.992527,276.129771 C130.685441,274.651716 132,273.009368 132,271.279489 C132,269.028847 130.418066,265.808413 129.285452,264.02315 C128.111469,262.172681 126.422586,261.780978 124.412698,260.80039 C122.784722,260.00613 120.946143,259 119,259 C116.633906,259 114.426808,260.219929 112.563873,261.362043 C111.171648,262.215579 109.971639,262.219889 109.041132,263.535847 C107.708443,265.420585 106,268.820589 106,271.279489 C106,273.263916 107.43651,275.133156 108.333041,276.771331 C109.411113,278.741227 111.051086,280.935983 113.045438,282.036155 C114.802524,283.005439 116.834683,283 119,283 Z M148.198561,275.43787 C148.612345,273.309134 150.085786,271.492338 151.258285,269.811092 C152.58329,267.911169 153.698033,266.218185 155.708742,265.07429 C157.819137,263.873684 160.22446,263.143435 162.750984,262.996755 C164.095764,262.918682 165.665688,262.02431 167.052944,262.293965 C169.398451,262.749885 171.336249,264.662166 173.161467,265.943616 C174.944106,267.195172 176.246538,269.762978 177.369804,271.568315 C179.349749,274.750526 180.370992,277.632036 179.61063,281.543758 C179.163536,283.843857 178.212773,285.922345 176.889677,287.693633 C175.622435,289.390148 174.013632,290.804852 172.178666,291.862546 C168.930183,293.735006 164.972894,294.488579 160.947056,293.706035 C158.327369,293.196819 155.978256,292.095396 154.020219,290.574441 C151.96982,288.981741 150.348262,286.928998 149.293916,284.614493 C148.021266,281.820762 147.575031,278.645651 148.198561,275.43787 Z M151.048038,276.50111 C150.474976,279.449259 150.344011,282.24102 151.626941,284.732658 C152.59134,286.605662 154.623176,288.361261 156.376225,289.596481 C157.866101,290.646266 159.409672,292.388481 161.32003,292.759817 C163.805484,293.24294 167.686974,292.261918 169.89123,291.447815 C172.175998,290.603976 172.95561,288.902678 174.451509,286.988445 C175.663162,285.437947 177.152065,283.710293 177.551972,281.652953 C178.038172,279.151668 177.144497,276.556593 176.266033,274.342049 C175.609531,272.687056 175.851356,271.417557 174.589311,270.1514 C172.781786,268.337987 169.378121,265.802084 166.662682,265.274256 C164.471219,264.848279 162.111777,265.965616 160.118465,266.56172 C157.721519,267.278532 154.96079,268.541082 153.336024,270.413222 C151.904556,272.062635 151.492982,274.212074 151.048038,276.50111 Z" id="Combined-Shape" fill="#000000" opacity="0.5" mask="url(#mask-3)"></path>
                </g>
                <g id="eyes" transform="translate(20.000000, 218.000000)">
                    <g id="eye" transform="translate(112.142420, 31.005440) rotate(16.000000) translate(-112.142420, -31.005440) translate(88.019331, 6.882352)">
                        <path d="M21.8586627,47.9271299 C36.2558796,47.9271299 47.9271299,36.9058225 47.9271299,23.3103509 C47.9271299,9.71487922 38.1772696,-4.54747351e-13 23.7800527,-4.54747351e-13 C9.38283584,-4.54747351e-13 -1.8189894e-12,11.1130382 -1.8189894e-12,24.7085098 C-1.8189894e-12,38.3039815 7.46144577,47.9271299 21.8586627,47.9271299 Z" fill="#3E1EB3"></path>
                        <path d="M21.9953668,46.3708016 C35.4575477,46.3708016 46.3708016,36.0652797 46.3708016,23.3527743 C46.3708016,10.6402688 37.254152,1.55632829 23.7919711,1.55632829 C10.3297902,1.55632829 1.55632829,11.9476234 1.55632829,24.6601289 C1.55632829,37.3726344 8.53318594,46.3708016 21.9953668,46.3708016 Z" id="eye-copy" fill="#FFFFFF"></path>
                        <circle id="pupil" fill="#000000" cx="26.4049617" cy="24.7214634" r="8.17072354"></circle>
                    </g>
                    <g id="eye-copy-2" transform="translate(30.873385, 30.962625) rotate(16.000000) translate(-30.873385, -30.962625) translate(6.750297, 6.450454)">
                        <path d="M22.0339316,48.3062926 C36.4311485,48.3062926 48.1023989,37.2849852 48.1023989,23.6895136 C48.1023989,10.0940419 38.3525386,0.379162724 23.9553217,0.379162724 C9.5581048,0.379162724 0.17526896,11.4922009 0.17526896,25.0876725 C0.17526896,38.6831442 7.63671474,48.3062926 22.0339316,48.3062926 Z" id="eye" fill="#3E1EB3"></path>
                        <path d="M22.1706358,46.7499643 C35.6328167,46.7499643 46.5460706,36.4444425 46.5460706,23.731937 C46.5460706,11.0194315 37.4294209,1.93549102 23.96724,1.93549102 C10.5050591,1.93549102 1.73159725,12.3267862 1.73159725,25.0392916 C1.73159725,37.7517971 8.7084549,46.7499643 22.1706358,46.7499643 Z" id="eye-copy" fill="#FFFFFF"></path>
                        <circle id="pupil" fill="#000000" cx="26.5802307" cy="25.1006261" r="8.17072354"></circle>
                    </g>
                </g>
            </g>
        </g>
    </g>
</svg>