<?xml version="1.0" encoding="UTF-8"?>
<svg width="145px" height="151px" viewBox="0 0 145 151" version="1.1" xmlns="http://www.w3.org/2000/svg" xmlns:xlink="http://www.w3.org/1999/xlink">
    <!-- Generator: Sketch 51.1 (57501) - http://www.bohemiancoding.com/sketch -->
    <title>XMLID_1049_</title>
    <desc>Created with Sketch.</desc>
    <defs></defs>
    <g id="Page-1" stroke="none" stroke-width="1" fill="none" fill-rule="evenodd">
        <g id="XMLID_613_" transform="translate(-667.000000, -62.000000)" fill-rule="nonzero">
            <g id="XMLID_1049_" transform="translate(667.000000, 62.000000)">
                <path d="M99.2,87.9 C93.7,92.2 87.9,95.8 81.7,98.9 C75.4,102.3 68.6,104.6 61.4,105.6 C54.1,106.6 47.8,105.7 42.5,102.9 L79.8,123.2 C85,126 91.3,127 98.7,125.9 C105.9,124.9 112.7,122.7 119,119.2 C125.2,116.1 131,112.4 136.5,108.2 L99.2,87.9 Z" id="XMLID_608_" fill="#986B29"></path>
                <g id="XMLID_1060_" transform="translate(68.000000, 26.000000)" fill="#B07E09">
                    <path d="M0.6,0.5 L37.9,20.8 C39.8,21.8 41.4,23.2 42.7,25 C46.4,29.9 48.3,36.4 48.6,44.4 L11.3,24.1 C11,16 9,9.6 5.4,4.7 C4.1,2.9 2.5,1.6 0.6,0.5 Z" id="XMLID_1061_"></path>
                </g>
                <g id="XMLID_1058_" transform="translate(29.000000, 50.000000)" fill="#986B29">
                    <polygon id="XMLID_1059_" points="37.2 27.5 0 7.2 50.4 0.1 87.6 20.4"></polygon>
                </g>
                <path d="M85.2,5.4 C77.2,1.1 66.7,-0.3 53.6,1.5 C36.1,4.3 22.9,12.4 14,25.9 C5.1,39.5 0.7,55.5 0.7,73.8 C0.9,99.4 8.4,116.3 23.3,124.3 L60.6,144.6 C45.8,136.5 38.2,119.7 38,94.1 C38,75.8 42.5,59.9 51.3,46.2 C60.2,32.7 73.3,24.6 90.9,21.8 C104,20.1 114.5,21.4 122.5,25.7 L85.2,5.4 Z" id="XMLID_607_" fill="#B07E09"></path>
                <g id="XMLID_1050_" transform="translate(37.000000, 21.000000)" fill="#FFF197">
                    <path d="M96.9,15.5 C104.4,28.1 108,45.4 107.8,67.4 L29.1,78.5 C29.8,88.2 33.1,95.3 39,99.8 C44.9,104.5 52.4,106.3 61.5,105 C68.7,104 75.5,101.8 81.8,98.3 C88,95.2 93.8,91.5 99.3,87.3 L99.3,113.5 C88.8,121.3 75.8,126.3 60.2,128.5 C21,133.4 1.3,114.9 0.9,73.2 C0.9,54.9 5.4,39 14.2,25.3 C23.1,11.8 36.2,3.7 53.8,0.9 C74.6,-2 89,2.9 96.9,15.5 Z M29.2,56.5 L79.6,49.4 C79.3,41.3 77.3,34.9 73.7,30 C69.9,25 63.8,23 55.6,24 C47.5,25.3 41.2,28.9 36.8,34.7 C32.4,40.7 29.9,48 29.2,56.5 Z" id="XMLID_1051_"></path>
                </g>
            </g>
        </g>
    </g>
</svg>