<?xml version="1.0" encoding="UTF-8"?>
<svg width="195px" height="396px" viewBox="0 0 195 396" version="1.1" xmlns="http://www.w3.org/2000/svg" xmlns:xlink="http://www.w3.org/1999/xlink">
    <!-- Generator: Sketch 51.2 (57519) - http://www.bohemiancoding.com/sketch -->
    <title>f</title>
    <desc>Created with Sketch.</desc>
    <defs>
        <filter x="-0.5%" y="-0.3%" width="101.0%" height="101.0%" filterUnits="objectBoundingBox" id="filter-1">
            <feOffset dx="0" dy="2" in="SourceAlpha" result="shadowOffsetOuter1"></feOffset>
            <feColorMatrix values="0 0 0 0 0   0 0 0 0 0   0 0 0 0 0  0 0 0 0.5 0" type="matrix" in="shadowOffsetOuter1" result="shadowMatrixOuter1"></feColorMatrix>
            <feMerge>
                <feMergeNode in="shadowMatrixOuter1"></feMergeNode>
                <feMergeNode in="SourceGraphic"></feMergeNode>
            </feMerge>
        </filter>
    </defs>
    <g id="Symbols" stroke="none" stroke-width="1" fill="none" fill-rule="evenodd">
        <g id="letter/f" transform="translate(-8.000000, 0.000000)">
            <g id="f" filter="url(#filter-1)">
                <g id="spikes" transform="translate(30.000000, 27.000000)" fill="#622875">
                    <polygon id="spike" points="24 0 0 29 28 54"></polygon>
                    <polygon id="spike-copy" points="24 60 0 89 28 114"></polygon>
                    <polygon id="spike-copy-2" points="24 121 0 150 28 175"></polygon>
                    <polygon id="spike-copy-3" points="24 179 0 208 28 233"></polygon>
                    <polygon id="spike-copy-4" points="24 231 0 260 28 285"></polygon>
                    <polygon id="spike-copy-5" points="24 281 0 310 28 335"></polygon>
                </g>
                <path d="M40,378 C47.5468705,306.578553 51.982832,253.704821 53.3078844,219.378804 C53.5000376,214.400996 44.4034459,208.893305 26.0181091,202.855732 L26.473174,184.121598 C45.179657,198.104904 54.5147823,202.403377 54.4785499,197.017015 C54.2100525,157.101851 52.5713692,73.0961798 49.5625,31 C41.0625,-10 121.062575,-4.08570216 196,18 C204.854217,20.6095319 204.854217,35.6095319 196,63 C166,56.3333333 138.333333,53 113,53 C92,58 95,158 113,195 C142,194.121598 129,181.878402 143,181 C143,194.333333 143,198.285244 143,192.855732 C133.666667,196.285244 123.666667,203.333333 113,214 C121,280 121,326 113,385 C85,397.666667 60.6666667,395.333333 40,378 Z" id="F" fill="#45DA72"></path>
                <g id="teeth" transform="translate(102.000000, 40.000000)" fill="#FFFFFF">
                    <polygon id="tooth-copy" transform="translate(90.500000, 17.000000) rotate(6.000000) translate(-90.500000, -17.000000) " points="90.5 26 97 8 84 8"></polygon>
                    <polygon id="tooth-copy-11" transform="translate(75.500000, 15.000000) rotate(5.000000) translate(-75.500000, -15.000000) " points="75.5 24 82 6 69 6"></polygon>
                    <polygon id="tooth-copy-12" transform="translate(57.500000, 13.000000) rotate(7.000000) translate(-57.500000, -13.000000) " points="57.5 22 64 4 51 4"></polygon>
                    <polygon id="tooth-copy-13" transform="translate(40.500000, 11.000000) rotate(7.000000) translate(-40.500000, -11.000000) " points="40.5 20 47 2 34 2"></polygon>
                    <polygon id="tooth-copy-14" transform="translate(25.500000, 10.000000) rotate(2.000000) translate(-25.500000, -10.000000) " points="25.5 19 32 1 19 1"></polygon>
                    <polygon id="tooth-copy-15" transform="translate(11.500000, 10.000000) rotate(-4.000000) translate(-11.500000, -10.000000) " points="11.5 19 18 1 5 1"></polygon>
                </g>
                <path d="M147,198 C156.388841,198 164,191.284271 164,183 C164,180.024276 157.094574,181.284423 143.283721,186.78044 C148.64798,174.260147 149.88674,168 147,168 C137.611159,168 130,174.715729 130,183 C130,191.284271 137.611159,198 147,198 Z" id="Oval-3" fill="#45DA72"></path>
                <path d="M23,208 C32.3888407,208 40,201.284271 40,193 C40,184.715729 32.3888407,178 23,178 C20.1482885,178 20.4236102,184.231743 23.825965,196.69523 C11.9419883,191.225112 6,189.993369 6,193 C6,201.284271 13.6111593,208 23,208 Z" id="Oval-3-Copy" fill="#45DA72" transform="translate(23.000000, 193.000000) rotate(-36.000000) translate(-23.000000, -193.000000) "></path>
                <g id="eye" transform="translate(77.000000, 0.000000)">
                    <ellipse fill="#FFFFFF" cx="20" cy="20.5" rx="20" ry="20.5"></ellipse>
                    <ellipse id="Oval" fill="#000000" cx="21.5" cy="20.8985" rx="8.5" ry="8.7465"></ellipse>
                    <circle id="Oval-Copy" fill="#FFFFFF" cx="18.5" cy="17.652" r="3.5"></circle>
                </g>
                <ellipse id="Oval-2" fill="#000000" opacity="0.5" transform="translate(194.000000, 28.500000) rotate(-23.000000) translate(-194.000000, -28.500000) " cx="194" cy="28.5" rx="3" ry="6.5"></ellipse>
                <path d="M200,49 C151.333333,42.3333333 120,39.6666667 106,41" id="Path-2" stroke="#226C38"></path>
            </g>
        </g>
    </g>
</svg>