<?xml version="1.0" encoding="UTF-8"?>
<svg width="192px" height="384px" viewBox="0 0 192 384" version="1.1" xmlns="http://www.w3.org/2000/svg" xmlns:xlink="http://www.w3.org/1999/xlink">
    <!-- Generator: Sketch 51.2 (57519) - http://www.bohemiancoding.com/sketch -->
    <title>g</title>
    <desc>Created with Sketch.</desc>
    <defs>
        <filter x="-0.5%" y="-0.3%" width="101.0%" height="101.0%" filterUnits="objectBoundingBox" id="filter-1">
            <feOffset dx="0" dy="2" in="SourceAlpha" result="shadowOffsetOuter1"></feOffset>
            <feColorMatrix values="0 0 0 0 0   0 0 0 0 0   0 0 0 0 0  0 0 0 0.5 0" type="matrix" in="shadowOffsetOuter1" result="shadowMatrixOuter1"></feColorMatrix>
            <feMerge>
                <feMergeNode in="shadowMatrixOuter1"></feMergeNode>
                <feMergeNode in="SourceGraphic"></feMergeNode>
            </feMerge>
        </filter>
        <circle id="path-2" cx="19.5" cy="19.5" r="19.5"></circle>
        <path d="M170.208292,52.3220102 C203.940919,142.464659 203.940919,339.32201 135.208292,370.32201 C105.208292,401.32201 34,362 11,341 C-12,320 37,284 75.7082922,326.32201 C180.708292,340.32201 135.208292,182.390289 135.208292,132.32201 C124.208292,166 98,193 61,185 C24,177 -24,122 16.2082922,52.3220102 C56.4165844,-17.3559797 144.440919,-16.5353409 170.208292,52.3220102 Z M83,127 C102.329966,127 118,110.882251 118,91 C118,71.117749 102.329966,55 83,55 C63.6700338,55 48,71.117749 48,91 C48,110.882251 63.6700338,127 83,127 Z" id="path-4"></path>
        <path d="M65,0 C63,27.3333333 51.6666667,43 31,47 C2.00617301e-13,53 -5,26 5,18 C15,10 21.3469959,12.0689137 32.673498,18 C40.2244993,21.9540575 51,15.9540575 65,0 Z" id="path-6"></path>
    </defs>
    <g id="Symbols" stroke="none" stroke-width="1" fill="none" fill-rule="evenodd">
        <g id="letter/g" transform="translate(-5.000000, -6.000000)">
            <g id="g" filter="url(#filter-1)" transform="translate(4.000000, 6.000000)">
                <g id="eye" transform="translate(41.000000, 47.000000)">
                    <ellipse id="Oval-2" fill="#FFFFFF" cx="45" cy="44" rx="45" ry="44"></ellipse>
                    <g id="Oval-4" transform="translate(37.500000, 39.500000) rotate(-6.000000) translate(-37.500000, -39.500000) translate(18.000000, 20.000000)">
                        <mask id="mask-3" fill="white">
                            <use xlink:href="#path-2"></use>
                        </mask>
                        <use id="Mask" fill="#2C2C2C" xlink:href="#path-2"></use>
                        <circle fill="#000000" mask="url(#mask-3)" cx="13.1864146" cy="16.4835657" r="13.5"></circle>
                        <circle id="Oval-3" fill="#FFFFFF" mask="url(#mask-3)" cx="13.6864146" cy="12.9835657" r="6"></circle>
                    </g>
                </g>
                <path d="M75.5635077,341.477566 C77.50152,335.138614 85.9872247,328.108939 85.9872247,323.414519 C85.9872247,318.720098 85.5530774,305.351471 81.4109418,305.351471 C77.2688062,305.351471 71.5719682,316.807489 71.5719682,321.501909 C71.5719682,326.19633 72.3090379,341.477566 75.5635077,341.477566 Z" id="tooth-copy-7" fill="#FFFFFF" transform="translate(78.779596, 323.414519) scale(-1, 1) rotate(-199.000000) translate(-78.779596, -323.414519) "></path>
                <path d="M53.5635077,331.477566 C55.50152,325.138614 63.9872247,318.108939 63.9872247,313.414519 C63.9872247,308.720098 63.5530774,295.351471 59.4109418,295.351471 C55.2688062,295.351471 49.5719682,306.807489 49.5719682,311.501909 C49.5719682,316.19633 50.3090379,331.477566 53.5635077,331.477566 Z" id="tooth-copy-8" fill="#FFFFFF" transform="translate(56.779596, 313.414519) scale(-1, 1) rotate(-210.000000) translate(-56.779596, -313.414519) "></path>
                <path d="M33.5635077,322.477566 C35.50152,316.138614 43.9872247,309.108939 43.9872247,304.414519 C43.9872247,299.720098 43.5530774,286.351471 39.4109418,286.351471 C35.2688062,286.351471 29.5719682,297.807489 29.5719682,302.501909 C29.5719682,307.19633 30.3090379,322.477566 33.5635077,322.477566 Z" id="tooth-copy-9" fill="#FFFFFF" transform="translate(36.779596, 304.414519) scale(-1, 1) rotate(-217.000000) translate(-36.779596, -304.414519) "></path>
                <path d="M94.5635077,341.477566 C96.50152,335.138614 104.987225,328.108939 104.987225,323.414519 C104.987225,318.720098 104.553077,305.351471 100.410942,305.351471 C96.2688062,305.351471 90.5719682,316.807489 90.5719682,321.501909 C90.5719682,326.19633 91.3090379,341.477566 94.5635077,341.477566 Z" id="tooth-copy-6" fill="#FFFFFF" transform="translate(97.779596, 323.414519) scale(-1, 1) rotate(-199.000000) translate(-97.779596, -323.414519) "></path>
                <path d="M113.563508,335.477566 C115.50152,329.138614 123.987225,322.108939 123.987225,317.414519 C123.987225,312.720098 123.553077,299.351471 119.410942,299.351471 C115.268806,299.351471 109.571968,310.807489 109.571968,315.501909 C109.571968,320.19633 110.309038,335.477566 113.563508,335.477566 Z" id="tooth-copy-5" fill="#FFFFFF" transform="translate(116.779596, 317.414519) scale(-1, 1) rotate(-199.000000) translate(-116.779596, -317.414519) "></path>
                <path d="M40.5635077,198.477566 C42.50152,192.138614 50.9872247,185.108939 50.9872247,180.414519 C50.9872247,175.720098 50.5530774,162.351471 46.4109418,162.351471 C42.2688062,162.351471 36.5719682,173.807489 36.5719682,178.501909 C36.5719682,183.19633 37.3090379,198.477566 40.5635077,198.477566 Z" id="tooth" fill="#FFFFFF" transform="translate(43.779596, 180.414519) rotate(-17.000000) translate(-43.779596, -180.414519) "></path>
                <path d="M60.5635077,200.477566 C62.50152,194.138614 70.9872247,187.108939 70.9872247,182.414519 C70.9872247,177.720098 70.5530774,164.351471 66.4109418,164.351471 C62.2688062,164.351471 56.5719682,175.807489 56.5719682,180.501909 C56.5719682,185.19633 57.3090379,200.477566 60.5635077,200.477566 Z" id="tooth-copy" fill="#FFFFFF" transform="translate(63.779596, 182.414519) rotate(-17.000000) translate(-63.779596, -182.414519) "></path>
                <path d="M80.5635077,200.477566 C82.50152,194.138614 90.9872247,187.108939 90.9872247,182.414519 C90.9872247,177.720098 90.5530774,164.351471 86.4109418,164.351471 C82.2688062,164.351471 76.5719682,175.807489 76.5719682,180.501909 C76.5719682,185.19633 77.3090379,200.477566 80.5635077,200.477566 Z" id="tooth-copy-2" fill="#FFFFFF" transform="translate(83.779596, 182.414519) rotate(-31.000000) translate(-83.779596, -182.414519) "></path>
                <path d="M101.563508,191.477566 C103.50152,185.138614 111.987225,178.108939 111.987225,173.414519 C111.987225,168.720098 111.553077,155.351471 107.410942,155.351471 C103.268806,155.351471 97.5719682,166.807489 97.5719682,171.501909 C97.5719682,176.19633 98.3090379,191.477566 101.563508,191.477566 Z" id="tooth-copy-3" fill="#FFFFFF" transform="translate(104.779596, 173.414519) rotate(-31.000000) translate(-104.779596, -173.414519) "></path>
                <path d="M114.563508,178.477566 C116.50152,172.138614 124.987225,165.108939 124.987225,160.414519 C124.987225,155.720098 124.553077,142.351471 120.410942,142.351471 C116.268806,142.351471 110.571968,153.807489 110.571968,158.501909 C110.571968,163.19633 111.309038,178.477566 114.563508,178.477566 Z" id="tooth-copy-4" fill="#FFFFFF" transform="translate(117.779596, 160.414519) rotate(-43.000000) translate(-117.779596, -160.414519) "></path>
                <g id="Oval-5">
                    <mask id="mask-5" fill="white">
                        <use xlink:href="#path-4"></use>
                    </mask>
                    <use id="Mask" fill="#DD6666" xlink:href="#path-4"></use>
                    <ellipse fill="#FFFFFF" opacity="0.2" mask="url(#mask-5)" cx="181" cy="141.5" rx="15" ry="17.5"></ellipse>
                    <ellipse id="Oval-5-Copy-3" fill="#FFFFFF" opacity="0.2" mask="url(#mask-5)" cx="167" cy="276" rx="11" ry="13"></ellipse>
                    <ellipse id="Oval-5-Copy-4" fill="#FFFFFF" opacity="0.2" mask="url(#mask-5)" cx="163" cy="304" rx="7" ry="8"></ellipse>
                    <ellipse id="Oval-5-Copy-5" fill="#FFFFFF" opacity="0.2" mask="url(#mask-5)" cx="183" cy="254" rx="7" ry="8"></ellipse>
                    <ellipse id="Oval-5-Copy-6" fill="#FFFFFF" opacity="0.2" mask="url(#mask-5)" cx="183" cy="294" rx="7" ry="8"></ellipse>
                    <ellipse id="Oval-5-Copy-7" fill="#FFFFFF" opacity="0.2" mask="url(#mask-5)" cx="162" cy="329.5" rx="4" ry="3.5"></ellipse>
                    <ellipse id="Oval-5-Copy" fill="#FFFFFF" opacity="0.2" mask="url(#mask-5)" cx="183" cy="172" rx="7" ry="8"></ellipse>
                    <ellipse id="Oval-5-Copy-2" fill="#FFFFFF" opacity="0.2" mask="url(#mask-5)" cx="167" cy="162" rx="3" ry="5"></ellipse>
                </g>
                <ellipse id="eye-ring" stroke="#862D2D" stroke-width="6" cx="83" cy="91" rx="38" ry="39"></ellipse>
                <g id="horn" transform="translate(128.000000, 32.000000)">
                    <mask id="mask-7" fill="white">
                        <use xlink:href="#path-6"></use>
                    </mask>
                    <use id="Mask" fill="#EED082" xlink:href="#path-6"></use>
                    <path d="M53,9 C46.3333333,14.3333333 48.3333333,17 59,17 C69.6666667,17 71,20.3333333 63,27 C85,19.6666667 94,11.6666667 90,3 C84,-10 56,-12 56,-3 C56,3 55,7 53,9 Z" id="Path-79" fill="#862D2D" mask="url(#mask-7)"></path>
                </g>
            </g>
        </g>
    </g>
</svg>