<?xml version="1.0" encoding="UTF-8"?>
<svg width="150px" height="207px" viewBox="0 0 150 207" version="1.1" xmlns="http://www.w3.org/2000/svg" xmlns:xlink="http://www.w3.org/1999/xlink">
    <!-- Generator: Sketch 51.1 (57501) - http://www.bohemiancoding.com/sketch -->
    <title>XMLID_997_</title>
    <desc>Created with Sketch.</desc>
    <defs></defs>
    <g id="Page-1" stroke="none" stroke-width="1" fill="none" fill-rule="evenodd">
        <g id="XMLID_613_" transform="translate(-964.000000, -6.000000)" fill-rule="nonzero">
            <g id="XMLID_997_" transform="translate(964.000000, 6.000000)">
                <g id="XMLID_1018_" transform="translate(13.000000, 154.000000)" fill="#B07E09">
                    <polygon id="XMLID_1019_" points="37.3 48.4 0 28.2 2.5 0.6 39.8 20.9"></polygon>
                </g>
                <path d="M83,108.2 C83,113.4 82.8,118.9 82.5,124.5 C81.9,130.1 80.5,135.5 78.3,140.6 C76.1,145.5 72.7,149.8 68.1,153.5 C63.2,157.1 56.7,159.5 48.6,160.8 C43.7,161.3 38.2,160.9 32,159.6 C25.8,158.4 20.3,156.8 15.5,154.8 L52.8,175.1 C57.6,177.1 63.2,178.7 69.3,179.9 C75.5,181.3 81,181.7 85.9,181.1 C94,179.8 100.5,177.4 105.4,173.8 C110,170.1 113.4,165.8 115.6,160.9 C117.8,155.8 119.2,150.5 119.8,144.8 C120.1,139.2 120.3,133.8 120.3,128.5 L83,108.2 Z" id="XMLID_612_" fill="#986B29"></path>
                <path d="M114.6,59.2 C112.8,56.2 110.5,54 107.9,52.6 L70.6,32.3 C73.3,33.8 75.5,36 77.3,38.9 C81.1,45.5 83,54.2 83,65 C83,75.5 81,84.6 77,92.3 C72.9,100.3 66.1,105.1 56.9,106.6 C53.1,107.1 49.8,106.6 46.9,105 L84.2,125.3 C87.1,126.9 90.4,127.4 94.2,126.9 C103.5,125.4 110.2,120.7 114.3,112.6 C118.3,104.9 120.3,95.8 120.3,85.3 C120.3,74.5 118.4,65.8 114.6,59.2 Z" id="XMLID_611_" fill="#986B29"></path>
                <g id="XMLID_1010_" transform="translate(84.000000, 0.000000)" fill="#E0A810">
                    <polygon id="XMLID_1011_" points="37.7 25 0.5 4.8 28.7 0.8 66 21.1"></polygon>
                </g>
                <g id="XMLID_1008_" transform="translate(84.000000, 4.000000)" fill="#B07E09">
                    <polygon id="XMLID_1009_" points="37.2 37.8 0 17.5 0.5 0.8 37.7 21"></polygon>
                </g>
                <path d="M71.8,10.1 C65.5,6.7 58.1,5.6 49.6,6.8 C49.4,6.8 49.2,6.9 49.1,6.9 C32.3,9.7 20.1,18.3 12.4,32.6 C4.6,46.9 0.7,61.8 0.8,77.4 C0.6,94.4 4.2,108.3 11.5,119 C14.3,123.5 17.9,127 22.3,129.3 L59.6,149.6 C55.2,147.2 51.6,143.8 48.8,139.3 C41.5,128.6 37.9,114.7 38.1,97.7 C38,82.1 41.8,67.2 49.7,52.9 C57.4,38.6 69.6,30.1 86.4,27.2 C86.6,27.2 86.8,27.1 86.9,27.1 C95.4,25.9 102.8,27 109.1,30.4 L71.8,10.1 Z" id="XMLID_610_" fill="#B07E09"></path>
                <g id="XMLID_998_" transform="translate(38.000000, 21.000000)" fill="#FFF197">
                    <path d="M83.7,4 L112,0 L111.8,110.9 C111.8,114.9 111.6,119 111.3,123.1 C110.9,127.3 110.2,131.4 109.3,135.3 C107.4,143.4 104.1,150.7 99.5,157.4 C95.2,164 89.1,169.7 81.1,174.3 C73.3,179.1 63.4,182.3 51.5,184.2 C51.2,184.2 50.9,184.3 50.6,184.3 C38.9,185.9 26.1,185 12.2,181.3 L14.7,153.8 C19.5,155.8 25.1,157.4 31.2,158.6 C37.4,160 42.9,160.4 47.8,159.8 C55.9,158.5 62.4,156.1 67.3,152.5 C71.9,148.8 75.3,144.5 77.5,139.6 C79.7,134.5 81.1,129.2 81.7,123.5 C82,117.9 82.2,112.5 82.2,107.2 L81.8,107.3 C79,113.1 74.6,118.3 68.5,122.8 C62.3,127.6 54.9,130.7 46.4,131.9 C29.8,133.9 17.9,129.3 10.9,118.1 C3.6,107.4 -2.27373675e-13,93.5 0.2,76.5 C0.1,60.9 3.9,46 11.8,31.7 C19.5,17.4 31.7,8.9 48.5,6 C48.7,6 48.9,5.9 49,5.9 C63.8,3.8 75.2,8.7 83.3,20.6 L83.7,4 Z M76.3,91.6 C80.3,83.9 82.3,74.8 82.3,64.3 C82.3,53.5 80.4,44.8 76.6,38.2 C72.5,31.5 66.2,28.6 57.6,29.7 C47.7,31.4 40.9,36.4 37,44.8 C32.9,53.2 30.9,62.3 31,72.3 C31,81.2 33.1,89.2 37.4,96.2 C39.6,99.6 42.3,102.1 45.3,103.9 C48.4,105.9 52,106.5 56.1,106 C65.4,104.4 72.1,99.7 76.3,91.6 Z" id="XMLID_999_"></path>
                </g>
            </g>
        </g>
    </g>
</svg>