<?xml version="1.0" encoding="UTF-8"?>
<svg width="184px" height="382px" viewBox="0 0 184 382" version="1.1" xmlns="http://www.w3.org/2000/svg" xmlns:xlink="http://www.w3.org/1999/xlink">
    <!-- Generator: Sketch 51.2 (57519) - http://www.bohemiancoding.com/sketch -->
    <title>h</title>
    <desc>Created with Sketch.</desc>
    <defs>
        <filter x="-1.1%" y="-0.3%" width="101.6%" height="101.1%" filterUnits="objectBoundingBox" id="filter-1">
            <feOffset dx="0" dy="2" in="SourceAlpha" result="shadowOffsetOuter1"></feOffset>
            <feColorMatrix values="0 0 0 0 0   0 0 0 0 0   0 0 0 0 0  0 0 0 0.5 0" type="matrix" in="shadowOffsetOuter1" result="shadowMatrixOuter1"></feColorMatrix>
            <feMerge>
                <feMergeNode in="shadowMatrixOuter1"></feMergeNode>
                <feMergeNode in="SourceGraphic"></feMergeNode>
            </feMerge>
        </filter>
        <ellipse id="path-2" cx="14" cy="13" rx="14" ry="13"></ellipse>
        <ellipse id="path-4" cx="14" cy="13" rx="14" ry="13"></ellipse>
        <linearGradient x1="50%" y1="40.3218448%" x2="81.2320668%" y2="100%" id="linearGradient-6">
            <stop stop-color="#5F9AE1" offset="0%"></stop>
            <stop stop-color="#3A6DAB" offset="100%"></stop>
        </linearGradient>
        <path d="M39,19 C43,29.6666667 38.3333333,32.3333333 25,27 C5,19 -5,22 4,13 C13,4 17,-3 39,2 C61,7 60,14 68,8 C63.3333333,20.6666667 53.6666667,24.3333333 39,19 Z" id="path-7"></path>
    </defs>
    <g id="Symbols" stroke="none" stroke-width="1" fill="none" fill-rule="evenodd">
        <g id="letter/h" transform="translate(-9.000000, -1.000000)">
            <g id="h" filter="url(#filter-1)" transform="translate(10.000000, 1.000000)">
                <path d="M7,373 C-1.66666667,141.666667 -1.66666667,24 7,20 C20,14 46,3 46,20 C46,37 41,212 46,225 C51,238 79,180.963636 141,214 C203,247.036364 181,380 167,380 C153,380 127,380 127,362 C127,344 154,274 127,268 C100,262 46,241 46,281 C46,321 57,338 46,362 C38.6666667,378 25.6666667,381.666667 7,373 Z" id="Path-77" fill="#5F9AE1"></path>
                <g id="eyes" transform="translate(2.000000, 90.000000)">
                    <g id="Oval-Copy">
                        <mask id="mask-3" fill="white">
                            <use xlink:href="#path-2"></use>
                        </mask>
                        <use id="Mask" fill="#FFFFFF" xlink:href="#path-2"></use>
                        <ellipse fill="#000000" mask="url(#mask-3)" cx="16" cy="13.9285714" rx="8" ry="7.42857143"></ellipse>
                    </g>
                    <g id="Oval-Copy-2" transform="translate(30.000000, 0.000000)">
                        <mask id="mask-5" fill="white">
                            <use xlink:href="#path-4"></use>
                        </mask>
                        <use id="Mask" fill="#FFFFFF" xlink:href="#path-4"></use>
                        <ellipse id="Oval-Copy" fill="#000000" mask="url(#mask-5)" cx="12" cy="13.9285714" rx="8" ry="7.42857143"></ellipse>
                    </g>
                </g>
                <path d="M70.9422787,236.465156 C73.0357734,241.250287 81.7727263,236.465156 88.4376171,236.465156 C95.102508,236.465156 78.6839266,227.300932 79.6899479,216.470484 C80.6959692,205.640036 68.6619388,231.252951 70.9422787,236.465156 Z" id="Path-83" fill="#FFFFFF" transform="translate(80.344265, 226.209505) rotate(-12.000000) translate(-80.344265, -226.209505) "></path>
                <path d="M91.7700626,231.798934 C96.7687307,231.243526 100.37888,230.965822 102.60051,230.965822 C99.2680648,226.800266 99.2680648,226.800266 95.102508,224.300932 C92.3254701,222.634709 91.214655,225.134043 91.7700626,231.798934 Z" id="Path-85" fill="#FFFFFF" transform="translate(97.115860, 227.799999) rotate(-12.000000) translate(-97.115860, -227.799999) "></path>
                <path d="M120.942279,229.465156 C123.035773,234.250287 131.772726,229.465156 138.437617,229.465156 C145.102508,229.465156 128.683927,220.300932 129.689948,209.470484 C130.695969,198.640036 118.661939,224.252951 120.942279,229.465156 Z" id="Path-83-Copy" fill="#FFFFFF" transform="translate(130.344265, 219.209505) scale(-1, 1) rotate(-5.000000) translate(-130.344265, -219.209505) "></path>
                <path d="M141.770063,232.798934 C146.768731,232.243526 150.37888,231.965822 152.60051,231.965822 C149.268065,227.800266 149.268065,227.800266 145.102508,225.300932 C142.32547,223.634709 141.214655,226.134043 141.770063,232.798934 Z" id="Path-85-Copy" fill="#FFFFFF" transform="translate(147.115860, 228.799999) scale(-1, 1) rotate(-5.000000) translate(-147.115860, -228.799999) "></path>
                <path d="M75,242 C92.3333333,228 117.666667,225.333333 151,234" id="Path-86" stroke="#3A6DAB" stroke-width="3" stroke-linecap="round"></path>
                <path d="M40,134 C45.8228596,140.914646 45.8228596,157 56,171 C66.1771404,185 23,192 27,178 C31,164 36,160 33,154" id="Path-87" fill="url(#linearGradient-6)"></path>
                <g id="Path-89" transform="translate(1.000000, 0.000000)">
                    <mask id="mask-8" fill="white">
                        <use xlink:href="#path-7"></use>
                    </mask>
                    <use id="Mask" fill="#3A6DAB" xlink:href="#path-7"></use>
                    <path d="M59,5.28785992 C45.3973619,17.1084457 33.6990932,19.7153145 23.9051937,13.1084663 C14.1112943,6.50161803 10.0305029,7.79879594 11.6628195,17 C4.58944765,15.7987549 2.41302556,11.8947082 5.13355317,5.28785992 C7.85408079,-1.31898833 25.8095631,-1.31898833 59,5.28785992 Z" fill="#447FC6" mask="url(#mask-8)"></path>
                </g>
                <path d="M4,66 C12.6666667,77.3333333 21,83 29,83 C41,83 46,88 56,74.5" id="Path-2" stroke="#3A6DAB" stroke-width="9" stroke-linecap="round"></path>
            </g>
        </g>
    </g>
</svg>