<?xml version="1.0" encoding="UTF-8"?>
<svg width="95px" height="347px" viewBox="0 0 95 347" version="1.1" xmlns="http://www.w3.org/2000/svg" xmlns:xlink="http://www.w3.org/1999/xlink">
    <!-- Generator: Sketch 51.2 (57519) - http://www.bohemiancoding.com/sketch -->
    <title>i</title>
    <desc>Created with Sketch.</desc>
    <defs>
        <filter x="-1.1%" y="-1.5%" width="102.1%" height="102.4%" filterUnits="objectBoundingBox" id="filter-1">
            <feOffset dx="0" dy="2" in="SourceAlpha" result="shadowOffsetOuter1"></feOffset>
            <feColorMatrix values="0 0 0 0 0   0 0 0 0 0   0 0 0 0 0  0 0 0 0.5 0" type="matrix" in="shadowOffsetOuter1" result="shadowMatrixOuter1"></feColorMatrix>
            <feMerge>
                <feMergeNode in="shadowMatrixOuter1"></feMergeNode>
                <feMergeNode in="SourceGraphic"></feMergeNode>
            </feMerge>
        </filter>
        <path d="M24.8639397,179.762417 C24.3672313,142.01656 24.0181488,115.283479 23.8166922,99.5631738 C23.0955926,43.2934354 21.2513259,7.98247564 22.7350427,6.49819495 C30.8547009,-1.62454874 49.5299145,-1.62454874 78.7606838,6.49819495 C78.7606838,52.6752905 78.7606838,84.6370439 78.7606838,102.383455 L78.7606838,178.967909 C89.0096955,182.63971 76.6627016,195.801698 93.3760684,212.00361 C98.5617873,217.030638 80.2064058,215.387609 72.2450427,217.260866 C65.7979624,218.777822 57.4417015,225 48.3119658,225 C39.3133816,225 31.0662095,216.356296 24.6579105,214.888812 C16.5357024,213.028848 -6.83865246,214.218501 3.24786325,212.00361 C19.7197253,208.386566 15.725613,186.335484 24.8639397,179.762417 Z" id="path-2"></path>
        <path d="M3.56853114,19.6907131 C18.6942319,-5.19022854 32.9683564,-6.35591718 46.3909048,16.1936472 C57.0964982,49.1278795 46.3909048,40.2267356 3.56853114,40.2267356 C-1.09660821,41.3502561 -1.09660821,34.5049153 3.56853114,19.6907131 Z" id="path-4"></path>
    </defs>
    <g id="Symbols" stroke="none" stroke-width="1" fill="none" fill-rule="evenodd">
        <g id="letter/i" transform="translate(-54.000000, -37.000000)">
            <g id="i" filter="url(#filter-1)" transform="translate(54.000000, 43.000000)">
                <g id="Oval-2" transform="translate(0.000000, 114.000000)">
                    <mask id="mask-3" fill="white">
                        <use xlink:href="#path-2"></use>
                    </mask>
                    <use id="Mask" fill="#D8D8D8" xlink:href="#path-2"></use>
                    <rect id="Rectangle" fill="#A0A0A0" mask="url(#mask-3)" x="22.7350427" y="-4.87364621" width="51.965812" height="12.1841155"></rect>
                    <path d="M51.1538462,12.9963899 C66.4006816,12.9963899 78.7606838,10.1027162 78.7606838,7.63537906 C78.7606838,5.16804196 63.9647841,4.06137184 48.7179487,4.06137184 C33.4711133,4.06137184 23.5470085,6.06154376 23.5470085,8.52888087 C23.5470085,10.996218 35.9070108,12.9963899 51.1538462,12.9963899 Z" fill="#DECA95" mask="url(#mask-3)"></path>
                </g>
                <g id="mouth" transform="translate(26.000000, 207.000000)">
                    <mask id="mask-5" fill="white">
                        <use xlink:href="#path-4"></use>
                    </mask>
                    <use id="Mask" fill="#4D0404" xlink:href="#path-4"></use>
                    <path d="M4.46066393,42.0069644 C8.02919507,33.1058206 9.81346064,28.6552486 9.81346064,28.6552486 L13.3819918,42.0069644 L4.46066393,42.0069644 Z" id="tooth" fill="#FFFFFF" mask="url(#mask-5)"></path>
                    <path d="M15.1662573,42.0069644 C18.7347885,33.1058206 20.5190541,28.6552486 20.5190541,28.6552486 L24.0875852,42.0069644 L15.1662573,42.0069644 Z" id="tooth-copy" fill="#FFFFFF" mask="url(#mask-5)"></path>
                    <path d="M25.8718508,42.0069644 C29.4403819,33.1058206 31.2246475,28.6552486 31.2246475,28.6552486 L34.7931786,42.0069644 L25.8718508,42.0069644 Z" id="tooth-copy-2" fill="#FFFFFF" mask="url(#mask-5)"></path>
                    <path d="M36.5774442,42.0069644 C40.1459753,33.1058206 41.9302409,28.6552486 41.9302409,28.6552486 L45.498772,42.0069644 L36.5774442,42.0069644 Z" id="tooth-copy-3" fill="#FFFFFF" mask="url(#mask-5)"></path>
                    <path d="M4.46066393,21.1697084 C8.02919507,12.2685645 9.81346064,7.81799261 9.81346064,7.81799261 L13.3819918,21.1697084 L4.46066393,21.1697084 Z" id="tooth-copy-7" fill="#FFFFFF" mask="url(#mask-5)" transform="translate(8.921328, 14.493850) scale(1, -1) translate(-8.921328, -14.493850) "></path>
                    <path d="M15.1662573,13.2659216 C18.7347885,4.36477777 20.5190541,-0.0857941576 20.5190541,-0.0857941576 L24.0875852,13.2659216 L15.1662573,13.2659216 Z" id="tooth-copy-6" fill="#FFFFFF" mask="url(#mask-5)" transform="translate(19.626921, 6.590064) scale(1, -1) translate(-19.626921, -6.590064) "></path>
                    <path d="M25.8718508,13.2659216 C29.4403819,4.36477777 31.2246475,-0.0857941576 31.2246475,-0.0857941576 L34.7931786,13.2659216 L25.8718508,13.2659216 Z" id="tooth-copy-5" fill="#FFFFFF" mask="url(#mask-5)" transform="translate(30.332515, 6.590064) scale(1, -1) translate(-30.332515, -6.590064) "></path>
                    <path d="M36.5774442,16.858552 C40.1459753,7.95740812 41.9302409,3.50683619 41.9302409,3.50683619 L45.498772,16.858552 L36.5774442,16.858552 Z" id="tooth-copy-4" fill="#FFFFFF" mask="url(#mask-5)" transform="translate(41.038108, 10.182694) scale(1, -1) translate(-41.038108, -10.182694) "></path>
                </g>
                <path d="M21.3342836,78.2975244 C21.3266552,78.2721163 21.3190277,78.2466889 21.3114012,78.2212423 L21.2556426,78.0351997 L21.2367212,77.8419049 C19.5835072,60.9531895 19.5835072,48.1109625 21.2622358,39.2596778 L22.4734863,32.8732238 L25.0618166,38.8359806 C29.2188453,48.41256 30.0571046,49.1437796 34.7345105,47.2081039 C36.1747039,46.612101 37.4418672,42.8514972 38.0601608,36.289616 C38.5864136,30.7045542 38.6694692,24.4002152 38.5271773,12.7215706 C38.5195555,12.0960049 38.5127445,11.5556341 38.4991771,10.4922417 C38.4303048,5.09414223 38.40811,2.81521597 38.40811,3.65451507e-14 L38.40811,-13.2941078 L42.3195818,-0.58845194 C46.1095621,11.7225624 46.9905362,14.5431739 48.2362406,18.2896163 C48.3319335,18.5774117 48.4278229,18.8642376 48.524436,19.1516777 C49.4972807,22.0460516 50.2460656,24.1696751 52.9274726,31.6804974 C54.5551138,36.2396429 55.7743064,39.5207694 56.5795228,41.5108914 C56.8109283,42.0828188 57.0059631,42.5419298 57.1581101,42.877049 C60.3496843,44.7640732 62.9264871,43.6124552 65.655525,38.6661821 L69.4066714,31.8673777 L69.4066714,39.6323529 C69.4066714,41.3853624 69.6317015,42.3850839 69.7666587,42.665207 C69.8095754,42.6535344 69.8618179,42.6367467 69.9231942,42.6136315 C70.393124,42.4366488 71.0462399,42.0149802 71.8406609,41.3418005 L74.0877626,39.4376423 L75.0288118,42.2286477 C80.5172275,58.5064342 83.8144401,70.1869291 84.9275119,77.3395245 C85.1506663,78.7735134 84.8569571,80.239433 84.1223102,81.7074963 C83.6796835,98.5295901 69.7544883,112 52.6801834,112 C35.3142783,112 21.2272073,98.0733137 21.2272073,80.8823529 C21.2272073,80.0161634 21.263029,79.1540638 21.3342836,78.2975244 Z" id="Combined-Shape" stroke="#EA6700" stroke-width="4" fill="#F9D200"></path>
                <g id="Group" style="mix-blend-mode: overlay;" transform="translate(29.000000, 58.000000)">
                    <circle id="Oval-19" fill="#FFFFFF" cx="23" cy="23" r="23"></circle>
                    <path d="M23.4035088,41.1578947 C28.245614,32.5259512 30.6666667,26.2043138 30.6666667,22.1929825 C30.6666667,18.1816511 28.245614,11.8600137 23.4035088,3.22807018 C18.5614035,11.8600137 16.1403509,18.1816511 16.1403509,22.1929825 C16.1403509,26.2043138 18.5614035,32.5259512 23.4035088,41.1578947 Z" id="Oval-3" fill="#0900C2"></path>
                </g>
                <path d="M52.5,99 C57.5,90.3520862 60,84.0187529 60,80 C60,75.9812471 57.5,69.6479138 52.5,61 C47.5,69.6479138 45,75.9812471 45,80 C45,84.0187529 47.5,90.3520862 52.5,99 Z" id="eye" fill="#0900C2" opacity="0.714508929"></path>
                <path d="M42,202 C43.6568542,202 45,199.089851 45,195.5 C45,194.498656 44.0758052,193.787748 43.889137,192.940581 C43.406594,190.750629 43.1946953,189 42,189 C40.3431458,189 39,191.910149 39,195.5 C39,196.859029 40.0121885,197.883092 40.3413315,198.926274 C40.8816139,200.63864 40.9703899,202 42,202 Z" id="nostril" fill="#4D0404" opacity="0.276506696" transform="translate(42.000000, 195.500000) rotate(17.000000) translate(-42.000000, -195.500000) "></path>
                <path d="M58,202 C59.6568542,202 61,199.089851 61,195.5 C61,194.498656 60.0758052,193.787748 59.889137,192.940581 C59.406594,190.750629 59.1946953,189 58,189 C56.3431458,189 55,191.910149 55,195.5 C55,196.859029 56.0121885,197.883092 56.3413315,198.926274 C56.8816139,200.63864 56.9703899,202 58,202 Z" id="nostril" fill="#4D0404" opacity="0.276506696" transform="translate(58.000000, 195.500000) scale(-1, 1) rotate(17.000000) translate(-58.000000, -195.500000) "></path>
            </g>
        </g>
    </g>
</svg>