<?xml version="1.0" encoding="UTF-8"?>
<svg width="95px" height="368px" viewBox="0 0 95 368" version="1.1" xmlns="http://www.w3.org/2000/svg" xmlns:xlink="http://www.w3.org/1999/xlink">
    <!-- Generator: Sketch 51.2 (57519) - http://www.bohemiancoding.com/sketch -->
    <title>i</title>
    <desc>Created with Sketch.</desc>
    <defs>
        <filter x="-1.1%" y="-0.3%" width="102.1%" height="101.1%" filterUnits="objectBoundingBox" id="filter-1">
            <feOffset dx="0" dy="2" in="SourceAlpha" result="shadowOffsetOuter1"></feOffset>
            <feColorMatrix values="0 0 0 0 0   0 0 0 0 0   0 0 0 0 0  0 0 0 0.5 0" type="matrix" in="shadowOffsetOuter1" result="shadowMatrixOuter1"></feColorMatrix>
            <feMerge>
                <feMergeNode in="shadowMatrixOuter1"></feMergeNode>
                <feMergeNode in="SourceGraphic"></feMergeNode>
            </feMerge>
        </filter>
        <path d="M24.8639397,179.762417 C24.3672313,142.01656 24.0181488,115.283479 23.8166922,99.5631738 C23.0955926,43.2934354 21.2513259,7.98247564 22.7350427,6.49819495 C30.8547009,-1.62454874 49.5299145,-1.62454874 78.7606838,6.49819495 C78.7606838,52.6752905 78.7606838,84.6370439 78.7606838,102.383455 L78.7606838,178.967909 C89.0096955,182.63971 76.6627016,195.801698 93.3760684,212.00361 C98.5617873,217.030638 80.2064058,215.387609 72.2450427,217.260866 C65.7979624,218.777822 57.4417015,225 48.3119658,225 C39.3133816,225 31.0662095,216.356296 24.6579105,214.888812 C16.5357024,213.028848 -6.83865246,214.218501 3.24786325,212.00361 C19.7197253,208.386566 15.725613,186.335484 24.8639397,179.762417 Z" id="path-2"></path>
        <path d="M3.56853114,19.6907131 C18.6942319,-5.19022854 32.9683564,-6.35591718 46.3909048,16.1936472 C57.0964982,49.1278795 46.3909048,40.2267356 3.56853114,40.2267356 C-1.09660821,41.3502561 -1.09660821,34.5049153 3.56853114,19.6907131 Z" id="path-4"></path>
    </defs>
    <g id="Symbols" stroke="none" stroke-width="1" fill="none" fill-rule="evenodd">
        <g id="letter/i" transform="translate(-54.000000, -17.000000)">
            <g id="i" filter="url(#filter-1)" transform="translate(54.000000, 17.000000)">
                <g id="Oval-2" transform="translate(0.000000, 141.000000)">
                    <mask id="mask-3" fill="white">
                        <use xlink:href="#path-2"></use>
                    </mask>
                    <use id="Mask" fill="#D8D8D8" xlink:href="#path-2"></use>
                    <rect id="Rectangle" fill="#A0A0A0" mask="url(#mask-3)" x="22.7350427" y="-4.87364621" width="51.965812" height="12.1841155"></rect>
                    <path d="M51.1538462,12.9963899 C66.4006816,12.9963899 78.7606838,10.1027162 78.7606838,7.63537906 C78.7606838,5.16804196 63.9647841,4.06137184 48.7179487,4.06137184 C33.4711133,4.06137184 23.5470085,6.06154376 23.5470085,8.52888087 C23.5470085,10.996218 35.9070108,12.9963899 51.1538462,12.9963899 Z" fill="#DECA95" mask="url(#mask-3)"></path>
                </g>
                <g id="mouth" transform="translate(26.000000, 234.000000)">
                    <mask id="mask-5" fill="white">
                        <use xlink:href="#path-4"></use>
                    </mask>
                    <use id="Mask" fill="#4D0404" xlink:href="#path-4"></use>
                    <path d="M4.46066393,42.0069644 C8.02919507,33.1058206 9.81346064,28.6552486 9.81346064,28.6552486 L13.3819918,42.0069644 L4.46066393,42.0069644 Z M15.1662573,42.0069644 C18.7347885,33.1058206 20.5190541,28.6552486 20.5190541,28.6552486 L24.0875852,42.0069644 L15.1662573,42.0069644 Z M25.8718508,42.0069644 C29.4403819,33.1058206 31.2246475,28.6552486 31.2246475,28.6552486 L34.7931786,42.0069644 L25.8718508,42.0069644 Z M36.5774442,42.0069644 C40.1459753,33.1058206 41.9302409,28.6552486 41.9302409,28.6552486 L45.498772,42.0069644 L36.5774442,42.0069644 Z M4.46066393,7.81799261 L13.3819918,7.81799261 L9.81346064,21.1697084 C9.81346064,21.1697084 8.02919507,16.7191365 4.46066393,7.81799261 Z M15.1662573,-0.0857941576 L24.0875852,-0.0857941576 L20.5190541,13.2659216 C20.5190541,13.2659216 18.7347885,8.81534969 15.1662573,-0.0857941576 Z M25.8718508,-0.0857941576 L34.7931786,-0.0857941576 L31.2246475,13.2659216 C31.2246475,13.2659216 29.4403819,8.81534969 25.8718508,-0.0857941576 Z M36.5774442,3.50683619 L45.498772,3.50683619 L41.9302409,16.858552 C41.9302409,16.858552 40.1459753,12.40798 36.5774442,3.50683619 Z" id="Combined-Shape" fill="#FFFFFF" mask="url(#mask-5)"></path>
                </g>
                <g id="Combined-Shape" transform="translate(18.000000, 0.000000)" fill-rule="nonzero">
                    <path d="M1.24623509,105.036751 C-0.423916551,87.9750064 -0.423916551,74.9621212 1.29726422,65.8870026 L3.71976519,53.1140947 L8.89642581,65.0396082 C12.6236896,73.6261349 12.6615714,73.7277772 15.8437798,72.4122094 C16.2020077,71.92001 16.4701526,71.3567552 16.7286441,70.5896212 C17.3139414,68.8526145 17.763953,66.3392194 18.0689805,63.1019969 C18.5862636,57.6121293 18.668735,51.3521366 18.5273258,39.7459367 C18.51971,39.1208708 18.5129025,38.5807785 18.4993398,37.5177569 C18.4303558,32.1109 18.40811,29.826734 18.40811,27 L18.40811,0.411784357 L26.2310536,25.8230961 C30.0156273,38.1165484 30.8951482,40.932507 32.1340792,44.6585787 C32.229088,44.9443165 32.3242906,45.229088 32.4202142,45.5144768 C33.3875267,48.3923915 34.1342744,50.5102371 36.8110382,58.0080536 C38.4300442,62.5430113 39.641222,65.8025682 40.4335165,67.7607534 C40.5347433,68.0109391 40.6281598,68.2371419 40.7123876,68.4369979 C42.5236155,69.2545423 43.8695045,68.3881399 45.9043786,64.7000112 L53.4066714,51.1024024 L53.4066714,66.0880607 L57.0418862,63.0076376 L58.9239845,68.5896482 C64.4465612,84.9687508 67.7684334,96.7366034 68.9037261,104.03199 C69.1742841,105.770594 68.8732199,107.503343 68.1075234,109.190547 C67.4128039,126.897568 52.6899492,141 34.6801834,141 C16.2148027,141 1.22720734,126.183042 1.22720734,107.882353 C1.22720734,107.089818 1.25540123,106.300342 1.31153439,105.514951 L1.24623509,105.036751 Z" fill="#EA6700"></path>
                    <path d="M5.36083186,105.090603 C5.27242516,106.009411 5.22720734,106.940662 5.22720734,107.882353 C5.22720734,123.963585 18.4137539,137 34.6801834,137 C50.8419065,137 63.9632692,124.130875 64.131523,108.192515 C64.8228446,106.965586 65.1266411,105.773815 64.9512977,104.647059 C63.8604467,97.6372549 60.5878938,86.0441176 55.133639,69.8676471 C51.3156606,73.1029412 49.4066714,72.0245098 49.4066714,66.6323529 C46.1341185,72.5637255 42.3161402,74.1813725 37.9527363,71.4852941 C37.9527363,72.5637255 36.3164599,68.5196078 33.043907,59.3529412 C28.1350776,45.6029412 28.1350776,45.6029412 22.40811,27 C22.40811,47.2205882 24.0443865,73.3475141 17.4992807,76.05611 C10.9541749,78.7647059 9.31789846,76.05611 5.22720734,66.6323529 C3.59093089,75.2598039 3.59093089,87.9313725 5.22720734,104.647059 C5.27172046,104.79558 5.31626197,104.943428 5.36083186,105.090603 Z" id="Path" fill="#F9D200"></path>
                </g>
                <g id="Group" style="mix-blend-mode: overlay;" transform="translate(29.000000, 85.000000)">
                    <circle id="Oval-19" fill="#FFFFFF" cx="23" cy="23" r="23"></circle>
                    <path d="M23.4035088,41.1578947 C28.245614,32.5259512 30.6666667,26.2043138 30.6666667,22.1929825 C30.6666667,18.1816511 28.245614,11.8600137 23.4035088,3.22807018 C18.5614035,11.8600137 16.1403509,18.1816511 16.1403509,22.1929825 C16.1403509,26.2043138 18.5614035,32.5259512 23.4035088,41.1578947 Z" id="Oval-3" fill="#0900C2"></path>
                </g>
                <path d="M52.5,126 C57.5,117.352086 60,111.018753 60,107 C60,102.981247 57.5,96.6479138 52.5,88 C47.5,96.6479138 45,102.981247 45,107 C45,111.018753 47.5,117.352086 52.5,126 Z" id="eye" fill="#0900C2" opacity="0.714508929"></path>
                <path d="M42,229 C43.6568542,229 45,226.089851 45,222.5 C45,221.498656 44.0758052,220.787748 43.889137,219.940581 C43.406594,217.750629 43.1946953,216 42,216 C40.3431458,216 39,218.910149 39,222.5 C39,223.859029 40.0121885,224.883092 40.3413315,225.926274 C40.8816139,227.63864 40.9703899,229 42,229 Z" id="nostril" fill="#4D0404" opacity="0.276506696" transform="translate(42.000000, 222.500000) rotate(17.000000) translate(-42.000000, -222.500000) "></path>
                <path d="M58,229 C59.6568542,229 61,226.089851 61,222.5 C61,221.498656 60.0758052,220.787748 59.889137,219.940581 C59.406594,217.750629 59.1946953,216 58,216 C56.3431458,216 55,218.910149 55,222.5 C55,223.859029 56.0121885,224.883092 56.3413315,225.926274 C56.8816139,227.63864 56.9703899,229 58,229 Z" id="nostril" fill="#4D0404" opacity="0.276506696" transform="translate(58.000000, 222.500000) scale(-1, 1) rotate(17.000000) translate(-58.000000, -222.500000) "></path>
            </g>
        </g>
    </g>
</svg>