<?xml version="1.0" encoding="UTF-8"?>
<svg width="156px" height="283px" viewBox="0 0 156 283" version="1.1" xmlns="http://www.w3.org/2000/svg" xmlns:xlink="http://www.w3.org/1999/xlink">
    <!-- Generator: Sketch 51.2 (57519) - http://www.bohemiancoding.com/sketch -->
    <title>j</title>
    <desc>Created with Sketch.</desc>
    <defs>
        <filter x="-0.6%" y="-0.4%" width="101.3%" height="101.4%" filterUnits="objectBoundingBox" id="filter-1">
            <feOffset dx="0" dy="2" in="SourceAlpha" result="shadowOffsetOuter1"></feOffset>
            <feColorMatrix values="0 0 0 0 0   0 0 0 0 0   0 0 0 0 0  0 0 0 0.5 0" type="matrix" in="shadowOffsetOuter1" result="shadowMatrixOuter1"></feColorMatrix>
            <feMerge>
                <feMergeNode in="shadowMatrixOuter1"></feMergeNode>
                <feMergeNode in="SourceGraphic"></feMergeNode>
            </feMerge>
        </filter>
        <path d="M124.985886,10.2566372 C133.661962,-2.58112094 143.984154,-3.33333333 155.952463,8 C150.353073,163.282913 136.368919,252.616246 114,276 C107.1585,283.151886 65.0994355,278.053339 57,281 C9,275 -8.66666667,244.010816 4,188.032448 C15.3449123,179.437492 23.1429012,179.201504 27.3939667,187.324484 C27.3939667,213 19,238 38,253 C44.3025666,255.34493 77.9927152,261 94,253 C110.007285,245 134,122 124.985886,10.2566372 Z" id="path-2"></path>
    </defs>
    <g id="Symbols" stroke="none" stroke-width="1" fill="none" fill-rule="evenodd">
        <g id="letter/j" transform="translate(-6.000000, -87.000000)">
            <g id="j" filter="url(#filter-1)" transform="translate(6.000000, 87.000000)">
                <g id="J-shape">
                    <mask id="mask-3" fill="white">
                        <use xlink:href="#path-2"></use>
                    </mask>
                    <g id="Mask">
                        <use fill="#622875" xlink:href="#path-2"></use>
                        <use fill="#913992" xlink:href="#path-2"></use>
                    </g>
                    <ellipse id="spot" fill="#622875" opacity="0.340401786" mask="url(#mask-3)" cx="119.087558" cy="93.3879056" rx="16.0368664" ry="13.4823009"></ellipse>
                    <ellipse id="spot-copy" fill="#622875" opacity="0.340401786" mask="url(#mask-3)" cx="143.543779" cy="38.6415929" rx="8.41935484" ry="13.4823009"></ellipse>
                    <ellipse id="spot-copy-2" fill="#622875" opacity="0.340401786" mask="url(#mask-3)" cx="155.97235" cy="152.219764" rx="20.8479263" ry="17.5678466"></ellipse>
                    <ellipse id="spot-copy-3" fill="#622875" opacity="0.340401786" mask="url(#mask-3)" cx="131.516129" cy="204.514749" rx="12.4285714" ry="13.4823009"></ellipse>
                    <ellipse id="spot-copy-4" fill="#622875" opacity="0.340401786" mask="url(#mask-3)" cx="-0.788018433" cy="204.514749" rx="12.4285714" ry="13.4823009"></ellipse>
                    <ellipse id="spot-copy-5" fill="#622875" opacity="0.340401786" mask="url(#mask-3)" cx="45.718894" cy="197.977876" rx="12.4285714" ry="13.4823009"></ellipse>
                </g>
                <g id="eye" transform="translate(39.000000, 228.000000)">
                    <ellipse fill="#FFFFFF" cx="16" cy="17" rx="16" ry="17"></ellipse>
                    <ellipse id="Oval" fill="#000000" cx="20" cy="20.3170732" rx="4" ry="8.70731707"></ellipse>
                </g>
                <g id="eye-copy" transform="translate(72.000000, 227.000000)">
                    <ellipse id="eye" fill="#FFFFFF" cx="16" cy="17" rx="16" ry="17"></ellipse>
                    <ellipse id="Oval" fill="#000000" cx="13.6" cy="20.3170732" rx="4" ry="8.70731707"></ellipse>
                </g>
                <path d="M44.1245766,268.04605 C44.0421335,267.793803 44,267.538283 44,267.28 C44,262.707082 57.2075999,269 73.5,269 C89.7924001,269 103,262.707082 103,267.28 C103,267.538283 102.957867,267.793803 102.875423,268.04605 C101.498204,264.837867 88.8721903,270.44 73.5,270.44 C58.1278097,270.44 45.5017957,264.837867 44.1245766,268.04605 Z" id="smile" fill="#D95B5B"></path>
                <polygon id="tooth" fill="#FFFFFF" transform="translate(47.000000, 272.500000) scale(1, -1) rotate(-11.000000) translate(-47.000000, -272.500000) " points="47 267 51 278 43 278"></polygon>
                <polygon id="tooth-copy-3" fill="#FFFFFF" transform="translate(100.000000, 272.500000) rotate(-12.000000) translate(-100.000000, -272.500000) " points="100 278 104 267 96 267"></polygon>
            </g>
        </g>
    </g>
</svg>