<?xml version="1.0" encoding="UTF-8"?>
<svg width="187px" height="231px" viewBox="0 0 187 231" version="1.1" xmlns="http://www.w3.org/2000/svg" xmlns:xlink="http://www.w3.org/1999/xlink">
    <!-- Generator: Sketch 51.2 (57519) - http://www.bohemiancoding.com/sketch -->
    <title>n</title>
    <desc>Created with Sketch.</desc>
    <defs>
        <filter x="-0.5%" y="-0.4%" width="101.0%" height="101.7%" filterUnits="objectBoundingBox" id="filter-1">
            <feOffset dx="0" dy="2" in="SourceAlpha" result="shadowOffsetOuter1"></feOffset>
            <feColorMatrix values="0 0 0 0 0   0 0 0 0 0   0 0 0 0 0  0 0 0 0.5 0" type="matrix" in="shadowOffsetOuter1" result="shadowMatrixOuter1"></feColorMatrix>
            <feMerge>
                <feMergeNode in="shadowMatrixOuter1"></feMergeNode>
                <feMergeNode in="SourceGraphic"></feMergeNode>
            </feMerge>
        </filter>
        <path d="M56,207 C22.7922712,222.333333 6.18840684,222.333333 6.18840684,207 C6.18840684,184 -7.62318632,34 6.18840684,19 C15.3961356,9 32,9 56,19 C95.3333333,-5.66666667 128.666667,-5.66666667 156,19 C183.333333,43.6666667 189.666667,106.333333 175,207 C167,225 155,228 139,216 C115,198 150.63377,86 121,72 C91.3662303,58 64,32.15 64,72 C64,98.5666667 61.3333333,143.566667 56,207 Z" id="path-2"></path>
    </defs>
    <g id="Symbols" stroke="none" stroke-width="1" fill="none" fill-rule="evenodd">
        <g id="letter/n" transform="translate(-13.000000, -3.000000)">
            <g id="n" filter="url(#filter-1)" transform="translate(13.000000, 3.000000)">
                <g id="Path-78" transform="translate(0.000000, 5.000000)">
                    <mask id="mask-3" fill="white">
                        <use xlink:href="#path-2"></use>
                    </mask>
                    <use id="Mask" fill="#808985" xlink:href="#path-2"></use>
                    <ellipse id="Oval" fill="#D8D8D8" mask="url(#mask-3)" cx="16" cy="215" rx="7" ry="10"></ellipse>
                    <ellipse id="Oval-Copy" fill="#D8D8D8" mask="url(#mask-3)" transform="translate(33.000000, 214.000000) rotate(-6.000000) translate(-33.000000, -214.000000) " cx="33" cy="214" rx="7" ry="10"></ellipse>
                    <ellipse id="Oval-Copy-2" fill="#D8D8D8" mask="url(#mask-3)" transform="translate(49.000000, 209.000000) rotate(-6.000000) translate(-49.000000, -209.000000) " cx="49" cy="209" rx="7" ry="10"></ellipse>
                    <path d="M183,49 C177.666667,61.6666667 165.666667,68 147,68" stroke="#D3D3D3" stroke-width="8" opacity="0.503515625" stroke-linecap="round" mask="url(#mask-3)"></path>
                    <path d="M188,79 C182.666667,91.6666667 170.666667,98 152,98" id="Path-78-Copy" stroke="#D3D3D3" stroke-width="8" opacity="0.503515625" stroke-linecap="round" mask="url(#mask-3)" transform="translate(170.000000, 88.500000) rotate(10.000000) translate(-170.000000, -88.500000) "></path>
                    <path d="M190,109 C184.666667,121.666667 172.666667,128 154,128" id="Path-78-Copy-2" stroke="#D3D3D3" stroke-width="8" opacity="0.503515625" stroke-linecap="round" mask="url(#mask-3)" transform="translate(172.000000, 118.500000) rotate(12.000000) translate(-172.000000, -118.500000) "></path>
                    <path d="M190,139 C184.666667,151.666667 172.666667,158 154,158" id="Path-78-Copy-3" stroke="#D3D3D3" stroke-width="8" opacity="0.503515625" stroke-linecap="round" mask="url(#mask-3)" transform="translate(172.000000, 148.500000) rotate(12.000000) translate(-172.000000, -148.500000) "></path>
                    <path d="M190,169 C184.666667,181.666667 172.666667,188 154,188" id="Path-78-Copy-4" stroke="#D3D3D3" stroke-width="8" opacity="0.503515625" stroke-linecap="round" mask="url(#mask-3)" transform="translate(172.000000, 178.500000) rotate(12.000000) translate(-172.000000, -178.500000) "></path>
                    <path d="M190,195 C184.666667,207.666667 172.666667,214 154,214" id="Path-78-Copy-5" stroke="#D3D3D3" stroke-width="8" opacity="0.503515625" stroke-linecap="round" mask="url(#mask-3)" transform="translate(172.000000, 204.500000) rotate(12.000000) translate(-172.000000, -204.500000) "></path>
                    <path d="M11,125 C17,121.666667 30.3333333,121.666667 51,125" id="Path-2" stroke="#3A3A3A" stroke-width="2" stroke-linecap="round" mask="url(#mask-3)"></path>
                    <path d="M11,121 C17,117.666667 30.3333333,117.666667 51,121" id="Path-2-Copy" stroke="#3A3A3A" stroke-width="2" stroke-linecap="round" mask="url(#mask-3)"></path>
                    <path d="M11,130 C17,126.666667 30.3333333,126.666667 51,130" id="Path-2-Copy-2" stroke="#3A3A3A" stroke-width="2" stroke-linecap="round" mask="url(#mask-3)" transform="translate(31.000000, 128.750000) rotate(3.000000) translate(-31.000000, -128.750000) "></path>
                </g>
                <g id="horn" transform="translate(160.500000, 62.000000) rotate(-18.000000) translate(-160.500000, -62.000000) translate(128.000000, 38.000000)" fill="#FFFFFF">
                    <path d="M65,0 C63,27.3333333 51.6666667,43 31,47 C2.00672812e-13,53 -5,26 5,18 C15,10 21.3469959,12.0689137 32.673498,18 C40.2244993,21.9540575 51,15.9540575 65,0 Z" id="Mask"></path>
                </g>
                <g id="Group" transform="translate(104.000000, 0.000000)">
                    <ellipse id="Oval-2" fill="#FFFFFF" cx="25" cy="17" rx="25" ry="17"></ellipse>
                    <circle id="Oval-3" fill="#000000" cx="25.5" cy="18.5" r="7.5"></circle>
                    <circle id="Oval-4" fill="#FFFFFF" cx="27.5" cy="13.5" r="2.5"></circle>
                </g>
                <g id="Group-Copy" transform="translate(63.000000, 20.000000)">
                    <ellipse id="Oval-2" fill="#FFFFFF" cx="25" cy="17" rx="25" ry="17"></ellipse>
                    <circle id="Oval-3" fill="#000000" cx="25.5" cy="18.5" r="7.5"></circle>
                    <circle id="Oval-4" fill="#FFFFFF" cx="27.5" cy="13.5" r="2.5"></circle>
                </g>
            </g>
        </g>
    </g>
</svg>