<?xml version="1.0" encoding="UTF-8"?>
<svg width="143px" height="156px" viewBox="0 0 143 156" version="1.1" xmlns="http://www.w3.org/2000/svg" xmlns:xlink="http://www.w3.org/1999/xlink">
    <!-- Generator: Sketch 51.1 (57501) - http://www.bohemiancoding.com/sketch -->
    <title>XMLID_866_</title>
    <desc>Created with Sketch.</desc>
    <defs></defs>
    <g id="Page-1" stroke="none" stroke-width="1" fill="none" fill-rule="evenodd">
        <g id="XMLID_613_" transform="translate(-940.000000, -346.000000)" fill-rule="nonzero">
            <g id="XMLID_866_" transform="translate(940.000000, 346.000000)">
                <path d="M113,67.4 C112.9,63.3 112.1,59.7 110.8,56.5 C109.8,53 107.9,50.3 105.3,48.5 L68,28.2 C70.6,30.1 72.5,32.7 73.5,36.2 C74.8,39.4 75.6,43 75.7,47.1 C75.8,51.2 75.9,55.3 75.9,59.2 L75.8,124.8 L113.1,145.1 L113.2,79.5 C113.2,75.6 113.1,71.5 113,67.4 Z" id="XMLID_599_" fill="#986B29"></path>
                <g id="XMLID_879_" transform="translate(67.000000, 28.000000)" fill="#000000">
                    <path d="M0.6,0 L37.9,20.3 C38,20.4 38.2,20.4 38.3,20.5 L1,0.2 C0.9,0.1 0.8,0.1 0.6,0 Z" id="XMLID_880_"></path>
                </g>
                <path d="M89,3.5 C83.2,0.4 75.9,-0.6 67,0.5 C66.8,0.5 66.6,0.5 66.4,0.6 C51.2,2.7 38.9,11 29.6,25.3 L66.9,45.6 C76.2,31.3 88.5,23 103.7,20.9 C103.9,20.9 104.1,20.8 104.3,20.8 C113.2,19.7 120.5,20.7 126.3,23.8 L89,3.5 Z" id="XMLID_596_" fill="#E0A810"></path>
                <g id="XMLID_873_" transform="translate(29.000000, 25.000000)" fill="#000000">
                    <polygon id="XMLID_874_" points="37.4 20.6 0.1 0.3 0.6 0.3 37.8 20.5"></polygon>
                </g>
                <g id="XMLID_871_" transform="translate(1.000000, 8.000000)" fill="#E0A810">
                    <polygon id="XMLID_872_" points="37.4 24.8 0.1 4.6 28.2 0.6 65.4 20.9"></polygon>
                </g>
                <g id="XMLID_869_" transform="translate(38.000000, 20.000000)" fill="#FFF197">
                    <path d="M65.7,0.8 C65.9,0.8 66.1,0.7 66.3,0.7 C79.7,-1 89.6,2.1 95.9,10.1 C101.9,18.2 104.9,29.3 104.9,43.4 L104.8,120.9 L75.2,125.1 L75.3,59.5 C75.3,55.5 75.2,51.5 75.1,47.4 C75,43.3 74.2,39.7 72.9,36.5 C71.9,33 70,30.3 67.4,28.5 C64.6,26.8 60.8,26.3 56.1,27 C50.8,27.7 46.5,29.7 43.3,32.8 C40,36 37.4,39.8 35.3,44.2 C33.4,48.6 32,53.2 31.3,57.9 C30.4,62.8 30,67.3 29.9,71.4 L29.8,131.5 L0.2,135.7 L0.4,12.9 L28.5,9 L28.5,25.7 L28.9,25.6 C38.2,11.2 50.5,2.9 65.7,0.8 Z" id="XMLID_870_"></path>
                </g>
                <g id="XMLID_867_" transform="translate(0.000000, 12.000000)" fill="#B07E09">
                    <polygon id="XMLID_868_" points="38.1 143.6 0.9 123.4 1.1 0.6 38.4 20.8"></polygon>
                </g>
            </g>
        </g>
    </g>
</svg>