<?xml version="1.0" encoding="UTF-8"?>
<svg width="187px" height="231px" viewBox="0 0 187 231" version="1.1" xmlns="http://www.w3.org/2000/svg" xmlns:xlink="http://www.w3.org/1999/xlink">
    <!-- Generator: Sketch 51.2 (57519) - http://www.bohemiancoding.com/sketch -->
    <title>n</title>
    <desc>Created with Sketch.</desc>
    <defs>
        <filter x="-0.5%" y="-0.4%" width="101.0%" height="101.7%" filterUnits="objectBoundingBox" id="filter-1">
            <feOffset dx="0" dy="2" in="SourceAlpha" result="shadowOffsetOuter1"></feOffset>
            <feColorMatrix values="0 0 0 0 0   0 0 0 0 0   0 0 0 0 0  0 0 0 0.5 0" type="matrix" in="shadowOffsetOuter1" result="shadowMatrixOuter1"></feColorMatrix>
            <feMerge>
                <feMergeNode in="shadowMatrixOuter1"></feMergeNode>
                <feMergeNode in="SourceGraphic"></feMergeNode>
            </feMerge>
        </filter>
        <path d="M56,207 C22.7922712,222.333333 6.18840684,222.333333 6.18840684,207 C6.18840684,184 -7.62318632,34 6.18840684,19 C15.3961356,9 32,9 56,19 C95.3333333,-5.66666667 128.666667,-5.66666667 156,19 C183.333333,43.6666667 189.666667,106.333333 175,207 C167,225 155,228 139,216 C115,198 150.63377,86 121,72 C91.3662303,58 64,32.15 64,72 C64,98.5666667 61.3333333,143.566667 56,207 Z" id="path-2"></path>
    </defs>
    <g id="Symbols" stroke="none" stroke-width="1" fill="none" fill-rule="evenodd">
        <g id="letter/n" transform="translate(-13.000000, -3.000000)">
            <g id="n" filter="url(#filter-1)" transform="translate(13.000000, 3.000000)">
                <g id="Path-78" transform="translate(0.000000, 5.000000)">
                    <mask id="mask-3" fill="white">
                        <use xlink:href="#path-2"></use>
                    </mask>
                    <use id="Mask" fill="#808985" xlink:href="#path-2"></use>
                    <path d="M16,225 C12.1340068,225 9,220.522847 9,215 C9,209.477153 12.1340068,205 16,205 C19.8659932,205 23,209.477153 23,215 C23,220.522847 19.8659932,225 16,225 Z M34.0452846,223.945219 C30.2004697,224.349325 26.6156415,220.224292 26.0383467,214.731699 C25.461052,209.239106 28.1099004,204.458887 31.9547154,204.054781 C35.7995303,203.650675 39.3843585,207.775708 39.9616533,213.268301 C40.538948,218.760894 37.8900996,223.541113 34.0452846,223.945219 Z M50.0452846,218.945219 C46.2004697,219.349325 42.6156415,215.224292 42.0383467,209.731699 C41.461052,204.239106 44.1099004,199.458887 47.9547154,199.054781 C51.7995303,198.650675 55.3843585,202.775708 55.9616533,208.268301 C56.538948,213.760894 53.8900996,218.541113 50.0452846,218.945219 Z" id="Combined-Shape" fill="#D8D8D8" mask="url(#mask-3)"></path>
                    <path d="M183,49 C177.666667,61.6666667 165.666667,68 147,68" stroke="#D3D3D3" stroke-width="8" opacity="0.503515625" stroke-linecap="round" mask="url(#mask-3)"></path>
                    <path d="M184.313458,77.447772 C185.17073,75.4117513 187.516207,74.4561866 189.552228,75.3134585 C191.588249,76.1707304 192.543813,78.5162073 191.686542,80.552228 C185.658649,94.868472 172.146281,102 152,102 C149.790861,102 148,100.209139 148,98 C148,95.790861 149.790861,94 152,94 C169.187053,94 179.674684,88.4648613 184.313458,77.447772 Z" id="Path-78-Copy" fill="#D3D3D3" fill-rule="nonzero" opacity="0.5" mask="url(#mask-3)" transform="translate(170.000519, 88.499481) rotate(10.000000) translate(-170.000519, -88.499481) "></path>
                    <path d="M186.313458,107.447772 C187.17073,105.411751 189.516207,104.456187 191.552228,105.313458 C193.588249,106.17073 194.543813,108.516207 193.686542,110.552228 C187.658649,124.868472 174.146281,132 154,132 C151.790861,132 150,130.209139 150,128 C150,125.790861 151.790861,124 154,124 C171.187053,124 181.674684,118.464861 186.313458,107.447772 Z" id="Path-78-Copy-2" fill="#D3D3D3" fill-rule="nonzero" opacity="0.5" mask="url(#mask-3)" transform="translate(172.000519, 118.499481) rotate(12.000000) translate(-172.000519, -118.499481) "></path>
                    <path d="M186.313458,137.447772 C187.17073,135.411751 189.516207,134.456187 191.552228,135.313458 C193.588249,136.17073 194.543813,138.516207 193.686542,140.552228 C187.658649,154.868472 174.146281,162 154,162 C151.790861,162 150,160.209139 150,158 C150,155.790861 151.790861,154 154,154 C171.187053,154 181.674684,148.464861 186.313458,137.447772 Z" id="Path-78-Copy-3" fill="#D3D3D3" fill-rule="nonzero" opacity="0.5" mask="url(#mask-3)" transform="translate(172.000519, 148.499481) rotate(12.000000) translate(-172.000519, -148.499481) "></path>
                    <path d="M186.313458,167.447772 C187.17073,165.411751 189.516207,164.456187 191.552228,165.313458 C193.588249,166.17073 194.543813,168.516207 193.686542,170.552228 C187.658649,184.868472 174.146281,192 154,192 C151.790861,192 150,190.209139 150,188 C150,185.790861 151.790861,184 154,184 C171.187053,184 181.674684,178.464861 186.313458,167.447772 Z" id="Path-78-Copy-4" fill="#D3D3D3" fill-rule="nonzero" opacity="0.5" mask="url(#mask-3)" transform="translate(172.000519, 178.499481) rotate(12.000000) translate(-172.000519, -178.499481) "></path>
                    <path d="M186.313458,193.447772 C187.17073,191.411751 189.516207,190.456187 191.552228,191.313458 C193.588249,192.17073 194.543813,194.516207 193.686542,196.552228 C187.658649,210.868472 174.146281,218 154,218 C151.790861,218 150,216.209139 150,214 C150,211.790861 151.790861,210 154,210 C171.187053,210 181.674684,204.464861 186.313458,193.447772 Z" id="Path-78-Copy-5" fill="#D3D3D3" fill-rule="nonzero" opacity="0.5" mask="url(#mask-3)" transform="translate(172.000519, 204.499481) rotate(12.000000) translate(-172.000519, -204.499481) "></path>
                    <path d="M11,125 C17,121.666667 30.3333333,121.666667 51,125" id="Path-2" stroke="#3A3A3A" stroke-width="2" stroke-linecap="round" mask="url(#mask-3)"></path>
                    <path d="M11,121 C17,117.666667 30.3333333,117.666667 51,121" id="Path-2-Copy" stroke="#3A3A3A" stroke-width="2" stroke-linecap="round" mask="url(#mask-3)"></path>
                    <path d="M11,130 C17,126.666667 30.3333333,126.666667 51,130" id="Path-2-Copy-2" stroke="#3A3A3A" stroke-width="2" stroke-linecap="round" mask="url(#mask-3)" transform="translate(31.000000, 128.750000) rotate(3.000000) translate(-31.000000, -128.750000) "></path>
                </g>
                <g id="horn" transform="translate(160.500000, 62.000000) rotate(-18.000000) translate(-160.500000, -62.000000) translate(128.000000, 38.000000)" fill="#FFFFFF">
                    <path d="M65,0 C63,27.3333333 51.6666667,43 31,47 C2.00672812e-13,53 -5,26 5,18 C15,10 21.3469959,12.0689137 32.673498,18 C40.2244993,21.9540575 51,15.9540575 65,0 Z" id="Mask"></path>
                </g>
                <g id="Group" transform="translate(104.000000, 0.000000)">
                    <ellipse id="Oval-2" fill="#FFFFFF" cx="25" cy="17" rx="25" ry="17"></ellipse>
                    <circle id="Oval-3" fill="#000000" cx="25.5" cy="18.5" r="7.5"></circle>
                    <circle id="Oval-4" fill="#FFFFFF" cx="27.5" cy="13.5" r="2.5"></circle>
                </g>
                <g id="Group-Copy" transform="translate(63.000000, 20.000000)">
                    <ellipse id="Oval-2" fill="#FFFFFF" cx="25" cy="17" rx="25" ry="17"></ellipse>
                    <circle id="Oval-3" fill="#000000" cx="25.5" cy="18.5" r="7.5"></circle>
                    <circle id="Oval-4" fill="#FFFFFF" cx="27.5" cy="13.5" r="2.5"></circle>
                </g>
            </g>
        </g>
    </g>
</svg>