<?xml version="1.0" encoding="UTF-8"?>
<svg width="185px" height="190px" viewBox="0 0 185 190" version="1.1" xmlns="http://www.w3.org/2000/svg" xmlns:xlink="http://www.w3.org/1999/xlink">
    <!-- Generator: Sketch 51.2 (57519) - http://www.bohemiancoding.com/sketch -->
    <title>o</title>
    <desc>Created with Sketch.</desc>
    <defs>
        <filter x="-0.5%" y="-0.5%" width="101.1%" height="102.1%" filterUnits="objectBoundingBox" id="filter-1">
            <feOffset dx="0" dy="2" in="SourceAlpha" result="shadowOffsetOuter1"></feOffset>
            <feColorMatrix values="0 0 0 0 0   0 0 0 0 0   0 0 0 0 0  0 0 0 0.5 0" type="matrix" in="shadowOffsetOuter1" result="shadowMatrixOuter1"></feColorMatrix>
            <feMerge>
                <feMergeNode in="shadowMatrixOuter1"></feMergeNode>
                <feMergeNode in="SourceGraphic"></feMergeNode>
            </feMerge>
        </filter>
        <path d="M92.5,176 C79.4146357,176 66.9638842,173.415083 55.6811583,168.752712 C41.9520506,163.07942 29.9523965,159.330116 20.6432512,148.419101 C14.6135243,141.351811 9.71257933,128.377591 6.20157952,119.7449 C2.19642133,109.897194 0,99.1926195 0,88 C0,73.9696892 3.45133213,60.7062645 9.59036274,48.9362098 C20.7025415,27.631388 40.6207346,11.2194653 64.8161401,4.00892339 C73.557046,1.40402104 82.8561752,0 92.5,0 C103.610496,0 114.263478,1.8635535 124.132429,5.28002775 C142.103524,11.5013358 158.474817,20.8720411 169.274715,35.5164673 C179.814124,49.8076753 185,69.2165868 185,88 C185,100.511042 182.255652,112.41229 177.308413,123.188628 C170.536264,137.940083 159.636299,152.583663 145.997366,161.798086 C130.894737,172.001377 112.433718,176 92.5,176 Z M93,141 C107.875879,141 121.397018,133.458609 131.425152,124.418632 C142.246177,114.663894 149,102.835456 149,87.5 C149,73.2571755 143.174295,64.3142732 133.675193,54.7275166 C123.468079,44.4262137 109.019569,34 93,34 C79.1216913,34 66.4225188,41.8231037 56.6387757,49.8105311 C44.6193522,59.6231633 37,71.2115072 37,87.5 C37,97.5367634 39.8929679,112.928003 44.9257265,120.954164 C54.7089091,136.556225 72.577825,141 93,141 Z" id="path-2"></path>
    </defs>
    <g id="Symbols" stroke="none" stroke-width="1" fill="none" fill-rule="evenodd">
        <g id="letter/o" transform="translate(-14.000000, -22.000000)">
            <g id="o" filter="url(#filter-1)" transform="translate(14.000000, 16.000000)">
                <g id="teeth" transform="translate(23.000000, 41.000000)" fill="#FFFFFF">
                    <polygon id="tooth" transform="translate(116.500000, 40.000000) rotate(19.000000) translate(-116.500000, -40.000000) " points="128 29 115 55 105 25"></polygon>
                    <polygon id="tooth-copy" points="114 11 101 37 91 7"></polygon>
                    <polygon id="tooth-copy-2" points="93 11 80 37 70 7"></polygon>
                    <polygon id="tooth-copy-3" transform="translate(58.500000, 18.000000) rotate(-16.000000) translate(-58.500000, -18.000000) " points="70 7 57 33 47 3"></polygon>
                    <polygon id="tooth-copy-4" transform="translate(41.500000, 27.000000) rotate(-34.000000) translate(-41.500000, -27.000000) " points="53 16 40 42 30 12"></polygon>
                    <polygon id="tooth-copy-5" transform="translate(27.500000, 38.000000) rotate(-46.000000) translate(-27.500000, -38.000000) " points="39 27 26 53 16 23"></polygon>
                    <polygon id="tooth-copy-8" transform="translate(22.500000, 92.000000) rotate(-162.000000) translate(-22.500000, -92.000000) " points="34 81 21 107 11 77"></polygon>
                    <polygon id="tooth-copy-9" transform="translate(38.500000, 103.000000) rotate(-183.000000) translate(-38.500000, -103.000000) " points="50 92 37 118 27 88"></polygon>
                    <polygon id="tooth-copy-10" transform="translate(61.500000, 110.000000) rotate(-192.000000) translate(-61.500000, -110.000000) " points="73 99 60 125 50 95"></polygon>
                    <polygon id="tooth-copy-11" transform="translate(84.500000, 108.000000) rotate(-198.000000) translate(-84.500000, -108.000000) " points="96 97 83 123 73 93"></polygon>
                    <polygon id="tooth-copy-12" transform="translate(104.500000, 98.000000) rotate(-205.000000) translate(-104.500000, -98.000000) " points="116 87 103 113 93 83"></polygon>
                    <polygon id="tooth-copy-13" transform="translate(119.500000, 88.000000) rotate(-218.000000) translate(-119.500000, -88.000000) " points="131 77 118 103 108 73"></polygon>
                </g>
                <g id="o-body" transform="translate(0.000000, 18.000000)">
                    <mask id="mask-3" fill="white">
                        <use xlink:href="#path-2"></use>
                    </mask>
                    <use id="Mask" fill="#4D9CF6" xlink:href="#path-2"></use>
                    <path d="M177.5,149 C175.331422,149 173.266859,147.281705 171.392779,145.98458 C169.27494,144.518739 167.400358,143.313699 165.893818,140.570728 C164.312589,137.691768 163.136799,134.220217 162.51073,130.388784 C162.177495,128.349449 161,126.208157 161,124 C161,120.266551 162.507397,116.724246 163.417035,113.54269 C164.305454,110.435353 166.577565,107.67213 168.135404,105.411032 C170.881357,101.425465 173.515064,99 177.5,99 C179.84315,99 182.064864,99.8385958 184.056067,101.339859 C185.963214,102.777749 187.6589,104.82354 189.047289,107.322657 C191.505187,111.746903 193,117.591893 193,124 C193,128.169873 192.367045,132.101302 191.247645,135.557981 C190.075442,139.177714 188.369821,142.27685 186.299019,144.584042 C183.79945,147.368944 180.767821,149 177.5,149 Z M178,144.935484 C181.003328,144.935484 183.768786,144.292829 185.969851,141.534166 C187.624427,139.460435 188.960078,135.756075 189.838106,132.644792 C190.584321,130.000583 192,127.062459 192,123.967742 C192,119.941391 190.296379,114.180104 189.076641,110.986308 C187.812351,107.675857 185.993554,106.975111 183.82906,105.220859 C182.075855,103.799944 180.095847,102 178,102 C175.451899,102 173.075024,104.182426 171.068787,106.225645 C169.569467,107.752602 168.277149,107.760313 167.275065,110.114533 C165.839862,113.486289 164,119.568822 164,123.967742 C164,127.517839 165.547011,130.861869 166.512505,133.792529 C167.673507,137.316631 169.439631,141.243003 171.587395,143.211186 C173.479641,144.945215 175.668121,144.935484 178,144.935484 Z M147.5,99 C145.331422,99 143.266859,97.6597303 141.392779,96.6479722 C139.27494,95.5046163 137.400358,94.5646852 135.893818,92.4251675 C134.312589,90.179579 133.136799,87.4717689 132.51073,84.4832517 C132.177495,82.8925699 131,81.2223623 131,79.5 C131,76.5879102 132.507397,73.8249122 133.417035,71.3432983 C134.305454,68.9195754 136.577565,66.7642616 138.135404,65.000605 C140.881357,61.8918627 143.515064,60 147.5,60 C149.84315,60 152.064864,60.6541047 154.056067,61.8250903 C155.963214,62.9466443 157.6589,64.5423612 159.047289,66.4916723 C161.505187,69.9425842 163,74.5016766 163,79.5 C163,82.7525006 162.367045,85.8190158 161.247645,88.5152254 C160.075442,91.3386165 158.369821,93.7559432 156.299019,95.5555525 C153.79945,97.7277764 150.767821,99 147.5,99 Z M148,95.8654266 C151.003328,95.8654266 153.768786,95.3698082 155.969851,93.2423147 C157.624427,91.6430442 158.960078,88.7862245 159.838106,86.3867887 C160.584321,84.3475633 162,82.081668 162,79.6950085 C162,76.5898683 160.296379,72.1467375 159.076641,69.6836676 C157.812351,67.1306329 155.993554,66.5902138 153.82906,65.2373272 C152.075855,64.1415111 150.095847,62.7533858 148,62.7533858 C145.451899,62.7533858 143.075024,64.4364827 141.068787,66.0122224 C139.569467,67.1898188 138.277149,67.1957655 137.275065,69.0113507 C135.839862,71.6116645 134,76.3025413 134,79.6950085 C134,82.4328593 135.547011,85.0117907 136.512505,87.271929 C137.673507,89.9897327 139.439631,93.0177687 141.587395,94.5356401 C143.479641,95.8729317 145.668121,95.8654266 148,95.8654266 Z M138.5,158 C136.331422,158 134.266859,156.728462 132.392779,155.768589 C130.27494,154.683867 128.400358,153.792137 126.893818,151.762338 C125.312589,149.631908 124.136799,147.06296 123.51073,144.2277 C123.177495,142.718592 122,141.134036 122,139.5 C122,136.737248 123.507397,134.115942 124.417035,131.761591 C125.305454,129.462161 127.577565,127.417376 129.135404,125.744164 C131.881357,122.794844 134.515064,121 138.5,121 C140.84315,121 143.064864,121.620561 145.056067,122.731496 C146.963214,123.795534 148.6589,125.30942 150.047289,127.158766 C152.505187,130.432708 154,134.758001 154,139.5 C154,142.585706 153.367045,145.494964 152.247645,148.052906 C151.075442,150.731508 149.369821,153.024869 147.299019,154.732191 C144.79945,156.793019 141.767821,158 138.5,158 Z M139,155 C142.003328,155 144.768786,154.535994 146.969851,152.544202 C148.624427,151.046941 149.960078,148.372342 150.838106,146.125954 C151.584321,144.2168 153,142.095434 153,139.861007 C153,136.953927 151.296379,132.7942 150.076641,130.488236 C148.812351,128.098046 146.993554,127.592097 144.82906,126.325504 C143.075855,125.299584 141.095847,124 139,124 C136.451899,124 134.075024,125.575741 132.068787,127.050973 C130.569467,128.153457 129.277149,128.159024 128.275065,129.858803 C126.839862,132.293256 125,136.684927 125,139.861007 C125,142.424224 126.547011,144.838659 127.512505,146.954636 C128.673507,149.499085 130.439631,152.333979 132.587395,153.755033 C134.479641,155.007026 136.668121,155 139,155 Z M110.46875,180 C108.435708,180 106.50018,179.003389 104.74323,178.251056 C102.757756,177.400869 101.000335,176.701945 99.5879544,175.111022 C98.1055517,173.441225 97.003249,171.427726 96.4163092,169.205495 C96.103902,168.02268 95,166.780731 95,165.5 C95,163.3346 96.4131846,161.280063 97.2659705,159.43476 C98.0988627,157.632505 100.228967,156.029836 101.689441,154.718399 C104.263772,152.40677 106.732873,151 110.46875,151 C112.665453,151 114.74831,151.486386 116.615063,152.357118 C118.403013,153.191094 119.992719,154.377653 121.294333,155.827141 C123.598612,158.393204 125,161.783298 125,165.5 C125,167.918526 124.406604,170.198755 123.357167,172.203629 C122.258227,174.303074 120.659208,176.100573 118.71783,177.438744 C116.374485,179.053988 113.532332,180 110.46875,180 Z M111,177 C113.788805,177 116.35673,176.64077 118.400576,175.098737 C119.936968,173.939567 121.177215,171.86891 121.992527,170.129771 C122.685441,168.651716 124,167.009368 124,165.279489 C124,163.028847 122.418066,159.808413 121.285452,158.02315 C120.111469,156.172681 118.422586,155.780978 116.412698,154.80039 C114.784722,154.00613 112.946143,153 111,153 C108.633906,153 106.426808,154.219929 104.563873,155.362043 C103.171648,156.215579 101.971639,156.219889 101.041132,157.535847 C99.7084433,159.420585 98,162.820589 98,165.279489 C98,167.263916 99.4365104,169.133156 100.333041,170.771331 C101.411113,172.741227 103.051086,174.935983 105.045438,176.036155 C106.802524,177.005439 108.834683,177 111,177 Z M70.46875,150 C68.435708,150 66.5001804,149.003389 64.7432301,148.251056 C62.7577563,147.400869 61.0003355,146.701945 59.5879544,145.111022 C58.1055517,143.441225 57.003249,141.427726 56.4163092,139.205495 C56.103902,138.02268 55,136.780731 55,135.5 C55,133.3346 56.4131846,131.280063 57.2659705,129.43476 C58.0988627,127.632505 60.2289675,126.029836 61.6894412,124.718399 C64.2637725,122.40677 66.7328728,121 70.46875,121 C72.6654534,121 74.7483105,121.486386 76.6150632,122.357118 C78.4030132,123.191094 79.992719,124.377653 81.2943334,125.827141 C83.5986125,128.393204 85,131.783298 85,135.5 C85,137.918526 84.4066044,140.198755 83.357167,142.203629 C82.2582272,144.303074 80.6592076,146.100573 78.7178302,147.438744 C76.3744847,149.053988 73.532332,150 70.46875,150 Z M71,147 C73.7888048,147 76.3567296,146.64077 78.4005762,145.098737 C79.9369679,143.939567 81.1772153,141.86891 81.9925268,140.129771 C82.6854414,138.651716 84,137.009368 84,135.279489 C84,133.028847 82.4180658,129.808413 81.2854521,128.02315 C80.1114691,126.172681 78.422586,125.780978 76.4126983,124.80039 C74.7847222,124.00613 72.9461435,123 71,123 C68.6339063,123 66.4268078,124.219929 64.5638734,125.362043 C63.1716481,126.215579 61.9716387,126.219889 61.0411319,127.535847 C59.7084433,129.420585 58,132.820589 58,135.279489 C58,137.263916 59.4365104,139.133156 60.3330407,140.771331 C61.4111133,142.741227 63.0510863,144.935983 65.045438,146.036155 C66.8025235,147.005439 68.8346834,147 71,147 Z M30.46875,160 C28.435708,160 26.5001804,159.003389 24.7432301,158.251056 C22.7577563,157.400869 21.0003355,156.701945 19.5879544,155.111022 C18.1055517,153.441225 17.003249,151.427726 16.4163092,149.205495 C16.103902,148.02268 15,146.780731 15,145.5 C15,143.3346 16.4131846,141.280063 17.2659705,139.43476 C18.0988627,137.632505 20.2289675,136.029836 21.6894412,134.718399 C24.2637725,132.40677 26.7328728,131 30.46875,131 C32.6654534,131 34.7483105,131.486386 36.6150632,132.357118 C38.4030132,133.191094 39.992719,134.377653 41.2943334,135.827141 C43.5986125,138.393204 45,141.783298 45,145.5 C45,147.918526 44.4066044,150.198755 43.357167,152.203629 C42.2582272,154.303074 40.6592076,156.100573 38.7178302,157.438744 C36.3744847,159.053988 33.532332,160 30.46875,160 Z M31,157 C33.7888048,157 36.3567296,156.64077 38.4005762,155.098737 C39.9369679,153.939567 41.1772153,151.86891 41.9925268,150.129771 C42.6854414,148.651716 44,147.009368 44,145.279489 C44,143.028847 42.4180658,139.808413 41.2854521,138.02315 C40.1114691,136.172681 38.422586,135.780978 36.4126983,134.80039 C34.7847222,134.00613 32.9461435,133 31,133 C28.6339063,133 26.4268078,134.219929 24.5638734,135.362043 C23.1716481,136.215579 21.9716387,136.219889 21.0411319,137.535847 C19.7084433,139.420585 18,142.820589 18,145.279489 C18,147.263916 19.4365104,149.133156 20.3330407,150.771331 C21.4111133,152.741227 23.0510863,154.935983 25.045438,156.036155 C26.8025235,157.005439 28.8346834,157 31,157 Z M30.46875,120 C28.435708,120 26.5001804,119.003389 24.7432301,118.251056 C22.7577563,117.400869 21.0003355,116.701945 19.5879544,115.111022 C18.1055517,113.441225 17.003249,111.427726 16.4163092,109.205495 C16.103902,108.02268 15,106.780731 15,105.5 C15,103.3346 16.4131846,101.280063 17.2659705,99.4347603 C18.0988627,97.6325048 20.2289675,96.0298356 21.6894412,94.7183986 C24.2637725,92.4067697 26.7328728,91 30.46875,91 C32.6654534,91 34.7483105,91.4863856 36.6150632,92.3571185 C38.4030132,93.1910944 39.992719,94.3776532 41.2943334,95.8271409 C43.5986125,98.3932036 45,101.783298 45,105.5 C45,107.918526 44.4066044,110.198755 43.357167,112.203629 C42.2582272,114.303074 40.6592076,116.100573 38.7178302,117.438744 C36.3744847,119.053988 33.532332,120 30.46875,120 Z M31,117 C33.7888048,117 36.3567296,116.64077 38.4005762,115.098737 C39.9369679,113.939567 41.1772153,111.86891 41.9925268,110.129771 C42.6854414,108.651716 44,107.009368 44,105.279489 C44,103.028847 42.4180658,99.8084127 41.2854521,98.0231504 C40.1114691,96.1726806 38.422586,95.7809785 36.4126983,94.8003902 C34.7847222,94.0061297 32.9461435,93 31,93 C28.6339063,93 26.4268078,94.2199286 24.5638734,95.3620434 C23.1716481,96.2155793 21.9716387,96.2198895 21.0411319,97.5358471 C19.7084433,99.4205854 18,102.820589 18,105.279489 C18,107.263916 19.4365104,109.133156 20.3330407,110.771331 C21.4111133,112.741227 23.0510863,114.935983 25.045438,116.036155 C26.8025235,117.005439 28.8346834,117 31,117 Z M10.46875,80 C8.43570801,80 6.50018039,79.0033892 4.74323013,78.2510562 C2.75775631,77.4008686 1.00033548,76.7019454 -0.41204559,75.111022 C-1.89444825,73.4412254 -2.99675104,71.4277256 -3.58369078,69.2054948 C-3.89609799,68.0226802 -5,66.7807309 -5,65.5 C-5,63.3345999 -3.58681542,61.2800629 -2.73402946,59.4347603 C-1.90113727,57.6325048 0.228967489,56.0298356 1.68944117,54.7183986 C4.26377249,52.4067697 6.73287285,51 10.46875,51 C12.6654534,51 14.7483105,51.4863856 16.6150632,52.3571185 C18.4030132,53.1910944 19.992719,54.3776532 21.2943334,55.8271409 C23.5986125,58.3932036 25,61.7832979 25,65.5 C25,67.9185261 24.4066044,70.1987553 23.357167,72.2036292 C22.2582272,74.3030738 20.6592076,76.1005732 18.7178302,77.4387441 C16.3744847,79.0539875 13.532332,80 10.46875,80 Z M11,76.9999997 C13.7888048,76.9999997 16.3567296,76.6407695 18.4005762,75.098737 C19.9369679,73.9395669 21.1772153,71.86891 21.9925268,70.1297705 C22.6854414,68.6517158 24,67.0093681 24,65.2794889 C24,63.0288466 22.4180658,59.8084127 21.2854521,58.0231504 C20.1114691,56.1726806 18.422586,55.7809785 16.4126983,54.8003902 C14.7847222,54.0061297 12.9461435,53 11,53 C8.63390627,53 6.42680779,54.2199286 4.56387342,55.3620434 C3.17164807,56.2155793 1.97163872,56.2198895 1.04113193,57.5358471 C-0.291556688,59.4205854 -2,62.8205885 -2,65.2794889 C-2,67.2639157 -0.563489614,69.1331557 0.333040686,70.7713307 C1.41111334,72.7412271 3.05108625,74.9359834 5.04543801,76.0361546 C6.80252355,77.0054394 8.83468342,76.9999997 11,76.9999997 Z M50.46875,70 C48.435708,70 46.5001804,69.0033892 44.7432301,68.2510562 C42.7577563,67.4008686 41.0003355,66.7019454 39.5879544,65.111022 C38.1055517,63.4412254 37.003249,61.4277256 36.4163092,59.2054948 C36.103902,58.0226802 35,56.7807309 35,55.5 C35,53.3345999 36.4131846,51.2800629 37.2659705,49.4347603 C38.0988627,47.6325048 40.2289675,46.0298356 41.6894412,44.7183986 C44.2637725,42.4067697 46.7328728,41 50.46875,41 C52.6654534,41 54.7483105,41.4863856 56.6150632,42.3571185 C58.4030132,43.1910944 59.992719,44.3776532 61.2943334,45.8271409 C63.5986125,48.3932036 65,51.7832979 65,55.5 C65,57.9185261 64.4066044,60.1987553 63.357167,62.2036292 C62.2582272,64.3030738 60.6592076,66.1005732 58.7178302,67.4387441 C56.3744847,69.0539875 53.532332,70 50.46875,70 Z M51,66.9999997 C53.7888048,66.9999997 56.3567296,66.6407695 58.4005762,65.098737 C59.9369679,63.9395669 61.1772153,61.86891 61.9925268,60.1297705 C62.6854414,58.6517158 64,57.0093681 64,55.2794889 C64,53.0288466 62.4180658,49.8084127 61.2854521,48.0231504 C60.1114691,46.1726806 58.422586,45.7809785 56.4126983,44.8003902 C54.7847222,44.0061297 52.9461435,43 51,43 C48.6339063,43 46.4268078,44.2199286 44.5638734,45.3620434 C43.1716481,46.2155793 41.9716387,46.2198895 41.0411319,47.5358471 C39.7084433,49.4205854 38,52.8205885 38,55.2794889 C38,57.2639157 39.4365104,59.1331557 40.3330407,60.7713307 C41.4111133,62.7412271 43.0510863,64.9359834 45.045438,66.0361546 C46.8025235,67.0054394 48.8346834,66.9999997 51,66.9999997 Z M80.46875,20 C78.435708,20 76.5001804,19.0033892 74.7432301,18.2510562 C72.7577563,17.4008686 71.0003355,16.7019454 69.5879544,15.111022 C68.1055517,13.4412254 67.003249,11.4277256 66.4163092,9.20549482 C66.103902,8.0226802 65,6.78073094 65,5.5 C65,3.33459987 66.4131846,1.2800629 67.2659705,-0.565239727 C68.0988627,-2.36749518 70.2289675,-3.97016444 71.6894412,-5.28160138 C74.2637725,-7.59323028 76.7328728,-9 80.46875,-9 C82.6654534,-9 84.7483105,-8.51361445 86.6150632,-7.64288154 C88.4030132,-6.80890556 89.992719,-5.62234681 91.2943334,-4.17285908 C93.5986125,-1.6067964 95,1.78329795 95,5.5 C95,7.91852612 94.4066044,10.1987553 93.357167,12.2036292 C92.2582272,14.3030738 90.6592076,16.1005732 88.7178302,17.4387441 C86.3744847,19.0539875 83.532332,20 80.46875,20 Z M81,16.9999997 C83.7888048,16.9999997 86.3567296,16.6407695 88.4005762,15.098737 C89.9369679,13.9395669 91.1772153,11.86891 91.9925268,10.1297705 C92.6854414,8.65171578 94,7.00936806 94,5.27948893 C94,3.02884656 92.4180658,-0.191587303 91.2854521,-1.97684958 C90.1114691,-3.82731939 88.422586,-4.21902154 86.4126983,-5.19960983 C84.7847222,-5.99387031 82.9461435,-7 81,-7 C78.6339063,-7 76.4268078,-5.78007139 74.5638734,-4.63795657 C73.1716481,-3.78442074 71.9716387,-3.7801105 71.0411319,-2.46415286 C69.7084433,-0.579414565 68,2.82058851 68,5.27948893 C68,7.26391568 69.4365104,9.13315567 70.3330407,10.7713307 C71.4111133,12.7412271 73.0510863,14.9359834 75.045438,16.0361546 C76.8025235,17.0054394 78.8346834,16.9999997 81,16.9999997 Z M118.46875,50 C116.435708,50 114.50018,49.0033892 112.74323,48.2510562 C110.757756,47.4008686 109.000335,46.7019454 107.587954,45.111022 C106.105552,43.4412254 105.003249,41.4277256 104.416309,39.2054948 C104.103902,38.0226802 103,36.7807309 103,35.5 C103,33.3345999 104.413185,31.2800629 105.265971,29.4347603 C106.098863,27.6325048 108.228967,26.0298356 109.689441,24.7183986 C112.263772,22.4067697 114.732873,21 118.46875,21 C120.665453,21 122.74831,21.4863856 124.615063,22.3571185 C126.403013,23.1910944 127.992719,24.3776532 129.294333,25.8271409 C131.598612,28.3932036 133,31.7832979 133,35.5 C133,37.9185261 132.406604,40.1987553 131.357167,42.2036292 C130.258227,44.3030738 128.659208,46.1005732 126.71783,47.4387441 C124.374485,49.0539875 121.532332,50 118.46875,50 Z M119,46.9999997 C121.788805,46.9999997 124.35673,46.6407695 126.400576,45.098737 C127.936968,43.9395669 129.177215,41.86891 129.992527,40.1297705 C130.685441,38.6517158 132,37.0093681 132,35.2794889 C132,33.0288466 130.418066,29.8084127 129.285452,28.0231504 C128.111469,26.1726806 126.422586,25.7809785 124.412698,24.8003902 C122.784722,24.0061297 120.946143,23 119,23 C116.633906,23 114.426808,24.2199286 112.563873,25.3620434 C111.171648,26.2155793 109.971639,26.2198895 109.041132,27.5358471 C107.708443,29.4205854 106,32.8205885 106,35.2794889 C106,37.2639157 107.43651,39.1331557 108.333041,40.7713307 C109.411113,42.7412271 111.051086,44.9359834 113.045438,46.0361546 C114.802524,47.0054394 116.834683,46.9999997 119,46.9999997 Z M148.198561,39.4378697 C148.612345,37.3091344 150.085786,35.4923377 151.258285,33.8110917 C152.58329,31.9111688 153.698033,30.2181847 155.708742,29.0742898 C157.819137,27.873684 160.22446,27.143435 162.750984,26.9967545 C164.095764,26.9186817 165.665688,26.0243099 167.052944,26.2939651 C169.398451,26.7498854 171.336249,28.6621655 173.161467,29.9436158 C174.944106,31.1951724 176.246538,33.7629776 177.369804,35.5683146 C179.349749,38.7505256 180.370992,41.6320364 179.61063,45.5437575 C179.163536,47.8438575 178.212773,49.9223451 176.889677,51.6936331 C175.622435,53.3901483 174.013632,54.8048525 172.178666,55.8625461 C168.930183,57.7350062 164.972894,58.4885786 160.947056,57.7060349 C158.327369,57.1968194 155.978256,56.0953959 154.020219,54.5744407 C151.96982,52.9817414 150.348262,50.9289978 149.293916,48.6144928 C148.021266,45.8207623 147.575031,42.6456514 148.198561,39.4378697 Z M151.048038,40.5011103 C150.474976,43.449259 150.344011,46.2410196 151.626941,48.7326582 C152.59134,50.6056623 154.623176,52.3612611 156.376225,53.596481 C157.866101,54.646266 159.409672,56.3884811 161.32003,56.7598171 C163.805484,57.2429403 167.686974,56.2619179 169.89123,55.4478147 C172.175998,54.6039759 172.95561,52.9026779 174.451509,50.9884446 C175.663162,49.4379469 177.152065,47.7102933 177.551972,45.6529531 C178.038172,43.151668 177.144497,40.5565926 176.266033,38.3420493 C175.609531,36.6870563 175.851356,35.4175568 174.589311,34.1514 C172.781786,32.3379875 169.378121,29.8020838 166.662682,29.274256 C164.471219,28.8482787 162.111777,29.9656157 160.118465,30.5617201 C157.721519,31.2785324 154.96079,32.5410817 153.336024,34.4132218 C151.904556,36.0626351 151.492982,38.2120741 151.048038,40.5011103 Z" id="Combined-Shape" fill="#000000" opacity="0.5" mask="url(#mask-3)"></path>
                </g>
                <g id="eyes" transform="translate(20.000000, 0.000000)">
                    <g id="eye" transform="translate(112.142420, 31.005440) rotate(16.000000) translate(-112.142420, -31.005440) translate(88.019331, 6.882352)">
                        <path d="M21.8586627,47.9271299 C36.2558796,47.9271299 47.9271299,36.9058225 47.9271299,23.3103509 C47.9271299,9.71487922 38.1772696,-4.54747351e-13 23.7800527,-4.54747351e-13 C9.38283584,-4.54747351e-13 -1.8189894e-12,11.1130382 -1.8189894e-12,24.7085098 C-1.8189894e-12,38.3039815 7.46144577,47.9271299 21.8586627,47.9271299 Z" fill="#3E1EB3"></path>
                        <path d="M21.9953668,46.3708016 C35.4575477,46.3708016 46.3708016,36.0652797 46.3708016,23.3527743 C46.3708016,10.6402688 37.254152,1.55632829 23.7919711,1.55632829 C10.3297902,1.55632829 1.55632829,11.9476234 1.55632829,24.6601289 C1.55632829,37.3726344 8.53318594,46.3708016 21.9953668,46.3708016 Z" id="eye-copy" fill="#FFFFFF"></path>
                        <circle id="pupil" fill="#000000" cx="26.4049617" cy="24.7214634" r="8.17072354"></circle>
                    </g>
                    <g id="eye-copy-2" transform="translate(30.873385, 30.962625) rotate(16.000000) translate(-30.873385, -30.962625) translate(6.750297, 6.450454)">
                        <path d="M22.0339316,48.3062926 C36.4311485,48.3062926 48.1023989,37.2849852 48.1023989,23.6895136 C48.1023989,10.0940419 38.3525386,0.379162724 23.9553217,0.379162724 C9.5581048,0.379162724 0.17526896,11.4922009 0.17526896,25.0876725 C0.17526896,38.6831442 7.63671474,48.3062926 22.0339316,48.3062926 Z" id="eye" fill="#3E1EB3"></path>
                        <path d="M22.1706358,46.7499643 C35.6328167,46.7499643 46.5460706,36.4444425 46.5460706,23.731937 C46.5460706,11.0194315 37.4294209,1.93549102 23.96724,1.93549102 C10.5050591,1.93549102 1.73159725,12.3267862 1.73159725,25.0392916 C1.73159725,37.7517971 8.7084549,46.7499643 22.1706358,46.7499643 Z" id="eye-copy" fill="#FFFFFF"></path>
                        <circle id="pupil" fill="#000000" cx="26.5802307" cy="25.1006261" r="8.17072354"></circle>
                    </g>
                </g>
            </g>
        </g>
    </g>
</svg>