<?xml version="1.0" encoding="UTF-8"?>
<svg width="171px" height="370px" viewBox="0 0 171 370" version="1.1" xmlns="http://www.w3.org/2000/svg" xmlns:xlink="http://www.w3.org/1999/xlink">
    <!-- Generator: Sketch 51.2 (57519) - http://www.bohemiancoding.com/sketch -->
    <title>p</title>
    <desc>Created with Sketch.</desc>
    <defs>
        <filter x="-0.6%" y="-0.3%" width="101.2%" height="101.1%" filterUnits="objectBoundingBox" id="filter-1">
            <feOffset dx="0" dy="2" in="SourceAlpha" result="shadowOffsetOuter1"></feOffset>
            <feColorMatrix values="0 0 0 0 0   0 0 0 0 0   0 0 0 0 0  0 0 0 0.5 0" type="matrix" in="shadowOffsetOuter1" result="shadowMatrixOuter1"></feColorMatrix>
            <feMerge>
                <feMergeNode in="shadowMatrixOuter1"></feMergeNode>
                <feMergeNode in="SourceGraphic"></feMergeNode>
            </feMerge>
        </filter>
    </defs>
    <g id="Symbols" stroke="none" stroke-width="1" fill="none" fill-rule="evenodd">
        <g id="letter/p" transform="translate(-14.000000, -2.000000)">
            <g id="p" filter="url(#filter-1)" transform="translate(14.000000, 2.000000)">
                <path d="M20,31 C-0.666666667,59.6666667 -5,74 7,74 C1,88 1.62153624e-12,101 11,107 C1,115 5,137 11,137 C1,156 7,173 16,179 C6,191 7.33333333,204.666667 20,220 C11.3333333,234.666667 10,246 16,254 C10,270 11.3333333,284.666667 20,298 C10.7959184,318.666667 9.46258503,331.666667 16,337 C7,347 13,366 20,366 C47.3333333,249.333333 47.3333333,137.666667 20,31 Z" id="spine" fill="#4AB980"></path>
                <g id="teeth" transform="translate(61.000000, 42.000000)" fill="#FFFFFF">
                    <circle id="tooth" cx="60.5" cy="16.5" r="5.5"></circle>
                    <circle id="tooth-copy-2" transform="translate(49.500000, 9.500000) rotate(25.000000) translate(-49.500000, -9.500000) " cx="49.5" cy="9.5" r="5.5"></circle>
                    <circle id="tooth-copy-3" transform="translate(36.500000, 7.500000) rotate(25.000000) translate(-36.500000, -7.500000) " cx="36.5" cy="7.5" r="5.5"></circle>
                    <circle id="tooth-copy-4" transform="translate(24.500000, 11.500000) rotate(25.000000) translate(-24.500000, -11.500000) " cx="24.5" cy="11.5" r="5.5"></circle>
                    <circle id="tooth-copy-9" transform="translate(21.500000, 63.500000) rotate(-152.000000) translate(-21.500000, -63.500000) " cx="21.5" cy="63.5" r="5.5"></circle>
                    <circle id="tooth-copy-10" transform="translate(33.500000, 64.500000) rotate(-159.000000) translate(-33.500000, -64.500000) " cx="33.5" cy="64.5" r="5.5"></circle>
                    <circle id="tooth-copy-11" transform="translate(46.500000, 64.500000) rotate(-165.000000) translate(-46.500000, -64.500000) " cx="46.5" cy="64.5" r="5.5"></circle>
                    <circle id="tooth-copy-12" transform="translate(58.500000, 62.500000) rotate(-184.000000) translate(-58.500000, -62.500000) " cx="58.5" cy="62.5" r="5.5"></circle>
                    <circle id="tooth-copy-13" transform="translate(65.500000, 50.500000) rotate(-210.000000) translate(-65.500000, -50.500000) " cx="65.5" cy="50.5" r="5.5"></circle>
                    <circle id="tooth-copy-14" transform="translate(68.500000, 39.500000) rotate(-240.000000) translate(-68.500000, -39.500000) " cx="68.5" cy="39.5" r="5.5"></circle>
                    <circle id="tooth-copy-15" transform="translate(66.500000, 28.500000) rotate(-240.000000) translate(-66.500000, -28.500000) " cx="66.5" cy="28.5" r="5.5"></circle>
                </g>
                <path d="M18,368 C23.3333333,153.333333 23.3333333,41.6666667 18,33 C10,20 56,-7 63,13 C86,4 171,5 171,63 C171,121 134.069152,150 94.0345758,150 C54,150 66.8403866,103.013462 63,129 C51.3230987,208.013462 85,352 63,360 C48.3333333,365.333333 33.3333333,368 18,368 Z M95.489749,111 C115.101519,111 131,97.0888292 131,79.9285304 C131,62.7682316 115.101519,48.8570608 95.489749,48.8570608 C75.877979,48.8570608 72.1861469,62.7682316 72.1861469,79.9285304 C72.1861469,97.0888292 75.877979,111 95.489749,111 Z" id="Combined-Shape" fill="#8C43D1"></path>
                <g id="Group" transform="translate(123.000000, 0.000000)">
                    <ellipse id="Oval-2" fill="#FFFFFF" cx="15" cy="17" rx="15" ry="17"></ellipse>
                    <circle id="Oval-3" fill="#000000" cx="17" cy="24" r="9"></circle>
                    <circle id="Oval-4" fill="#FFFFFF" cx="14" cy="22" r="3"></circle>
                </g>
                <g id="Group-Copy" transform="translate(68.000000, 0.000000)">
                    <ellipse id="Oval-2" fill="#FFFFFF" cx="15" cy="17" rx="15" ry="17"></ellipse>
                    <circle id="Oval-3" fill="#000000" cx="17" cy="24" r="9"></circle>
                    <circle id="Oval-4" fill="#FFFFFF" cx="14" cy="22" r="3"></circle>
                </g>
                <path d="M126,140 C129.828488,144.041181 121,158 116,163 C118,157.638792 118,153.805459 116,151.5 C112,167.833333 107.333333,176 102,176 C107,163 104,153.340931 102.830857,153.340931 C104,157 100.808692,166.573923 100,169 C100,155 101,148 96,144 C91,140 112.168891,126 126,140 Z" id="Path-70" fill="#4AB980"></path>
            </g>
        </g>
    </g>
</svg>