<?xml version="1.0" encoding="UTF-8"?>
<svg width="150px" height="206px" viewBox="0 0 150 206" version="1.1" xmlns="http://www.w3.org/2000/svg" xmlns:xlink="http://www.w3.org/1999/xlink">
    <!-- Generator: Sketch 51.1 (57501) - http://www.bohemiancoding.com/sketch -->
    <title>XMLID_828_</title>
    <desc>Created with Sketch.</desc>
    <defs></defs>
    <g id="Page-1" stroke="none" stroke-width="1" fill="none" fill-rule="evenodd">
        <g id="XMLID_613_" transform="translate(-197.000000, -578.000000)" fill-rule="nonzero">
            <g id="XMLID_828_" transform="translate(197.000000, 578.000000)">
                <g id="XMLID_845_" transform="translate(30.000000, 117.000000)" fill="#986B29">
                    <path d="M49,29.4 L11.7,9.1 C8,7.1 4.4,4.1 0.8,0.2 L38.1,20.5 C41.7,24.4 45.3,27.4 49,29.4 Z" id="XMLID_846_"></path>
                </g>
                <path d="M114.1,57.3 C112.3,53.6 109.8,50.7 106.6,48.8 C106.4,48.7 106.3,48.6 106.1,48.5 L68.8,28.2 C69,28.3 69.1,28.4 69.3,28.5 C72.5,30.4 75,33.3 76.8,37 C80,45 81.6,53.4 81.6,62.3 C81.6,66.4 81.3,70.9 80.7,75.5 C79.8,80.2 78.4,84.8 76.5,89.2 C74.7,93.3 72.2,96.8 69,99.8 C65.6,103 61.5,104.9 56.6,105.6 C52.4,106.2 48.7,105.7 45.7,104 L83,124.3 C86,125.9 89.6,126.4 93.9,125.9 C98.8,125.2 102.9,123.3 106.3,120.1 C109.6,117.1 112.1,113.6 113.8,109.5 C115.7,105.1 117.1,100.5 118,95.8 C118.6,91.1 118.9,86.7 118.9,82.6 C119,73.7 117.3,65.3 114.1,57.3 Z" id="XMLID_589_" fill="#986B29"></path>
                <g id="XMLID_839_" transform="translate(29.000000, 26.000000)" fill="#000000">
                    <polygon id="XMLID_840_" points="37.4 20.4 0.2 0.1 0.6 0 37.9 20.3"></polygon>
                </g>
                <path d="M91.2,4.5 C84.3,0.7 75.6,-0.5 65,0.8 C47.8,3.7 36,12.1 29.6,26 L66.9,46.3 C73.3,32.4 85.1,24 102.3,21.1 C112.8,19.8 121.6,21 128.5,24.8 L91.2,4.5 Z" id="XMLID_588_" fill="#E0A810"></path>
                <g id="XMLID_835_" transform="translate(0.000000, 12.000000)" fill="#B07E09">
                    <polygon id="XMLID_836_" points="37.9 193.8 0.6 173.5 0.9 0.7 38.2 20.9"></polygon>
                </g>
                <g id="XMLID_831_" transform="translate(37.000000, 20.000000)" fill="#FFF197">
                    <path d="M102.3,14.9 C109.5,26.3 113,40.7 112.8,58.2 C112.9,75.5 109.4,90.9 102.1,104.5 C94.6,118.4 82,126.8 64.3,129.6 C58.1,130.5 52.4,130.1 47.1,128.4 C41.7,126.8 36.3,123.1 31,117.3 L30.6,117.4 L30.5,181.5 L0.9,185.7 L1.2,12.8 L29.5,8.8 L29.5,26.2 L29.9,26.1 C36.3,12.2 48.1,3.8 65.3,0.9 C82.5,-1 94.9,3.6 102.3,14.9 Z M81,75.9 C81.6,71.2 81.9,66.8 81.9,62.7 C81.9,53.8 80.3,45.4 77.1,37.4 C75.3,33.7 72.8,30.8 69.6,28.9 C66.4,27 62.3,26.4 57.5,27 C48.1,28.6 41.3,34 37.1,43 C33,51.7 30.9,60.6 30.9,69.9 C30.7,79.1 32.7,87.6 36.8,95.3 C38.9,98.8 41.5,101.6 44.7,103.7 C47.9,106 52,106.7 56.9,106 C61.8,105.3 65.9,103.4 69.3,100.2 C72.6,97.2 75.1,93.7 76.8,89.6 C78.7,85.2 80.1,80.6 81,75.9 Z" id="XMLID_832_"></path>
                </g>
                <g id="XMLID_829_" transform="translate(0.000000, 8.000000)" fill="#E0A810">
                    <polygon id="XMLID_830_" points="38.2 24.9 0.9 4.7 29.2 0.7 66.5 21"></polygon>
                </g>
            </g>
        </g>
    </g>
</svg>