<?xml version="1.0" encoding="UTF-8"?>
<svg width="167px" height="382px" viewBox="0 0 167 382" version="1.1" xmlns="http://www.w3.org/2000/svg" xmlns:xlink="http://www.w3.org/1999/xlink">
    <!-- Generator: Sketch 51.2 (57519) - http://www.bohemiancoding.com/sketch -->
    <title>q</title>
    <desc>Created with Sketch.</desc>
    <defs>
        <filter x="-0.6%" y="-0.3%" width="101.2%" height="101.1%" filterUnits="objectBoundingBox" id="filter-1">
            <feOffset dx="0" dy="2" in="SourceAlpha" result="shadowOffsetOuter1"></feOffset>
            <feColorMatrix values="0 0 0 0 0   0 0 0 0 0   0 0 0 0 0  0 0 0 0.5 0" type="matrix" in="shadowOffsetOuter1" result="shadowMatrixOuter1"></feColorMatrix>
            <feMerge>
                <feMergeNode in="shadowMatrixOuter1"></feMergeNode>
                <feMergeNode in="SourceGraphic"></feMergeNode>
            </feMerge>
        </filter>
    </defs>
    <g id="Symbols" stroke="none" stroke-width="1" fill="none" fill-rule="evenodd">
        <g id="letter/q" transform="translate(-33.000000, 0.000000)">
            <g id="q" filter="url(#filter-1)" transform="translate(33.000000, 0.000000)">
                <ellipse id="Oval-2" fill="#FFFFFF" cx="62" cy="86" rx="29" ry="38"></ellipse>
                <circle id="Oval-3" fill="#000000" cx="62.5" cy="90.5" r="14.5"></circle>
                <circle id="Oval-3-Copy" fill="#FFFFFF" cx="55" cy="84" r="5"></circle>
                <g id="Group" transform="translate(138.000000, 15.000000)" fill="#8C43D1">
                    <polygon id="spike" points="26 0 29 9 21 9"></polygon>
                    <polygon id="spike-copy" transform="translate(19.000000, 14.500000) rotate(7.000000) translate(-19.000000, -14.500000) " points="20 10 23 19 15 19"></polygon>
                    <polygon id="spike-copy-2" transform="translate(14.000000, 23.500000) rotate(-4.000000) translate(-14.000000, -23.500000) " points="15 19 18 28 10 28"></polygon>
                    <polygon id="spike-copy-3" transform="translate(9.000000, 33.500000) rotate(-4.000000) translate(-9.000000, -33.500000) " points="10 29 13 38 5 38"></polygon>
                    <polygon id="spike-copy-4" transform="translate(5.000000, 41.500000) rotate(-4.000000) translate(-5.000000, -41.500000) " points="6 37 9 46 1 46"></polygon>
                </g>
                <g id="Group-Copy" transform="translate(134.558107, 88.913456) rotate(-16.000000) translate(-134.558107, -88.913456) translate(119.058107, 65.413456)" fill="#8C43D1">
                    <polygon id="spike" points="28 0 31 9 23 9"></polygon>
                    <polygon id="spike-copy" transform="translate(21.000000, 14.500000) rotate(7.000000) translate(-21.000000, -14.500000) " points="22 10 25 19 17 19"></polygon>
                    <polygon id="spike-copy-2" transform="translate(16.000000, 23.500000) rotate(-4.000000) translate(-16.000000, -23.500000) " points="17 19 20 28 12 28"></polygon>
                    <polygon id="spike-copy-3" transform="translate(10.038738, 33.224363) rotate(-4.000000) translate(-10.038738, -33.224363) " points="11.0387383 28.7243626 14.0387383 37.7243626 6.0387383 37.7243626"></polygon>
                    <polygon id="spike-copy-4" transform="translate(4.801839, 41.909987) rotate(-4.000000) translate(-4.801839, -41.909987) " points="5.80183925 37.409987 8.80183925 46.409987 0.801839252 46.409987"></polygon>
                </g>
                <g id="Group-Copy-2" transform="translate(122.558107, 143.913456) rotate(-20.000000) translate(-122.558107, -143.913456) translate(107.058107, 120.413456)" fill="#8C43D1">
                    <polygon id="spike" points="28 0 31 9 23 9"></polygon>
                    <polygon id="spike-copy" transform="translate(21.000000, 14.500000) rotate(7.000000) translate(-21.000000, -14.500000) " points="22 10 25 19 17 19"></polygon>
                    <polygon id="spike-copy-2" transform="translate(16.000000, 23.500000) rotate(-4.000000) translate(-16.000000, -23.500000) " points="17 19 20 28 12 28"></polygon>
                    <polygon id="spike-copy-3" transform="translate(10.038738, 33.224363) rotate(-4.000000) translate(-10.038738, -33.224363) " points="11.0387383 28.7243626 14.0387383 37.7243626 6.0387383 37.7243626"></polygon>
                    <polygon id="spike-copy-4" transform="translate(4.801839, 41.909987) rotate(-4.000000) translate(-4.801839, -41.909987) " points="5.80183925 37.409987 8.80183925 46.409987 0.801839252 46.409987"></polygon>
                </g>
                <g id="Group-Copy-3" transform="translate(116.558107, 198.913456) rotate(-25.000000) translate(-116.558107, -198.913456) translate(101.058107, 175.413456)" fill="#8C43D1">
                    <polygon id="spike" points="28 0 31 9 23 9"></polygon>
                    <polygon id="spike-copy" transform="translate(21.000000, 14.500000) rotate(7.000000) translate(-21.000000, -14.500000) " points="22 10 25 19 17 19"></polygon>
                    <polygon id="spike-copy-2" transform="translate(16.000000, 23.500000) rotate(-4.000000) translate(-16.000000, -23.500000) " points="17 19 20 28 12 28"></polygon>
                    <polygon id="spike-copy-3" transform="translate(10.038738, 33.224363) rotate(-4.000000) translate(-10.038738, -33.224363) " points="11.0387383 28.7243626 14.0387383 37.7243626 6.0387383 37.7243626"></polygon>
                    <polygon id="spike-copy-4" transform="translate(4.801839, 41.909987) rotate(-4.000000) translate(-4.801839, -41.909987) " points="5.80183925 37.409987 8.80183925 46.409987 0.801839252 46.409987"></polygon>
                </g>
                <g id="Group-Copy-4" transform="translate(107.558107, 253.913456) rotate(-20.000000) translate(-107.558107, -253.913456) translate(92.058107, 230.413456)" fill="#8C43D1">
                    <polygon id="spike" points="28 0 31 9 23 9"></polygon>
                    <polygon id="spike-copy" transform="translate(21.000000, 14.500000) rotate(7.000000) translate(-21.000000, -14.500000) " points="22 10 25 19 17 19"></polygon>
                    <polygon id="spike-copy-2" transform="translate(16.000000, 23.500000) rotate(-4.000000) translate(-16.000000, -23.500000) " points="17 19 20 28 12 28"></polygon>
                    <polygon id="spike-copy-3" transform="translate(10.038738, 33.224363) rotate(-4.000000) translate(-10.038738, -33.224363) " points="11.0387383 28.7243626 14.0387383 37.7243626 6.0387383 37.7243626"></polygon>
                    <polygon id="spike-copy-4" transform="translate(4.801839, 41.909987) rotate(-4.000000) translate(-4.801839, -41.909987) " points="5.80183925 37.409987 8.80183925 46.409987 0.801839252 46.409987"></polygon>
                </g>
                <g id="Group-Copy-5" transform="translate(102.293591, 302.772441) rotate(-32.000000) translate(-102.293591, -302.772441) translate(89.293591, 283.772441)" fill="#8C43D1">
                    <polygon id="spike" points="23 0 26 9 18 9"></polygon>
                    <polygon id="spike-copy" transform="translate(16.000000, 14.500000) rotate(7.000000) translate(-16.000000, -14.500000) " points="17 10 20 19 12 19"></polygon>
                    <polygon id="spike-copy-2" transform="translate(10.151952, 22.970081) rotate(-4.000000) translate(-10.151952, -22.970081) " points="11.1519519 18.4700807 14.1519519 27.4700807 6.1519519 27.4700807"></polygon>
                    <polygon id="spike-copy-3" transform="translate(5.038738, 33.224363) rotate(-4.000000) translate(-5.038738, -33.224363) " points="6.0387383 28.7243626 9.0387383 37.7243626 1.0387383 37.7243626"></polygon>
                </g>
                <path d="M23,136.380618 C17,151.559457 21.3333333,161.765918 36,167 C30.8823529,152.082865 36,143.446629 40,138.735955 C35.3333333,133.501873 29.6666667,132.71676 23,136.380618 Z" id="Path-92-Copy" fill="#DFC7C7" transform="translate(30.193548, 150.558824) rotate(5.000000) translate(-30.193548, -150.558824) "></path>
                <polygon id="spike-copy-4" fill="#8C43D1" transform="translate(108.664418, 328.971519) rotate(-75.000000) translate(-108.664418, -328.971519) " points="109.664418 324.471519 112.664418 333.471519 104.664418 333.471519"></polygon>
                <polygon id="spike-copy-5" fill="#8C43D1" points="119.914418 328.471519 123.664418 337.471519 113.664418 337.471519"></polygon>
                <polygon id="spike-copy-6" fill="#8C43D1" points="128.914418 328.471519 132.664418 337.471519 122.664418 337.471519"></polygon>
                <polygon id="spike-copy-7" fill="#8C43D1" points="137.914418 329.471519 141.664418 338.471519 131.664418 338.471519"></polygon>
                <polygon id="spike-copy-8" fill="#8C43D1" transform="translate(146.664418, 334.971519) rotate(12.000000) translate(-146.664418, -334.971519) " points="147.914418 330.471519 151.664418 339.471519 141.664418 339.471519"></polygon>
                <path d="M110,32 C118,24.6666667 122,16.3333333 122,7 C122,-7 180,4 162,21 C144,38 118,137 118,186 C118,235 77,335 122,335 C167,335 155,348 155,369 C155,390 86,378 69,355 C52,332 86,225 86,152 C62,168 -20,136 5,60 C21.6666667,9.33333333 56.6666667,1.687539e-13 110,32 Z M64.5,114 C80.2401154,114 83,102.135546 83,87.5 C83,72.8644541 80.2401154,61 64.5,61 C48.7598846,61 36,72.8644541 36,87.5 C36,102.135546 48.7598846,114 64.5,114 Z" id="Combined-Shape" fill="#BA4747"></path>
                <path d="M42,146.380618 C36,161.559457 40.3333333,171.765918 55,177 C49.8823529,162.082865 55,153.446629 59,148.735955 C54.3333333,143.501873 48.6666667,142.71676 42,146.380618 Z" id="Path-92" fill="#FFFFFF" transform="translate(49.193548, 160.558824) rotate(-7.000000) translate(-49.193548, -160.558824) "></path>
                <path d="M40,50 C37.3333333,54.6666667 37.3333333,59 40,63 C44,69 85,68 90,56.5 C95,45 95,43 90,34 C78.6666667,49 62,54.3333333 40,50 Z" id="Path-93" fill="#000000"></path>
            </g>
        </g>
    </g>
</svg>