<?xml version="1.0" encoding="UTF-8"?>
<svg width="150px" height="198px" viewBox="0 0 150 198" version="1.1" xmlns="http://www.w3.org/2000/svg" xmlns:xlink="http://www.w3.org/1999/xlink">
    <!-- Generator: Sketch 51.1 (57501) - http://www.bohemiancoding.com/sketch -->
    <title>XMLID_797_</title>
    <desc>Created with Sketch.</desc>
    <defs></defs>
    <g id="Page-1" stroke="none" stroke-width="1" fill="none" fill-rule="evenodd">
        <g id="XMLID_613_" transform="translate(-369.000000, -578.000000)" fill-rule="nonzero">
            <g id="XMLID_797_" transform="translate(369.000000, 578.000000)">
                <g id="XMLID_826_" transform="translate(82.000000, 113.000000)" fill="#B07E09">
                    <polygon id="XMLID_827_" points="37.9 84.6 0.7 64.4 0.8 0.2 38.1 20.5"></polygon>
                </g>
                <g id="XMLID_818_" transform="translate(83.000000, 21.000000)" fill="#000000">
                    <polygon id="XMLID_819_" points="38.1 21 0.9 0.8 1.3 0.7 38.6 21"></polygon>
                </g>
                <g id="XMLID_816_" transform="translate(84.000000, 4.000000)" fill="#B07E09">
                    <polygon id="XMLID_817_" points="37.6 38 0.3 17.7 0.3 0.3 37.6 20.6"></polygon>
                </g>
                <g id="XMLID_814_" transform="translate(84.000000, 0.000000)" fill="#E0A810">
                    <polygon id="XMLID_815_" points="37.6 24.6 0.3 4.3 28.6 0.3 65.9 20.6"></polygon>
                </g>
                <path d="M114,60.7 C111.8,57 109.1,54.2 105.8,52.3 L68.6,32 C71.8,33.9 74.6,36.7 76.8,40.4 C80.8,47.9 82.7,56.3 82.7,65.6 C82.7,69.9 82.3,74.4 81.6,79.1 C80.7,83.8 79.2,88.3 77.2,92.6 C75.3,96.7 72.6,100.2 69.2,103.3 C65.9,106.5 61.7,108.4 56.6,109.1 C52.5,109.7 49,109.2 46.1,107.6 L83.4,127.9 C86.2,129.4 89.7,129.9 93.9,129.4 C99.1,128.7 103.3,126.7 106.5,123.6 C109.9,120.6 112.5,117 114.5,112.9 C116.6,108.6 118.1,104.1 118.9,99.4 C119.6,94.7 120,90.2 120,85.9 C119.9,76.6 118,68.2 114,60.7 Z" id="XMLID_583_" fill="#986B29"></path>
                <g id="XMLID_810_" transform="translate(68.000000, 31.000000)" fill="#000000">
                    <path d="M0.4,0.9 L37.7,21.2 C37.8,21.2 37.8,21.3 37.9,21.3 L0.6,1 C0.5,1 0.5,0.9 0.4,0.9 Z" id="XMLID_811_"></path>
                </g>
                <g id="XMLID_808_" transform="translate(11.000000, 120.000000)" fill="#B07E09">
                    <path d="M49.2,31.5 L12,11.2 C7.4,8.7 3.6,5.1 0.7,0.3 L38,20.6 C40.9,25.4 44.6,29 49.2,31.5 Z" id="XMLID_809_"></path>
                </g>
                <g id="XMLID_806_" transform="translate(49.000000, 5.000000)" fill="#E0A810">
                    <path d="M23.2,4.7 L60.5,25 C54.4,21.7 46.7,20.6 37.5,21.7 L0.2,1.4 C9.4,0.3 17.1,1.4 23.2,4.7 Z" id="XMLID_807_"></path>
                </g>
                <g id="XMLID_804_" transform="translate(0.000000, 77.000000)" fill="#B07E09">
                    <path d="M48.9,63.6 L11.6,43.3 C4.1,31.8 0.5,17.4 0.6,1.13686838e-13 L37.9,20.3 C37.8,37.7 41.4,52.1 48.9,63.6 Z" id="XMLID_805_"></path>
                </g>
                <g id="XMLID_802_" transform="translate(0.000000, 6.000000)" fill="#B07E09">
                    <path d="M38,91.3 L0.7,71 C0.6,53.5 4.3,38.1 11.8,24.6 C19.2,11.2 31.6,3.1 49.2,0.3 L86.5,20.6 C69,23.4 56.5,31.5 49.1,44.9 C41.6,58.4 37.8,73.9 38,91.3 Z" id="XMLID_803_"></path>
                </g>
                <g id="XMLID_798_" transform="translate(37.000000, 20.000000)" fill="#FFF197">
                    <path d="M84.6,4.6 L112.9,0.6 L112.6,173.5 L83,177.7 L83.1,113.6 L82.7,113.7 C77.7,120.9 72.4,126.1 67,129.2 C61.5,132.4 55.6,134.4 49.3,135.3 C31.8,137.4 19.3,132.6 12,120.8 C4.5,109.3 0.9,94.9 1,77.5 C0.9,60 4.6,44.6 12.1,31.1 C19.5,17.7 31.9,9.6 49.5,6.8 C66,4.8 77.5,9.9 84.1,22.2 L84.5,22.1 L84.6,4.6 Z M81.8,79.3 C82.5,74.6 82.9,70.1 82.9,65.8 C82.9,56.6 80.9,48.2 77,40.6 C74.8,36.9 72.1,34.1 68.8,32.2 C65.4,30.3 61.3,29.7 56.4,30.4 C47.1,32 40.6,37.3 36.9,46.2 C35.1,50.3 33.9,54.6 33.1,59.4 C32.2,64.1 31.8,68.7 31.7,72.9 C31.5,81.8 33.3,90.3 37,98.4 C38.9,101.9 41.5,104.8 44.7,106.9 C47.8,109.2 51.8,110 56.6,109.3 C61.8,108.6 66,106.6 69.2,103.5 C72.6,100.5 75.2,96.9 77.2,92.8 C79.4,88.6 80.9,84.1 81.8,79.3 Z" id="XMLID_799_"></path>
                </g>
            </g>
        </g>
    </g>
</svg>