<?xml version="1.0" encoding="UTF-8"?>
<svg width="163px" height="218px" viewBox="0 0 163 218" version="1.1" xmlns="http://www.w3.org/2000/svg" xmlns:xlink="http://www.w3.org/1999/xlink">
    <!-- Generator: Sketch 51.2 (57519) - http://www.bohemiancoding.com/sketch -->
    <title>r</title>
    <desc>Created with Sketch.</desc>
    <defs>
        <filter x="-0.6%" y="-1.4%" width="101.2%" height="102.8%" filterUnits="objectBoundingBox" id="filter-1">
            <feOffset dx="0" dy="2" in="SourceAlpha" result="shadowOffsetOuter1"></feOffset>
            <feColorMatrix values="0 0 0 0 0   0 0 0 0 0   0 0 0 0 0  0 0 0 0.5 0" type="matrix" in="shadowOffsetOuter1" result="shadowMatrixOuter1"></feColorMatrix>
            <feMerge>
                <feMergeNode in="shadowMatrixOuter1"></feMergeNode>
                <feMergeNode in="SourceGraphic"></feMergeNode>
            </feMerge>
        </filter>
        <path d="M55,93 C68.3333333,151 68.3333333,183.333333 55,190 C35,200 31,210 9,164 C-5.66666667,133.333333 -2.33333333,86 19,22 C34.3333333,-1.33333333 46.3333333,-4.66666667 55,12 C76,-7 144,-3 144,22 C144,47 129.981481,64 101,64 C81.6790123,64 66.345679,59.6666667 55,51 L55,93 Z" id="path-2"></path>
    </defs>
    <g id="Symbols" stroke="none" stroke-width="1" fill="none" fill-rule="evenodd">
        <g id="letter/r" transform="translate(-36.000000, -6.000000)">
            <g id="r" filter="url(#filter-1)" transform="translate(28.000000, 8.000000)">
                <g id="spikes" transform="translate(40.000000, 118.000000) rotate(-85.000000) translate(-40.000000, -118.000000) translate(-40.000000, 85.000000)" fill="#F05200">
                    <path d="M160,32 C150.366173,18.6312978 133.699506,7.96463118 110,0 C126.666667,21.3333333 126.666667,32 110,32 L160,32 Z" id="fin"></path>
                    <path d="M120,34 C110.366173,20.6312978 93.6995064,9.96463118 70,2 C86.6666667,23.3333333 86.6666667,34 70,34 L120,34 Z" id="fin-copy"></path>
                    <path d="M80,40 C70.366173,26.6312978 53.6995064,15.9646312 30,8 C46.6666667,29.3333333 46.6666667,40 30,40 L80,40 Z" id="fin-copy-2"></path>
                    <path d="M50,45.5863907 C40.366173,32.3904829 23.6995064,21.861686 0,14 C16.6666667,35.0575938 26.0603108,52.3909271 28.1809325,66 L50,45.5863907 Z" id="fin-copy-3"></path>
                </g>
                <g id="body" transform="translate(27.000000, 15.000000)">
                    <mask id="mask-3" fill="white">
                        <use xlink:href="#path-2"></use>
                    </mask>
                    <use id="r-body" fill="#FFA513" xlink:href="#path-2"></use>
                    <ellipse id="spot" fill="#F05200" mask="url(#mask-3)" cx="38" cy="114.5" rx="9" ry="9.5"></ellipse>
                    <ellipse id="spot-copy-4" fill="#F05200" mask="url(#mask-3)" cx="34" cy="0.5" rx="13" ry="13.5"></ellipse>
                    <ellipse id="spot-copy" fill="#F05200" mask="url(#mask-3)" cx="56" cy="64.5" rx="9" ry="9.5"></ellipse>
                    <ellipse id="spot-copy-2" fill="#F05200" mask="url(#mask-3)" cx="26" cy="184.5" rx="9" ry="9.5"></ellipse>
                    <ellipse id="spot-copy-3" fill="#F05200" mask="url(#mask-3)" cx="52.5" cy="161.5" rx="15.5" ry="16.5"></ellipse>
                </g>
                <g id="teeth" transform="translate(126.000000, 62.000000)" fill="#FFFFFF">
                    <path d="M10,22 C13.3137085,22 16,18.9170766 16,15.1140979 C16,11.3111192 11.050332,2 7.73662348,2 C4.42291498,2 4,11.3111192 4,15.1140979 C4,18.9170766 6.6862915,22 10,22 Z" id="tooth-copy-10" transform="translate(10.000000, 12.000000) rotate(-159.000000) translate(-10.000000, -12.000000) "></path>
                    <path d="M26,22 C29.3137085,22 32,18.9499841 32,15.1875989 C32,11.4252137 27.6790619,2 24.3653534,2 C21.0516449,2 20,11.4252137 20,15.1875989 C20,18.9499841 22.6862915,22 26,22 Z" id="tooth-copy-11" transform="translate(26.000000, 12.000000) rotate(-165.000000) translate(-26.000000, -12.000000) "></path>
                </g>
                <g id="eye" transform="translate(76.000000, 0.000000)">
                    <ellipse id="Oval" fill="#FFFFFF" cx="26" cy="38.2909091" rx="26" ry="27.1480519"></ellipse>
                    <ellipse fill="#000000" cx="30" cy="46.2857143" rx="15" ry="17.1428571"></ellipse>
                    <path d="M6,2.57142857 C23.3333333,-3.14285714 39.6666667,1.71428571 55,17.1428571" id="brow" stroke="#000000" stroke-width="4" stroke-linecap="round"></path>
                </g>
            </g>
        </g>
    </g>
</svg>