<?xml version="1.0" encoding="UTF-8"?>
<svg width="215px" height="231px" viewBox="0 0 215 231" version="1.1" xmlns="http://www.w3.org/2000/svg" xmlns:xlink="http://www.w3.org/1999/xlink">
    <!-- Generator: Sketch 51.2 (57519) - http://www.bohemiancoding.com/sketch -->
    <title>s</title>
    <desc>Created with Sketch.</desc>
    <defs>
        <filter x="-0.5%" y="-0.4%" width="100.9%" height="101.5%" filterUnits="objectBoundingBox" id="filter-1">
            <feOffset dx="0" dy="2" in="SourceAlpha" result="shadowOffsetOuter1"></feOffset>
            <feColorMatrix values="0 0 0 0 0   0 0 0 0 0   0 0 0 0 0  0 0 0 0.5 0" type="matrix" in="shadowOffsetOuter1" result="shadowMatrixOuter1"></feColorMatrix>
            <feMerge>
                <feMergeNode in="shadowMatrixOuter1"></feMergeNode>
                <feMergeNode in="SourceGraphic"></feMergeNode>
            </feMerge>
        </filter>
        <path d="M159.813998,58.1277869 C180.679764,70.9351279 185.026799,68.3736597 191.112647,70.0813052 C222.411295,72.6427734 217.194854,40.1975094 207.631378,31.659282 C199.687872,26.4585362 142.425861,-8.4703867 85.9144121,2.62930889 C29.4029638,13.7290045 35.488812,70.9351279 72.0039018,98.2574555 C108.518991,125.579783 137.91051,134.970027 124,164 C115.5,178 91.1308535,207.05502 38.9664396,172.048288 C19.3853747,158.907738 6.54197952,139.843132 0.344285682,147.312754 C3,175 3,185 24.1865224,204.131475 C75,231 138,213 149,195 C162.422219,180 176,152.048288 162.422219,118.749201 C148.844438,85.4501145 105.5,82.8886463 87.6532259,58.1277869 C85.9144121,18.8519409 125.907129,38.4898639 159.813998,58.1277869 Z" id="path-2"></path>
    </defs>
    <g id="Symbols" stroke="none" stroke-width="1" fill="none" fill-rule="evenodd">
        <g id="letter/s" transform="translate(-10.000000, -8.000000)">
            <g id="s" filter="url(#filter-1)" transform="translate(10.000000, 8.000000)">
                <path d="M154,17 C154.666667,10.3333333 151.666667,6.66666667 145,6 C135,5 135,11 130,6 C125,1 122,2.57571742e-14 115,1 C108,2 110,6 103,5 C96,4 97,1.03250741e-13 88,3 C79,6 82,8 78,8 C74,8 73,4 64,10.0555556 C55,16.1111111 63,17 58,18 C53,19 52,19.5555556 46,28 C42,33.6296296 42.3333333,40.2962963 47,48 C71,18 93.6666667,6.33333333 115,13 C136.333333,19.6666667 149.333333,21 154,17 Z" id="Path-3" fill="#AB2D2D"></path>
                <path d="M141.535763,182.734609 C141.774553,175.740832 138.560615,171.910609 131.893949,171.243943 C121.893949,170.243943 125.517739,181.35499 120.517739,176.35499 C115.517739,171.35499 112.029386,177.1211 105.029386,178.1211 C98.0293864,179.1211 103.479641,187.600595 96.4796407,186.600595 C89.4796407,185.600595 92.8512889,185.663674 83.8512889,188.663674 C74.8512889,191.663674 79.1536531,203.189816 75.1536531,203.189816 C71.1536531,203.189816 67.0059098,198.246729 61.851879,207.123371 C56.6978481,216.000013 68.5388269,215.450144 63.5388269,216.450144 C58.5388269,217.450144 54.4481457,212.766645 48.4481457,221.211089 C44.4481457,226.840719 42.9030362,233.343043 43.8128174,240.718062 C80.5625559,194.798132 109.604092,175.1715 130.937425,181.838167 C152.270758,188.504834 155.803538,188.803648 141.535763,182.734609 Z" id="Path-3-Copy" fill="#AB2D2D" transform="translate(96.836401, 205.948967) scale(1, -1) rotate(40.000000) translate(-96.836401, -205.948967) "></path>
                <g id="Path-4" transform="translate(0.000000, 6.000000)">
                    <mask id="mask-3" fill="white">
                        <use xlink:href="#path-2"></use>
                    </mask>
                    <use id="Mask" fill="#69728A" xlink:href="#path-2"></use>
                    <g id="Group" mask="url(#mask-3)" stroke="#383838" stroke-width="9">
                        <g transform="translate(92.500000, 85.500000) rotate(1.000000) translate(-92.500000, -85.500000) translate(45.000000, 46.000000)">
                            <path d="M86,10 C53.475052,11.3333333 31.475052,25 20,51" id="Path-4"></path>
                            <path d="M91,30 C58.475052,31.3333333 36.475052,45 25,71" id="Path-4-Copy-2" transform="translate(58.000000, 50.500000) rotate(-14.000000) translate(-58.000000, -50.500000) "></path>
                            <path d="M66,0 C33.475052,1.33333333 11.475052,15 0,41" id="Path-4-Copy"></path>
                        </g>
                    </g>
                    <g id="Group-Copy-5" mask="url(#mask-3)" stroke="#383838" stroke-width="9">
                        <g transform="translate(92.587262, 30.500762) rotate(1.000000) translate(-92.587262, -30.500762) translate(34.087262, -22.999238)">
                            <path d="M87.001523,29.1745241 C54.476575,30.5078574 32.476575,44.1745241 21.001523,70.1745241" id="Path-4" transform="translate(54.001523, 49.674524) rotate(97.000000) translate(-54.001523, -49.674524) "></path>
                            <path d="M72.0220216,50.5234199 C39.4970735,51.8567532 17.4970735,65.5234199 6.02202155,91.5234199" id="Path-4-Copy-2" transform="translate(39.022022, 71.023420) rotate(34.000000) translate(-39.022022, -71.023420) "></path>
                            <path d="M117.993756,18.2844513 C85.4688075,19.6177847 63.4688075,33.2844513 51.9937555,59.2844513" id="Path-4-Copy" transform="translate(84.993756, 38.784451) rotate(-248.000000) translate(-84.993756, -38.784451) "></path>
                        </g>
                    </g>
                    <g id="Group-Copy" mask="url(#mask-3)" stroke="#383838" stroke-width="9">
                        <g transform="translate(134.500000, 128.500000) rotate(1.000000) translate(-134.500000, -128.500000) translate(87.000000, 89.000000)">
                            <path d="M86,10 C53.475052,11.3333333 31.475052,25 20,51" id="Path-4"></path>
                            <path d="M91,30 C58.475052,31.3333333 36.475052,45 25,71" id="Path-4-Copy-2" transform="translate(58.000000, 50.500000) rotate(-14.000000) translate(-58.000000, -50.500000) "></path>
                            <path d="M66,0 C33.475052,1.33333333 11.475052,15 0,41" id="Path-4-Copy"></path>
                        </g>
                    </g>
                    <g id="Group-Copy-3" mask="url(#mask-3)" stroke="#383838" stroke-width="9">
                        <g transform="translate(109.039961, 204.761711) rotate(46.000000) translate(-109.039961, -204.761711) translate(69.039961, 147.261711)">
                            <path d="M73,29 C40.475052,30.3333333 18.475052,44 7,70" id="Path-4" transform="translate(40.000000, 49.500000) rotate(21.000000) translate(-40.000000, -49.500000) "></path>
                            <path d="M71.0534163,56.193398 C38.5284683,57.5267313 16.5284683,71.193398 5.0534163,97.193398" id="Path-4-Copy-2" transform="translate(38.053416, 76.693398) rotate(46.000000) translate(-38.053416, -76.693398) "></path>
                            <path d="M78.8751297,2.28241458 C46.3501817,3.61574792 24.3501817,17.2824146 12.8751297,43.2824146" id="Path-4-Copy" transform="translate(45.875130, 22.782415) rotate(3.000000) translate(-45.875130, -22.782415) "></path>
                        </g>
                    </g>
                    <g id="Group-Copy-4" mask="url(#mask-3)" stroke="#383838" stroke-width="9">
                        <g transform="translate(53.966695, 202.237179) rotate(76.000000) translate(-53.966695, -202.237179) translate(14.966695, 165.237179)" id="Path-4-Copy">
                            <path d="M71.8751297,16.2824146 C39.3501817,17.6157479 17.3501817,31.2824146 5.87512972,57.2824146" transform="translate(38.875130, 36.782415) rotate(39.000000) translate(-38.875130, -36.782415) "></path>
                        </g>
                    </g>
                    <g id="Group-Copy-2" mask="url(#mask-3)" stroke="#383838" stroke-width="9">
                        <g transform="translate(152.785402, 157.666897) rotate(8.000000) translate(-152.785402, -157.666897) translate(116.785402, 132.166897)" id="Path-4-Copy">
                            <path d="M69,5 C36.475052,6.33333333 14.475052,20 3,46" transform="translate(36.000000, 25.500000) rotate(9.000000) translate(-36.000000, -25.500000) "></path>
                        </g>
                    </g>
                    <path d="M71,160 C38.475052,161.333333 16.475052,175 5,201" id="Path-4-Copy-5" stroke="#383838" stroke-width="9" mask="url(#mask-3)"></path>
                    <path d="M51,150 C18.475052,151.333333 -3.52494803,165 -15,191" id="Path-4-Copy-3" stroke="#383838" stroke-width="9" mask="url(#mask-3)"></path>
                    <path d="M61,176 C44.08423,188 32,196 32,210 C32,224 16,220 22,203 C28,186 49,167 58,171 C67,175 77.91577,164 61,176 Z" id="Path-2" fill="#383838" mask="url(#mask-3)"></path>
                </g>
                <g id="eye" transform="translate(164.126067, 35.833921) rotate(16.000000) translate(-164.126067, -35.833921) translate(147.126067, 18.833921)">
                    <path d="M16.6196957,33.2393915 C25.7985002,33.2393915 33.2393915,25.6312892 33.2393915,16.2462194 C33.2393915,6.86114966 25.1254773,0.310597502 15.9466728,0.310597502 C6.76786827,0.310597502 -1.8189894e-12,6.86114966 -1.8189894e-12,16.2462194 C-1.8189894e-12,25.6312892 7.44089123,33.2393915 16.6196957,33.2393915 Z" fill="#FFFFFF"></path>
                    <circle id="pupil" fill="#000000" cx="16.3372081" cy="17.5113267" r="3.92150124"></circle>
                </g>
                <g id="eye-copy" transform="translate(198.126067, 30.833921) rotate(16.000000) translate(-198.126067, -30.833921) translate(181.126067, 13.833921)">
                    <path d="M16.6196957,33.2393915 C25.7985002,33.2393915 33.2393915,25.6312892 33.2393915,16.2462194 C33.2393915,6.86114966 25.1254773,0.310597502 15.9466728,0.310597502 C6.76786827,0.310597502 -1.8189894e-12,6.86114966 -1.8189894e-12,16.2462194 C-1.8189894e-12,25.6312892 7.44089123,33.2393915 16.6196957,33.2393915 Z" id="eye" fill="#FFFFFF"></path>
                    <circle id="pupil" fill="#000000" cx="16.3372081" cy="17.5113267" r="3.92150124"></circle>
                </g>
            </g>
        </g>
    </g>
</svg>