<?xml version="1.0" encoding="UTF-8"?>
<svg width="266px" height="342px" viewBox="0 0 266 342" version="1.1" xmlns="http://www.w3.org/2000/svg" xmlns:xlink="http://www.w3.org/1999/xlink">
    <!-- Generator: Sketch 51.2 (57519) - http://www.bohemiancoding.com/sketch -->
    <title>t</title>
    <desc>Created with Sketch.</desc>
    <defs>
        <filter x="-0.4%" y="-0.2%" width="100.8%" height="101.0%" filterUnits="objectBoundingBox" id="filter-1">
            <feOffset dx="0" dy="2" in="SourceAlpha" result="shadowOffsetOuter1"></feOffset>
            <feColorMatrix values="0 0 0 0 0   0 0 0 0 0   0 0 0 0 0  0 0 0 0.5 0" type="matrix" in="shadowOffsetOuter1" result="shadowMatrixOuter1"></feColorMatrix>
            <feMerge>
                <feMergeNode in="shadowMatrixOuter1"></feMergeNode>
                <feMergeNode in="SourceGraphic"></feMergeNode>
            </feMerge>
        </filter>
        <path d="M29,170 C71,172.131751 95.6666667,172.131751 103,170 C98.3333333,258 98.3333333,308.666667 103,322 C110,342 145,346 166,326 C166,214 174,219 166,170 C196.301638,175.244514 223.360162,171.660286 232.320289,163.600538 C269.341174,151 269.341174,113 220,113 C178.450539,123 178.450539,123 163,113 C163,84 176,30 163,13 C150,-4 116,-8 103.622256,31 C91.2445128,70 98.678863,106 98.678863,123 C67,123 89,121 50,113 C-12,113 -12,158 29,170 Z" id="path-2"></path>
        <path d="M4,22.9287826 C20.9545397,-5.02373914 36.9545397,-6.33333333 52,19 C64,56 52,46 4,46 C-1.22919842,47.2622203 -1.22919842,39.5718145 4,22.9287826 Z" id="path-4"></path>
    </defs>
    <g id="Symbols" stroke="none" stroke-width="1" fill="none" fill-rule="evenodd">
        <g id="letter/t" transform="translate(-2.000000, -1.000000)">
            <g id="t" filter="url(#filter-1)" transform="translate(2.000000, 1.000000)">
                <g id="fin-+-fin-copy-+-fin-copy-2-+-fin-copy-3-Mask" transform="translate(1.000000, 0.000000)">
                    <mask id="mask-3" fill="white">
                        <use xlink:href="#path-2"></use>
                    </mask>
                    <use id="Mask" fill="#74CAE0" xlink:href="#path-2"></use>
                    <path d="M82,10 C97.6753304,14.6103913 124,7 124,40 C124,62 203,42.3333333 361,-19 C258.248839,20.9269781 198.915506,43.9269781 183,50 C159.126742,59.1095328 174,77 133,68 C105.666667,62 86.3333333,52.6666667 75,40 C69.2164464,16.9264058 71.5497797,6.92640581 82,10 Z M93,76 C104.345809,72.8854642 118,97 154,87 C164.074106,84.2016373 161.955668,78.0657581 167.75418,79.3213786 C182.676755,82.5527407 183.803289,100 173,100 C157.998843,100 171,93.5624257 144,101.781213 C117,110 99,108.218787 93,100 C87,91.7812128 81.654191,79.1145358 93,76 Z M52.3743983,116.410348 C43.1644436,106.908472 55.7234728,106.908472 64.9334276,112.187292 C71.8499713,116.15161 78.1673581,126.070219 73.7786481,144.178914 C72.3234247,150.183457 62.2389624,157.08848 60.5126493,164.975492 C53.5800652,196.648412 70.7943079,177.64466 70.7943079,193.48112 C70.7943079,204.03876 67.1661439,204.03876 59.9098159,193.48112 C50.4207716,182.92348 47.9089657,173.421604 52.3743983,164.975492 C59.0725473,152.306324 61.5843531,125.912224 52.3743983,116.410348 Z M90.8887547,116.410348 C100.098709,125.912224 97.5869036,152.306324 90.8887547,164.975492 C86.4233221,173.421604 86.1442325,186.442694 90.0514861,204.03876 C86.1442325,207.557974 84.1906058,204.03876 84.1906058,193.48112 C84.1906058,177.64466 66.976363,196.648412 73.9089472,164.975492 C75.6352602,157.08848 85.7197226,150.183457 87.174946,144.178914 C91.5636559,126.070219 85.2462691,116.15161 78.3297254,112.187292 C69.1197707,106.908472 81.6787999,106.908472 90.8887547,116.410348 Z M102,217 C105.333333,225 113,229 125,229 C143,229 156,211 178,217 C192.666667,221 192.666667,226.666667 178,234 C181.333333,227.333333 174.333333,225.666667 157,229 C131,234 109,241 106,253 C103,265 138,265 151,265 C164,265 215,243 215,262 C215,281 233,267 151,281 C96.3333333,290.333333 80,269 102,217 Z M95,297 C169.666667,291 205.666667,291 203,297 C199,306 181,298.61675 193,307.61675 C205,316.61675 154,328.02168 148,314 C144,304.652214 120.333333,304.652214 77,314 L95,297 Z M166,113 L194,100 C185.553288,103.333333 181.108276,113 180.664966,129 C180,153 184,142.939394 188,159 C192,175.060606 189,186 179,186 C169,186 170,168 174,153 C176.666667,143 174,129.666667 166,113 Z M206,116 C210,130.666667 210.666667,143 208,153 C204,168 236,186 219,186 C202,186 202,175.060606 198,159 C194,142.939394 190,153 190.664966,129 C191.108276,113 195.553288,103.333333 204,100 L206,116 Z" id="Combined-Shape" fill="#28879F" style="mix-blend-mode: darken;" mask="url(#mask-3)"></path>
                </g>
                <ellipse id="eye" fill="#FFFFFF" cx="25" cy="137" rx="21" ry="24"></ellipse>
                <path d="M25,161 C36.5979797,161 46,150.254834 46,137 C46,123.745166 36.5979797,113 25,113 C13.4020203,113 4,123.745166 4,137 C4,150.254834 13.4020203,161 25,161 Z M25,165 C11.0652564,165 0,152.353993 0,137 C0,121.646007 11.0652564,109 25,109 C38.9347436,109 50,121.646007 50,137 C50,152.353993 38.9347436,165 25,165 Z" id="eye-copy-2" fill="#28879F" fill-rule="nonzero"></path>
                <ellipse id="pupil" fill="#000000" cx="27" cy="138.076923" rx="7" ry="8.07692308"></ellipse>
                <ellipse id="eye" fill="#FFFFFF" cx="241" cy="137" rx="21" ry="24"></ellipse>
                <path d="M241,161 C252.59798,161 262,150.254834 262,137 C262,123.745166 252.59798,113 241,113 C229.40202,113 220,123.745166 220,137 C220,150.254834 229.40202,161 241,161 Z M241,165 C227.065256,165 216,152.353993 216,137 C216,121.646007 227.065256,109 241,109 C254.934744,109 266,121.646007 266,137 C266,152.353993 254.934744,165 241,165 Z" id="eye-copy" fill="#28879F" fill-rule="nonzero"></path>
                <ellipse id="pupil" fill="#000000" cx="233" cy="138.076923" rx="7" ry="8.07692308"></ellipse>
                <g id="mouth" transform="translate(110.000000, 165.000000)">
                    <mask id="mask-5" fill="white">
                        <use xlink:href="#path-4"></use>
                    </mask>
                    <use id="Mask" fill="#4D0404" xlink:href="#path-4"></use>
                    <path d="M5,48 C9,38 11,33 11,33 L15,48 L5,48 Z" id="tooth" fill="#FFFFFF" mask="url(#mask-5)"></path>
                    <path d="M17,48 C21,38 23,33 23,33 L27,48 L17,48 Z" id="tooth-copy" fill="#FFFFFF" mask="url(#mask-5)"></path>
                    <path d="M29,48 C33,38 35,33 35,33 L39,48 L29,48 Z" id="tooth-copy-2" fill="#FFFFFF" mask="url(#mask-5)"></path>
                    <path d="M41,48 C45,38 47,33 47,33 L51,48 L41,48 Z" id="tooth-copy-3" fill="#FFFFFF" mask="url(#mask-5)"></path>
                </g>
            </g>
        </g>
    </g>
</svg>