<?xml version="1.0" encoding="UTF-8"?>
<svg width="305px" height="266px" viewBox="0 0 305 266" version="1.1" xmlns="http://www.w3.org/2000/svg" xmlns:xlink="http://www.w3.org/1999/xlink">
    <!-- Generator: Sketch 51.2 (57519) - http://www.bohemiancoding.com/sketch -->
    <title>v</title>
    <desc>Created with Sketch.</desc>
    <defs>
        <filter x="-0.3%" y="-0.4%" width="100.7%" height="101.5%" filterUnits="objectBoundingBox" id="filter-1">
            <feOffset dx="0" dy="2" in="SourceAlpha" result="shadowOffsetOuter1"></feOffset>
            <feColorMatrix values="0 0 0 0 0   0 0 0 0 0   0 0 0 0 0  0 0 0 0.5 0" type="matrix" in="shadowOffsetOuter1" result="shadowMatrixOuter1"></feColorMatrix>
            <feMerge>
                <feMergeNode in="shadowMatrixOuter1"></feMergeNode>
                <feMergeNode in="SourceGraphic"></feMergeNode>
            </feMerge>
        </filter>
        <path d="M70,13 C55.0923655,-1.92195009 23.7473531,-10 2.87367653,25 C-18,60 90,264 142,264 C194,264 357,67 288,13 C242,-23 195.910883,30 149.73265,172 C135.592118,105.052033 109.014568,52.0520333 70,13 Z" id="path-2"></path>
        <path d="M46.6984699,0.20227204 C44.6885558,-1.76920311 45.8361538,11.1979915 35.4883607,16.1960459 C25.1405675,21.1941002 16.5174066,19.4447812 12.2058261,16.1960459 C7.89424562,12.9473106 4.44498124,0.20227204 0.995716859,0.20227204 C-2.45354752,0.20227204 4.44498124,16.1960459 0.995716859,23.1933219 C-2.45354752,30.190598 5.30729733,27.1917654 12.2058261,27.1917654 C19.1043549,27.1917654 50.4330162,35.1886523 48.4231021,24.1929328 C46.413188,13.1972133 51.8723665,6.19993722 46.6984699,0.20227204 Z" id="path-4"></path>
    </defs>
    <g id="Symbols" stroke="none" stroke-width="1" fill="none" fill-rule="evenodd">
        <g id="letter/v" transform="translate(-58.000000, -45.000000)">
            <g id="v" filter="url(#filter-1)" transform="translate(58.000000, 45.000000)">
                <g id="Oval-2">
                    <mask id="mask-3" fill="white">
                        <use xlink:href="#path-2"></use>
                    </mask>
                    <use id="Mask" fill="#CD7F00" xlink:href="#path-2"></use>
                    <path d="M247.844631,64.8991089 C221.217017,54.1408544 208.3414,40.2956235 215.685978,22.1171561 C223.030556,3.93868878 247.814085,-11.6891992 274.441699,-0.930944795 C301.069313,9.82730966 319.457676,42.8977745 312.113099,61.0762419 C304.768521,79.2547092 274.472245,75.6573633 247.844631,64.8991089 Z M61.8583265,61.8991089 C35.2307123,72.6573633 4.93443599,76.2547092 -2.41014157,58.0762419 C-9.75471913,39.8977745 8.6336442,6.82730966 35.2612584,-3.93094479 C61.8888725,-14.6891992 86.6724017,0.938688783 94.0169793,19.1171561 C101.361557,37.2956235 88.4859407,51.1408544 61.8583265,61.8991089 Z" id="Combined-Shape" fill="#000000" opacity="0.5" mask="url(#mask-3)"></path>
                </g>
                <path d="M174,174 C199.58244,96.8466104 217,27 253,27 C289,27 303,28.5 288,81 C273,133.5 249.86162,177 203,199 C209,155 168.08244,191.84661 174,174 Z" id="Path-80" fill="#A62727"></path>
                <path d="M13.0623909,173.952808 C28.9208455,94.6988402 55.7910987,14.6277569 89.6548293,21.6277569 C123.51856,28.6277569 133.99319,18.5232271 118.99319,71.0232271 C103.99319,123.523227 92.924011,176.952808 46.0623909,198.952808 C52.0623909,154.952808 7.14483062,191.799419 13.0623909,173.952808 Z" id="Path-80-Copy" fill="#A62727" transform="translate(69.097669, 110.076303) scale(-1, 1) rotate(1.000000) translate(-69.097669, -110.076303) "></path>
                <path d="M153,225 C153,223.197307 148,225 138,225 C131.333333,225 134,230.333333 146,241 C150.666667,234.944444 153,229.611111 153,225 Z" id="Path-81" fill="#885107" transform="translate(143.714286, 232.599402) rotate(2.000000) translate(-143.714286, -232.599402) "></path>
                <path d="M155.46209,218.004343 C151.441807,218.588141 156.113234,202.402814 164.578107,199.282508 C173.042979,196.162202 183.461285,175.296416 186.065861,196.162202 C188.670437,217.027988 162.185685,217.027988 155.46209,218.004343 Z" id="Path-82" fill="#FFFFFF"></path>
                <circle id="Oval" fill="#000000" cx="173" cy="202" r="7"></circle>
                <path d="M105.46209,218.004343 C101.441807,218.588141 106.113234,202.402814 114.578107,199.282508 C123.042979,196.162202 133.461285,175.296416 136.065861,196.162202 C138.670437,217.027988 112.185685,217.027988 105.46209,218.004343 Z" id="Path-82-Copy" fill="#FFFFFF" transform="translate(120.122708, 202.509874) scale(-1, 1) translate(-120.122708, -202.509874) "></path>
                <circle id="Oval-Copy" fill="#000000" transform="translate(120.000000, 205.000000) scale(-1, 1) translate(-120.000000, -205.000000) " cx="120" cy="205" r="7"></circle>
                <g id="Path-84" transform="translate(119.000000, 225.000000)">
                    <mask id="mask-5" fill="white">
                        <use xlink:href="#path-4"></use>
                    </mask>
                    <use id="Mask" fill="#000000" xlink:href="#path-4"></use>
                    <path d="M45.7404074,14.3187344 C43.1312546,19.3553808 12.6911389,23.3846979 7.47283333,19.3553808 C3.99396296,16.6691693 2.54443364,9.61786438 3.12424537,-1.79853414 C32.1148318,-2.470087 46.9000309,-1.46275772 47.4798426,1.2234537 C48.3495602,5.25277083 48.3495602,9.28208795 45.7404074,14.3187344 Z" fill="#FFFFFF" mask="url(#mask-5)"></path>
                    <path d="M46.9875425,24.317406 C46.9875425,22.2856855 45.2729966,20.9312052 41.8439048,20.2539651 C36.7002671,19.2381048 4.98116782,21.2698253 4.98116782,26.3491265 C4.98116782,31.4284277 -1.8770158,27.3649868 2.40934896,31.4284277 C6.69571372,35.4918687 53.8457261,45.6504711 52.9884532,38.5394494 C52.4169379,33.7987683 50.4166343,29.0580872 46.9875425,24.317406 Z" id="Path-2" fill="#FFFFFF" mask="url(#mask-5)"></path>
                </g>
            </g>
        </g>
    </g>
</svg>