<?xml version="1.0" encoding="UTF-8"?>
<svg width="155px" height="154px" viewBox="0 0 155 154" version="1.1" xmlns="http://www.w3.org/2000/svg" xmlns:xlink="http://www.w3.org/1999/xlink">
    <!-- Generator: Sketch 51.1 (57501) - http://www.bohemiancoding.com/sketch -->
    <title>XMLID_694_</title>
    <desc>Created with Sketch.</desc>
    <defs></defs>
    <g id="Page-1" stroke="none" stroke-width="1" fill="none" fill-rule="evenodd">
        <g id="XMLID_613_" transform="translate(-117.000000, -814.000000)" fill-rule="nonzero">
            <g id="XMLID_694_" transform="translate(117.000000, 814.000000)">
                <g id="XMLID_705_" transform="translate(60.000000, 97.000000)" fill="#000000">
                    <polygon id="XMLID_706_" points="37.3 20.7 0 0.5 0.5 0.4 37.7 20.7"></polygon>
                </g>
                <g id="XMLID_703_" transform="translate(60.000000, 4.000000)" fill="#B07E09">
                    <polygon id="XMLID_704_" points="37.7 113.7 0.5 93.4 28 0.1 65.3 20.4"></polygon>
                </g>
                <g id="XMLID_701_" transform="translate(88.000000, 0.000000)" fill="#E0A810">
                    <polygon id="XMLID_702_" points="37.3 24.4 0 4.1 29.6 0 66.9 20.2"></polygon>
                </g>
                <g id="XMLID_699_" transform="translate(0.000000, 12.000000)" fill="#E0A810">
                    <polygon id="XMLID_700_" points="37.3 24.8 0.1 4.5 31.9 0 69.2 20.3"></polygon>
                </g>
                <g id="XMLID_697_" transform="translate(0.000000, 16.000000)" fill="#B07E09">
                    <polygon id="XMLID_698_" points="79.3 137.6 42.1 117.4 0.1 0.5 37.3 20.8"></polygon>
                </g>
                <g id="XMLID_695_" transform="translate(37.000000, 20.000000)" fill="#FFF197">
                    <polygon id="XMLID_696_" points="117.9 0.2 75.7 128.9 42.3 133.6 0.3 16.8 32.2 12.3 60.3 97.7 60.7 97.7 88.3 4.4"></polygon>
                </g>
            </g>
        </g>
    </g>
</svg>