<?xml version="1.0" encoding="UTF-8"?>
<svg width="338px" height="236px" viewBox="0 0 338 236" version="1.1" xmlns="http://www.w3.org/2000/svg" xmlns:xlink="http://www.w3.org/1999/xlink">
    <!-- Generator: Sketch 51.2 (57519) - http://www.bohemiancoding.com/sketch -->
    <title>w</title>
    <desc>Created with Sketch.</desc>
    <defs>
        <filter x="-0.3%" y="-0.4%" width="100.6%" height="101.7%" filterUnits="objectBoundingBox" id="filter-1">
            <feOffset dx="0" dy="2" in="SourceAlpha" result="shadowOffsetOuter1"></feOffset>
            <feColorMatrix values="0 0 0 0 0   0 0 0 0 0   0 0 0 0 0  0 0 0 0.5 0" type="matrix" in="shadowOffsetOuter1" result="shadowMatrixOuter1"></feColorMatrix>
            <feMerge>
                <feMergeNode in="shadowMatrixOuter1"></feMergeNode>
                <feMergeNode in="SourceGraphic"></feMergeNode>
            </feMerge>
        </filter>
        <path d="M0,29 C18,104 29,129 54,159 C79,189 62,230 83,230 C104,230 108,239 126,175 C144,111 169,111.783165 169,101 C169,90.2168352 215,230 235,230 C253,235 247,238 269,224 C277,222 281,163 312,101 C343,39 337,45 337,29 C337,13 300,-11 287,9 C278.333333,22.3333333 270.666667,35.3333333 264,48 C258.666667,60 256,77.6666667 256,101 C256,136 245.667125,110 212,55 C178.332875,-5.44231327e-13 174,-1 159,9 C144,19 129,48 119,64 C109,79 112,101 99,130 C90.3333333,149.333333 78.6666667,113.666667 64,23 C65.3333333,27 62,22.3333333 54,9 C42,-11 -6.10902219e-15,10.4703632 0,29 Z" id="path-2"></path>
    </defs>
    <g id="Symbols" stroke="none" stroke-width="1" fill="none" fill-rule="evenodd">
        <g id="letter/w" transform="translate(-22.000000, -102.000000)">
            <g id="w" filter="url(#filter-1)" transform="translate(22.000000, 101.000000)">
                <g id="teeth" transform="translate(164.000000, 115.000000)" fill="#FFFFFF">
                    <path d="M14,0 L11.4353251,2.38148384 C8.60235041,5.01210319 8.438309,9.44122128 11.0689284,12.274196 C12.236846,13.5319534 13.8261634,14.3167775 15.5348191,14.4795066 L21,15 L14,0 Z" id="Path-32"></path>
                    <path d="M21,16 L18.4353251,18.3814838 C15.6023504,21.0121032 15.438309,25.4412213 18.0689284,28.274196 C19.236846,29.5319534 20.8261634,30.3167775 22.5348191,30.4795066 L28,31 L21,16 Z" id="Path-32-Copy"></path>
                    <path d="M27,30 L24.4353251,32.3814838 C21.6023504,35.0121032 21.438309,39.4412213 24.0689284,42.274196 C25.236846,43.5319534 26.8261634,44.3167775 28.5348191,44.4795066 L34,45 L27,30 Z" id="Path-32-Copy-3"></path>
                    <path d="M34,46 L31.4353251,48.3814838 C28.6023504,51.0121032 28.438309,55.4412213 31.0689284,58.274196 C32.236846,59.5319534 33.8261634,60.3167775 35.5348191,60.4795066 L41,61 L34,46 Z" id="Path-32-Copy-2"></path>
                    <path d="M39,60 L36.4353251,62.3814838 C33.6023504,65.0121032 33.438309,69.4412213 36.0689284,72.274196 C37.236846,73.5319534 38.8261634,74.3167775 40.5348191,74.4795066 L46,75 L39,60 Z" id="Path-32-Copy-7" transform="translate(35.500000, 67.500000) rotate(-11.000000) translate(-35.500000, -67.500000) "></path>
                    <path d="M46,76 L43.4353251,78.3814838 C40.6023504,81.0121032 40.438309,85.4412213 43.0689284,88.274196 C44.236846,89.5319534 45.8261634,90.3167775 47.5348191,90.4795066 L53,91 L46,76 Z" id="Path-32-Copy-6" transform="translate(42.500000, 83.500000) rotate(-11.000000) translate(-42.500000, -83.500000) "></path>
                    <path d="M52,90 L49.4353251,92.3814838 C46.6023504,95.0121032 46.438309,99.4412213 49.0689284,102.274196 C50.236846,103.531953 51.8261634,104.316777 53.5348191,104.479507 L59,105 L52,90 Z" id="Path-32-Copy-5" transform="translate(48.500000, 97.500000) rotate(-11.000000) translate(-48.500000, -97.500000) "></path>
                    <path d="M61,101 L58.4353251,103.381484 C55.6023504,106.012103 55.438309,110.441221 58.0689284,113.274196 C59.236846,114.531953 60.8261634,115.316777 62.5348191,115.479507 L68,116 L61,101 Z" id="Path-32-Copy-4" transform="translate(57.500000, 108.500000) rotate(-11.000000) translate(-57.500000, -108.500000) "></path>
                </g>
                <g id="teeth" transform="translate(137.500000, 167.000000) scale(-1, 1) translate(-137.500000, -167.000000) translate(104.000000, 108.000000)" fill="#FFFFFF">
                    <path d="M14,0 L11.4353251,2.38148384 C8.60235041,5.01210319 8.438309,9.44122128 11.0689284,12.274196 C12.236846,13.5319534 13.8261634,14.3167775 15.5348191,14.4795066 L21,15 L14,0 Z" id="Path-32"></path>
                    <path d="M25,15 L22.4353251,17.3814838 C19.6023504,20.0121032 19.438309,24.4412213 22.0689284,27.274196 C23.236846,28.5319534 24.8261634,29.3167775 26.5348191,29.4795066 L32,30 L25,15 Z" id="Path-32-Copy"></path>
                    <path d="M31,30 L28.4353251,32.3814838 C25.6023504,35.0121032 25.438309,39.4412213 28.0689284,42.274196 C29.236846,43.5319534 30.8261634,44.3167775 32.5348191,44.4795066 L38,45 L31,30 Z" id="Path-32-Copy-3"></path>
                    <path d="M37,45 L34.4353251,47.3814838 C31.6023504,50.0121032 31.438309,54.4412213 34.0689284,57.274196 C35.236846,58.5319534 36.8261634,59.3167775 38.5348191,59.4795066 L44,60 L37,45 Z" id="Path-32-Copy-2" transform="translate(33.500000, 52.500000) rotate(4.000000) translate(-33.500000, -52.500000) "></path>
                    <path d="M45,61 L42.4353251,63.3814838 C39.6023504,66.0121032 39.438309,70.4412213 42.0689284,73.274196 C43.236846,74.5319534 44.8261634,75.3167775 46.5348191,75.4795066 L52,76 L45,61 Z" id="Path-32-Copy-7" transform="translate(41.500000, 68.500000) rotate(-11.000000) translate(-41.500000, -68.500000) "></path>
                    <path d="M48,75 L45.4353251,77.3814838 C42.6023504,80.0121032 42.438309,84.4412213 45.0689284,87.274196 C46.236846,88.5319534 47.8261634,89.3167775 49.5348191,89.4795066 L55,90 L48,75 Z" id="Path-32-Copy-6" transform="translate(44.500000, 82.500000) rotate(-2.000000) translate(-44.500000, -82.500000) "></path>
                    <path d="M53,88 L50.4353251,90.3814838 C47.6023504,93.0121032 47.438309,97.4412213 50.0689284,100.274196 C51.236846,101.531953 52.8261634,102.316777 54.5348191,102.479507 L60,103 L53,88 Z" id="Path-32-Copy-5" transform="translate(49.500000, 95.500000) rotate(-11.000000) translate(-49.500000, -95.500000) "></path>
                    <path d="M58,101 L55.4353251,103.381484 C52.6023504,106.012103 52.438309,110.441221 55.0689284,113.274196 C56.236846,114.531953 57.8261634,115.316777 59.5348191,115.479507 L65,116 L58,101 Z" id="Path-32-Copy-4" transform="translate(54.500000, 108.500000) rotate(-11.000000) translate(-54.500000, -108.500000) "></path>
                </g>
                <g id="W-body">
                    <mask id="mask-3" fill="white">
                        <use xlink:href="#path-2"></use>
                    </mask>
                    <use id="Mask" fill="#2764A3" xlink:href="#path-2"></use>
                    <path d="M25.4750204,56.1692239 C51.273321,54.613414 64.719673,61.9013477 87.0140177,81.9752659 C109.308362,102.049184 7.77556248,96.7491351 -2.62846508,87.3813066 C-13.0324926,78.0134781 -0.32328019,57.7250338 25.4750204,56.1692239 Z M139.70808,52.5203679 C127.935446,58.7799888 123.553711,50.5391446 126.562877,27.7978353 C129.572042,5.05652611 163.859162,10.6097123 229.424235,44.457394 C234.276926,83.4047409 233.573461,96.9920971 227.313841,85.2194626 C221.05422,73.446828 191.8523,62.5471298 139.70808,52.5203679 Z M300,15 C297.238576,15 295,12.5375661 295,9.5 C295,6.46243388 297.238576,4 300,4 C302.761424,4 305,6.46243388 305,9.5 C305,12.5375661 302.761424,15 300,15 Z M352,4 C345.372583,4 340,-2.93958638 340,-11.5 C340,-20.0604136 345.372583,-27 352,-27 C358.627417,-27 364,-20.0604136 364,-11.5 C364,-2.93958638 358.627417,4 352,4 Z M325,-4 C322.238576,-4 320,-6.23857625 320,-9 C320,-11.7614237 322.238576,-14 325,-14 C327.761424,-14 330,-11.7614237 330,-9 C330,-6.23857625 327.761424,-4 325,-4 Z M52,16 C42.0588745,16 34,7.26955262 34,-3.5 C34,-14.2695526 42.0588745,-23 52,-23 C61.9411255,-23 70,-14.2695526 70,-3.5 C70,7.26955262 61.9411255,16 52,16 Z M37,38 C33.1340068,38 30,34.8659932 30,31 C30,27.1340068 33.1340068,24 37,24 C40.8659932,24 44,27.1340068 44,31 C44,34.8659932 40.8659932,38 37,38 Z M66.5,208 C61.2532949,208 57,204.19442 57,199.5 C57,194.80558 61.2532949,191 66.5,191 C71.7467051,191 76,194.80558 76,199.5 C76,204.19442 71.7467051,208 66.5,208 Z M13.5,20 C10.4624339,20 8,16.6421356 8,12.5 C8,8.35786438 10.4624339,5 13.5,5 C16.5375661,5 19,8.35786438 19,12.5 C19,16.6421356 16.5375661,20 13.5,20 Z M147,103 C142.029437,103 138,99.418278 138,95 C138,90.581722 142.029437,87 147,87 C151.970563,87 156,90.581722 156,95 C156,99.418278 151.970563,103 147,103 Z M317.5,48 C313.357864,48 310,44.418278 310,40 C310,35.581722 313.357864,32 317.5,32 C321.642136,32 325,35.581722 325,40 C325,44.418278 321.642136,48 317.5,48 Z M250.5,217 C244.70101,217 240,211.851275 240,205.5 C240,199.148725 244.70101,194 250.5,194 C256.29899,194 261,199.148725 261,205.5 C261,211.851275 256.29899,217 250.5,217 Z M295,97 C283.954305,97 275,89.1649831 275,79.5 C275,69.8350169 283.954305,62 295,62 C306.045695,62 315,69.8350169 315,79.5 C315,89.1649831 306.045695,97 295,97 Z" id="Combined-Shape" fill="#7BDE2F" mask="url(#mask-3)"></path>
                </g>
                <g id="left-eye" transform="translate(44.000000, 72.000000)">
                    <ellipse id="eye" fill="#FFFFFF" cx="40" cy="59.5" rx="33" ry="29.5"></ellipse>
                    <circle id="pupil" fill="#000000" cx="40.5" cy="56.5" r="12.5"></circle>
                    <circle id="pupil-copy-2" fill="#FFFFFF" cx="32" cy="51" r="4"></circle>
                </g>
                <g id="left-eye-copy" transform="translate(248.000000, 109.000000) scale(-1, 1) translate(-248.000000, -109.000000) translate(202.000000, 62.000000)">
                    <ellipse id="eye" fill="#FFFFFF" cx="59.5" cy="66.5" rx="32.5" ry="27.5"></ellipse>
                    <circle id="pupil" fill="#000000" cx="50.5" cy="64.5" r="13.5"></circle>
                    <circle id="pupil-copy" fill="#FFFFFF" cx="43.5" cy="57.5" r="4.5"></circle>
                </g>
            </g>
        </g>
    </g>
</svg>