<?xml version="1.0" encoding="UTF-8"?>
<svg width="230px" height="165px" viewBox="0 0 230 165" version="1.1" xmlns="http://www.w3.org/2000/svg" xmlns:xlink="http://www.w3.org/1999/xlink">
    <!-- Generator: Sketch 51.1 (57501) - http://www.bohemiancoding.com/sketch -->
    <title>XMLID_677_</title>
    <desc>Created with Sketch.</desc>
    <defs></defs>
    <g id="Page-1" stroke="none" stroke-width="1" fill="none" fill-rule="evenodd">
        <g id="XMLID_613_" transform="translate(-283.000000, -814.000000)" fill-rule="nonzero">
            <g id="XMLID_677_" transform="translate(283.000000, 814.000000)">
                <g id="XMLID_692_" transform="translate(139.000000, 4.000000)" fill="#B07E09">
                    <polygon id="XMLID_693_" points="38.2 114.5 0.9 94.2 25.2 0 62.4 20.2"></polygon>
                </g>
                <g id="XMLID_690_" transform="translate(164.000000, 0.000000)" fill="#E0A810">
                    <polygon id="XMLID_691_" points="37.4 24.2 0.2 4 28.4 0 65.7 20.2"></polygon>
                </g>
                <g id="XMLID_688_" transform="translate(97.000000, 42.000000)" fill="#986B29">
                    <polygon id="XMLID_689_" points="62.7 110.9 25.4 90.6 0.8 0.4 38.1 20.6"></polygon>
                </g>
                <g id="XMLID_686_" transform="translate(57.000000, 15.000000)" fill="#B07E09">
                    <polygon id="XMLID_687_" points="37.5 115.1 0.3 94.8 23.9 0.7 61.1 20.9"></polygon>
                </g>
                <g id="XMLID_684_" transform="translate(80.000000, 10.000000)" fill="#E0A810">
                    <polygon id="XMLID_685_" points="38.1 25.9 0.9 5.7 35.3 0.8 72.6 21.1"></polygon>
                </g>
                <g id="XMLID_682_" transform="translate(0.000000, 22.000000)" fill="#E0A810">
                    <polygon id="XMLID_683_" points="38.2 25.2 0.9 4.9 31.8 0.5 69.1 20.8"></polygon>
                </g>
                <g id="XMLID_680_" transform="translate(0.000000, 26.000000)" fill="#B07E09">
                    <polygon id="XMLID_681_" points="76.4 138.6 39.1 118.3 0.9 0.9 38.2 21.2"></polygon>
                </g>
                <g id="XMLID_678_" transform="translate(38.000000, 20.000000)" fill="#FFF197">
                    <polygon id="XMLID_679_" points="191.7 0.2 156.6 128 121.7 132.9 97.1 42.6 72.2 139.8 38.4 144.6 0.2 27.2 31.1 22.8 56.5 110.1 80.1 15.9 114.6 11.1 139.2 98.5 163.4 4.2"></polygon>
                </g>
            </g>
        </g>
    </g>
</svg>