<?xml version="1.0" encoding="UTF-8"?>
<svg width="157px" height="160px" viewBox="0 0 157 160" version="1.1" xmlns="http://www.w3.org/2000/svg" xmlns:xlink="http://www.w3.org/1999/xlink">
    <!-- Generator: Sketch 51.1 (57501) - http://www.bohemiancoding.com/sketch -->
    <title>XMLID_662_</title>
    <desc>Created with Sketch.</desc>
    <defs></defs>
    <g id="Page-1" stroke="none" stroke-width="1" fill="none" fill-rule="evenodd">
        <g id="XMLID_613_" transform="translate(-523.000000, -814.000000)" fill-rule="nonzero">
            <g id="XMLID_662_" transform="translate(523.000000, 814.000000)">
                <g id="XMLID_675_" transform="translate(59.000000, 84.000000)" fill="#986B29">
                    <polygon id="XMLID_676_" points="62.6 63.4 25.3 43.1 0 0.9 37.3 21.2"></polygon>
                </g>
                <g id="XMLID_673_" transform="translate(62.000000, 4.000000)" fill="#B07E09">
                    <polygon id="XMLID_674_" points="37.4 63.8 0.2 43.5 22.1 0.4 59.4 20.7"></polygon>
                </g>
                <g id="XMLID_671_" transform="translate(84.000000, 0.000000)" fill="#E0A810">
                    <polygon id="XMLID_672_" points="37.4 24.7 0.1 4.4 31.5 0 68.7 20.2"></polygon>
                </g>
                <g id="XMLID_669_" transform="translate(0.000000, 69.000000)" fill="#B07E09">
                    <polygon id="XMLID_670_" points="38.1 90.1 0.8 69.9 40 0 77.3 20.3"></polygon>
                </g>
                <g id="XMLID_667_" transform="translate(5.000000, 10.000000)" fill="#E0A810">
                    <polygon id="XMLID_668_" points="37.3 25.8 0 5.5 34.9 0.6 72.2 20.9"></polygon>
                </g>
                <g id="XMLID_665_" transform="translate(5.000000, 15.000000)" fill="#B07E09">
                    <polygon id="XMLID_666_" points="72.3 74.3 35 54 0 0.5 37.3 20.8"></polygon>
                </g>
                <g id="XMLID_663_" transform="translate(38.000000, 20.000000)" fill="#FFF197">
                    <polygon id="XMLID_664_" points="114.7 0.2 80.6 63.4 118.9 122.4 83.6 127.4 58.3 85.2 32.6 134.6 0.1 139.1 39.3 69.3 4.3 15.8 39.2 10.9 61.4 47.8 83.4 4.7"></polygon>
                </g>
            </g>
        </g>
    </g>
</svg>