<?xml version="1.0" encoding="UTF-8"?>
<svg width="283px" height="326px" viewBox="0 0 283 326" version="1.1" xmlns="http://www.w3.org/2000/svg" xmlns:xlink="http://www.w3.org/1999/xlink">
    <!-- Generator: Sketch 51.2 (57519) - http://www.bohemiancoding.com/sketch -->
    <title>y</title>
    <desc>Created with Sketch.</desc>
    <defs>
        <filter x="-0.4%" y="-0.3%" width="100.7%" height="101.5%" filterUnits="objectBoundingBox" id="filter-1">
            <feOffset dx="0" dy="2" in="SourceAlpha" result="shadowOffsetOuter1"></feOffset>
            <feColorMatrix values="0 0 0 0 0   0 0 0 0 0   0 0 0 0 0  0 0 0 0.5 0" type="matrix" in="shadowOffsetOuter1" result="shadowMatrixOuter1"></feColorMatrix>
            <feMerge>
                <feMergeNode in="shadowMatrixOuter1"></feMergeNode>
                <feMergeNode in="SourceGraphic"></feMergeNode>
            </feMerge>
        </filter>
        <path d="M0,44 C15.3333333,18 28.3333333,5 39,5 C55,5 143,71 168,96 C200,49 207,21 226,5 C238.666667,-5.66666667 257.666667,2.33333333 283,29 L122,324 C94,322.666667 76.3333333,316 69,304 C58,286 141.5,202 141.5,140 C113.166667,125.333333 66,93.3333333 0,44 Z" id="path-2"></path>
    </defs>
    <g id="Symbols" stroke="none" stroke-width="1" fill="none" fill-rule="evenodd">
        <g id="letter/y" transform="translate(-78.000000, -12.000000)">
            <g id="y" filter="url(#filter-1)" transform="translate(78.000000, 12.000000)">
                <g id="Path-68">
                    <mask id="mask-3" fill="white">
                        <use xlink:href="#path-2"></use>
                    </mask>
                    <use id="Mask" fill="#B6895D" xlink:href="#path-2"></use>
                    <path d="M283,32 C257,8 237.666667,-3 225,-1" stroke="#000000" stroke-width="10" opacity="0.5" mask="url(#mask-3)"></path>
                    <path d="M47,52 C27,25.3333333 10,8.33333333 -4,1" id="Path-68-Copy" stroke="#000000" stroke-width="10" opacity="0.5" mask="url(#mask-3)" transform="translate(21.500000, 26.500000) scale(-1, 1) translate(-21.500000, -26.500000) "></path>
                </g>
                <g id="mouth" transform="translate(125.801434, 254.706207) rotate(-67.000000) translate(-125.801434, -254.706207) translate(53.301434, 238.706207)">
                    <polygon id="Path-50" fill="#FFFFFF" points="136.322811 19 121.250795 32 121.250795 19"></polygon>
                    <polygon id="Path-50-Copy" fill="#FFFFFF" points="117.901458 16 102.829443 29 102.829443 16"></polygon>
                    <polygon id="Path-50-Copy-2" fill="#FFFFFF" points="99.4801057 14 84.4080899 27 84.4080899 14"></polygon>
                    <polygon id="Path-50-Copy-3" fill="#FFFFFF" points="79.3840846 10 64.3120687 23 64.3120687 10"></polygon>
                    <polygon id="Path-50-Copy-4" fill="#FFFFFF" points="62.6374003 7 47.5653844 20 47.5653844 7"></polygon>
                    <polygon id="Path-50-Copy-5" fill="#FFFFFF" points="44.2160476 5 29.1440317 18 29.1440317 5"></polygon>
                    <polygon id="Path-50-Copy-6" fill="#FFFFFF" points="27.4693633 3 12.3973474 16 12.3973474 3"></polygon>
                    <path d="M0.541061267,0.523019597 C63.1510874,8.17433987 111.202785,15 144.696153,21" id="Path-49-Copy" stroke="#9F6100" stroke-width="3"></path>
                </g>
                <ellipse id="Oval" stroke="#A57A50" stroke-width="4" fill="#FFFFFF" cx="178.5" cy="124" rx="44.5" ry="40"></ellipse>
                <circle id="Oval-2" fill="#030303" cx="179" cy="127" r="13"></circle>
                <path d="M122,76 C120,91.3333333 121.333333,99 126,99 C130.666667,99 145.333333,100 170,102 L220,93 C228.666667,83 233,75.3333333 233,70 C233,62 183,84 170,84 C161.333333,84 145.333333,81.3333333 122,76 Z" id="Path-67" fill="#000000"></path>
            </g>
        </g>
    </g>
</svg>