<?xml version="1.0" encoding="UTF-8"?>
<svg width="349px" height="351px" viewBox="0 0 349 351" version="1.1" xmlns="http://www.w3.org/2000/svg" xmlns:xlink="http://www.w3.org/1999/xlink">
    <!-- Generator: Sketch 51.2 (57519) - http://www.bohemiancoding.com/sketch -->
    <title>z</title>
    <desc>Created with Sketch.</desc>
    <defs>
        <filter x="-0.3%" y="-0.3%" width="100.6%" height="101.1%" filterUnits="objectBoundingBox" id="filter-1">
            <feOffset dx="0" dy="2" in="SourceAlpha" result="shadowOffsetOuter1"></feOffset>
            <feColorMatrix values="0 0 0 0 0   0 0 0 0 0   0 0 0 0 0  0 0 0 0.5 0" type="matrix" in="shadowOffsetOuter1" result="shadowMatrixOuter1"></feColorMatrix>
            <feMerge>
                <feMergeNode in="shadowMatrixOuter1"></feMergeNode>
                <feMergeNode in="SourceGraphic"></feMergeNode>
            </feMerge>
        </filter>
        <path d="M15,19 C5,35 15,46 15,65 C15,84 162,81 202,81 C242,81 15,231 15,255 C15,279 -30.8635857,319 40,319 C110.863586,319 315,345 315,319 C315,293 353,255 315,255 C277,255 192,255 150,255 C108,255 284,141 315,111 C346,81 371,47 331,19 C291,-9 151.551014,-0.877679285 15,19 Z" id="path-2"></path>
        <path d="M88,0 C85.2777754,37.1204769 69.8518358,58.3968477 41.7221813,63.8291126 C-0.472300395,71.97751 -7.27786196,35.3097219 6.33326117,24.4451921 C19.9443843,13.5806623 28.5833586,16.3903841 44,24.4451921 C54.2777609,29.815064 68.9444276,21.6666667 88,0 Z" id="path-4"></path>
    </defs>
    <g id="Symbols" stroke="none" stroke-width="1" fill="none" fill-rule="evenodd">
        <g id="letter/z" transform="translate(-50.000000, -20.000000)">
            <g id="z" filter="url(#filter-1)" transform="translate(50.000000, 20.000000)">
                <g id="Path-95" transform="translate(0.000000, 18.000000)">
                    <mask id="mask-3" fill="white">
                        <use xlink:href="#path-2"></use>
                    </mask>
                    <use id="Mask" fill="#25C843" xlink:href="#path-2"></use>
                    <path d="M175.128031,219.332015 L178.868262,220.351446 L145.345258,252.655492 L136.835519,208.895069 L174.924933,219.276659 L180.541112,166.850085 L219.615615,186.116201 L175.128031,219.332015 Z M256.014502,252.692789 L234.322872,287.935052 L198.353521,252.993417 L255.794062,252.332856 L253.998351,249.400831 L306.649915,255.041112 L281.383799,294.115615 L256.014502,252.692789 Z M349,72 L316,117 L306,65 L349,72 Z M314.615615,114.116201 L269.900831,147.501649 L275.541112,94.8500847 L314.615615,114.116201 Z M268.615615,149.116201 L223.900831,182.501649 L229.541112,129.850085 L268.615615,149.116201 Z M184.322872,291.935052 L144.353521,252.993417 L197.239191,250.327737 L184.322872,291.935052 Z M308.488259,291.731927 L313.192282,249.854248 L344.357926,266.593827 L308.488259,291.731927 Z" id="Combined-Shape" fill="#000000" opacity="0.4" mask="url(#mask-3)"></path>
                </g>
                <ellipse id="Oval" fill="#000000" opacity="0.5" cx="36.5" cy="54.5" rx="4.5" ry="6.5"></ellipse>
                <g id="horn" transform="translate(248.000000, 4.000000)">
                    <mask id="mask-5" fill="white">
                        <use xlink:href="#path-4"></use>
                    </mask>
                    <use id="Mask" fill="#EED082" xlink:href="#path-4"></use>
                </g>
                <path d="M24,77 C20.6666667,91 22.6666667,100.333333 30,105 C30,95.6666667 33,86.3333333 39,77 L24,77 Z" id="Path-94" fill="#FFFFFF"></path>
                <path d="M53.7555464,78.7522892 C51.9442257,86.1610892 53.0310181,91.1002892 57.0159238,93.5698892 C57.0159238,88.6306892 58.6461124,83.6914892 61.9064898,78.7522892 L53.7555464,78.7522892 Z" id="Path-94-Copy" fill="#FFFFFF" transform="translate(57.406490, 86.161089) rotate(4.000000) translate(-57.406490, -86.161089) "></path>
                <path d="M16,77 C42,75.6666667 65.3333333,77.6666667 86,83 C117,91 125.50053,70 158,70 C189.50053,70 197,74 214,83" id="Path-69" stroke="#126321" stroke-width="3" stroke-linecap="round"></path>
                <ellipse id="Oval-22" fill="#FFFFFF" cx="206" cy="27.5" rx="22" ry="27.5"></ellipse>
                <ellipse id="Oval-2" fill="#000000" cx="210" cy="33" rx="4" ry="13"></ellipse>
                <ellipse id="Oval-3" fill="#FFFFFF" cx="212" cy="31" rx="2" ry="3"></ellipse>
            </g>
        </g>
    </g>
</svg>